%TF.GenerationSoftware,KiCad,Pcbnew,8.0.3-8.0.3-0~ubuntu23.10.1*%
%TF.CreationDate,2024-10-02T13:11:14+03:00*%
%TF.ProjectId,_____ _______,1f3b3042-3020-43e3-913c-3e423e3a2e6b,rev?*%
%TF.SameCoordinates,Original*%
%TF.FileFunction,Copper,L4,Bot*%
%TF.FilePolarity,Positive*%
%FSLAX46Y46*%
G04 Gerber Fmt 4.6, Leading zero omitted, Abs format (unit mm)*
G04 Created by KiCad (PCBNEW 8.0.3-8.0.3-0~ubuntu23.10.1) date 2024-10-02 13:11:14*
%MOMM*%
%LPD*%
G01*
G04 APERTURE LIST*
G04 Aperture macros list*
%AMRoundRect*
0 Rectangle with rounded corners*
0 $1 Rounding radius*
0 $2 $3 $4 $5 $6 $7 $8 $9 X,Y pos of 4 corners*
0 Add a 4 corners polygon primitive as box body*
4,1,4,$2,$3,$4,$5,$6,$7,$8,$9,$2,$3,0*
0 Add four circle primitives for the rounded corners*
1,1,$1+$1,$2,$3*
1,1,$1+$1,$4,$5*
1,1,$1+$1,$6,$7*
1,1,$1+$1,$8,$9*
0 Add four rect primitives between the rounded corners*
20,1,$1+$1,$2,$3,$4,$5,0*
20,1,$1+$1,$4,$5,$6,$7,0*
20,1,$1+$1,$6,$7,$8,$9,0*
20,1,$1+$1,$8,$9,$2,$3,0*%
G04 Aperture macros list end*
%TA.AperFunction,SMDPad,CuDef*%
%ADD10RoundRect,0.250000X-0.250000X-1.750000X0.250000X-1.750000X0.250000X1.750000X-0.250000X1.750000X0*%
%TD*%
%TA.AperFunction,ComponentPad*%
%ADD11C,2.055000*%
%TD*%
%TA.AperFunction,ComponentPad*%
%ADD12R,1.700000X1.700000*%
%TD*%
%TA.AperFunction,ComponentPad*%
%ADD13O,1.700000X1.700000*%
%TD*%
%TA.AperFunction,ComponentPad*%
%ADD14C,7.000000*%
%TD*%
%TA.AperFunction,ViaPad*%
%ADD15C,0.800000*%
%TD*%
%TA.AperFunction,Conductor*%
%ADD16C,0.500000*%
%TD*%
G04 APERTURE END LIST*
D10*
%TO.P,J19,1,Pin_1*%
%TO.N,PTC_Coil_B*%
X146558000Y-83058000D03*
%TD*%
D11*
%TO.P,J13,1,1*%
%TO.N,B*%
X132857240Y-54413250D03*
%TO.P,J13,2,2*%
X132857240Y-49333250D03*
%TD*%
%TO.P,J11,1,1*%
%TO.N,A*%
X174132240Y-73463250D03*
%TO.P,J11,2,2*%
X169052240Y-73463250D03*
%TD*%
%TO.P,J10,1,1*%
%TO.N,B*%
X161432240Y-54413250D03*
%TO.P,J10,2,2*%
X161432240Y-49333250D03*
%TD*%
D12*
%TO.P,J14,1,Pin_1*%
%TO.N,PTC_Coil_A*%
X165877240Y-90608250D03*
D13*
%TO.P,J14,2,Pin_2*%
%TO.N,PTC_Coil_B*%
X163337240Y-90608250D03*
%TO.P,J14,3,Pin_3*%
%TO.N,GNDA*%
X160797240Y-90608250D03*
%TD*%
D11*
%TO.P,J9,1,1*%
%TO.N,C*%
X124602240Y-77908250D03*
%TO.P,J9,2,2*%
X129682240Y-77908250D03*
%TD*%
%TO.P,J1,1,1*%
%TO.N,A*%
X174132240Y-82353250D03*
%TO.P,J1,2,2*%
X169052240Y-82353250D03*
%TD*%
D14*
%TO.P,J15,1,Pin_1*%
%TO.N,B*%
X149352000Y-55372000D03*
%TD*%
%TO.P,J6,1,Pin_1*%
%TO.N,C*%
X134874000Y-67310000D03*
%TD*%
D10*
%TO.P,J21,1,Pin_1*%
%TO.N,GNDA*%
X148336000Y-83058000D03*
%TD*%
D11*
%TO.P,J16,1,1*%
%TO.N,B*%
X137302240Y-54413250D03*
%TO.P,J16,2,2*%
X137302240Y-49333250D03*
%TD*%
D10*
%TO.P,J4,1,Pin_1*%
%TO.N,PTC_Coil_A*%
X152654000Y-83058000D03*
%TD*%
D11*
%TO.P,J8,1,1*%
%TO.N,A*%
X174132240Y-77908250D03*
%TO.P,J8,2,2*%
X169052240Y-77908250D03*
%TD*%
D14*
%TO.P,J18,1,Pin_1*%
%TO.N,A*%
X164084000Y-67310000D03*
%TD*%
D10*
%TO.P,J20,1,Pin_1*%
%TO.N,GNDA*%
X150876000Y-83058000D03*
%TD*%
D11*
%TO.P,J2,1,1*%
%TO.N,C*%
X124602240Y-82353250D03*
%TO.P,J2,2,2*%
X129682240Y-82353250D03*
%TD*%
%TO.P,J3,1,1*%
%TO.N,B*%
X165877240Y-54413250D03*
%TO.P,J3,2,2*%
X165877240Y-49333250D03*
%TD*%
%TO.P,J12,1,1*%
%TO.N,C*%
X124602240Y-73463250D03*
%TO.P,J12,2,2*%
X129682240Y-73463250D03*
%TD*%
D15*
%TO.N,GNDA*%
X149606000Y-83058000D03*
%TD*%
D16*
%TO.N,PTC_Coil_A*%
X153924000Y-89916000D02*
X156210000Y-89916000D01*
X156210000Y-89916000D02*
X157988000Y-88138000D01*
X157988000Y-88138000D02*
X163406990Y-88138000D01*
X163406990Y-88138000D02*
X165877240Y-90608250D01*
X152654000Y-88646000D02*
X153924000Y-89916000D01*
X152654000Y-83058000D02*
X152654000Y-88646000D01*
%TO.N,GNDA*%
X149606000Y-83058000D02*
X150876000Y-83058000D01*
X148336000Y-83058000D02*
X149606000Y-83058000D01*
%TO.N,PTC_Coil_B*%
X161628990Y-88900000D02*
X158496000Y-88900000D01*
X146558000Y-88900000D02*
X146558000Y-83058000D01*
X148274000Y-90616000D02*
X146558000Y-88900000D01*
X163337240Y-90608250D02*
X161628990Y-88900000D01*
X156780000Y-90616000D02*
X148274000Y-90616000D01*
X158496000Y-88900000D02*
X156780000Y-90616000D01*
%TD*%
%TA.AperFunction,Conductor*%
%TO.N,A*%
G36*
X170051853Y-64154685D02*
G01*
X170097608Y-64207489D01*
X170102551Y-64220088D01*
X170237161Y-64627383D01*
X170238524Y-64631780D01*
X170462121Y-65403340D01*
X170463320Y-65407784D01*
X170658130Y-66187126D01*
X170659163Y-66191612D01*
X170824909Y-66977633D01*
X170825775Y-66982154D01*
X170962236Y-67773807D01*
X170962933Y-67778357D01*
X171069910Y-68574480D01*
X171070439Y-68579053D01*
X171146931Y-69369684D01*
X171147431Y-69377292D01*
X171149111Y-69425337D01*
X171150453Y-69433356D01*
X171150333Y-69433376D01*
X171151344Y-69438710D01*
X171151463Y-69438685D01*
X171153146Y-69446630D01*
X171153147Y-69446635D01*
X171153148Y-69446637D01*
X171170645Y-69496153D01*
X171172310Y-69501208D01*
X171187643Y-69551354D01*
X171191015Y-69558751D01*
X171190902Y-69558802D01*
X171193265Y-69563703D01*
X171193373Y-69563649D01*
X171197057Y-69570892D01*
X171226759Y-69614168D01*
X171229676Y-69618620D01*
X171257484Y-69663117D01*
X171262655Y-69669390D01*
X171262561Y-69669467D01*
X171266104Y-69673581D01*
X171266194Y-69673501D01*
X171271629Y-69679545D01*
X171311515Y-69713656D01*
X171315487Y-69717202D01*
X171353868Y-69752991D01*
X171353869Y-69752991D01*
X171353872Y-69752994D01*
X171360484Y-69757710D01*
X171360412Y-69757810D01*
X171364900Y-69760868D01*
X171364967Y-69760766D01*
X171371778Y-69765195D01*
X171419133Y-69787820D01*
X171423889Y-69790219D01*
X171470229Y-69814857D01*
X171477842Y-69817703D01*
X171477798Y-69817818D01*
X171482930Y-69819611D01*
X171482969Y-69819494D01*
X171490686Y-69822006D01*
X171490691Y-69822009D01*
X171542272Y-69831604D01*
X171542293Y-69831608D01*
X171547505Y-69832693D01*
X177648819Y-71241067D01*
X177709713Y-71275326D01*
X177742419Y-71337068D01*
X177744921Y-71363297D01*
X177738623Y-71918405D01*
X177738485Y-71923007D01*
X177687792Y-72967900D01*
X177687484Y-72972493D01*
X177598035Y-74014820D01*
X177597556Y-74019399D01*
X177469481Y-75057651D01*
X177468833Y-75062209D01*
X177302301Y-76095014D01*
X177301484Y-76099545D01*
X177096725Y-77125464D01*
X177095740Y-77129961D01*
X176853045Y-78147548D01*
X176851894Y-78152006D01*
X176571587Y-79159903D01*
X176570271Y-79164315D01*
X176252752Y-80161082D01*
X176251274Y-80165442D01*
X175896954Y-81149784D01*
X175895314Y-81154086D01*
X175504715Y-82124557D01*
X175502917Y-82128795D01*
X175076560Y-83084101D01*
X175074606Y-83088270D01*
X174613078Y-84027096D01*
X174610971Y-84031189D01*
X174114904Y-84952248D01*
X174112646Y-84956260D01*
X173582736Y-85858258D01*
X173580331Y-85862183D01*
X173017300Y-86743896D01*
X173014750Y-86747730D01*
X172419379Y-87607926D01*
X172416689Y-87611662D01*
X171789812Y-88449148D01*
X171786986Y-88452782D01*
X171129417Y-89266464D01*
X171126457Y-89269990D01*
X170439171Y-90058661D01*
X170436082Y-90062076D01*
X169719974Y-90824709D01*
X169716761Y-90828006D01*
X168972837Y-91563531D01*
X168969504Y-91566706D01*
X168198800Y-92274098D01*
X168195351Y-92277148D01*
X167398897Y-92955463D01*
X167395337Y-92958382D01*
X166574285Y-93606636D01*
X166570619Y-93609422D01*
X165726044Y-94226769D01*
X165722278Y-94229416D01*
X164855382Y-94814977D01*
X164851520Y-94817483D01*
X163963453Y-95370481D01*
X163959500Y-95372841D01*
X163051547Y-95892472D01*
X163047509Y-95894684D01*
X162120911Y-96380243D01*
X162116795Y-96382304D01*
X161172778Y-96833149D01*
X161168587Y-96835056D01*
X160208500Y-97250540D01*
X160204242Y-97252290D01*
X159229362Y-97631860D01*
X159225041Y-97633450D01*
X158236788Y-97976554D01*
X158232412Y-97977983D01*
X157232062Y-98284177D01*
X157227635Y-98285442D01*
X156216666Y-98554276D01*
X156212196Y-98555377D01*
X155191873Y-98786513D01*
X155187365Y-98787446D01*
X154159224Y-98980536D01*
X154154684Y-98981302D01*
X153120063Y-99136096D01*
X153115498Y-99136693D01*
X152075811Y-99252977D01*
X152071226Y-99253403D01*
X151989247Y-99259501D01*
X151920932Y-99244844D01*
X151871387Y-99195580D01*
X151856340Y-99127349D01*
X151880571Y-99061816D01*
X151901381Y-99039992D01*
X152026864Y-98937012D01*
X152277012Y-98686864D01*
X152501436Y-98413402D01*
X152697976Y-98119259D01*
X152864739Y-97807269D01*
X153000118Y-97480435D01*
X153102809Y-97141905D01*
X153102811Y-97141895D01*
X153102814Y-97141884D01*
X153137663Y-96966679D01*
X153171825Y-96794940D01*
X153206500Y-96442881D01*
X153206500Y-96089119D01*
X153171825Y-95737060D01*
X153142496Y-95589614D01*
X153102814Y-95390115D01*
X153102811Y-95390104D01*
X153102810Y-95390101D01*
X153102809Y-95390095D01*
X153000118Y-95051565D01*
X152864739Y-94724731D01*
X152833375Y-94666054D01*
X152697982Y-94412752D01*
X152697981Y-94412750D01*
X152697976Y-94412741D01*
X152501436Y-94118598D01*
X152277012Y-93845136D01*
X152277011Y-93845135D01*
X152277007Y-93845130D01*
X152157875Y-93725998D01*
X154013710Y-93725998D01*
X154013710Y-93726001D01*
X154033480Y-94002417D01*
X154033481Y-94002424D01*
X154086290Y-94245182D01*
X154092386Y-94273206D01*
X154147823Y-94421837D01*
X154189233Y-94532861D01*
X154322038Y-94776075D01*
X154322043Y-94776083D01*
X154488108Y-94997921D01*
X154488124Y-94997939D01*
X154684060Y-95193875D01*
X154684078Y-95193891D01*
X154905916Y-95359956D01*
X154905924Y-95359961D01*
X155149138Y-95492766D01*
X155149137Y-95492766D01*
X155149141Y-95492767D01*
X155149144Y-95492769D01*
X155408794Y-95589614D01*
X155679583Y-95648520D01*
X155936229Y-95666875D01*
X155955999Y-95668290D01*
X155956000Y-95668290D01*
X155956001Y-95668290D01*
X155974451Y-95666970D01*
X156232417Y-95648520D01*
X156503206Y-95589614D01*
X156762856Y-95492769D01*
X157006081Y-95359958D01*
X157227929Y-95193885D01*
X157423885Y-94997929D01*
X157589958Y-94776081D01*
X157722769Y-94532856D01*
X157819614Y-94273206D01*
X157878520Y-94002417D01*
X157898290Y-93726000D01*
X157878520Y-93449583D01*
X157819614Y-93178794D01*
X157722769Y-92919144D01*
X157654865Y-92794788D01*
X157589961Y-92675924D01*
X157589956Y-92675916D01*
X157423891Y-92454078D01*
X157423875Y-92454060D01*
X157227939Y-92258124D01*
X157227921Y-92258108D01*
X157006083Y-92092043D01*
X157006075Y-92092038D01*
X156762861Y-91959233D01*
X156762862Y-91959233D01*
X156712301Y-91940374D01*
X156503206Y-91862386D01*
X156503199Y-91862384D01*
X156503198Y-91862384D01*
X156232424Y-91803481D01*
X156232417Y-91803480D01*
X155956001Y-91783710D01*
X155955999Y-91783710D01*
X155679582Y-91803480D01*
X155679575Y-91803481D01*
X155408801Y-91862384D01*
X155408797Y-91862385D01*
X155408794Y-91862386D01*
X155221916Y-91932087D01*
X155149138Y-91959233D01*
X154905924Y-92092038D01*
X154905916Y-92092043D01*
X154684078Y-92258108D01*
X154684060Y-92258124D01*
X154488124Y-92454060D01*
X154488108Y-92454078D01*
X154322043Y-92675916D01*
X154322038Y-92675924D01*
X154189233Y-92919138D01*
X154175685Y-92955463D01*
X154092386Y-93178794D01*
X154092385Y-93178797D01*
X154092384Y-93178801D01*
X154033481Y-93449575D01*
X154033480Y-93449582D01*
X154013710Y-93725998D01*
X152157875Y-93725998D01*
X152026869Y-93594992D01*
X151753407Y-93370568D01*
X151753406Y-93370567D01*
X151753402Y-93370564D01*
X151459259Y-93174024D01*
X151459254Y-93174021D01*
X151459247Y-93174017D01*
X151147276Y-93007264D01*
X151147271Y-93007262D01*
X150820436Y-92871882D01*
X150695210Y-92833895D01*
X150481905Y-92769191D01*
X150481900Y-92769190D01*
X150340808Y-92741124D01*
X150278897Y-92708739D01*
X150244323Y-92648023D01*
X150241000Y-92619507D01*
X150241000Y-91490500D01*
X150260685Y-91423461D01*
X150313489Y-91377706D01*
X150365000Y-91366500D01*
X156853920Y-91366500D01*
X156951462Y-91347096D01*
X156998913Y-91337658D01*
X157135495Y-91281084D01*
X157187954Y-91246032D01*
X157258416Y-91198952D01*
X158770548Y-89686818D01*
X158831871Y-89653334D01*
X158858229Y-89650500D01*
X159581006Y-89650500D01*
X159648045Y-89670185D01*
X159693800Y-89722989D01*
X159703744Y-89792147D01*
X159682581Y-89845621D01*
X159668663Y-89865500D01*
X159623203Y-89930423D01*
X159523338Y-90144585D01*
X159523334Y-90144594D01*
X159462178Y-90372836D01*
X159462176Y-90372846D01*
X159441581Y-90608249D01*
X159441581Y-90608250D01*
X159462176Y-90843653D01*
X159462178Y-90843663D01*
X159523334Y-91071905D01*
X159523336Y-91071909D01*
X159523337Y-91071913D01*
X159582578Y-91198955D01*
X159623205Y-91286080D01*
X159623207Y-91286084D01*
X159687362Y-91377706D01*
X159758745Y-91479651D01*
X159925839Y-91646745D01*
X160022624Y-91714515D01*
X160119405Y-91782282D01*
X160119407Y-91782283D01*
X160119410Y-91782285D01*
X160333577Y-91882153D01*
X160561832Y-91943313D01*
X160743794Y-91959233D01*
X160797239Y-91963909D01*
X160797240Y-91963909D01*
X160797241Y-91963909D01*
X160836474Y-91960476D01*
X161032648Y-91943313D01*
X161260903Y-91882153D01*
X161475070Y-91782285D01*
X161668641Y-91646745D01*
X161835735Y-91479651D01*
X161965665Y-91294092D01*
X162020242Y-91250467D01*
X162089740Y-91243273D01*
X162152095Y-91274796D01*
X162168815Y-91294092D01*
X162298740Y-91479645D01*
X162298745Y-91479651D01*
X162465839Y-91646745D01*
X162562624Y-91714515D01*
X162659405Y-91782282D01*
X162659407Y-91782283D01*
X162659410Y-91782285D01*
X162873577Y-91882153D01*
X163101832Y-91943313D01*
X163283794Y-91959233D01*
X163337239Y-91963909D01*
X163337240Y-91963909D01*
X163337241Y-91963909D01*
X163376474Y-91960476D01*
X163572648Y-91943313D01*
X163800903Y-91882153D01*
X164015070Y-91782285D01*
X164208641Y-91646745D01*
X164330569Y-91524816D01*
X164391888Y-91491334D01*
X164461580Y-91496318D01*
X164517514Y-91538189D01*
X164534429Y-91569167D01*
X164583442Y-91700578D01*
X164583446Y-91700585D01*
X164669692Y-91815794D01*
X164669695Y-91815797D01*
X164784904Y-91902043D01*
X164784911Y-91902047D01*
X164919757Y-91952341D01*
X164919756Y-91952341D01*
X164926684Y-91953085D01*
X164979367Y-91958750D01*
X166775112Y-91958749D01*
X166834723Y-91952341D01*
X166969571Y-91902046D01*
X167084786Y-91815796D01*
X167171036Y-91700581D01*
X167221331Y-91565733D01*
X167227740Y-91506123D01*
X167227739Y-89710378D01*
X167221331Y-89650767D01*
X167221231Y-89650500D01*
X167171037Y-89515921D01*
X167171033Y-89515914D01*
X167084787Y-89400705D01*
X167084784Y-89400702D01*
X166969575Y-89314456D01*
X166969568Y-89314452D01*
X166834722Y-89264158D01*
X166834723Y-89264158D01*
X166775123Y-89257751D01*
X166775121Y-89257750D01*
X166775113Y-89257750D01*
X166775105Y-89257750D01*
X165639470Y-89257750D01*
X165572431Y-89238065D01*
X165551789Y-89221431D01*
X163885411Y-87555052D01*
X163885404Y-87555046D01*
X163811719Y-87505812D01*
X163811719Y-87505813D01*
X163762481Y-87472913D01*
X163625907Y-87416343D01*
X163625897Y-87416340D01*
X163480910Y-87387500D01*
X163480908Y-87387500D01*
X157914082Y-87387500D01*
X157914076Y-87387500D01*
X157885242Y-87393234D01*
X157885243Y-87393235D01*
X157769093Y-87416339D01*
X157769083Y-87416342D01*
X157689081Y-87449479D01*
X157689082Y-87449480D01*
X157632502Y-87472917D01*
X157583269Y-87505813D01*
X157509588Y-87555044D01*
X157509580Y-87555050D01*
X156668181Y-88396450D01*
X156606858Y-88429935D01*
X156537166Y-88424951D01*
X156481233Y-88383079D01*
X156456816Y-88317615D01*
X156456500Y-88308769D01*
X156456500Y-77464163D01*
X156476185Y-77397124D01*
X156490324Y-77379050D01*
X156528731Y-77338358D01*
X156917059Y-76870012D01*
X157274451Y-76377654D01*
X157599428Y-75863323D01*
X157890643Y-75329151D01*
X158146889Y-74777351D01*
X158367106Y-74210208D01*
X158550379Y-73630073D01*
X158570465Y-73548568D01*
X158695947Y-73039364D01*
X158695951Y-73039347D01*
X158803217Y-72440484D01*
X158871734Y-71835958D01*
X158899509Y-71263512D01*
X158901217Y-71228301D01*
X158901217Y-71228297D01*
X158901218Y-71228277D01*
X158891546Y-70619957D01*
X158842759Y-70013521D01*
X158755058Y-69411479D01*
X158628807Y-68816326D01*
X158464530Y-68230528D01*
X158262906Y-67656513D01*
X158024772Y-67096658D01*
X157751113Y-66553282D01*
X157751109Y-66553276D01*
X157751106Y-66553269D01*
X157536121Y-66187126D01*
X157443063Y-66028638D01*
X157443056Y-66028628D01*
X157443042Y-66028605D01*
X157101908Y-65524911D01*
X157101900Y-65524899D01*
X157101893Y-65524891D01*
X157101886Y-65524880D01*
X156729047Y-65044165D01*
X156729045Y-65044162D01*
X156729036Y-65044151D01*
X156457249Y-64736795D01*
X156326036Y-64588410D01*
X156326000Y-64588371D01*
X156083103Y-64346947D01*
X156049431Y-64285726D01*
X156054204Y-64216020D01*
X156095905Y-64159959D01*
X156161295Y-64135343D01*
X156170517Y-64135000D01*
X169984814Y-64135000D01*
X170051853Y-64154685D01*
G37*
%TD.AperFunction*%
%TD*%
%TA.AperFunction,Conductor*%
%TO.N,B*%
G36*
X157362503Y-43771771D02*
G01*
X157842750Y-43910654D01*
X157847006Y-43911969D01*
X158826574Y-44234354D01*
X158830835Y-44235842D01*
X159798015Y-44593696D01*
X159802186Y-44595326D01*
X160755715Y-44988181D01*
X160759825Y-44989964D01*
X161161236Y-45172721D01*
X161698384Y-45417278D01*
X161702457Y-45419223D01*
X162624809Y-45880431D01*
X162628777Y-45882506D01*
X163533764Y-46377030D01*
X163537656Y-46379249D01*
X164424024Y-46906407D01*
X164427836Y-46908769D01*
X165294425Y-47467870D01*
X165298111Y-47470345D01*
X165860311Y-47862782D01*
X166143710Y-48060605D01*
X166147367Y-48063257D01*
X166217026Y-48115756D01*
X166970960Y-48683968D01*
X166974487Y-48686729D01*
X167036726Y-48737294D01*
X167774847Y-49336966D01*
X167778301Y-49339877D01*
X168554495Y-50018877D01*
X168557840Y-50021913D01*
X169308751Y-50728704D01*
X169311984Y-50731860D01*
X169618903Y-51042592D01*
X170026962Y-51455722D01*
X170036666Y-51465546D01*
X170039774Y-51468809D01*
X170074233Y-51506338D01*
X170737244Y-52228399D01*
X170740230Y-52231772D01*
X170765580Y-52261483D01*
X171409581Y-53016277D01*
X171412450Y-53019766D01*
X172052780Y-53828129D01*
X172055520Y-53831721D01*
X172665973Y-54662863D01*
X172668580Y-54666552D01*
X172780078Y-54830561D01*
X172801490Y-54897069D01*
X172783545Y-54964595D01*
X172731942Y-55011700D01*
X172663064Y-55023428D01*
X172641538Y-55018936D01*
X172325905Y-54923191D01*
X172325904Y-54923190D01*
X172325895Y-54923188D01*
X172325884Y-54923185D01*
X171978946Y-54854176D01*
X171978929Y-54854173D01*
X171712700Y-54827952D01*
X171626881Y-54819500D01*
X171273119Y-54819500D01*
X171193748Y-54827317D01*
X170921070Y-54854173D01*
X170921053Y-54854176D01*
X170574115Y-54923185D01*
X170574104Y-54923188D01*
X170235563Y-55025882D01*
X169908728Y-55161262D01*
X169908723Y-55161264D01*
X169596752Y-55328017D01*
X169596734Y-55328028D01*
X169302606Y-55524558D01*
X169302592Y-55524568D01*
X169029130Y-55748992D01*
X168778992Y-55999130D01*
X168554568Y-56272592D01*
X168554558Y-56272606D01*
X168358028Y-56566734D01*
X168358017Y-56566752D01*
X168191264Y-56878723D01*
X168191262Y-56878728D01*
X168055882Y-57205563D01*
X167953188Y-57544104D01*
X167953185Y-57544115D01*
X167884176Y-57891053D01*
X167884173Y-57891070D01*
X167849500Y-58243122D01*
X167849500Y-58596877D01*
X167884173Y-58948929D01*
X167884176Y-58948946D01*
X167953185Y-59295884D01*
X167953188Y-59295895D01*
X168055882Y-59634436D01*
X168119954Y-59789118D01*
X168174349Y-59920441D01*
X168191262Y-59961271D01*
X168191264Y-59961276D01*
X168358017Y-60273247D01*
X168358028Y-60273265D01*
X168554558Y-60567393D01*
X168554568Y-60567407D01*
X168778992Y-60840869D01*
X169029130Y-61091007D01*
X169029135Y-61091011D01*
X169029136Y-61091012D01*
X169302598Y-61315436D01*
X169389147Y-61373266D01*
X169599272Y-61513667D01*
X169598553Y-61514742D01*
X169642480Y-61562306D01*
X169654608Y-61631115D01*
X169627610Y-61695558D01*
X169595443Y-61723528D01*
X169590616Y-61726440D01*
X169555331Y-61754614D01*
X169548729Y-61759535D01*
X169511677Y-61785285D01*
X169510709Y-61786431D01*
X169508635Y-61788884D01*
X169491317Y-61805727D01*
X169490482Y-61806395D01*
X169487628Y-61808674D01*
X169460850Y-61845002D01*
X169455747Y-61851464D01*
X169426614Y-61885936D01*
X169426612Y-61885940D01*
X169424608Y-61890199D01*
X169412229Y-61910966D01*
X169409437Y-61914753D01*
X169392970Y-61956784D01*
X169389713Y-61964348D01*
X169370497Y-62005181D01*
X169369662Y-62009821D01*
X169363086Y-62033063D01*
X169361365Y-62037454D01*
X169361365Y-62037457D01*
X169356336Y-62082322D01*
X169355148Y-62090467D01*
X169347157Y-62134878D01*
X169347551Y-62139578D01*
X169347215Y-62163729D01*
X169346689Y-62168420D01*
X169346690Y-62168424D01*
X169353445Y-62213059D01*
X169354406Y-62221242D01*
X169358179Y-62266198D01*
X169358180Y-62266202D01*
X169359776Y-62270635D01*
X169365705Y-62294060D01*
X169366411Y-62298723D01*
X169366413Y-62298729D01*
X169366414Y-62298730D01*
X169384478Y-62340065D01*
X169387525Y-62347718D01*
X169402817Y-62390197D01*
X169402818Y-62390199D01*
X169402819Y-62390200D01*
X169404347Y-62393162D01*
X169415089Y-62412808D01*
X169701651Y-63103169D01*
X169703336Y-63107452D01*
X169739922Y-63205745D01*
X169744859Y-63275440D01*
X169711333Y-63336740D01*
X169649987Y-63370184D01*
X169623711Y-63373000D01*
X164816327Y-63373000D01*
X164798134Y-63371658D01*
X164562734Y-63336740D01*
X164476599Y-63323963D01*
X164476597Y-63323962D01*
X164476591Y-63323962D01*
X164084000Y-63304675D01*
X163691409Y-63323962D01*
X163691403Y-63323962D01*
X163691400Y-63323963D01*
X163523256Y-63348905D01*
X163369865Y-63371658D01*
X163351673Y-63373000D01*
X154966516Y-63373000D01*
X154899477Y-63353315D01*
X154897607Y-63352090D01*
X154447498Y-63051221D01*
X153920991Y-62746366D01*
X153375964Y-62476015D01*
X152814686Y-62241291D01*
X152814684Y-62241290D01*
X152239456Y-62043159D01*
X152239417Y-62043147D01*
X151652669Y-61882443D01*
X151652651Y-61882439D01*
X151056732Y-61759806D01*
X150454186Y-61675768D01*
X149847467Y-61630667D01*
X149239112Y-61624692D01*
X149239093Y-61624693D01*
X149165550Y-61628709D01*
X148631597Y-61657869D01*
X148027500Y-61730058D01*
X147429316Y-61840958D01*
X146839465Y-61990123D01*
X146839460Y-61990124D01*
X146260452Y-62176920D01*
X145694672Y-62400573D01*
X145694670Y-62400574D01*
X145144426Y-62660174D01*
X145144425Y-62660174D01*
X144612051Y-62954621D01*
X144099693Y-63282725D01*
X144009678Y-63348905D01*
X143944005Y-63372756D01*
X143936228Y-63373000D01*
X135606327Y-63373000D01*
X135588134Y-63371658D01*
X135352734Y-63336740D01*
X135266599Y-63323963D01*
X135266597Y-63323962D01*
X135266591Y-63323962D01*
X134874000Y-63304675D01*
X134481409Y-63323962D01*
X134481403Y-63323962D01*
X134481400Y-63323963D01*
X134313256Y-63348905D01*
X134159865Y-63371658D01*
X134141673Y-63373000D01*
X129277265Y-63373000D01*
X129210226Y-63353315D01*
X129164471Y-63300511D01*
X129154527Y-63231353D01*
X129161054Y-63205745D01*
X129188525Y-63131940D01*
X129197660Y-63107394D01*
X129199343Y-63103119D01*
X129315002Y-62824482D01*
X129485481Y-62413776D01*
X129493634Y-62398930D01*
X129493618Y-62398922D01*
X129497369Y-62391713D01*
X129497369Y-62391711D01*
X129497372Y-62391708D01*
X129513182Y-62348251D01*
X129516056Y-62341065D01*
X129534567Y-62298712D01*
X129535109Y-62295125D01*
X129541192Y-62271265D01*
X129542428Y-62267868D01*
X129542427Y-62267868D01*
X129542429Y-62267866D01*
X129546451Y-62221820D01*
X129547372Y-62214098D01*
X129554288Y-62168412D01*
X129553883Y-62164807D01*
X129553583Y-62140191D01*
X129553899Y-62136582D01*
X129545872Y-62091095D01*
X129544757Y-62083358D01*
X129540252Y-62043154D01*
X129539613Y-62037447D01*
X129538287Y-62034063D01*
X129531629Y-62010374D01*
X129530999Y-62006803D01*
X129511458Y-61964912D01*
X129508389Y-61957750D01*
X129508011Y-61956784D01*
X129491541Y-61914744D01*
X129491540Y-61914743D01*
X129491541Y-61914743D01*
X129489391Y-61911827D01*
X129476823Y-61890662D01*
X129475289Y-61887372D01*
X129475287Y-61887370D01*
X129475287Y-61887369D01*
X129445586Y-61851981D01*
X129440751Y-61845838D01*
X129413350Y-61808663D01*
X129410509Y-61806395D01*
X129392896Y-61789206D01*
X129390568Y-61786432D01*
X129388931Y-61785286D01*
X129352707Y-61759927D01*
X129346481Y-61755270D01*
X129317035Y-61731758D01*
X129276930Y-61674545D01*
X129274124Y-61604731D01*
X129309507Y-61544483D01*
X129335951Y-61525503D01*
X129361259Y-61511976D01*
X129655402Y-61315436D01*
X129928864Y-61091012D01*
X130179012Y-60840864D01*
X130403436Y-60567402D01*
X130599976Y-60273259D01*
X130766739Y-59961269D01*
X130902118Y-59634435D01*
X131004809Y-59295905D01*
X131004811Y-59295895D01*
X131004814Y-59295884D01*
X131050311Y-59067151D01*
X131073825Y-58948940D01*
X131108500Y-58596881D01*
X131108500Y-58243119D01*
X131073825Y-57891060D01*
X131048088Y-57761674D01*
X131004814Y-57544115D01*
X131004811Y-57544104D01*
X131004810Y-57544101D01*
X131004809Y-57544095D01*
X130902118Y-57205565D01*
X130766739Y-56878731D01*
X130599976Y-56566741D01*
X130403436Y-56272598D01*
X130179012Y-55999136D01*
X130179011Y-55999135D01*
X130179007Y-55999130D01*
X129928869Y-55748992D01*
X129655407Y-55524568D01*
X129655406Y-55524567D01*
X129655402Y-55524564D01*
X129361259Y-55328024D01*
X129361254Y-55328021D01*
X129361247Y-55328017D01*
X129049276Y-55161264D01*
X129049271Y-55161262D01*
X128722436Y-55025882D01*
X128383895Y-54923188D01*
X128383884Y-54923185D01*
X128036946Y-54854176D01*
X128036929Y-54854173D01*
X127770700Y-54827952D01*
X127684881Y-54819500D01*
X127331119Y-54819500D01*
X127251748Y-54827317D01*
X126979070Y-54854173D01*
X126979053Y-54854176D01*
X126632115Y-54923185D01*
X126632104Y-54923188D01*
X126485825Y-54967561D01*
X126293565Y-55025882D01*
X126289297Y-55027650D01*
X126231819Y-55051458D01*
X126162349Y-55058926D01*
X126099870Y-55027650D01*
X126064218Y-54967561D01*
X126066713Y-54897736D01*
X126081760Y-54867271D01*
X126206443Y-54683525D01*
X126209025Y-54679863D01*
X126221481Y-54662863D01*
X126813797Y-53854444D01*
X126816479Y-53850919D01*
X127450698Y-53047862D01*
X127453529Y-53044409D01*
X128116338Y-52264799D01*
X128119223Y-52261526D01*
X128809820Y-51506313D01*
X128812856Y-51503111D01*
X129530253Y-50773375D01*
X129533402Y-50770286D01*
X130276657Y-50066980D01*
X130279938Y-50063985D01*
X131048192Y-49387925D01*
X131051533Y-49385091D01*
X131843661Y-48737269D01*
X131847118Y-48734544D01*
X132662155Y-48115745D01*
X132665745Y-48113122D01*
X133502569Y-47524199D01*
X133506229Y-47521721D01*
X134363796Y-46963408D01*
X134367550Y-46961059D01*
X135244752Y-46434079D01*
X135248582Y-46431872D01*
X136144207Y-45936950D01*
X136148133Y-45934872D01*
X137061046Y-45472637D01*
X137065057Y-45470696D01*
X137994139Y-45041713D01*
X137998143Y-45039951D01*
X138942130Y-44644810D01*
X138946190Y-44643196D01*
X139903825Y-44282421D01*
X139907946Y-44280952D01*
X140877992Y-43955010D01*
X140882198Y-43953681D01*
X141350350Y-43814987D01*
X141420217Y-43814819D01*
X141479086Y-43852451D01*
X141498721Y-43883157D01*
X144550431Y-50690820D01*
X144558504Y-50715453D01*
X144558553Y-50715684D01*
X144558555Y-50715688D01*
X144581166Y-50759795D01*
X144583965Y-50765627D01*
X144604240Y-50810857D01*
X144604243Y-50810861D01*
X144604398Y-50811052D01*
X144618560Y-50832739D01*
X144618670Y-50832954D01*
X144618675Y-50832961D01*
X144651932Y-50869714D01*
X144656144Y-50874620D01*
X144687437Y-50913064D01*
X144687440Y-50913066D01*
X144687442Y-50913068D01*
X144687622Y-50913198D01*
X144706935Y-50930500D01*
X144707092Y-50930674D01*
X144707094Y-50930676D01*
X144748745Y-50957578D01*
X144754098Y-50961238D01*
X144770855Y-50973347D01*
X144794249Y-50990254D01*
X144794462Y-50990335D01*
X144817601Y-51002051D01*
X144817797Y-51002178D01*
X144865025Y-51017394D01*
X144871068Y-51019518D01*
X144917400Y-51037168D01*
X144917626Y-51037191D01*
X144943009Y-51042520D01*
X144943232Y-51042592D01*
X144992742Y-51045062D01*
X144999187Y-51045553D01*
X145048496Y-51050611D01*
X145048720Y-51050575D01*
X145074617Y-51049151D01*
X145074852Y-51049163D01*
X145123311Y-51038736D01*
X145129664Y-51037542D01*
X145178605Y-51029664D01*
X145178609Y-51029662D01*
X145186394Y-51027335D01*
X145186550Y-51027859D01*
X145200423Y-51023468D01*
X145971137Y-50874301D01*
X145976121Y-50873443D01*
X146811428Y-50747441D01*
X146816504Y-50746783D01*
X147656265Y-50655519D01*
X147661337Y-50655074D01*
X148504227Y-50598693D01*
X148509317Y-50598460D01*
X149353753Y-50577067D01*
X149358861Y-50577044D01*
X150203513Y-50590675D01*
X150208587Y-50590862D01*
X151051920Y-50639493D01*
X151056992Y-50639890D01*
X151897604Y-50723438D01*
X151902637Y-50724043D01*
X152739100Y-50842369D01*
X152744098Y-50843182D01*
X153514065Y-50984876D01*
X153527144Y-50988026D01*
X153533556Y-50989942D01*
X153533559Y-50989944D01*
X153558934Y-50994029D01*
X153585314Y-50998277D01*
X153590568Y-50999239D01*
X153603359Y-51001868D01*
X153641938Y-51009798D01*
X153641941Y-51009797D01*
X153641942Y-51009798D01*
X153650052Y-51010382D01*
X153650043Y-51010499D01*
X153655535Y-51010775D01*
X153655539Y-51010657D01*
X153663660Y-51010889D01*
X153663668Y-51010891D01*
X153715839Y-51005540D01*
X153721118Y-51005113D01*
X153773492Y-51002017D01*
X153773494Y-51002016D01*
X153773497Y-51002016D01*
X153781478Y-51000482D01*
X153781500Y-51000597D01*
X153786884Y-50999440D01*
X153786857Y-50999326D01*
X153794756Y-50997449D01*
X153794764Y-50997449D01*
X153843778Y-50978775D01*
X153848774Y-50976994D01*
X153898550Y-50960452D01*
X153898558Y-50960446D01*
X153905860Y-50956904D01*
X153905911Y-50957010D01*
X153910818Y-50954497D01*
X153910763Y-50954394D01*
X153917908Y-50950536D01*
X153917915Y-50950534D01*
X153960431Y-50919807D01*
X153964788Y-50916799D01*
X153995819Y-50896350D01*
X154008585Y-50887939D01*
X154008586Y-50887937D01*
X154008589Y-50887936D01*
X154008590Y-50887933D01*
X154014729Y-50882619D01*
X154014806Y-50882708D01*
X154018899Y-50879007D01*
X154018818Y-50878922D01*
X154024722Y-50873347D01*
X154024727Y-50873344D01*
X154057844Y-50832658D01*
X154061263Y-50828639D01*
X154096110Y-50789412D01*
X154096112Y-50789406D01*
X154100669Y-50782682D01*
X154100766Y-50782748D01*
X154103755Y-50778125D01*
X154103654Y-50778063D01*
X154107914Y-50771147D01*
X154107921Y-50771140D01*
X154129393Y-50723237D01*
X154131626Y-50718531D01*
X154155149Y-50671592D01*
X154155150Y-50671589D01*
X154157812Y-50663909D01*
X154157921Y-50663946D01*
X154162919Y-50648449D01*
X157214909Y-43840165D01*
X157260292Y-43787046D01*
X157327193Y-43766894D01*
X157362503Y-43771771D01*
G37*
%TD.AperFunction*%
%TD*%
%TA.AperFunction,Conductor*%
%TO.N,C*%
G36*
X142795937Y-64154685D02*
G01*
X142841692Y-64207489D01*
X142851636Y-64276647D01*
X142822611Y-64340203D01*
X142814568Y-64348647D01*
X142703700Y-64454596D01*
X142703686Y-64454611D01*
X142291801Y-64902362D01*
X142291796Y-64902369D01*
X141909574Y-65375685D01*
X141909571Y-65375690D01*
X141909568Y-65375694D01*
X141814200Y-65510716D01*
X141558572Y-65872640D01*
X141240295Y-66391104D01*
X141240281Y-66391128D01*
X140956004Y-66929022D01*
X140956003Y-66929025D01*
X140706930Y-67484069D01*
X140706918Y-67484097D01*
X140494057Y-68054048D01*
X140318313Y-68636484D01*
X140318305Y-68636512D01*
X140180394Y-69229060D01*
X140180390Y-69229076D01*
X140080890Y-69829234D01*
X140080889Y-69829238D01*
X140020199Y-70434620D01*
X139998580Y-71042637D01*
X140016122Y-71650754D01*
X140072755Y-72256531D01*
X140072758Y-72256559D01*
X140168235Y-72857365D01*
X140168239Y-72857389D01*
X140302183Y-73450870D01*
X140474026Y-74034486D01*
X140639986Y-74488106D01*
X140683059Y-74605837D01*
X140683067Y-74605855D01*
X140928414Y-75162556D01*
X141209085Y-75702351D01*
X141523902Y-76222972D01*
X141523903Y-76222973D01*
X141871544Y-76722239D01*
X141871552Y-76722249D01*
X142250606Y-77198131D01*
X142250614Y-77198140D01*
X142250615Y-77198141D01*
X142659490Y-77648641D01*
X142659499Y-77648650D01*
X142688666Y-77676908D01*
X142723118Y-77737693D01*
X142726384Y-77765634D01*
X142755379Y-88602124D01*
X142754134Y-88619984D01*
X142751211Y-88640449D01*
X142754709Y-88669481D01*
X142755599Y-88683976D01*
X142755678Y-88713231D01*
X142755678Y-88713232D01*
X142761081Y-88733184D01*
X142764501Y-88750758D01*
X142766974Y-88771285D01*
X142766975Y-88771288D01*
X142777869Y-88798429D01*
X142782479Y-88812198D01*
X142790127Y-88840433D01*
X142800509Y-88858304D01*
X142808364Y-88874400D01*
X142816065Y-88893586D01*
X142833617Y-88916989D01*
X142841635Y-88929099D01*
X142856320Y-88954380D01*
X142856325Y-88954386D01*
X142870964Y-88968947D01*
X142882723Y-88982470D01*
X142931491Y-89047505D01*
X142931496Y-89047510D01*
X143110539Y-89226280D01*
X143313180Y-89377777D01*
X143535301Y-89498925D01*
X143772385Y-89587259D01*
X143772386Y-89587259D01*
X143772391Y-89587261D01*
X144019632Y-89640991D01*
X144272000Y-89659023D01*
X144524368Y-89640991D01*
X144771609Y-89587261D01*
X145008699Y-89498925D01*
X145230820Y-89377777D01*
X145433461Y-89226280D01*
X145612504Y-89047510D01*
X145612512Y-89047498D01*
X145615407Y-89044165D01*
X145616485Y-89045100D01*
X145667489Y-89006963D01*
X145737184Y-89002017D01*
X145798489Y-89035536D01*
X145831940Y-89096878D01*
X145832376Y-89098977D01*
X145836340Y-89118907D01*
X145836343Y-89118917D01*
X145892914Y-89255492D01*
X145925812Y-89304727D01*
X145925813Y-89304730D01*
X145975046Y-89378414D01*
X145975052Y-89378421D01*
X147286551Y-90689918D01*
X147691048Y-91094415D01*
X147691049Y-91094416D01*
X147795584Y-91198951D01*
X147795585Y-91198952D01*
X147918498Y-91281080D01*
X147918511Y-91281087D01*
X148055082Y-91337656D01*
X148055087Y-91337658D01*
X148055091Y-91337658D01*
X148055092Y-91337659D01*
X148200079Y-91366500D01*
X148720000Y-91366500D01*
X148787039Y-91386185D01*
X148832794Y-91438989D01*
X148844000Y-91490500D01*
X148844000Y-92644770D01*
X148824315Y-92711809D01*
X148771511Y-92757564D01*
X148744192Y-92766387D01*
X148730099Y-92769190D01*
X148730097Y-92769190D01*
X148730095Y-92769191D01*
X148645712Y-92794788D01*
X148391563Y-92871882D01*
X148064728Y-93007262D01*
X148064723Y-93007264D01*
X147752752Y-93174017D01*
X147752734Y-93174028D01*
X147458606Y-93370558D01*
X147458592Y-93370568D01*
X147185130Y-93594992D01*
X146934992Y-93845130D01*
X146710568Y-94118592D01*
X146710558Y-94118606D01*
X146514028Y-94412734D01*
X146514017Y-94412752D01*
X146347264Y-94724723D01*
X146347262Y-94724728D01*
X146211882Y-95051563D01*
X146109188Y-95390104D01*
X146109185Y-95390115D01*
X146040176Y-95737053D01*
X146040173Y-95737070D01*
X146005500Y-96089122D01*
X146005500Y-96442877D01*
X146040173Y-96794929D01*
X146040176Y-96794946D01*
X146109185Y-97141884D01*
X146109188Y-97141895D01*
X146211882Y-97480436D01*
X146347262Y-97807271D01*
X146347264Y-97807276D01*
X146514017Y-98119247D01*
X146514028Y-98119265D01*
X146710558Y-98413393D01*
X146710568Y-98413407D01*
X146934992Y-98686869D01*
X147185130Y-98937007D01*
X147341613Y-99065429D01*
X147380947Y-99123174D01*
X147382818Y-99193019D01*
X147346631Y-99252787D01*
X147283875Y-99283503D01*
X147253748Y-99284940D01*
X146829350Y-99253364D01*
X146824765Y-99252937D01*
X145785133Y-99136643D01*
X145780568Y-99136047D01*
X144745918Y-98981234D01*
X144741379Y-98980468D01*
X143713224Y-98787361D01*
X143708715Y-98786427D01*
X142688442Y-98555287D01*
X142683972Y-98554187D01*
X141672948Y-98285322D01*
X141668522Y-98284056D01*
X140668217Y-97977860D01*
X140663840Y-97976431D01*
X139675576Y-97633308D01*
X139671256Y-97631718D01*
X138696399Y-97252141D01*
X138692140Y-97250391D01*
X137732040Y-96834885D01*
X137727850Y-96832979D01*
X137648216Y-96794946D01*
X136783837Y-96382120D01*
X136779764Y-96380081D01*
X136681718Y-96328701D01*
X135853108Y-95894474D01*
X135849071Y-95892261D01*
X135423193Y-95648518D01*
X134941151Y-95372630D01*
X134937206Y-95370275D01*
X134920638Y-95359958D01*
X134049137Y-94817259D01*
X134045283Y-94814758D01*
X133988028Y-94776083D01*
X133641970Y-94542324D01*
X133178410Y-94229194D01*
X133174643Y-94226547D01*
X132489877Y-93725998D01*
X141313710Y-93725998D01*
X141313710Y-93726001D01*
X141333480Y-94002417D01*
X141333481Y-94002424D01*
X141382580Y-94228129D01*
X141392386Y-94273206D01*
X141447823Y-94421837D01*
X141489233Y-94532861D01*
X141622038Y-94776075D01*
X141622043Y-94776083D01*
X141788108Y-94997921D01*
X141788124Y-94997939D01*
X141984060Y-95193875D01*
X141984078Y-95193891D01*
X142205916Y-95359956D01*
X142205924Y-95359961D01*
X142449138Y-95492766D01*
X142449137Y-95492766D01*
X142449141Y-95492767D01*
X142449144Y-95492769D01*
X142708794Y-95589614D01*
X142979583Y-95648520D01*
X143236229Y-95666875D01*
X143255999Y-95668290D01*
X143256000Y-95668290D01*
X143256001Y-95668290D01*
X143274451Y-95666970D01*
X143532417Y-95648520D01*
X143803206Y-95589614D01*
X144062856Y-95492769D01*
X144306081Y-95359958D01*
X144527929Y-95193885D01*
X144723885Y-94997929D01*
X144889958Y-94776081D01*
X145022769Y-94532856D01*
X145119614Y-94273206D01*
X145178520Y-94002417D01*
X145198290Y-93726000D01*
X145178520Y-93449583D01*
X145119614Y-93178794D01*
X145022769Y-92919144D01*
X144954865Y-92794788D01*
X144889961Y-92675924D01*
X144889956Y-92675916D01*
X144723891Y-92454078D01*
X144723875Y-92454060D01*
X144527939Y-92258124D01*
X144527921Y-92258108D01*
X144306083Y-92092043D01*
X144306075Y-92092038D01*
X144062861Y-91959233D01*
X144062862Y-91959233D01*
X144012301Y-91940374D01*
X143803206Y-91862386D01*
X143803199Y-91862384D01*
X143803198Y-91862384D01*
X143532424Y-91803481D01*
X143532417Y-91803480D01*
X143256001Y-91783710D01*
X143255999Y-91783710D01*
X142979582Y-91803480D01*
X142979575Y-91803481D01*
X142708801Y-91862384D01*
X142708797Y-91862385D01*
X142708794Y-91862386D01*
X142521916Y-91932087D01*
X142449138Y-91959233D01*
X142205924Y-92092038D01*
X142205916Y-92092043D01*
X141984078Y-92258108D01*
X141984060Y-92258124D01*
X141788124Y-92454060D01*
X141788108Y-92454078D01*
X141622043Y-92675916D01*
X141622038Y-92675924D01*
X141489233Y-92919138D01*
X141489231Y-92919144D01*
X141392386Y-93178794D01*
X141392385Y-93178797D01*
X141392384Y-93178801D01*
X141333481Y-93449575D01*
X141333480Y-93449582D01*
X141313710Y-93725998D01*
X132489877Y-93725998D01*
X132330051Y-93609169D01*
X132326386Y-93606383D01*
X131505356Y-92958126D01*
X131501796Y-92955207D01*
X130705351Y-92276881D01*
X130701902Y-92273831D01*
X130189468Y-91803480D01*
X129931183Y-91566405D01*
X129927861Y-91563240D01*
X129748789Y-91386185D01*
X129453696Y-91094415D01*
X129183962Y-90827718D01*
X129180749Y-90824421D01*
X128464664Y-90061790D01*
X128461575Y-90058376D01*
X128439504Y-90033049D01*
X128185442Y-89741500D01*
X127774288Y-89269681D01*
X127771328Y-89266155D01*
X127113770Y-88452465D01*
X127110944Y-88448831D01*
X126484069Y-87611324D01*
X126481379Y-87607587D01*
X126462982Y-87581006D01*
X125886031Y-86747394D01*
X125883489Y-86743573D01*
X125320454Y-85861828D01*
X125318049Y-85857902D01*
X125261005Y-85760800D01*
X124788149Y-84955891D01*
X124785902Y-84951898D01*
X124735336Y-84858008D01*
X124289848Y-84030831D01*
X124287741Y-84026738D01*
X124206334Y-83861136D01*
X123826212Y-83087877D01*
X123824286Y-83083766D01*
X123397922Y-82128411D01*
X123396131Y-82124188D01*
X123303078Y-81892982D01*
X123005528Y-81153666D01*
X123003897Y-81149385D01*
X122904448Y-80873092D01*
X122649609Y-80165086D01*
X122648130Y-80160726D01*
X122330609Y-79163905D01*
X122329294Y-79159493D01*
X122239145Y-78835327D01*
X122049001Y-78151589D01*
X122047864Y-78147187D01*
X121805173Y-77129549D01*
X121804192Y-77125071D01*
X121763331Y-76920328D01*
X121599448Y-76099148D01*
X121598632Y-76094619D01*
X121432114Y-75061811D01*
X121431466Y-75057253D01*
X121377328Y-74618324D01*
X121303404Y-74018990D01*
X121302927Y-74014423D01*
X121297778Y-73954414D01*
X121213488Y-72972042D01*
X121213187Y-72967545D01*
X121162507Y-71922606D01*
X121162369Y-71918004D01*
X121156077Y-71362886D01*
X121175000Y-71295628D01*
X121227282Y-71249278D01*
X121252173Y-71240659D01*
X127353540Y-69832273D01*
X127358669Y-69831205D01*
X127410307Y-69821601D01*
X127410311Y-69821598D01*
X127418037Y-69819084D01*
X127418074Y-69819200D01*
X127423205Y-69817406D01*
X127423163Y-69817292D01*
X127430776Y-69814445D01*
X127430778Y-69814445D01*
X127477121Y-69789805D01*
X127481824Y-69787432D01*
X127529217Y-69764791D01*
X127529220Y-69764788D01*
X127536032Y-69760359D01*
X127536099Y-69760462D01*
X127540593Y-69757400D01*
X127540522Y-69757300D01*
X127547137Y-69752581D01*
X127547136Y-69752581D01*
X127547139Y-69752580D01*
X127585523Y-69716788D01*
X127589469Y-69713262D01*
X127629372Y-69679140D01*
X127629374Y-69679135D01*
X127634805Y-69673099D01*
X127634896Y-69673181D01*
X127638447Y-69669058D01*
X127638352Y-69668980D01*
X127643517Y-69662711D01*
X127643523Y-69662707D01*
X127671335Y-69618199D01*
X127674224Y-69613789D01*
X127703947Y-69570486D01*
X127703951Y-69570473D01*
X127707632Y-69563240D01*
X127707743Y-69563296D01*
X127710105Y-69558396D01*
X127709991Y-69558344D01*
X127713358Y-69550955D01*
X127713362Y-69550950D01*
X127728717Y-69500728D01*
X127730346Y-69495780D01*
X127747858Y-69446233D01*
X127747859Y-69446226D01*
X127749544Y-69438279D01*
X127749663Y-69438304D01*
X127750674Y-69432967D01*
X127750554Y-69432947D01*
X127751895Y-69424929D01*
X127751894Y-69424929D01*
X127751896Y-69424926D01*
X127753575Y-69376859D01*
X127754073Y-69369300D01*
X127830576Y-68578699D01*
X127831102Y-68574150D01*
X127866273Y-68312446D01*
X127938090Y-67778044D01*
X127938787Y-67773498D01*
X128036561Y-67206325D01*
X128075257Y-66981854D01*
X128076110Y-66977400D01*
X128241876Y-66191330D01*
X128242893Y-66186914D01*
X128437703Y-65407603D01*
X128438902Y-65403162D01*
X128490801Y-65224081D01*
X128662510Y-64631581D01*
X128663839Y-64627295D01*
X128798423Y-64220087D01*
X128838151Y-64162612D01*
X128902646Y-64135739D01*
X128916159Y-64135000D01*
X142728898Y-64135000D01*
X142795937Y-64154685D01*
G37*
%TD.AperFunction*%
%TD*%
M02*
