%TF.GenerationSoftware,KiCad,Pcbnew,8.0.3-8.0.3-0~ubuntu23.10.1*%
%TF.CreationDate,2024-10-02T13:11:35+03:00*%
%TF.ProjectId,_____ _______,1f3b3042-3020-43e3-913c-3e423e3a2e6b,rev?*%
%TF.SameCoordinates,Original*%
%TF.FileFunction,Profile,NP*%
%FSLAX46Y46*%
G04 Gerber Fmt 4.6, Leading zero omitted, Abs format (unit mm)*
G04 Created by KiCad (PCBNEW 8.0.3-8.0.3-0~ubuntu23.10.1) date 2024-10-02 13:11:35*
%MOMM*%
%LPD*%
G01*
G04 APERTURE LIST*
%TA.AperFunction,Profile*%
%ADD10C,0.100000*%
%TD*%
G04 APERTURE END LIST*
D10*
X156980164Y-43140281D02*
G75*
G02*
X176135051Y-59896645I-7529664J-27934019D01*
G01*
X157392841Y-93726000D02*
G75*
G02*
X154519159Y-93726000I-1436841J0D01*
G01*
X154519159Y-93726000D02*
G75*
G02*
X157392841Y-93726000I1436841J0D01*
G01*
X145290891Y-81134592D02*
X145288000Y-88646000D01*
X178251007Y-70866411D02*
G75*
G02*
X120650000Y-70866000I-28800505J-207885D01*
G01*
X171647004Y-69342000D02*
X178251007Y-70866411D01*
X145290891Y-81134592D02*
G75*
G02*
X146052891Y-80372591I762009J-8D01*
G01*
X129049563Y-62158665D02*
X122763974Y-59871787D01*
X169851415Y-62158676D02*
G75*
G02*
X171647005Y-69342000I-20400915J-8915624D01*
G01*
X143256000Y-88646000D02*
X143226179Y-77500790D01*
X155956000Y-88646000D02*
G75*
G02*
X153924000Y-88646000I-1016000J762000D01*
G01*
X145034000Y-50546000D02*
X141732000Y-43180000D01*
X153133691Y-80372592D02*
X146052891Y-80372592D01*
X143226179Y-77500790D02*
G75*
G02*
X155955997Y-77215998I6224321J6426490D01*
G01*
X153678164Y-50506280D02*
X156980164Y-43140280D01*
X144692841Y-93726000D02*
G75*
G02*
X141819159Y-93726000I-1436841J0D01*
G01*
X141819159Y-93726000D02*
G75*
G02*
X144692841Y-93726000I1436841J0D01*
G01*
X122763974Y-59871787D02*
G75*
G02*
X141732001Y-43180004I26686526J-11202513D01*
G01*
X153133691Y-80372592D02*
G75*
G02*
X153924034Y-81134066I28309J-761508D01*
G01*
X153924000Y-81134066D02*
X153924000Y-88646000D01*
X155956000Y-88646000D02*
X155956000Y-77216000D01*
X145034000Y-50546000D02*
G75*
G02*
X153678164Y-50506280I4416500J-20528300D01*
G01*
X169851415Y-62158676D02*
X176135051Y-59896645D01*
X120650000Y-70866000D02*
X127254003Y-69341589D01*
X145288000Y-88646000D02*
G75*
G02*
X143256000Y-88646000I-1016000J762000D01*
G01*
X127254004Y-69341589D02*
G75*
G02*
X129049564Y-62158666I22196496J-1732711D01*
G01*
M02*
