%TF.GenerationSoftware,KiCad,Pcbnew,7.0.6*%
%TF.CreationDate,2023-12-22T17:32:37+03:00*%
%TF.ProjectId,_____ _______,1f3b3042-3020-43e3-913c-3e423e3a2e6b,rev?*%
%TF.SameCoordinates,Original*%
%TF.FileFunction,Copper,L4,Bot*%
%TF.FilePolarity,Positive*%
%FSLAX46Y46*%
G04 Gerber Fmt 4.6, Leading zero omitted, Abs format (unit mm)*
G04 Created by KiCad (PCBNEW 7.0.6) date 2023-12-22 17:32:37*
%MOMM*%
%LPD*%
G01*
G04 APERTURE LIST*
G04 Aperture macros list*
%AMRoundRect*
0 Rectangle with rounded corners*
0 $1 Rounding radius*
0 $2 $3 $4 $5 $6 $7 $8 $9 X,Y pos of 4 corners*
0 Add a 4 corners polygon primitive as box body*
4,1,4,$2,$3,$4,$5,$6,$7,$8,$9,$2,$3,0*
0 Add four circle primitives for the rounded corners*
1,1,$1+$1,$2,$3*
1,1,$1+$1,$4,$5*
1,1,$1+$1,$6,$7*
1,1,$1+$1,$8,$9*
0 Add four rect primitives between the rounded corners*
20,1,$1+$1,$2,$3,$4,$5,0*
20,1,$1+$1,$4,$5,$6,$7,0*
20,1,$1+$1,$6,$7,$8,$9,0*
20,1,$1+$1,$8,$9,$2,$3,0*%
%AMHorizOval*
0 Thick line with rounded ends*
0 $1 width*
0 $2 $3 position (X,Y) of the first rounded end (center of the circle)*
0 $4 $5 position (X,Y) of the second rounded end (center of the circle)*
0 Add line between two ends*
20,1,$1,$2,$3,$4,$5,0*
0 Add two circle primitives to create the rounded ends*
1,1,$1,$2,$3*
1,1,$1,$4,$5*%
G04 Aperture macros list end*
%TA.AperFunction,ComponentPad*%
%ADD10RoundRect,0.200000X0.477893X-0.118820X0.408434X0.275103X-0.477893X0.118820X-0.408434X-0.275103X0*%
%TD*%
%TA.AperFunction,ComponentPad*%
%ADD11HorizOval,0.800000X0.246202X0.043412X-0.246202X-0.043412X0*%
%TD*%
%TA.AperFunction,ComponentPad*%
%ADD12C,4.000000*%
%TD*%
%TA.AperFunction,ComponentPad*%
%ADD13RoundRect,0.200000X-0.309654X-0.382903X0.076717X-0.486430X0.309654X0.382903X-0.076717X0.486430X0*%
%TD*%
%TA.AperFunction,ComponentPad*%
%ADD14HorizOval,0.800000X-0.064705X-0.241481X0.064705X0.241481X0*%
%TD*%
%TA.AperFunction,ComponentPad*%
%ADD15RoundRect,0.200000X-0.371440X-0.323315X-0.008917X-0.492362X0.371440X0.323315X0.008917X0.492362X0*%
%TD*%
%TA.AperFunction,ComponentPad*%
%ADD16HorizOval,0.800000X-0.105655X-0.226577X0.105655X0.226577X0*%
%TD*%
%TA.AperFunction,ComponentPad*%
%ADD17C,2.055000*%
%TD*%
%TA.AperFunction,ComponentPad*%
%ADD18R,1.700000X1.700000*%
%TD*%
%TA.AperFunction,ComponentPad*%
%ADD19O,1.700000X1.700000*%
%TD*%
G04 APERTURE END LIST*
D10*
%TO.P,J19,1,Pin_1*%
%TO.N,PTC_Coil_C*%
X57108357Y-98911293D03*
D11*
%TO.P,J19,2,Pin_2*%
%TO.N,GNDA*%
X56891297Y-97680283D03*
%TD*%
D12*
%TO.P,J7,1,Pin_1*%
%TO.N,B_OUT*%
X62992000Y-83058000D03*
%TD*%
D13*
%TO.P,J14,1,Pin_1*%
%TO.N,PTC_Coil_A*%
X89168894Y-70242942D03*
D14*
%TO.P,J14,2,Pin_2*%
%TO.N,GNDA*%
X90376301Y-70566466D03*
%TD*%
D12*
%TO.P,J17,1,Pin_1*%
%TO.N,A_OUT*%
X104394000Y-84836000D03*
%TD*%
%TO.P,J15,1,Pin_1*%
%TO.N,B_OUT*%
X78486000Y-69850000D03*
%TD*%
%TO.P,J6,1,Pin_1*%
%TO.N,C_OUT*%
X82042000Y-120142000D03*
%TD*%
%TO.P,J5,1,Pin_1*%
%TO.N,C_OUT*%
X63754000Y-113284000D03*
%TD*%
D15*
%TO.P,J16,1,Pin_1*%
%TO.N,PTC_Coil_B*%
X96280894Y-72891413D03*
D16*
%TO.P,J16,2,Pin_2*%
%TO.N,GNDA*%
X97413779Y-73419686D03*
%TD*%
D12*
%TO.P,J18,1,Pin_1*%
%TO.N,A_OUT*%
X107442000Y-104394000D03*
%TD*%
D17*
%TO.P,J13,1,1*%
%TO.N,B_OUT*%
X76292270Y-72535673D03*
%TO.P,J13,2,2*%
X78029732Y-77309312D03*
%TD*%
%TO.P,J11,1,1*%
%TO.N,A_OUT*%
X109692000Y-91948000D03*
%TO.P,J11,2,2*%
X104612000Y-91948000D03*
%TD*%
%TO.P,J10,1,1*%
%TO.N,B_OUT*%
X71410000Y-74842886D03*
%TO.P,J10,2,2*%
X73950000Y-79242295D03*
%TD*%
%TO.P,J9,1,1*%
%TO.N,C_OUT*%
X71918000Y-117689114D03*
%TO.P,J9,2,2*%
X74458000Y-113289705D03*
%TD*%
%TO.P,J1,1,1*%
%TO.N,A_OUT*%
X109692000Y-100584000D03*
%TO.P,J1,2,2*%
X104612000Y-100584000D03*
%TD*%
D18*
%TO.P,J4,1,Pin_1*%
%TO.N,PTC_Coil_A*%
X95960000Y-114574000D03*
D19*
%TO.P,J4,2,Pin_2*%
%TO.N,GNDA*%
X98500000Y-114574000D03*
%TO.P,J4,3,Pin_3*%
%TO.N,PTC_Coil_C*%
X95960000Y-117114000D03*
%TO.P,J4,4,Pin_4*%
%TO.N,PTC_Coil_B*%
X98500000Y-117114000D03*
%TD*%
D17*
%TO.P,J8,1,1*%
%TO.N,A_OUT*%
X104648109Y-96266000D03*
%TO.P,J8,2,2*%
X109728109Y-96266000D03*
%TD*%
%TO.P,J2,1,1*%
%TO.N,C_OUT*%
X76692909Y-120052617D03*
%TO.P,J2,2,2*%
X78430371Y-115278978D03*
%TD*%
%TO.P,J3,1,1*%
%TO.N,B_OUT*%
X66957456Y-77832800D03*
%TO.P,J3,2,2*%
X70222817Y-81724306D03*
%TD*%
%TO.P,J12,1,1*%
%TO.N,C_OUT*%
X67465456Y-114699200D03*
%TO.P,J12,2,2*%
X70730817Y-110807694D03*
%TD*%
%TA.AperFunction,Conductor*%
%TO.N,A_OUT*%
G36*
X106662217Y-80685445D02*
G01*
X106706152Y-80725683D01*
X106874889Y-80979513D01*
X107427742Y-81883607D01*
X107945987Y-82807974D01*
X108428882Y-83751290D01*
X108875734Y-84712204D01*
X109285903Y-85689339D01*
X109658803Y-86681296D01*
X109993899Y-87686654D01*
X110290710Y-88703971D01*
X110548812Y-89731792D01*
X110767834Y-90768644D01*
X110947464Y-91813041D01*
X111087444Y-92863488D01*
X111187573Y-93918479D01*
X111247707Y-94976504D01*
X111267762Y-96036046D01*
X111247707Y-97095588D01*
X111187573Y-98153613D01*
X111087444Y-99208604D01*
X111053349Y-99464464D01*
X110947464Y-100259051D01*
X110767834Y-101303448D01*
X110548812Y-102340300D01*
X110290710Y-103368121D01*
X109993899Y-104385438D01*
X109658803Y-105390796D01*
X109285903Y-106382753D01*
X108875734Y-107359888D01*
X108428882Y-108320802D01*
X107945987Y-109264118D01*
X107427742Y-110188485D01*
X106874889Y-111092579D01*
X106288219Y-111975104D01*
X105688949Y-112806527D01*
X105633781Y-112849402D01*
X105564191Y-112855645D01*
X105512537Y-112832141D01*
X98530232Y-107436723D01*
X98489220Y-107380156D01*
X98485302Y-107310396D01*
X98504747Y-107267096D01*
X98977474Y-106597395D01*
X99441885Y-105871460D01*
X99441884Y-105871460D01*
X99441892Y-105871448D01*
X99765858Y-105310322D01*
X99872777Y-105125134D01*
X100269266Y-104359946D01*
X100630507Y-103577524D01*
X100955760Y-102779476D01*
X101244356Y-101967446D01*
X101244356Y-101967445D01*
X101495692Y-101143123D01*
X101709245Y-100308232D01*
X101709245Y-100308231D01*
X101709247Y-100308225D01*
X101790593Y-99916763D01*
X101884581Y-99464473D01*
X102021332Y-98613605D01*
X102119216Y-97757382D01*
X102178026Y-96897598D01*
X102197642Y-96036047D01*
X102197642Y-96036045D01*
X102178026Y-95174494D01*
X102119216Y-94314710D01*
X102021332Y-93458487D01*
X101884581Y-92607619D01*
X101719465Y-91813041D01*
X101709247Y-91763867D01*
X101564212Y-91196851D01*
X101495692Y-90928969D01*
X101244356Y-90104647D01*
X101244356Y-90104646D01*
X100955760Y-89292616D01*
X100630507Y-88494568D01*
X100269266Y-87712146D01*
X99872777Y-86946958D01*
X99526885Y-86347856D01*
X99441892Y-86200644D01*
X99421537Y-86168827D01*
X99401991Y-86101748D01*
X99421814Y-86034750D01*
X99451585Y-86002809D01*
X99846134Y-85706898D01*
X106528494Y-80695128D01*
X106593930Y-80670655D01*
X106662217Y-80685445D01*
G37*
%TD.AperFunction*%
%TD*%
%TA.AperFunction,Conductor*%
%TO.N,B_OUT*%
G36*
X83001039Y-68061245D02*
G01*
X83046794Y-68114049D01*
X83058000Y-68165560D01*
X83058000Y-76987571D01*
X83038315Y-77054610D01*
X82985511Y-77100365D01*
X82934000Y-77111571D01*
X82837363Y-77111571D01*
X82467033Y-77128444D01*
X81976475Y-77150795D01*
X81976467Y-77150795D01*
X81976461Y-77150796D01*
X81976462Y-77150796D01*
X81118268Y-77229160D01*
X81118267Y-77229160D01*
X81118259Y-77229161D01*
X80264500Y-77346508D01*
X79944081Y-77405516D01*
X79416979Y-77502588D01*
X79416966Y-77502590D01*
X79416966Y-77502591D01*
X78577414Y-77697088D01*
X78577409Y-77697089D01*
X78577402Y-77697091D01*
X77747580Y-77929596D01*
X77747581Y-77929596D01*
X76929192Y-78199633D01*
X76399277Y-78401666D01*
X76123951Y-78506635D01*
X76123944Y-78506638D01*
X76123944Y-78506637D01*
X75333504Y-78849974D01*
X75333505Y-78849974D01*
X74559524Y-79228925D01*
X74559516Y-79228929D01*
X73803572Y-79642722D01*
X73313296Y-79940865D01*
X73067256Y-80090485D01*
X73067251Y-80090488D01*
X73067245Y-80090492D01*
X72427289Y-80520736D01*
X72352054Y-80571317D01*
X71659498Y-81084189D01*
X70991000Y-81628053D01*
X70991001Y-81628052D01*
X70347957Y-82201771D01*
X70347954Y-82201774D01*
X69731683Y-82804174D01*
X69143467Y-83433998D01*
X68584528Y-84089942D01*
X68056023Y-84770647D01*
X68056019Y-84770653D01*
X67559050Y-85474697D01*
X67094639Y-86200632D01*
X67094640Y-86200632D01*
X67094632Y-86200644D01*
X66828001Y-86662462D01*
X66663747Y-86946958D01*
X66663747Y-86946959D01*
X66663739Y-86946973D01*
X66577496Y-87113412D01*
X66527939Y-87209054D01*
X66479618Y-87259521D01*
X66411684Y-87275853D01*
X66365153Y-87264255D01*
X63986931Y-86147947D01*
X58373631Y-83513132D01*
X58321310Y-83466830D01*
X58302328Y-83399588D01*
X58315942Y-83344383D01*
X58590537Y-82807974D01*
X59108782Y-81883607D01*
X59661635Y-80979513D01*
X60248305Y-80096988D01*
X60867950Y-79237295D01*
X61519684Y-78401666D01*
X62202572Y-77591299D01*
X62915637Y-76807353D01*
X63657856Y-76050952D01*
X64428168Y-75323179D01*
X65225467Y-74625078D01*
X66048613Y-73957647D01*
X66896426Y-73321844D01*
X67767691Y-72718578D01*
X68661161Y-72148715D01*
X69575555Y-71613070D01*
X70509564Y-71112410D01*
X71461849Y-70647454D01*
X72431047Y-70218866D01*
X73415770Y-69827261D01*
X74414605Y-69473200D01*
X75426124Y-69157190D01*
X76448877Y-68879684D01*
X77481398Y-68641079D01*
X78522209Y-68441717D01*
X79569818Y-68281884D01*
X80622726Y-68161808D01*
X81679423Y-68081662D01*
X82738396Y-68041560D01*
X82934000Y-68041560D01*
X83001039Y-68061245D01*
G37*
%TD.AperFunction*%
%TD*%
%TA.AperFunction,Conductor*%
%TO.N,C_OUT*%
G36*
X66972801Y-105693574D02*
G01*
X67018116Y-105738919D01*
X67094632Y-105871448D01*
X67094640Y-105871460D01*
X67094639Y-105871460D01*
X67421735Y-106382753D01*
X67559048Y-106597392D01*
X68056023Y-107301445D01*
X68584528Y-107982150D01*
X69143467Y-108638094D01*
X69731683Y-109267918D01*
X70347954Y-109870318D01*
X70347957Y-109870321D01*
X70991001Y-110444040D01*
X70991000Y-110444039D01*
X71497228Y-110855886D01*
X71659503Y-110987907D01*
X72352061Y-111500780D01*
X73067245Y-111981600D01*
X73067251Y-111981603D01*
X73067256Y-111981607D01*
X73287156Y-112115330D01*
X73803572Y-112429370D01*
X74559516Y-112843163D01*
X74559524Y-112843167D01*
X75333505Y-113222118D01*
X75333504Y-113222118D01*
X76123944Y-113565455D01*
X76123944Y-113565454D01*
X76123951Y-113565457D01*
X76390659Y-113667140D01*
X76929192Y-113872459D01*
X77747581Y-114142496D01*
X77747580Y-114142496D01*
X78577402Y-114375001D01*
X78577409Y-114375002D01*
X78577414Y-114375004D01*
X79416966Y-114569501D01*
X79416979Y-114569504D01*
X79944081Y-114666575D01*
X80264500Y-114725584D01*
X81118259Y-114842931D01*
X81118267Y-114842931D01*
X81118269Y-114842932D01*
X81118268Y-114842932D01*
X81976462Y-114921296D01*
X81976467Y-114921296D01*
X81976475Y-114921297D01*
X82467033Y-114943647D01*
X82837363Y-114960521D01*
X82837369Y-114960521D01*
X83699161Y-114960521D01*
X83851382Y-114953585D01*
X83944356Y-114949349D01*
X84012222Y-114965961D01*
X84060333Y-115016628D01*
X84074000Y-115073220D01*
X84074000Y-123900691D01*
X84054315Y-123967730D01*
X84001511Y-124013485D01*
X83954693Y-124024602D01*
X83798128Y-124030532D01*
X82738396Y-124030532D01*
X81679423Y-123990430D01*
X80622726Y-123910284D01*
X79569818Y-123790208D01*
X78522209Y-123630375D01*
X77481398Y-123431013D01*
X76448877Y-123192408D01*
X75426124Y-122914902D01*
X74414605Y-122598892D01*
X73415770Y-122244831D01*
X72431047Y-121853226D01*
X71461849Y-121424638D01*
X70509564Y-120959682D01*
X69575555Y-120459022D01*
X68661161Y-119923377D01*
X67767691Y-119353514D01*
X66896426Y-118750248D01*
X66048613Y-118114445D01*
X65225467Y-117447014D01*
X64428168Y-116748913D01*
X63657856Y-116021140D01*
X62915637Y-115264739D01*
X62202572Y-114480793D01*
X61519684Y-113670426D01*
X60867950Y-112834797D01*
X60248305Y-111975104D01*
X59661635Y-111092579D01*
X59598866Y-110989931D01*
X59580686Y-110922468D01*
X59601865Y-110855886D01*
X59632787Y-110824194D01*
X66838876Y-105699864D01*
X66904912Y-105677058D01*
X66972801Y-105693574D01*
G37*
%TD.AperFunction*%
%TD*%
M02*
