%TF.GenerationSoftware,KiCad,Pcbnew,7.0.1*%
%TF.CreationDate,2023-12-15T11:07:28+03:00*%
%TF.ProjectId,_____ _______,1f3b3042-3020-43e3-913c-3e423e3a2e6b,rev?*%
%TF.SameCoordinates,Original*%
%TF.FileFunction,Legend,Bot*%
%TF.FilePolarity,Positive*%
%FSLAX46Y46*%
G04 Gerber Fmt 4.6, Leading zero omitted, Abs format (unit mm)*
G04 Created by KiCad (PCBNEW 7.0.1) date 2023-12-15 11:07:28*
%MOMM*%
%LPD*%
G01*
G04 APERTURE LIST*
%ADD10C,0.150000*%
%ADD11C,0.100000*%
%ADD12C,0.120000*%
%TA.AperFunction,Profile*%
%ADD13C,0.100000*%
%TD*%
%TA.AperFunction,Profile*%
%ADD14C,0.150000*%
%TD*%
G04 APERTURE END LIST*
D10*
%TO.C,J13*%
X149161586Y-63544858D02*
X148490377Y-63789158D01*
X148490377Y-63789158D02*
X148372422Y-63882765D01*
X148372422Y-63882765D02*
X148315500Y-64004833D01*
X148315500Y-64004833D02*
X148319613Y-64155361D01*
X148319613Y-64155361D02*
X148352187Y-64244856D01*
X147879873Y-62947185D02*
X148075313Y-63484152D01*
X147977593Y-63215669D02*
X148917286Y-62873648D01*
X148917286Y-62873648D02*
X148815617Y-63012003D01*
X148815617Y-63012003D02*
X148758696Y-63134071D01*
X148758696Y-63134071D02*
X148746522Y-63239852D01*
X148705559Y-62291934D02*
X148493832Y-61710219D01*
X148493832Y-61710219D02*
X148249861Y-62153744D01*
X148249861Y-62153744D02*
X148201001Y-62019502D01*
X148201001Y-62019502D02*
X148123680Y-61946294D01*
X148123680Y-61946294D02*
X148062646Y-61917833D01*
X148062646Y-61917833D02*
X147956865Y-61905659D01*
X147956865Y-61905659D02*
X147733128Y-61987093D01*
X147733128Y-61987093D02*
X147659921Y-62064413D01*
X147659921Y-62064413D02*
X147631460Y-62125447D01*
X147631460Y-62125447D02*
X147619286Y-62231229D01*
X147619286Y-62231229D02*
X147717006Y-62499712D01*
X147717006Y-62499712D02*
X147794327Y-62572920D01*
X147794327Y-62572920D02*
X147855361Y-62601381D01*
%TO.C,J3*%
X178649073Y-79448569D02*
X178649073Y-80162854D01*
X178649073Y-80162854D02*
X178696692Y-80305711D01*
X178696692Y-80305711D02*
X178791930Y-80400950D01*
X178791930Y-80400950D02*
X178934787Y-80448569D01*
X178934787Y-80448569D02*
X179030025Y-80448569D01*
X178268120Y-79448569D02*
X177649073Y-79448569D01*
X177649073Y-79448569D02*
X177982406Y-79829521D01*
X177982406Y-79829521D02*
X177839549Y-79829521D01*
X177839549Y-79829521D02*
X177744311Y-79877140D01*
X177744311Y-79877140D02*
X177696692Y-79924759D01*
X177696692Y-79924759D02*
X177649073Y-80019997D01*
X177649073Y-80019997D02*
X177649073Y-80258092D01*
X177649073Y-80258092D02*
X177696692Y-80353330D01*
X177696692Y-80353330D02*
X177744311Y-80400950D01*
X177744311Y-80400950D02*
X177839549Y-80448569D01*
X177839549Y-80448569D02*
X178125263Y-80448569D01*
X178125263Y-80448569D02*
X178220501Y-80400950D01*
X178220501Y-80400950D02*
X178268120Y-80353330D01*
%TO.C,J7*%
X129366405Y-79818365D02*
X130069839Y-79942399D01*
X130069839Y-79942399D02*
X130218795Y-79920311D01*
X130218795Y-79920311D02*
X130329124Y-79843057D01*
X130329124Y-79843057D02*
X130400827Y-79710639D01*
X130400827Y-79710639D02*
X130417365Y-79616848D01*
X129300254Y-80193530D02*
X129184488Y-80850068D01*
X129184488Y-80850068D02*
X130243717Y-80601656D01*
%TO.C,J12*%
X144677887Y-65686327D02*
X144059297Y-66043470D01*
X144059297Y-66043470D02*
X143959389Y-66156138D01*
X143959389Y-66156138D02*
X143924529Y-66286235D01*
X143924529Y-66286235D02*
X143954719Y-66433763D01*
X143954719Y-66433763D02*
X144002338Y-66516241D01*
X143311861Y-65320301D02*
X143597576Y-65815173D01*
X143454718Y-65567737D02*
X144320744Y-65067737D01*
X144320744Y-65067737D02*
X144244645Y-65221644D01*
X144244645Y-65221644D02*
X144209785Y-65351742D01*
X144209785Y-65351742D02*
X144216165Y-65458030D01*
X143904932Y-64538006D02*
X143922362Y-64472957D01*
X143922362Y-64472957D02*
X143915982Y-64366669D01*
X143915982Y-64366669D02*
X143796934Y-64160472D01*
X143796934Y-64160472D02*
X143708076Y-64101803D01*
X143708076Y-64101803D02*
X143643027Y-64084374D01*
X143643027Y-64084374D02*
X143536739Y-64090753D01*
X143536739Y-64090753D02*
X143454260Y-64138372D01*
X143454260Y-64138372D02*
X143354352Y-64251040D01*
X143354352Y-64251040D02*
X143145195Y-65031626D01*
X143145195Y-65031626D02*
X142835671Y-64495515D01*
%TO.C,J4*%
X165672949Y-61605790D02*
X165371079Y-62253152D01*
X165371079Y-62253152D02*
X165353863Y-62402750D01*
X165353863Y-62402750D02*
X165399928Y-62529314D01*
X165399928Y-62529314D02*
X165509276Y-62632846D01*
X165509276Y-62632846D02*
X165595591Y-62673095D01*
X164712083Y-61525523D02*
X164430338Y-62129729D01*
X165088869Y-61280887D02*
X165002786Y-62028873D01*
X165002786Y-62028873D02*
X164441738Y-61767252D01*
%TO.C,J9*%
X144053021Y-102969993D02*
X144671610Y-103327136D01*
X144671610Y-103327136D02*
X144819138Y-103357325D01*
X144819138Y-103357325D02*
X144949235Y-103322465D01*
X144949235Y-103322465D02*
X145061903Y-103222557D01*
X145061903Y-103222557D02*
X145109522Y-103140078D01*
X144657141Y-103923625D02*
X144561903Y-104088583D01*
X144561903Y-104088583D02*
X144473045Y-104147252D01*
X144473045Y-104147252D02*
X144407996Y-104164681D01*
X144407996Y-104164681D02*
X144236659Y-104175731D01*
X144236659Y-104175731D02*
X144047892Y-104121733D01*
X144047892Y-104121733D02*
X143717978Y-103931256D01*
X143717978Y-103931256D02*
X143659309Y-103842398D01*
X143659309Y-103842398D02*
X143641879Y-103777349D01*
X143641879Y-103777349D02*
X143648259Y-103671061D01*
X143648259Y-103671061D02*
X143743497Y-103506104D01*
X143743497Y-103506104D02*
X143832355Y-103447435D01*
X143832355Y-103447435D02*
X143897404Y-103430005D01*
X143897404Y-103430005D02*
X144003692Y-103436385D01*
X144003692Y-103436385D02*
X144209889Y-103555432D01*
X144209889Y-103555432D02*
X144268558Y-103644291D01*
X144268558Y-103644291D02*
X144285987Y-103709340D01*
X144285987Y-103709340D02*
X144279608Y-103815628D01*
X144279608Y-103815628D02*
X144184370Y-103980585D01*
X144184370Y-103980585D02*
X144095511Y-104039254D01*
X144095511Y-104039254D02*
X144030462Y-104056684D01*
X144030462Y-104056684D02*
X143924174Y-104050304D01*
%TO.C,J1*%
X178649073Y-88084569D02*
X178649073Y-88798854D01*
X178649073Y-88798854D02*
X178696692Y-88941711D01*
X178696692Y-88941711D02*
X178791930Y-89036950D01*
X178791930Y-89036950D02*
X178934787Y-89084569D01*
X178934787Y-89084569D02*
X179030025Y-89084569D01*
X177649073Y-89084569D02*
X178220501Y-89084569D01*
X177934787Y-89084569D02*
X177934787Y-88084569D01*
X177934787Y-88084569D02*
X178030025Y-88227426D01*
X178030025Y-88227426D02*
X178125263Y-88322664D01*
X178125263Y-88322664D02*
X178220501Y-88370283D01*
%TO.C,J5*%
X168727073Y-99304569D02*
X168727073Y-100018854D01*
X168727073Y-100018854D02*
X168774692Y-100161711D01*
X168774692Y-100161711D02*
X168869930Y-100256950D01*
X168869930Y-100256950D02*
X169012787Y-100304569D01*
X169012787Y-100304569D02*
X169108025Y-100304569D01*
X167774692Y-99304569D02*
X168250882Y-99304569D01*
X168250882Y-99304569D02*
X168298501Y-99780759D01*
X168298501Y-99780759D02*
X168250882Y-99733140D01*
X168250882Y-99733140D02*
X168155644Y-99685521D01*
X168155644Y-99685521D02*
X167917549Y-99685521D01*
X167917549Y-99685521D02*
X167822311Y-99733140D01*
X167822311Y-99733140D02*
X167774692Y-99780759D01*
X167774692Y-99780759D02*
X167727073Y-99875997D01*
X167727073Y-99875997D02*
X167727073Y-100114092D01*
X167727073Y-100114092D02*
X167774692Y-100209330D01*
X167774692Y-100209330D02*
X167822311Y-100256950D01*
X167822311Y-100256950D02*
X167917549Y-100304569D01*
X167917549Y-100304569D02*
X168155644Y-100304569D01*
X168155644Y-100304569D02*
X168250882Y-100256950D01*
X168250882Y-100256950D02*
X168298501Y-100209330D01*
%TO.C,J6*%
X173643660Y-67957876D02*
X173096485Y-68417010D01*
X173096485Y-68417010D02*
X173017659Y-68545315D01*
X173017659Y-68545315D02*
X173005920Y-68679490D01*
X173005920Y-68679490D02*
X173061269Y-68819533D01*
X173061269Y-68819533D02*
X173122487Y-68892490D01*
X173062090Y-67264788D02*
X173184526Y-67410701D01*
X173184526Y-67410701D02*
X173209265Y-67514267D01*
X173209265Y-67514267D02*
X173203396Y-67581354D01*
X173203396Y-67581354D02*
X173155179Y-67746137D01*
X173155179Y-67746137D02*
X173039875Y-67905051D01*
X173039875Y-67905051D02*
X172748048Y-68149923D01*
X172748048Y-68149923D02*
X172644483Y-68174662D01*
X172644483Y-68174662D02*
X172577395Y-68168793D01*
X172577395Y-68168793D02*
X172479699Y-68126445D01*
X172479699Y-68126445D02*
X172357263Y-67980532D01*
X172357263Y-67980532D02*
X172332524Y-67876967D01*
X172332524Y-67876967D02*
X172338393Y-67809879D01*
X172338393Y-67809879D02*
X172380741Y-67712183D01*
X172380741Y-67712183D02*
X172563132Y-67559139D01*
X172563132Y-67559139D02*
X172666698Y-67534399D01*
X172666698Y-67534399D02*
X172733785Y-67540268D01*
X172733785Y-67540268D02*
X172831481Y-67582616D01*
X172831481Y-67582616D02*
X172953917Y-67728529D01*
X172953917Y-67728529D02*
X172978657Y-67832095D01*
X172978657Y-67832095D02*
X172972787Y-67899182D01*
X172972787Y-67899182D02*
X172930440Y-67996878D01*
%TO.C,J2*%
X178685182Y-83766569D02*
X178685182Y-84480854D01*
X178685182Y-84480854D02*
X178732801Y-84623711D01*
X178732801Y-84623711D02*
X178828039Y-84718950D01*
X178828039Y-84718950D02*
X178970896Y-84766569D01*
X178970896Y-84766569D02*
X179066134Y-84766569D01*
X178256610Y-83861807D02*
X178208991Y-83814188D01*
X178208991Y-83814188D02*
X178113753Y-83766569D01*
X178113753Y-83766569D02*
X177875658Y-83766569D01*
X177875658Y-83766569D02*
X177780420Y-83814188D01*
X177780420Y-83814188D02*
X177732801Y-83861807D01*
X177732801Y-83861807D02*
X177685182Y-83957045D01*
X177685182Y-83957045D02*
X177685182Y-84052283D01*
X177685182Y-84052283D02*
X177732801Y-84195140D01*
X177732801Y-84195140D02*
X178304229Y-84766569D01*
X178304229Y-84766569D02*
X177685182Y-84766569D01*
%TO.C,J8*%
X148334413Y-105206721D02*
X149005622Y-105451021D01*
X149005622Y-105451021D02*
X149156151Y-105455134D01*
X149156151Y-105455134D02*
X149278219Y-105398213D01*
X149278219Y-105398213D02*
X149371826Y-105280258D01*
X149371826Y-105280258D02*
X149404399Y-105190763D01*
X148525412Y-105935016D02*
X148513238Y-105829235D01*
X148513238Y-105829235D02*
X148484777Y-105768201D01*
X148484777Y-105768201D02*
X148411570Y-105690880D01*
X148411570Y-105690880D02*
X148366822Y-105674594D01*
X148366822Y-105674594D02*
X148261041Y-105686768D01*
X148261041Y-105686768D02*
X148200007Y-105715228D01*
X148200007Y-105715228D02*
X148122687Y-105788436D01*
X148122687Y-105788436D02*
X148057540Y-105967425D01*
X148057540Y-105967425D02*
X148069714Y-106073206D01*
X148069714Y-106073206D02*
X148098174Y-106134240D01*
X148098174Y-106134240D02*
X148171382Y-106211561D01*
X148171382Y-106211561D02*
X148216129Y-106227848D01*
X148216129Y-106227848D02*
X148321911Y-106215674D01*
X148321911Y-106215674D02*
X148382945Y-106187213D01*
X148382945Y-106187213D02*
X148460265Y-106114005D01*
X148460265Y-106114005D02*
X148525412Y-105935016D01*
X148525412Y-105935016D02*
X148602733Y-105861808D01*
X148602733Y-105861808D02*
X148663766Y-105833348D01*
X148663766Y-105833348D02*
X148769548Y-105821174D01*
X148769548Y-105821174D02*
X148948537Y-105886320D01*
X148948537Y-105886320D02*
X149021745Y-105963641D01*
X149021745Y-105963641D02*
X149050205Y-106024675D01*
X149050205Y-106024675D02*
X149062379Y-106130456D01*
X149062379Y-106130456D02*
X148997232Y-106309445D01*
X148997232Y-106309445D02*
X148919912Y-106382653D01*
X148919912Y-106382653D02*
X148858878Y-106411114D01*
X148858878Y-106411114D02*
X148753097Y-106423288D01*
X148753097Y-106423288D02*
X148574108Y-106358141D01*
X148574108Y-106358141D02*
X148500900Y-106280820D01*
X148500900Y-106280820D02*
X148472439Y-106219786D01*
X148472439Y-106219786D02*
X148460265Y-106114005D01*
%TO.C,J11*%
X140675749Y-68068659D02*
X140128574Y-68527793D01*
X140128574Y-68527793D02*
X140049748Y-68656098D01*
X140049748Y-68656098D02*
X140038010Y-68790272D01*
X140038010Y-68790272D02*
X140093358Y-68930316D01*
X140093358Y-68930316D02*
X140154576Y-69003273D01*
X139266917Y-67945402D02*
X139634224Y-68383141D01*
X139450570Y-68164271D02*
X140216615Y-67521484D01*
X140216615Y-67521484D02*
X140168398Y-67686267D01*
X140168398Y-67686267D02*
X140156659Y-67820442D01*
X140156659Y-67820442D02*
X140181398Y-67924007D01*
X138654738Y-67215835D02*
X139022045Y-67653575D01*
X138838392Y-67434705D02*
X139604436Y-66791918D01*
X139604436Y-66791918D02*
X139556219Y-66956701D01*
X139556219Y-66956701D02*
X139544480Y-67090876D01*
X139544480Y-67090876D02*
X139569220Y-67194441D01*
%TO.C,J10*%
X140370570Y-99825844D02*
X140917745Y-100284978D01*
X140917745Y-100284978D02*
X141057789Y-100340326D01*
X141057789Y-100340326D02*
X141191963Y-100328587D01*
X141191963Y-100328587D02*
X141320269Y-100249761D01*
X141320269Y-100249761D02*
X141381486Y-100176805D01*
X140493827Y-101234676D02*
X140861134Y-100796936D01*
X140677481Y-101015806D02*
X139911436Y-100373019D01*
X139911436Y-100373019D02*
X140082089Y-100391889D01*
X140082089Y-100391889D02*
X140216264Y-100380150D01*
X140216264Y-100380150D02*
X140313960Y-100337802D01*
X139329867Y-101066106D02*
X139268649Y-101139063D01*
X139268649Y-101139063D02*
X139243909Y-101242629D01*
X139243909Y-101242629D02*
X139249778Y-101309716D01*
X139249778Y-101309716D02*
X139292126Y-101407412D01*
X139292126Y-101407412D02*
X139407430Y-101566326D01*
X139407430Y-101566326D02*
X139589822Y-101719371D01*
X139589822Y-101719371D02*
X139766344Y-101805328D01*
X139766344Y-101805328D02*
X139869910Y-101830068D01*
X139869910Y-101830068D02*
X139936997Y-101824198D01*
X139936997Y-101824198D02*
X140034693Y-101781851D01*
X140034693Y-101781851D02*
X140095911Y-101708894D01*
X140095911Y-101708894D02*
X140120651Y-101605328D01*
X140120651Y-101605328D02*
X140114781Y-101538241D01*
X140114781Y-101538241D02*
X140072433Y-101440545D01*
X140072433Y-101440545D02*
X139957129Y-101281631D01*
X139957129Y-101281631D02*
X139774738Y-101128586D01*
X139774738Y-101128586D02*
X139598215Y-101042629D01*
X139598215Y-101042629D02*
X139494650Y-101017889D01*
X139494650Y-101017889D02*
X139427563Y-101023759D01*
X139427563Y-101023759D02*
X139329867Y-101066106D01*
D11*
%TO.C,J13*%
X148534394Y-59750131D02*
X150548892Y-65284921D01*
X146100590Y-60635964D02*
X148115089Y-66170753D01*
%TO.C,J3*%
X181260740Y-81280950D02*
X175370740Y-81280950D01*
X181260740Y-78690950D02*
X175370740Y-78690950D01*
D12*
%TO.C,J7*%
X137032979Y-79297538D02*
X136644875Y-81498584D01*
X131399879Y-78304271D02*
X137032979Y-79297538D01*
X131509517Y-79410109D02*
X131214075Y-79358015D01*
X131214075Y-79358015D02*
X131399879Y-78304271D01*
X131173565Y-79645346D02*
X130878123Y-79593251D01*
X130878123Y-79593251D02*
X130964947Y-79100847D01*
X131307217Y-80557410D02*
X131509517Y-79410109D01*
X131307217Y-80557410D02*
X131104917Y-81704711D01*
X131104917Y-81704711D02*
X130809475Y-81652617D01*
X130809475Y-81652617D02*
X130623671Y-82706361D01*
X136256772Y-83699629D02*
X136644875Y-81498584D01*
X130623671Y-82706361D02*
X136256772Y-83699629D01*
D11*
%TO.C,J12*%
X143492743Y-61882596D02*
X146437743Y-66983485D01*
X141249737Y-63177596D02*
X144194737Y-68278485D01*
D12*
%TO.C,J4*%
X164289022Y-69161386D02*
X162263424Y-68216834D01*
X166706399Y-63977305D02*
X164289022Y-69161386D01*
X165609864Y-63796996D02*
X165736649Y-63525104D01*
X165736649Y-63525104D02*
X166706399Y-63977305D01*
X165469594Y-63411608D02*
X165596379Y-63139715D01*
X165596379Y-63139715D02*
X166049533Y-63351024D01*
X164554015Y-63304646D02*
X165609864Y-63796996D01*
X164554015Y-63304646D02*
X163498167Y-62812296D01*
X163498167Y-62812296D02*
X163624952Y-62540403D01*
X163624952Y-62540403D02*
X162655203Y-62088202D01*
X160237826Y-67272282D02*
X162263424Y-68216834D01*
X162655203Y-62088202D02*
X160237826Y-67272282D01*
D11*
%TO.C,J9*%
X141757737Y-105430304D02*
X144702737Y-100329415D01*
X144000743Y-106725304D02*
X146945743Y-101624415D01*
%TO.C,J1*%
X181260740Y-89916950D02*
X175370740Y-89916950D01*
X181260740Y-87326950D02*
X175370740Y-87326950D01*
D12*
%TO.C,J5*%
X170993740Y-106481950D02*
X165793740Y-106481950D01*
X170993740Y-101281950D02*
X170993740Y-106481950D01*
X170993740Y-101281950D02*
X168393740Y-101281950D01*
X168393740Y-103881950D02*
X165793740Y-103881950D01*
X168393740Y-101281950D02*
X168393740Y-103881950D01*
X167123740Y-101281950D02*
X165793740Y-101281950D01*
X165793740Y-103881950D02*
X165793740Y-106481950D01*
X165793740Y-101281950D02*
X165793740Y-102611950D01*
%TO.C,J6*%
X169215483Y-74138432D02*
X167778853Y-72426323D01*
X173597258Y-70461687D02*
X169215483Y-74138432D01*
X172679662Y-69834856D02*
X172909475Y-69642019D01*
X172909475Y-69642019D02*
X173597258Y-70461687D01*
X172715406Y-69426294D02*
X172945219Y-69233458D01*
X172945219Y-69233458D02*
X173266613Y-69616480D01*
X171930814Y-68942414D02*
X172679662Y-69834856D01*
X171930814Y-68942414D02*
X171181966Y-68049972D01*
X171181966Y-68049972D02*
X171411780Y-67857136D01*
X171411780Y-67857136D02*
X170723997Y-67037468D01*
X166342223Y-70714213D02*
X167778853Y-72426323D01*
X170723997Y-67037468D02*
X166342223Y-70714213D01*
D11*
%TO.C,J2*%
X175406849Y-83008950D02*
X181296849Y-83008950D01*
X175406849Y-85598950D02*
X181296849Y-85598950D01*
%TO.C,J8*%
X146501229Y-108028226D02*
X148515728Y-102493437D01*
X148935033Y-108914059D02*
X150949531Y-103379269D01*
%TO.C,J11*%
X138852895Y-64728092D02*
X142638914Y-69240094D01*
X136868839Y-66392912D02*
X140654858Y-70904914D01*
%TO.C,J10*%
X137376839Y-102214988D02*
X141162858Y-97702986D01*
X139360895Y-103879808D02*
X143146914Y-99367806D01*
%TD*%
D13*
X167121506Y-76184213D02*
G75*
G03*
X167535838Y-72782526I-1493706J1908013D01*
G01*
X159026337Y-69639196D02*
G75*
G03*
X139997741Y-79477950I-4594337J-14434804D01*
G01*
X139489735Y-84105714D02*
G75*
G03*
X167121506Y-76184213I14942265J31714D01*
G01*
X139997740Y-79477950D02*
G75*
G03*
X139489740Y-84105714I-508000J-2286000D01*
G01*
X167535819Y-72782543D02*
G75*
G03*
X161877438Y-68460756I-13103819J-11291357D01*
G01*
D14*
X183432002Y-84073996D02*
G75*
G03*
X183432002Y-84073996I-29000000J0D01*
G01*
D13*
X161877437Y-68460759D02*
G75*
G03*
X159026339Y-69639191I-771037J-2172741D01*
G01*
M02*
