%TF.GenerationSoftware,KiCad,Pcbnew,7.0.1*%
%TF.CreationDate,2023-12-15T11:07:28+03:00*%
%TF.ProjectId,_____ _______,1f3b3042-3020-43e3-913c-3e423e3a2e6b,rev?*%
%TF.SameCoordinates,Original*%
%TF.FileFunction,Copper,L3,Inr*%
%TF.FilePolarity,Positive*%
%FSLAX46Y46*%
G04 Gerber Fmt 4.6, Leading zero omitted, Abs format (unit mm)*
G04 Created by KiCad (PCBNEW 7.0.1) date 2023-12-15 11:07:28*
%MOMM*%
%LPD*%
G01*
G04 APERTURE LIST*
G04 Aperture macros list*
%AMRoundRect*
0 Rectangle with rounded corners*
0 $1 Rounding radius*
0 $2 $3 $4 $5 $6 $7 $8 $9 X,Y pos of 4 corners*
0 Add a 4 corners polygon primitive as box body*
4,1,4,$2,$3,$4,$5,$6,$7,$8,$9,$2,$3,0*
0 Add four circle primitives for the rounded corners*
1,1,$1+$1,$2,$3*
1,1,$1+$1,$4,$5*
1,1,$1+$1,$6,$7*
1,1,$1+$1,$8,$9*
0 Add four rect primitives between the rounded corners*
20,1,$1+$1,$2,$3,$4,$5,0*
20,1,$1+$1,$4,$5,$6,$7,0*
20,1,$1+$1,$6,$7,$8,$9,0*
20,1,$1+$1,$8,$9,$2,$3,0*%
%AMHorizOval*
0 Thick line with rounded ends*
0 $1 width*
0 $2 $3 position (X,Y) of the first rounded end (center of the circle)*
0 $4 $5 position (X,Y) of the second rounded end (center of the circle)*
0 Add line between two ends*
20,1,$1,$2,$3,$4,$5,0*
0 Add two circle primitives to create the rounded ends*
1,1,$1,$2,$3*
1,1,$1,$4,$5*%
G04 Aperture macros list end*
%TA.AperFunction,ComponentPad*%
%ADD10C,4.000000*%
%TD*%
%TA.AperFunction,ComponentPad*%
%ADD11C,2.055000*%
%TD*%
%TA.AperFunction,ComponentPad*%
%ADD12RoundRect,0.200000X-0.408434X0.275103X-0.477893X-0.118820X0.408434X-0.275103X0.477893X0.118820X0*%
%TD*%
%TA.AperFunction,ComponentPad*%
%ADD13HorizOval,0.800000X-0.246202X0.043412X0.246202X-0.043412X0*%
%TD*%
%TA.AperFunction,ComponentPad*%
%ADD14RoundRect,0.200000X0.371440X0.323315X0.008917X0.492362X-0.371440X-0.323315X-0.008917X-0.492362X0*%
%TD*%
%TA.AperFunction,ComponentPad*%
%ADD15HorizOval,0.800000X0.105655X0.226577X-0.105655X-0.226577X0*%
%TD*%
%TA.AperFunction,ComponentPad*%
%ADD16R,1.700000X1.700000*%
%TD*%
%TA.AperFunction,ComponentPad*%
%ADD17O,1.700000X1.700000*%
%TD*%
%TA.AperFunction,ComponentPad*%
%ADD18RoundRect,0.200000X0.473278X0.136046X0.216162X0.442463X-0.473278X-0.136046X-0.216162X-0.442463X0*%
%TD*%
%TA.AperFunction,ComponentPad*%
%ADD19HorizOval,0.800000X0.191511X0.160697X-0.191511X-0.160697X0*%
%TD*%
%TA.AperFunction,Profile*%
%ADD20C,0.100000*%
%TD*%
%TA.AperFunction,Profile*%
%ADD21C,0.150000*%
%TD*%
G04 APERTURE END LIST*
D10*
%TO.N,B_OUT*%
%TO.C,J17*%
X134155740Y-71095950D03*
%TD*%
%TO.N,A_OUT*%
%TO.C,J15*%
X175557740Y-72873950D03*
%TD*%
%TO.N,B_OUT*%
%TO.C,J18*%
X152189740Y-60173950D03*
%TD*%
%TO.N,C_OUT*%
%TO.C,J19*%
X153205740Y-108179950D03*
%TD*%
%TO.N,C_OUT*%
%TO.C,J14*%
X135171740Y-98527950D03*
%TD*%
%TO.N,A_OUT*%
%TO.C,J16*%
X175049740Y-96495950D03*
%TD*%
D11*
%TO.N,B_OUT*%
%TO.C,J13*%
X147456010Y-60573623D03*
X149193472Y-65347262D03*
%TD*%
%TO.N,A_OUT*%
%TO.C,J3*%
X180855740Y-79985950D03*
X175775740Y-79985950D03*
%TD*%
D12*
%TO.N,PTC_Coil_C*%
%TO.C,J7*%
X132262682Y-80091243D03*
D13*
%TO.N,GNDA*%
X132045622Y-81322253D03*
%TD*%
D11*
%TO.N,B_OUT*%
%TO.C,J12*%
X142573740Y-62880836D03*
X145113740Y-67280245D03*
%TD*%
D14*
%TO.N,PTC_Coil_A*%
%TO.C,J4*%
X164757006Y-64348207D03*
D15*
%TO.N,GNDA*%
X163624121Y-63819934D03*
%TD*%
D11*
%TO.N,C_OUT*%
%TO.C,J9*%
X143081740Y-105727064D03*
X145621740Y-101327655D03*
%TD*%
%TO.N,A_OUT*%
%TO.C,J1*%
X180855740Y-88621950D03*
X175775740Y-88621950D03*
%TD*%
D16*
%TO.N,PTC_Coil_A*%
%TO.C,J5*%
X167123740Y-102611950D03*
D17*
%TO.N,GNDA*%
X169663740Y-102611950D03*
%TO.N,PTC_Coil_C*%
X167123740Y-105151950D03*
%TO.N,PTC_Coil_B*%
X169663740Y-105151950D03*
%TD*%
D18*
%TO.N,PTC_Coil_B*%
%TO.C,J6*%
X171673758Y-69973989D03*
D19*
%TO.N,GNDA*%
X170870273Y-69016433D03*
%TD*%
D11*
%TO.N,A_OUT*%
%TO.C,J2*%
X175811849Y-84303950D03*
X180891849Y-84303950D03*
%TD*%
%TO.N,C_OUT*%
%TO.C,J8*%
X147856649Y-108090567D03*
X149594111Y-103316928D03*
%TD*%
%TO.N,B_OUT*%
%TO.C,J11*%
X138121196Y-65870750D03*
X141386557Y-69762256D03*
%TD*%
%TO.N,C_OUT*%
%TO.C,J10*%
X138629196Y-102737150D03*
X141894557Y-98845644D03*
%TD*%
%TA.AperFunction,Conductor*%
%TO.N,GNDA*%
G36*
X154964218Y-56079599D02*
G01*
X156018529Y-56119524D01*
X156023130Y-56119785D01*
X157075247Y-56199584D01*
X157079850Y-56200021D01*
X158128106Y-56319567D01*
X158132726Y-56320181D01*
X159175748Y-56479315D01*
X159180372Y-56480110D01*
X160216575Y-56678590D01*
X160221138Y-56679554D01*
X161199156Y-56905564D01*
X161249098Y-56917105D01*
X161253648Y-56918247D01*
X162271897Y-57194531D01*
X162276364Y-57195835D01*
X163283445Y-57510459D01*
X163287882Y-57511938D01*
X164075508Y-57791131D01*
X164282271Y-57864423D01*
X164286665Y-57866074D01*
X165267049Y-58255954D01*
X165271355Y-58257762D01*
X166236264Y-58684454D01*
X166240520Y-58686432D01*
X166984065Y-59049470D01*
X167188595Y-59149332D01*
X167192764Y-59151466D01*
X168122646Y-59649914D01*
X168126732Y-59652205D01*
X169037088Y-60185484D01*
X169041054Y-60187909D01*
X169930634Y-60755291D01*
X169934479Y-60757847D01*
X170423230Y-61096260D01*
X170801908Y-61358458D01*
X170805715Y-61361202D01*
X171649764Y-61994182D01*
X171653464Y-61997068D01*
X172472980Y-62661555D01*
X172476552Y-62664565D01*
X173270353Y-63359603D01*
X173273777Y-63362717D01*
X174040699Y-64087287D01*
X174044039Y-64090564D01*
X174305376Y-64356895D01*
X174782990Y-64843635D01*
X174786213Y-64847047D01*
X175496108Y-65627508D01*
X175499200Y-65631039D01*
X176179074Y-66437829D01*
X176182006Y-66441445D01*
X176830887Y-67273415D01*
X176833686Y-67277149D01*
X177450577Y-68133021D01*
X177453249Y-68136879D01*
X177709432Y-68522254D01*
X178014079Y-68980533D01*
X178037327Y-69015504D01*
X178039845Y-69019452D01*
X178177781Y-69245022D01*
X178590262Y-69919563D01*
X178592634Y-69923613D01*
X179108579Y-70843877D01*
X179110796Y-70848013D01*
X179591557Y-71787160D01*
X179593616Y-71791378D01*
X180038483Y-72748025D01*
X180040381Y-72752317D01*
X180448727Y-73725108D01*
X180450462Y-73729469D01*
X180821715Y-74717045D01*
X180823283Y-74721468D01*
X181156901Y-75722391D01*
X181158300Y-75726871D01*
X181453791Y-76739664D01*
X181455020Y-76744193D01*
X181711978Y-77767459D01*
X181713035Y-77772032D01*
X181883321Y-78578166D01*
X181881907Y-78635381D01*
X181854950Y-78685867D01*
X181808190Y-78718869D01*
X181751591Y-78727357D01*
X181697208Y-78709521D01*
X181567965Y-78630321D01*
X181551583Y-78620282D01*
X181449906Y-78578166D01*
X181329378Y-78528241D01*
X181095512Y-78472095D01*
X180855740Y-78453225D01*
X180615967Y-78472095D01*
X180382101Y-78528241D01*
X180159895Y-78620283D01*
X179954828Y-78745948D01*
X179771940Y-78902150D01*
X179615738Y-79085038D01*
X179490073Y-79290105D01*
X179490072Y-79290107D01*
X179481431Y-79310968D01*
X179398031Y-79512311D01*
X179341885Y-79746177D01*
X179323015Y-79985949D01*
X179341885Y-80225722D01*
X179398031Y-80459588D01*
X179434607Y-80547888D01*
X179490072Y-80681793D01*
X179615739Y-80886863D01*
X179771940Y-81069750D01*
X179954827Y-81225951D01*
X180159897Y-81351618D01*
X180324060Y-81419616D01*
X180382101Y-81443658D01*
X180455986Y-81461396D01*
X180615969Y-81499805D01*
X180855740Y-81518675D01*
X181095511Y-81499805D01*
X181329378Y-81443658D01*
X181551583Y-81351618D01*
X181756653Y-81225951D01*
X181939540Y-81069750D01*
X182044316Y-80947073D01*
X182090780Y-80913201D01*
X182147534Y-80903931D01*
X182202367Y-80921261D01*
X182243486Y-80961464D01*
X182262046Y-81015893D01*
X182351091Y-81954091D01*
X182351446Y-81958771D01*
X182411313Y-83012099D01*
X182411491Y-83016788D01*
X182419315Y-83430156D01*
X182403965Y-83492302D01*
X182359666Y-83538511D01*
X182298223Y-83556469D01*
X182236011Y-83541390D01*
X182189611Y-83497295D01*
X182131850Y-83403037D01*
X181975649Y-83220150D01*
X181792762Y-83063949D01*
X181587692Y-82938282D01*
X181505610Y-82904282D01*
X181365487Y-82846241D01*
X181131621Y-82790095D01*
X180891849Y-82771225D01*
X180652076Y-82790095D01*
X180418210Y-82846241D01*
X180196004Y-82938283D01*
X179990937Y-83063948D01*
X179808049Y-83220150D01*
X179651847Y-83403038D01*
X179526182Y-83608105D01*
X179434140Y-83830311D01*
X179377994Y-84064177D01*
X179359124Y-84303950D01*
X179377994Y-84543722D01*
X179434140Y-84777588D01*
X179479581Y-84887290D01*
X179526181Y-84999793D01*
X179651848Y-85204863D01*
X179808049Y-85387750D01*
X179990936Y-85543951D01*
X180196006Y-85669618D01*
X180360169Y-85737616D01*
X180418210Y-85761658D01*
X180492095Y-85779396D01*
X180652078Y-85817805D01*
X180891849Y-85836675D01*
X181131620Y-85817805D01*
X181365487Y-85761658D01*
X181587692Y-85669618D01*
X181792762Y-85543951D01*
X181975649Y-85387750D01*
X182131850Y-85204863D01*
X182178072Y-85129434D01*
X182225296Y-85084894D01*
X182288559Y-85070318D01*
X182350516Y-85089706D01*
X182394186Y-85137744D01*
X182407597Y-85201263D01*
X182351446Y-86189220D01*
X182351091Y-86193900D01*
X182251405Y-87244223D01*
X182250873Y-87248886D01*
X182212219Y-87538951D01*
X182192140Y-87591862D01*
X182150641Y-87630340D01*
X182096366Y-87646371D01*
X182040621Y-87636615D01*
X181995016Y-87603104D01*
X181939540Y-87538150D01*
X181756653Y-87381949D01*
X181551583Y-87256282D01*
X181469501Y-87222282D01*
X181329378Y-87164241D01*
X181095512Y-87108095D01*
X180855740Y-87089225D01*
X180615967Y-87108095D01*
X180382101Y-87164241D01*
X180159895Y-87256283D01*
X179954828Y-87381948D01*
X179771940Y-87538150D01*
X179615738Y-87721038D01*
X179490073Y-87926105D01*
X179398031Y-88148311D01*
X179341885Y-88382177D01*
X179323015Y-88621949D01*
X179341885Y-88861722D01*
X179398031Y-89095588D01*
X179440334Y-89197714D01*
X179490072Y-89317793D01*
X179615739Y-89522863D01*
X179771940Y-89705750D01*
X179954827Y-89861951D01*
X180159897Y-89987618D01*
X180288539Y-90040903D01*
X180382101Y-90079658D01*
X180452374Y-90096529D01*
X180615969Y-90135805D01*
X180855740Y-90154675D01*
X181095511Y-90135805D01*
X181329378Y-90079658D01*
X181551583Y-89987618D01*
X181585613Y-89966764D01*
X181639993Y-89948929D01*
X181696593Y-89957416D01*
X181743353Y-89990417D01*
X181770311Y-90040903D01*
X181771725Y-90098119D01*
X181713035Y-90375959D01*
X181711978Y-90380532D01*
X181455020Y-91403798D01*
X181453791Y-91408327D01*
X181158300Y-92421120D01*
X181156901Y-92425600D01*
X180823283Y-93426523D01*
X180821715Y-93430946D01*
X180450462Y-94418522D01*
X180448727Y-94422883D01*
X180040381Y-95395674D01*
X180038483Y-95399966D01*
X179593616Y-96356613D01*
X179591557Y-96360831D01*
X179110796Y-97299978D01*
X179108579Y-97304114D01*
X178592634Y-98224378D01*
X178590262Y-98228428D01*
X178039851Y-99128530D01*
X178037327Y-99132487D01*
X177453249Y-100011112D01*
X177450577Y-100014970D01*
X176833686Y-100870842D01*
X176830871Y-100874597D01*
X176290512Y-101567426D01*
X176182030Y-101706517D01*
X176179074Y-101710162D01*
X175499200Y-102516952D01*
X175496108Y-102520483D01*
X174786213Y-103300944D01*
X174782990Y-103304356D01*
X174044049Y-104057417D01*
X174040699Y-104060704D01*
X173273801Y-104785252D01*
X173270329Y-104788410D01*
X172476569Y-105483412D01*
X172472980Y-105486436D01*
X171653464Y-106150923D01*
X171649764Y-106153809D01*
X170805715Y-106786789D01*
X170801908Y-106789533D01*
X169934511Y-107390122D01*
X169930602Y-107392721D01*
X169041073Y-107960070D01*
X169037069Y-107962518D01*
X168126739Y-108495782D01*
X168122646Y-108498077D01*
X167192773Y-108996520D01*
X167188595Y-108998659D01*
X166240520Y-109461559D01*
X166236264Y-109463537D01*
X165271355Y-109890229D01*
X165267028Y-109892046D01*
X164286664Y-110281917D01*
X164282271Y-110283568D01*
X163287897Y-110636048D01*
X163283445Y-110637532D01*
X162276364Y-110952156D01*
X162271858Y-110953471D01*
X161253650Y-111229743D01*
X161249098Y-111230886D01*
X160221152Y-111468434D01*
X160216560Y-111469404D01*
X159180373Y-111667880D01*
X159175748Y-111668676D01*
X158132742Y-111827807D01*
X158128090Y-111828426D01*
X157079885Y-111947966D01*
X157075213Y-111948410D01*
X156023172Y-112028203D01*
X156018486Y-112028469D01*
X154964218Y-112068393D01*
X154959526Y-112068482D01*
X153904478Y-112068482D01*
X153899786Y-112068393D01*
X152845517Y-112028469D01*
X152840831Y-112028203D01*
X151788790Y-111948410D01*
X151784118Y-111947966D01*
X150735913Y-111828426D01*
X150731261Y-111827807D01*
X149688255Y-111668676D01*
X149683630Y-111667880D01*
X148647443Y-111469404D01*
X148642851Y-111468434D01*
X147614905Y-111230886D01*
X147610353Y-111229743D01*
X146592145Y-110953471D01*
X146587639Y-110952156D01*
X145580558Y-110637532D01*
X145576106Y-110636048D01*
X144581732Y-110283568D01*
X144577339Y-110281917D01*
X143596975Y-109892046D01*
X143592648Y-109890229D01*
X142627739Y-109463537D01*
X142623483Y-109461559D01*
X141675408Y-108998659D01*
X141671230Y-108996520D01*
X140741357Y-108498077D01*
X140737264Y-108495782D01*
X140045524Y-108090566D01*
X146323924Y-108090566D01*
X146342794Y-108330339D01*
X146398940Y-108564205D01*
X146456981Y-108704328D01*
X146490981Y-108786410D01*
X146616648Y-108991480D01*
X146772849Y-109174367D01*
X146955736Y-109330568D01*
X147160806Y-109456235D01*
X147324969Y-109524233D01*
X147383010Y-109548275D01*
X147456895Y-109566013D01*
X147616878Y-109604422D01*
X147856649Y-109623292D01*
X148096420Y-109604422D01*
X148330287Y-109548275D01*
X148552492Y-109456235D01*
X148757562Y-109330568D01*
X148940449Y-109174367D01*
X149096650Y-108991480D01*
X149222317Y-108786410D01*
X149314357Y-108564205D01*
X149370504Y-108330338D01*
X149382340Y-108179950D01*
X150700295Y-108179950D01*
X150720051Y-108493960D01*
X150779009Y-108803032D01*
X150876235Y-109102260D01*
X151010203Y-109386957D01*
X151178793Y-109652613D01*
X151379352Y-109895047D01*
X151608711Y-110110430D01*
X151863255Y-110295366D01*
X152001114Y-110371154D01*
X152138974Y-110446944D01*
X152285244Y-110504856D01*
X152431514Y-110562769D01*
X152536791Y-110589799D01*
X152736267Y-110641016D01*
X152969551Y-110670486D01*
X153048420Y-110680450D01*
X153048422Y-110680450D01*
X153363058Y-110680450D01*
X153363060Y-110680450D01*
X153433081Y-110671603D01*
X153675213Y-110641016D01*
X153979965Y-110562769D01*
X154272506Y-110446944D01*
X154548224Y-110295366D01*
X154624045Y-110240279D01*
X154802768Y-110110430D01*
X155032127Y-109895047D01*
X155032127Y-109895046D01*
X155032130Y-109895044D01*
X155232687Y-109652613D01*
X155401277Y-109386957D01*
X155535243Y-109102265D01*
X155632471Y-108803029D01*
X155691428Y-108493965D01*
X155711184Y-108179950D01*
X155691428Y-107865935D01*
X155632471Y-107556871D01*
X155535243Y-107257635D01*
X155401277Y-106972943D01*
X155232687Y-106707287D01*
X155109055Y-106557842D01*
X155032127Y-106464852D01*
X154802768Y-106249469D01*
X154548224Y-106064533D01*
X154361196Y-105961714D01*
X157701527Y-105961714D01*
X157731153Y-106230966D01*
X157765738Y-106363254D01*
X157799668Y-106493038D01*
X157898199Y-106724900D01*
X157905611Y-106742342D01*
X158046722Y-106973561D01*
X158219993Y-107181768D01*
X158219995Y-107181770D01*
X158421738Y-107362532D01*
X158647650Y-107511994D01*
X158743373Y-107556867D01*
X158892917Y-107626971D01*
X159152302Y-107705008D01*
X159152309Y-107705010D01*
X159420301Y-107744450D01*
X159623371Y-107744450D01*
X159623374Y-107744450D01*
X159825896Y-107729627D01*
X159825895Y-107729627D01*
X160090293Y-107670730D01*
X160343298Y-107573964D01*
X160579517Y-107441391D01*
X160793917Y-107275838D01*
X160981926Y-107080831D01*
X161139539Y-106860529D01*
X161263396Y-106619625D01*
X161350858Y-106363255D01*
X161400059Y-106096883D01*
X161409952Y-105826185D01*
X161380326Y-105556932D01*
X161311812Y-105294862D01*
X161251081Y-105151950D01*
X165768080Y-105151950D01*
X165788676Y-105387357D01*
X165815454Y-105487293D01*
X165849837Y-105615613D01*
X165949705Y-105829780D01*
X166085245Y-106023351D01*
X166252339Y-106190445D01*
X166445910Y-106325985D01*
X166660077Y-106425853D01*
X166888332Y-106487013D01*
X167123740Y-106507609D01*
X167359148Y-106487013D01*
X167587403Y-106425853D01*
X167801570Y-106325985D01*
X167995141Y-106190445D01*
X168162235Y-106023351D01*
X168292166Y-105837789D01*
X168336483Y-105798925D01*
X168393740Y-105784914D01*
X168450997Y-105798925D01*
X168495313Y-105837789D01*
X168625245Y-106023351D01*
X168792339Y-106190445D01*
X168985910Y-106325985D01*
X169200077Y-106425853D01*
X169428332Y-106487013D01*
X169663740Y-106507609D01*
X169899148Y-106487013D01*
X170127403Y-106425853D01*
X170341570Y-106325985D01*
X170535141Y-106190445D01*
X170702235Y-106023351D01*
X170837775Y-105829780D01*
X170937643Y-105615613D01*
X170998803Y-105387358D01*
X171019399Y-105151950D01*
X170998803Y-104916542D01*
X170937643Y-104688287D01*
X170837775Y-104474121D01*
X170702235Y-104280549D01*
X170535141Y-104113455D01*
X170341570Y-103977915D01*
X170127403Y-103878047D01*
X170066241Y-103861659D01*
X169899147Y-103816886D01*
X169663740Y-103796290D01*
X169428332Y-103816886D01*
X169200076Y-103878047D01*
X168985910Y-103977915D01*
X168792338Y-104113455D01*
X168625245Y-104280548D01*
X168495315Y-104466109D01*
X168450997Y-104504975D01*
X168393740Y-104518986D01*
X168336483Y-104504975D01*
X168292165Y-104466109D01*
X168162234Y-104280548D01*
X168040309Y-104158623D01*
X168009013Y-104105877D01*
X168006824Y-104044584D01*
X168034277Y-103989739D01*
X168084656Y-103954760D01*
X168216071Y-103905746D01*
X168331286Y-103819496D01*
X168417536Y-103704281D01*
X168467831Y-103569433D01*
X168474240Y-103509823D01*
X168474239Y-101714078D01*
X168467831Y-101654467D01*
X168417536Y-101519619D01*
X168331286Y-101404404D01*
X168216071Y-101318154D01*
X168081223Y-101267859D01*
X168021613Y-101261450D01*
X168021609Y-101261450D01*
X166225870Y-101261450D01*
X166166255Y-101267859D01*
X166031409Y-101318154D01*
X165916194Y-101404404D01*
X165829944Y-101519618D01*
X165779649Y-101654466D01*
X165773240Y-101714080D01*
X165773240Y-103509819D01*
X165778280Y-103556699D01*
X165779649Y-103569433D01*
X165829944Y-103704281D01*
X165916194Y-103819496D01*
X166031409Y-103905746D01*
X166143647Y-103947608D01*
X166162822Y-103954760D01*
X166213202Y-103989739D01*
X166240655Y-104044584D01*
X166238466Y-104105876D01*
X166207171Y-104158623D01*
X166085243Y-104280551D01*
X165949705Y-104474120D01*
X165849837Y-104688286D01*
X165788676Y-104916542D01*
X165768080Y-105151950D01*
X161251081Y-105151950D01*
X161205870Y-105045560D01*
X161074793Y-104830783D01*
X161064757Y-104814338D01*
X160891486Y-104606131D01*
X160786498Y-104512062D01*
X160689742Y-104425368D01*
X160463830Y-104275906D01*
X160449858Y-104269356D01*
X160218562Y-104160928D01*
X159959177Y-104082891D01*
X159959171Y-104082890D01*
X159691179Y-104043450D01*
X159488109Y-104043450D01*
X159488106Y-104043450D01*
X159285583Y-104058272D01*
X159021189Y-104117169D01*
X158768181Y-104213936D01*
X158531963Y-104346509D01*
X158317565Y-104512059D01*
X158129553Y-104707070D01*
X157971941Y-104927370D01*
X157848082Y-105168279D01*
X157760621Y-105424645D01*
X157711420Y-105691016D01*
X157701527Y-105961714D01*
X154361196Y-105961714D01*
X154272504Y-105912955D01*
X153979965Y-105797130D01*
X153675214Y-105718884D01*
X153363060Y-105679450D01*
X153363058Y-105679450D01*
X153048422Y-105679450D01*
X153048420Y-105679450D01*
X152736265Y-105718884D01*
X152431514Y-105797130D01*
X152138975Y-105912955D01*
X151863255Y-106064533D01*
X151608711Y-106249469D01*
X151379352Y-106464852D01*
X151178793Y-106707286D01*
X151010203Y-106972942D01*
X150876235Y-107257639D01*
X150779009Y-107556867D01*
X150720051Y-107865939D01*
X150700295Y-108179950D01*
X149382340Y-108179950D01*
X149389374Y-108090567D01*
X149370504Y-107850796D01*
X149314357Y-107616929D01*
X149222317Y-107394724D01*
X149096650Y-107189654D01*
X148940449Y-107006767D01*
X148757562Y-106850566D01*
X148552492Y-106724899D01*
X148470410Y-106690899D01*
X148330287Y-106632858D01*
X148096421Y-106576712D01*
X147856649Y-106557842D01*
X147616876Y-106576712D01*
X147383010Y-106632858D01*
X147160804Y-106724900D01*
X146955737Y-106850565D01*
X146772849Y-107006767D01*
X146616647Y-107189655D01*
X146490982Y-107394722D01*
X146398940Y-107616928D01*
X146342794Y-107850794D01*
X146323924Y-108090566D01*
X140045524Y-108090566D01*
X139826934Y-107962518D01*
X139822930Y-107960070D01*
X139461626Y-107729627D01*
X138933381Y-107392708D01*
X138929512Y-107390135D01*
X138327876Y-106973561D01*
X138062095Y-106789533D01*
X138058288Y-106786789D01*
X137214239Y-106153809D01*
X137210539Y-106150923D01*
X136687791Y-105727064D01*
X141549015Y-105727064D01*
X141567885Y-105966836D01*
X141624031Y-106200702D01*
X141675926Y-106325985D01*
X141716072Y-106422907D01*
X141841739Y-106627977D01*
X141997940Y-106810864D01*
X142180827Y-106967065D01*
X142385897Y-107092732D01*
X142550060Y-107160730D01*
X142608101Y-107184772D01*
X142681986Y-107202510D01*
X142841969Y-107240919D01*
X143081740Y-107259789D01*
X143321511Y-107240919D01*
X143555378Y-107184772D01*
X143777583Y-107092732D01*
X143982653Y-106967065D01*
X144165540Y-106810864D01*
X144321741Y-106627977D01*
X144447408Y-106422907D01*
X144539448Y-106200702D01*
X144595595Y-105966835D01*
X144614465Y-105727064D01*
X144595595Y-105487293D01*
X144539448Y-105253426D01*
X144447408Y-105031221D01*
X144321741Y-104826151D01*
X144165540Y-104643264D01*
X143982653Y-104487063D01*
X143777583Y-104361396D01*
X143695501Y-104327396D01*
X143555378Y-104269355D01*
X143321512Y-104213209D01*
X143081740Y-104194339D01*
X142841967Y-104213209D01*
X142608101Y-104269355D01*
X142385895Y-104361397D01*
X142180828Y-104487062D01*
X141997940Y-104643264D01*
X141841738Y-104826152D01*
X141716073Y-105031219D01*
X141624031Y-105253425D01*
X141567885Y-105487291D01*
X141549015Y-105727064D01*
X136687791Y-105727064D01*
X136391023Y-105486436D01*
X136387434Y-105483412D01*
X135593652Y-104788390D01*
X135590224Y-104785272D01*
X134823295Y-104060695D01*
X134819954Y-104057417D01*
X134558106Y-103790566D01*
X134341120Y-103569433D01*
X134081013Y-103304356D01*
X134077790Y-103300944D01*
X133564972Y-102737150D01*
X137096471Y-102737150D01*
X137115341Y-102976922D01*
X137171487Y-103210788D01*
X137210245Y-103304356D01*
X137263528Y-103432993D01*
X137389195Y-103638063D01*
X137545396Y-103820950D01*
X137728283Y-103977151D01*
X137933353Y-104102818D01*
X138097516Y-104170816D01*
X138155557Y-104194858D01*
X138229442Y-104212596D01*
X138389425Y-104251005D01*
X138629196Y-104269875D01*
X138868967Y-104251005D01*
X139102834Y-104194858D01*
X139325039Y-104102818D01*
X139530109Y-103977151D01*
X139712996Y-103820950D01*
X139869197Y-103638063D01*
X139994864Y-103432993D01*
X140042940Y-103316927D01*
X148061386Y-103316927D01*
X148080256Y-103556700D01*
X148136402Y-103790566D01*
X148184112Y-103905746D01*
X148228443Y-104012771D01*
X148354110Y-104217841D01*
X148510311Y-104400728D01*
X148693198Y-104556929D01*
X148898268Y-104682596D01*
X149062431Y-104750594D01*
X149120472Y-104774636D01*
X149177845Y-104788410D01*
X149354340Y-104830783D01*
X149594111Y-104849653D01*
X149833882Y-104830783D01*
X150067749Y-104774636D01*
X150289954Y-104682596D01*
X150495024Y-104556929D01*
X150677911Y-104400728D01*
X150834112Y-104217841D01*
X150959779Y-104012771D01*
X151051819Y-103790566D01*
X151107966Y-103556699D01*
X151126836Y-103316928D01*
X151107966Y-103077157D01*
X151051819Y-102843290D01*
X151051081Y-102841509D01*
X151027777Y-102785248D01*
X150959779Y-102621085D01*
X150834112Y-102416015D01*
X150677911Y-102233128D01*
X150495024Y-102076927D01*
X150289954Y-101951260D01*
X150207872Y-101917260D01*
X150067749Y-101859219D01*
X149833883Y-101803073D01*
X149594111Y-101784203D01*
X149354338Y-101803073D01*
X149120472Y-101859219D01*
X148898266Y-101951261D01*
X148693199Y-102076926D01*
X148510311Y-102233128D01*
X148354109Y-102416016D01*
X148228444Y-102621083D01*
X148136402Y-102843289D01*
X148080256Y-103077155D01*
X148061386Y-103316927D01*
X140042940Y-103316927D01*
X140086904Y-103210788D01*
X140143051Y-102976921D01*
X140161921Y-102737150D01*
X140143051Y-102497379D01*
X140086904Y-102263512D01*
X139994864Y-102041307D01*
X139869197Y-101836237D01*
X139712996Y-101653350D01*
X139530109Y-101497149D01*
X139325039Y-101371482D01*
X139219231Y-101327655D01*
X144089015Y-101327655D01*
X144107885Y-101567427D01*
X144164031Y-101801293D01*
X144222072Y-101941416D01*
X144256072Y-102023498D01*
X144381739Y-102228568D01*
X144537940Y-102411455D01*
X144720827Y-102567656D01*
X144925897Y-102693323D01*
X145090060Y-102761321D01*
X145148101Y-102785363D01*
X145221986Y-102803101D01*
X145381969Y-102841510D01*
X145621740Y-102860380D01*
X145861511Y-102841510D01*
X146095378Y-102785363D01*
X146317583Y-102693323D01*
X146522653Y-102567656D01*
X146705540Y-102411455D01*
X146861741Y-102228568D01*
X146987408Y-102023498D01*
X147079448Y-101801293D01*
X147135595Y-101567426D01*
X147154465Y-101327655D01*
X147135595Y-101087884D01*
X147083945Y-100872747D01*
X147079448Y-100854016D01*
X147054979Y-100794944D01*
X146987408Y-100631812D01*
X146861741Y-100426742D01*
X146705540Y-100243855D01*
X146522653Y-100087654D01*
X146317583Y-99961987D01*
X146207118Y-99916231D01*
X146095378Y-99869946D01*
X145861512Y-99813800D01*
X145621740Y-99794930D01*
X145381967Y-99813800D01*
X145148101Y-99869946D01*
X144925895Y-99961988D01*
X144720828Y-100087653D01*
X144537940Y-100243855D01*
X144381738Y-100426743D01*
X144256073Y-100631810D01*
X144164031Y-100854016D01*
X144107885Y-101087882D01*
X144089015Y-101327655D01*
X139219231Y-101327655D01*
X139102834Y-101279441D01*
X138868968Y-101223295D01*
X138629196Y-101204425D01*
X138389423Y-101223295D01*
X138155557Y-101279441D01*
X137933351Y-101371483D01*
X137728284Y-101497148D01*
X137545396Y-101653350D01*
X137389194Y-101836238D01*
X137263529Y-102041305D01*
X137171487Y-102263511D01*
X137115341Y-102497377D01*
X137096471Y-102737150D01*
X133564972Y-102737150D01*
X133367895Y-102520483D01*
X133364803Y-102516952D01*
X132684929Y-101710162D01*
X132682001Y-101706552D01*
X132033110Y-100874568D01*
X132030317Y-100870842D01*
X131413426Y-100014970D01*
X131410754Y-100011112D01*
X131378098Y-99961988D01*
X130826661Y-99132464D01*
X130824166Y-99128553D01*
X130456898Y-98527950D01*
X132666295Y-98527950D01*
X132686051Y-98841960D01*
X132745009Y-99151032D01*
X132842235Y-99450260D01*
X132842237Y-99450265D01*
X132913612Y-99601944D01*
X132976203Y-99734957D01*
X133144793Y-100000613D01*
X133345352Y-100243047D01*
X133574711Y-100458430D01*
X133829255Y-100643366D01*
X133967115Y-100719155D01*
X134104974Y-100794944D01*
X134251244Y-100852856D01*
X134397514Y-100910769D01*
X134502791Y-100937799D01*
X134702267Y-100989016D01*
X134935551Y-101018486D01*
X135014420Y-101028450D01*
X135014422Y-101028450D01*
X135329058Y-101028450D01*
X135329060Y-101028450D01*
X135399081Y-101019603D01*
X135641213Y-100989016D01*
X135945965Y-100910769D01*
X136238506Y-100794944D01*
X136514224Y-100643366D01*
X136532530Y-100630066D01*
X136768768Y-100458430D01*
X136998127Y-100243047D01*
X136998127Y-100243046D01*
X136998130Y-100243044D01*
X137198687Y-100000613D01*
X137367277Y-99734957D01*
X137501243Y-99450265D01*
X137598471Y-99151029D01*
X137656726Y-98845644D01*
X140361832Y-98845644D01*
X140380702Y-99085416D01*
X140436848Y-99319282D01*
X140491102Y-99450260D01*
X140528889Y-99541487D01*
X140654556Y-99746557D01*
X140810757Y-99929444D01*
X140993644Y-100085645D01*
X141198714Y-100211312D01*
X141362877Y-100279310D01*
X141420918Y-100303352D01*
X141494803Y-100321090D01*
X141654786Y-100359499D01*
X141894557Y-100378369D01*
X142134328Y-100359499D01*
X142368195Y-100303352D01*
X142590400Y-100211312D01*
X142795470Y-100085645D01*
X142978357Y-99929444D01*
X143134558Y-99746557D01*
X143260225Y-99541487D01*
X143352265Y-99319282D01*
X143408412Y-99085415D01*
X143427282Y-98845644D01*
X143408412Y-98605873D01*
X143352265Y-98372006D01*
X143349038Y-98364216D01*
X143328223Y-98313964D01*
X143260225Y-98149801D01*
X143134558Y-97944731D01*
X142978357Y-97761844D01*
X142795470Y-97605643D01*
X142590400Y-97479976D01*
X142508318Y-97445976D01*
X142368195Y-97387935D01*
X142134329Y-97331789D01*
X141894557Y-97312919D01*
X141654784Y-97331789D01*
X141420918Y-97387935D01*
X141250827Y-97458390D01*
X141208444Y-97475946D01*
X141198712Y-97479977D01*
X140993645Y-97605642D01*
X140810757Y-97761844D01*
X140654555Y-97944732D01*
X140528890Y-98149799D01*
X140436848Y-98372005D01*
X140380702Y-98605871D01*
X140361832Y-98845644D01*
X137656726Y-98845644D01*
X137657428Y-98841965D01*
X137677184Y-98527950D01*
X137657428Y-98213935D01*
X137598471Y-97904871D01*
X137501243Y-97605635D01*
X137367277Y-97320943D01*
X137198687Y-97055287D01*
X136998130Y-96812856D01*
X136998127Y-96812852D01*
X136768768Y-96597469D01*
X136514224Y-96412533D01*
X136238504Y-96260955D01*
X135945965Y-96145130D01*
X135641214Y-96066884D01*
X135329060Y-96027450D01*
X135329058Y-96027450D01*
X135014422Y-96027450D01*
X135014420Y-96027450D01*
X134702265Y-96066884D01*
X134397514Y-96145130D01*
X134104975Y-96260955D01*
X133829255Y-96412533D01*
X133574711Y-96597469D01*
X133345352Y-96812852D01*
X133144793Y-97055286D01*
X132976203Y-97320942D01*
X132842235Y-97605639D01*
X132745009Y-97904867D01*
X132686051Y-98213939D01*
X132666295Y-98527950D01*
X130456898Y-98527950D01*
X130356775Y-98364216D01*
X130273741Y-98228428D01*
X130271369Y-98224378D01*
X129755424Y-97304114D01*
X129753207Y-97299978D01*
X129676212Y-97149571D01*
X129272440Y-96360819D01*
X129270387Y-96356613D01*
X129225903Y-96260955D01*
X128924257Y-95612292D01*
X128825520Y-95399966D01*
X128823622Y-95395674D01*
X128415276Y-94422883D01*
X128413541Y-94418522D01*
X128399260Y-94380534D01*
X128042287Y-93430944D01*
X128040720Y-93426523D01*
X127707102Y-92425600D01*
X127705703Y-92421120D01*
X127685407Y-92351557D01*
X127410209Y-91408316D01*
X127408983Y-91403798D01*
X127382914Y-91299987D01*
X127152024Y-90380529D01*
X127150968Y-90375959D01*
X127138478Y-90316831D01*
X126932906Y-89343654D01*
X126932040Y-89339133D01*
X126907717Y-89197714D01*
X130777527Y-89197714D01*
X130807153Y-89466966D01*
X130841738Y-89599254D01*
X130875668Y-89729038D01*
X130969112Y-89948929D01*
X130981611Y-89978342D01*
X131122722Y-90209561D01*
X131263106Y-90378250D01*
X131295995Y-90417770D01*
X131497738Y-90598532D01*
X131723650Y-90747994D01*
X131829951Y-90797826D01*
X131968917Y-90862971D01*
X132228302Y-90941008D01*
X132228309Y-90941010D01*
X132496301Y-90980450D01*
X132699371Y-90980450D01*
X132699374Y-90980450D01*
X132901896Y-90965627D01*
X132901896Y-90965626D01*
X133166293Y-90906730D01*
X133419298Y-90809964D01*
X133655517Y-90677391D01*
X133869917Y-90511838D01*
X134057926Y-90316831D01*
X134215539Y-90096529D01*
X134339396Y-89855625D01*
X134426858Y-89599255D01*
X134476059Y-89332883D01*
X134485952Y-89062185D01*
X134456326Y-88792932D01*
X134387812Y-88530862D01*
X134281870Y-88281560D01*
X134140758Y-88050340D01*
X134140757Y-88050338D01*
X133967486Y-87842131D01*
X133862498Y-87748062D01*
X133765742Y-87661368D01*
X133539830Y-87511906D01*
X133539826Y-87511904D01*
X133294562Y-87396928D01*
X133035177Y-87318891D01*
X133035171Y-87318890D01*
X132767179Y-87279450D01*
X132564109Y-87279450D01*
X132564106Y-87279450D01*
X132361583Y-87294272D01*
X132097189Y-87353169D01*
X131844181Y-87449936D01*
X131607963Y-87582509D01*
X131393565Y-87748059D01*
X131205553Y-87943070D01*
X131047941Y-88163370D01*
X130924082Y-88404279D01*
X130836621Y-88660645D01*
X130787420Y-88927016D01*
X130777527Y-89197714D01*
X126907717Y-89197714D01*
X126753187Y-88299254D01*
X126752491Y-88294687D01*
X126613125Y-87248846D01*
X126612602Y-87244262D01*
X126512908Y-86193857D01*
X126512560Y-86189263D01*
X126452688Y-85135850D01*
X126452513Y-85131245D01*
X126432546Y-84076321D01*
X126432546Y-84071649D01*
X126452513Y-83016744D01*
X126452688Y-83012143D01*
X126512560Y-81958724D01*
X126512908Y-81954138D01*
X126515661Y-81925133D01*
X136146772Y-81925133D01*
X136182081Y-82274639D01*
X136253828Y-82618518D01*
X136361222Y-82952982D01*
X136420086Y-83086328D01*
X136503086Y-83274351D01*
X136624181Y-83485498D01*
X136677851Y-83579079D01*
X136883595Y-83863813D01*
X137118043Y-84125405D01*
X137244894Y-84240086D01*
X137378626Y-84360989D01*
X137629223Y-84543721D01*
X137662468Y-84567963D01*
X137850553Y-84676915D01*
X137966432Y-84744042D01*
X138041545Y-84777588D01*
X138287177Y-84887290D01*
X138287178Y-84887290D01*
X138287182Y-84887292D01*
X138432756Y-84934731D01*
X138475771Y-84959118D01*
X138505837Y-84998374D01*
X138518172Y-85046258D01*
X138530476Y-85285438D01*
X138609449Y-86067214D01*
X138726838Y-86844182D01*
X138791461Y-87164242D01*
X138882348Y-87614388D01*
X139075610Y-88376012D01*
X139306153Y-89127192D01*
X139573416Y-89866105D01*
X139788692Y-90380532D01*
X139876753Y-90590963D01*
X139918035Y-90677390D01*
X140215421Y-91299987D01*
X140588604Y-91991475D01*
X140791999Y-92327607D01*
X140995394Y-92663741D01*
X141273515Y-93076046D01*
X141434806Y-93315155D01*
X141434811Y-93315162D01*
X141434814Y-93315166D01*
X141905764Y-93944128D01*
X141905769Y-93944134D01*
X142407142Y-94549152D01*
X142422082Y-94565472D01*
X142937711Y-95128744D01*
X143246473Y-95434343D01*
X143496178Y-95681490D01*
X143709613Y-95872871D01*
X144013245Y-96145130D01*
X144081197Y-96206060D01*
X144691344Y-96701178D01*
X144691350Y-96701183D01*
X144691357Y-96701188D01*
X145261532Y-97119029D01*
X145325139Y-97165642D01*
X145981042Y-97598323D01*
X146515393Y-97914191D01*
X146657473Y-97998178D01*
X147352758Y-98364218D01*
X148065213Y-98695560D01*
X148065218Y-98695562D01*
X148065233Y-98695569D01*
X148793169Y-98991426D01*
X149300389Y-99169003D01*
X149534799Y-99251070D01*
X150052296Y-99404081D01*
X150288308Y-99473864D01*
X150288311Y-99473864D01*
X150288312Y-99473865D01*
X151051884Y-99659276D01*
X151761321Y-99794930D01*
X151823660Y-99806850D01*
X152601772Y-99916231D01*
X153384327Y-99987151D01*
X153711652Y-100000613D01*
X154169416Y-100019440D01*
X154169423Y-100019439D01*
X154169425Y-100019440D01*
X154955160Y-100013019D01*
X155633438Y-99974009D01*
X155739627Y-99967902D01*
X156520911Y-99884201D01*
X156611539Y-99869947D01*
X157297136Y-99762117D01*
X158066400Y-99601947D01*
X158826841Y-99404081D01*
X159576613Y-99168998D01*
X160313895Y-98897269D01*
X161036898Y-98589555D01*
X161743867Y-98246601D01*
X162433084Y-97869241D01*
X163102877Y-97458390D01*
X163751621Y-97015046D01*
X164377739Y-96540286D01*
X164430586Y-96495950D01*
X172544295Y-96495950D01*
X172564051Y-96809960D01*
X172623009Y-97119032D01*
X172692139Y-97331789D01*
X172720237Y-97418265D01*
X172834001Y-97660025D01*
X172854203Y-97702957D01*
X173022793Y-97968613D01*
X173223352Y-98211047D01*
X173452711Y-98426430D01*
X173707255Y-98611366D01*
X173845115Y-98687155D01*
X173982974Y-98762944D01*
X174129244Y-98820856D01*
X174275514Y-98878769D01*
X174380791Y-98905799D01*
X174580267Y-98957016D01*
X174813552Y-98986486D01*
X174892420Y-98996450D01*
X174892422Y-98996450D01*
X175207058Y-98996450D01*
X175207060Y-98996450D01*
X175277081Y-98987603D01*
X175519213Y-98957016D01*
X175823965Y-98878769D01*
X176116506Y-98762944D01*
X176392224Y-98611366D01*
X176392224Y-98611365D01*
X176646768Y-98426430D01*
X176876127Y-98211047D01*
X176876127Y-98211046D01*
X176876130Y-98211044D01*
X177076687Y-97968613D01*
X177245277Y-97702957D01*
X177379243Y-97418265D01*
X177476471Y-97119029D01*
X177535428Y-96809965D01*
X177555184Y-96495950D01*
X177535428Y-96181935D01*
X177476471Y-95872871D01*
X177379243Y-95573635D01*
X177245277Y-95288943D01*
X177076687Y-95023287D01*
X176876130Y-94780856D01*
X176876127Y-94780852D01*
X176646768Y-94565469D01*
X176392224Y-94380533D01*
X176116504Y-94228955D01*
X175823965Y-94113130D01*
X175519214Y-94034884D01*
X175207060Y-93995450D01*
X175207058Y-93995450D01*
X174892422Y-93995450D01*
X174892420Y-93995450D01*
X174580265Y-94034884D01*
X174275514Y-94113130D01*
X173982975Y-94228955D01*
X173707255Y-94380533D01*
X173452711Y-94565469D01*
X173223352Y-94780852D01*
X173022793Y-95023286D01*
X172854203Y-95288942D01*
X172720235Y-95573639D01*
X172623009Y-95872867D01*
X172564051Y-96181939D01*
X172544295Y-96495950D01*
X164430586Y-96495950D01*
X164979712Y-96035261D01*
X165556079Y-95501199D01*
X166105440Y-94939395D01*
X166626462Y-94351213D01*
X167117880Y-93738081D01*
X167578500Y-93101489D01*
X168007205Y-92442980D01*
X168402953Y-91764154D01*
X168764785Y-91066659D01*
X169091821Y-90352188D01*
X169383268Y-89622476D01*
X169638419Y-88879293D01*
X169712819Y-88621949D01*
X174243015Y-88621949D01*
X174261885Y-88861722D01*
X174318031Y-89095588D01*
X174360334Y-89197714D01*
X174410072Y-89317793D01*
X174535739Y-89522863D01*
X174691940Y-89705750D01*
X174874827Y-89861951D01*
X175079897Y-89987618D01*
X175208539Y-90040903D01*
X175302101Y-90079658D01*
X175372374Y-90096529D01*
X175535969Y-90135805D01*
X175775740Y-90154675D01*
X176015511Y-90135805D01*
X176249378Y-90079658D01*
X176471583Y-89987618D01*
X176676653Y-89861951D01*
X176859540Y-89705750D01*
X177015741Y-89522863D01*
X177141408Y-89317793D01*
X177233448Y-89095588D01*
X177289595Y-88861721D01*
X177308465Y-88621950D01*
X177289595Y-88382179D01*
X177251186Y-88222196D01*
X177233448Y-88148311D01*
X177192866Y-88050338D01*
X177141408Y-87926107D01*
X177015741Y-87721037D01*
X176859540Y-87538150D01*
X176676653Y-87381949D01*
X176471583Y-87256282D01*
X176389501Y-87222282D01*
X176249378Y-87164241D01*
X176015512Y-87108095D01*
X175775740Y-87089225D01*
X175535967Y-87108095D01*
X175302101Y-87164241D01*
X175079895Y-87256283D01*
X174874828Y-87381948D01*
X174691940Y-87538150D01*
X174535738Y-87721038D01*
X174410073Y-87926105D01*
X174318031Y-88148311D01*
X174261885Y-88382177D01*
X174243015Y-88621949D01*
X169712819Y-88621949D01*
X169856652Y-88124445D01*
X170037440Y-87359764D01*
X170180343Y-86587106D01*
X170285014Y-85808347D01*
X170320568Y-85387749D01*
X170338986Y-85169858D01*
X170351199Y-85025378D01*
X170376498Y-84303950D01*
X174279124Y-84303950D01*
X174297994Y-84543722D01*
X174354140Y-84777588D01*
X174399581Y-84887290D01*
X174446181Y-84999793D01*
X174571848Y-85204863D01*
X174728049Y-85387750D01*
X174910936Y-85543951D01*
X175116006Y-85669618D01*
X175280169Y-85737616D01*
X175338210Y-85761658D01*
X175412095Y-85779396D01*
X175572078Y-85817805D01*
X175811849Y-85836675D01*
X176051620Y-85817805D01*
X176285487Y-85761658D01*
X176507692Y-85669618D01*
X176712762Y-85543951D01*
X176895649Y-85387750D01*
X177051850Y-85204863D01*
X177177517Y-84999793D01*
X177269557Y-84777588D01*
X177325704Y-84543721D01*
X177344574Y-84303950D01*
X177325704Y-84064179D01*
X177269557Y-83830312D01*
X177177517Y-83608107D01*
X177051850Y-83403037D01*
X176895649Y-83220150D01*
X176712762Y-83063949D01*
X176507692Y-82938282D01*
X176425610Y-82904282D01*
X176285487Y-82846241D01*
X176051621Y-82790095D01*
X175811849Y-82771225D01*
X175572076Y-82790095D01*
X175338210Y-82846241D01*
X175116004Y-82938283D01*
X174910937Y-83063948D01*
X174728049Y-83220150D01*
X174571847Y-83403038D01*
X174446182Y-83608105D01*
X174354140Y-83830311D01*
X174297994Y-84064177D01*
X174279124Y-84303950D01*
X170376498Y-84303950D01*
X170378737Y-84240099D01*
X170377322Y-84140646D01*
X170369302Y-83576762D01*
X170367562Y-83454416D01*
X170317700Y-82670238D01*
X170229273Y-81889468D01*
X170102495Y-81114001D01*
X169937674Y-80345720D01*
X169841734Y-79985949D01*
X174243015Y-79985949D01*
X174261885Y-80225722D01*
X174318031Y-80459588D01*
X174354607Y-80547888D01*
X174410072Y-80681793D01*
X174535739Y-80886863D01*
X174691940Y-81069750D01*
X174874827Y-81225951D01*
X175079897Y-81351618D01*
X175244060Y-81419616D01*
X175302101Y-81443658D01*
X175375986Y-81461396D01*
X175535969Y-81499805D01*
X175775740Y-81518675D01*
X176015511Y-81499805D01*
X176249378Y-81443658D01*
X176471583Y-81351618D01*
X176676653Y-81225951D01*
X176859540Y-81069750D01*
X177015741Y-80886863D01*
X177141408Y-80681793D01*
X177233448Y-80459588D01*
X177289595Y-80225721D01*
X177308465Y-79985950D01*
X177289595Y-79746179D01*
X177233448Y-79512312D01*
X177228745Y-79500959D01*
X177169486Y-79357894D01*
X177141408Y-79290107D01*
X177015741Y-79085037D01*
X176859540Y-78902150D01*
X176676653Y-78745949D01*
X176471583Y-78620282D01*
X176369906Y-78578166D01*
X176249378Y-78528241D01*
X176015512Y-78472095D01*
X175775740Y-78453225D01*
X175535967Y-78472095D01*
X175302101Y-78528241D01*
X175079895Y-78620283D01*
X174874828Y-78745948D01*
X174691940Y-78902150D01*
X174535738Y-79085038D01*
X174410073Y-79290105D01*
X174410072Y-79290107D01*
X174401431Y-79310968D01*
X174318031Y-79512311D01*
X174261885Y-79746177D01*
X174243015Y-79985949D01*
X169841734Y-79985949D01*
X169735211Y-79586490D01*
X169495596Y-78838154D01*
X169219412Y-78102530D01*
X168907329Y-77381402D01*
X168560104Y-76676521D01*
X168405978Y-76399021D01*
X168390551Y-76332300D01*
X168412891Y-76267567D01*
X168526555Y-76105656D01*
X168691913Y-75812722D01*
X168827763Y-75504991D01*
X168932796Y-75185427D01*
X169006000Y-74857106D01*
X169046672Y-74523191D01*
X169054419Y-74186897D01*
X169029166Y-73851463D01*
X169029166Y-73851460D01*
X168971156Y-73520118D01*
X168880952Y-73196063D01*
X168759415Y-72882400D01*
X168755146Y-72873950D01*
X173052295Y-72873950D01*
X173072051Y-73187960D01*
X173131009Y-73497032D01*
X173222603Y-73778926D01*
X173228237Y-73796265D01*
X173362202Y-74080956D01*
X173362203Y-74080957D01*
X173530793Y-74346613D01*
X173731352Y-74589047D01*
X173960711Y-74804430D01*
X174215255Y-74989366D01*
X174353114Y-75065154D01*
X174490974Y-75140944D01*
X174603328Y-75185428D01*
X174783514Y-75256769D01*
X174888791Y-75283799D01*
X175088267Y-75335016D01*
X175321552Y-75364486D01*
X175400420Y-75374450D01*
X175400422Y-75374450D01*
X175715058Y-75374450D01*
X175715060Y-75374450D01*
X175785081Y-75365603D01*
X176027213Y-75335016D01*
X176331965Y-75256769D01*
X176624506Y-75140944D01*
X176900224Y-74989366D01*
X176900223Y-74989366D01*
X177154768Y-74804430D01*
X177384127Y-74589047D01*
X177384127Y-74589046D01*
X177384130Y-74589044D01*
X177584687Y-74346613D01*
X177753277Y-74080957D01*
X177887243Y-73796265D01*
X177984471Y-73497029D01*
X178043428Y-73187965D01*
X178063184Y-72873950D01*
X178043428Y-72559935D01*
X177984471Y-72250871D01*
X177974487Y-72220145D01*
X177887244Y-71951639D01*
X177887243Y-71951635D01*
X177753277Y-71666943D01*
X177584687Y-71401287D01*
X177384130Y-71158856D01*
X177384127Y-71158852D01*
X177154768Y-70943469D01*
X176900224Y-70758533D01*
X176624504Y-70606955D01*
X176331965Y-70491130D01*
X176027214Y-70412884D01*
X175715060Y-70373450D01*
X175715058Y-70373450D01*
X175400422Y-70373450D01*
X175400420Y-70373450D01*
X175088265Y-70412884D01*
X174783514Y-70491130D01*
X174490975Y-70606955D01*
X174215255Y-70758533D01*
X173960711Y-70943469D01*
X173731352Y-71158852D01*
X173530793Y-71401286D01*
X173362203Y-71666942D01*
X173228235Y-71951639D01*
X173131009Y-72250867D01*
X173072051Y-72559939D01*
X173052295Y-72873950D01*
X168755146Y-72873950D01*
X168607719Y-72582160D01*
X168509929Y-72428247D01*
X168427327Y-72298238D01*
X168371458Y-72226870D01*
X168361902Y-72212760D01*
X168354289Y-72199660D01*
X168354288Y-72199659D01*
X168354286Y-72199655D01*
X168311037Y-72149464D01*
X168307334Y-72144957D01*
X168266502Y-72092798D01*
X168254974Y-72082650D01*
X168242974Y-72070523D01*
X168077537Y-71878554D01*
X168046099Y-71842074D01*
X167641366Y-71409965D01*
X167527433Y-71288325D01*
X166986265Y-70756554D01*
X166986262Y-70756551D01*
X166423515Y-70247663D01*
X166286494Y-70133714D01*
X170495233Y-70133714D01*
X170521392Y-70301802D01*
X170587019Y-70458746D01*
X170612425Y-70495290D01*
X170627474Y-70516937D01*
X170901809Y-70843877D01*
X170957374Y-70910096D01*
X171007652Y-70960038D01*
X171007654Y-70960039D01*
X171007655Y-70960040D01*
X171147181Y-71049589D01*
X171150820Y-71051924D01*
X171311809Y-71106874D01*
X171337045Y-71109081D01*
X171481275Y-71121700D01*
X171649364Y-71095540D01*
X171806308Y-71029913D01*
X171864498Y-70989459D01*
X172640679Y-70338166D01*
X172690623Y-70287884D01*
X172782506Y-70144721D01*
X172831211Y-70002027D01*
X172837457Y-69983729D01*
X172842896Y-69921557D01*
X172852283Y-69814264D01*
X172826123Y-69646175D01*
X172760496Y-69489231D01*
X172720042Y-69431041D01*
X172390143Y-69037883D01*
X172371597Y-69019461D01*
X172339863Y-68987939D01*
X172196695Y-68896053D01*
X172035706Y-68841103D01*
X171878858Y-68827381D01*
X171866241Y-68826278D01*
X171866240Y-68826278D01*
X171698152Y-68852437D01*
X171541208Y-68918064D01*
X171483024Y-68958514D01*
X171483018Y-68958518D01*
X171483018Y-68958519D01*
X170737766Y-69583860D01*
X170706829Y-69609819D01*
X170656894Y-69660091D01*
X170565008Y-69803259D01*
X170510058Y-69964248D01*
X170495233Y-70133714D01*
X166286494Y-70133714D01*
X165840160Y-69762536D01*
X165839793Y-69762256D01*
X165237191Y-69301996D01*
X164615668Y-68866856D01*
X163976643Y-68457848D01*
X163321214Y-68075677D01*
X163188481Y-68005486D01*
X162650494Y-67720991D01*
X162349154Y-67577269D01*
X162340307Y-67572602D01*
X162299411Y-67548870D01*
X162299412Y-67548870D01*
X162299408Y-67548868D01*
X162267174Y-67537429D01*
X162255273Y-67532496D01*
X162224401Y-67517774D01*
X162178722Y-67505614D01*
X162169153Y-67502648D01*
X162048776Y-67459931D01*
X161711931Y-67378819D01*
X161368443Y-67333356D01*
X161022100Y-67324042D01*
X160676665Y-67350979D01*
X160335949Y-67413869D01*
X160003666Y-67512027D01*
X159683465Y-67644374D01*
X159378847Y-67809464D01*
X159093148Y-68005489D01*
X158829515Y-68230290D01*
X158650272Y-68418866D01*
X158594080Y-68452774D01*
X158528452Y-68453252D01*
X158220679Y-68371198D01*
X157469282Y-68208723D01*
X157166189Y-68158143D01*
X156710991Y-68082181D01*
X156710980Y-68082179D01*
X156710976Y-68082179D01*
X155947553Y-67991861D01*
X155180658Y-67937966D01*
X154412101Y-67920619D01*
X153643567Y-67939861D01*
X152876828Y-67995644D01*
X152113604Y-68087846D01*
X151355632Y-68216256D01*
X150604643Y-68380581D01*
X150604638Y-68380582D01*
X150604635Y-68380583D01*
X150462451Y-68418866D01*
X149862290Y-68580458D01*
X149130315Y-68815421D01*
X148410353Y-69084941D01*
X147721627Y-69380852D01*
X147704013Y-69388420D01*
X147249643Y-69609812D01*
X147012906Y-69725162D01*
X146338619Y-70094398D01*
X145682674Y-70495290D01*
X145682666Y-70495295D01*
X145682665Y-70495296D01*
X145650772Y-70516937D01*
X145046518Y-70926953D01*
X144431636Y-71388386D01*
X143839405Y-71878550D01*
X143271149Y-72396351D01*
X142728198Y-72940577D01*
X142300904Y-73411722D01*
X142211739Y-73510038D01*
X142173044Y-73557015D01*
X141722957Y-74103428D01*
X141262977Y-74719380D01*
X140832812Y-75356535D01*
X140495701Y-75911043D01*
X140433448Y-76013441D01*
X140381451Y-76108928D01*
X140065789Y-76688604D01*
X139730675Y-77380487D01*
X139428860Y-78087524D01*
X139330799Y-78351354D01*
X139290167Y-78406442D01*
X139226498Y-78431578D01*
X138993369Y-78454111D01*
X138785401Y-78496563D01*
X138649179Y-78524371D01*
X138314252Y-78630320D01*
X138264122Y-78652190D01*
X137992278Y-78770788D01*
X137686787Y-78944238D01*
X137401175Y-79148741D01*
X137138568Y-79382058D01*
X136901860Y-79641618D01*
X136693659Y-79924562D01*
X136516267Y-80227761D01*
X136401845Y-80481015D01*
X136371630Y-80547891D01*
X136290826Y-80792258D01*
X136261342Y-80881422D01*
X136186623Y-81224656D01*
X136148291Y-81573851D01*
X136146772Y-81925133D01*
X126515661Y-81925133D01*
X126612603Y-80903723D01*
X126613124Y-80899151D01*
X126704319Y-80214801D01*
X131079159Y-80214801D01*
X131100796Y-80383530D01*
X131138519Y-80481015D01*
X131162187Y-80542180D01*
X131211172Y-80612137D01*
X131259759Y-80681527D01*
X131387844Y-80793476D01*
X131462209Y-80831870D01*
X131538998Y-80871517D01*
X131607392Y-80890089D01*
X132605231Y-81066035D01*
X132675853Y-81071975D01*
X132675853Y-81071974D01*
X132675854Y-81071975D01*
X132844583Y-81050338D01*
X132844582Y-81050338D01*
X133003233Y-80988948D01*
X133142580Y-80891376D01*
X133254528Y-80763291D01*
X133332570Y-80612137D01*
X133351142Y-80543743D01*
X133440264Y-80038308D01*
X133446204Y-79967686D01*
X133433657Y-79869845D01*
X133424567Y-79798955D01*
X133363685Y-79641620D01*
X133363177Y-79640306D01*
X133265605Y-79500959D01*
X133265604Y-79500958D01*
X133137519Y-79389009D01*
X133027183Y-79332043D01*
X132986366Y-79310969D01*
X132986363Y-79310968D01*
X132917974Y-79292397D01*
X132103264Y-79148742D01*
X131920133Y-79116451D01*
X131891137Y-79114012D01*
X131849509Y-79110510D01*
X131680780Y-79132147D01*
X131522132Y-79193537D01*
X131382783Y-79291110D01*
X131270834Y-79419195D01*
X131192793Y-79570351D01*
X131174222Y-79638740D01*
X131085101Y-80144172D01*
X131079159Y-80214801D01*
X126704319Y-80214801D01*
X126752492Y-79853296D01*
X126753186Y-79848745D01*
X126932042Y-78808849D01*
X126932904Y-78804346D01*
X127150971Y-77772018D01*
X127152025Y-77767459D01*
X127206659Y-77549894D01*
X127408989Y-76744170D01*
X127410212Y-76739664D01*
X127705711Y-75726842D01*
X127707092Y-75722420D01*
X128040726Y-74721449D01*
X128042288Y-74717045D01*
X128413549Y-73729446D01*
X128415266Y-73725131D01*
X128823622Y-72752315D01*
X128825520Y-72748025D01*
X128902652Y-72582160D01*
X129270403Y-71791344D01*
X129272430Y-71787192D01*
X129626285Y-71095950D01*
X131650295Y-71095950D01*
X131670051Y-71409960D01*
X131729009Y-71719032D01*
X131826235Y-72018260D01*
X131826237Y-72018265D01*
X131861310Y-72092798D01*
X131960203Y-72302957D01*
X132128793Y-72568613D01*
X132329352Y-72811047D01*
X132558711Y-73026430D01*
X132813255Y-73211366D01*
X132951114Y-73287154D01*
X133088974Y-73362944D01*
X133235244Y-73420856D01*
X133381514Y-73478769D01*
X133486791Y-73505799D01*
X133686267Y-73557016D01*
X133910065Y-73585288D01*
X133998420Y-73596450D01*
X133998422Y-73596450D01*
X134313058Y-73596450D01*
X134313060Y-73596450D01*
X134401415Y-73585288D01*
X134625213Y-73557016D01*
X134929965Y-73478769D01*
X135222506Y-73362944D01*
X135498224Y-73211366D01*
X135530440Y-73187960D01*
X135752768Y-73026430D01*
X135982127Y-72811047D01*
X135982127Y-72811046D01*
X135982130Y-72811044D01*
X136182687Y-72568613D01*
X136351277Y-72302957D01*
X136485243Y-72018265D01*
X136582471Y-71719029D01*
X136641428Y-71409965D01*
X136661184Y-71095950D01*
X136641428Y-70781935D01*
X136582471Y-70472871D01*
X136581209Y-70468988D01*
X136526887Y-70301802D01*
X136485243Y-70173635D01*
X136351277Y-69888943D01*
X136270879Y-69762256D01*
X139853832Y-69762256D01*
X139872702Y-70002028D01*
X139928848Y-70235894D01*
X139981575Y-70363186D01*
X140020889Y-70458099D01*
X140146556Y-70663169D01*
X140302757Y-70846056D01*
X140485644Y-71002257D01*
X140690714Y-71127924D01*
X140854877Y-71195922D01*
X140912918Y-71219964D01*
X140986803Y-71237702D01*
X141146786Y-71276111D01*
X141386557Y-71294981D01*
X141626328Y-71276111D01*
X141860195Y-71219964D01*
X142082400Y-71127924D01*
X142287470Y-71002257D01*
X142470357Y-70846056D01*
X142626558Y-70663169D01*
X142752225Y-70458099D01*
X142844265Y-70235894D01*
X142900412Y-70002027D01*
X142919282Y-69762256D01*
X142900412Y-69522485D01*
X142844265Y-69288618D01*
X142752225Y-69066413D01*
X142626558Y-68861343D01*
X142470357Y-68678456D01*
X142287470Y-68522255D01*
X142082400Y-68396588D01*
X142000318Y-68362588D01*
X141860195Y-68304547D01*
X141626329Y-68248401D01*
X141506442Y-68238966D01*
X141386557Y-68229531D01*
X141386556Y-68229531D01*
X141146784Y-68248401D01*
X140912918Y-68304547D01*
X140690712Y-68396589D01*
X140485645Y-68522254D01*
X140302757Y-68678456D01*
X140146555Y-68861344D01*
X140049661Y-69019461D01*
X140020889Y-69066413D01*
X140013213Y-69084945D01*
X139928848Y-69288617D01*
X139872702Y-69522483D01*
X139853832Y-69762256D01*
X136270879Y-69762256D01*
X136182687Y-69623287D01*
X135992994Y-69393988D01*
X135982127Y-69380852D01*
X135752768Y-69165469D01*
X135498224Y-68980533D01*
X135222504Y-68828955D01*
X134929965Y-68713130D01*
X134625214Y-68634884D01*
X134313060Y-68595450D01*
X134313058Y-68595450D01*
X133998422Y-68595450D01*
X133998420Y-68595450D01*
X133686265Y-68634884D01*
X133381514Y-68713130D01*
X133088975Y-68828955D01*
X132813255Y-68980533D01*
X132558711Y-69165469D01*
X132329352Y-69380852D01*
X132128793Y-69623286D01*
X131960203Y-69888942D01*
X131826235Y-70173639D01*
X131729009Y-70472867D01*
X131670051Y-70781939D01*
X131650295Y-71095950D01*
X129626285Y-71095950D01*
X129753220Y-70847987D01*
X129755409Y-70843903D01*
X130271376Y-69923600D01*
X130273741Y-69919563D01*
X130292466Y-69888942D01*
X130824181Y-69019414D01*
X130826645Y-69015551D01*
X131410771Y-68136854D01*
X131413408Y-68133046D01*
X132030333Y-67277126D01*
X132033091Y-67273448D01*
X132682022Y-66441413D01*
X132684906Y-66437856D01*
X133162801Y-65870750D01*
X136588471Y-65870750D01*
X136607341Y-66110522D01*
X136663487Y-66344388D01*
X136703702Y-66441474D01*
X136755528Y-66566593D01*
X136881195Y-66771663D01*
X137037396Y-66954550D01*
X137220283Y-67110751D01*
X137425353Y-67236418D01*
X137589516Y-67304416D01*
X137647557Y-67328458D01*
X137721442Y-67346196D01*
X137881425Y-67384605D01*
X138121196Y-67403475D01*
X138360967Y-67384605D01*
X138594834Y-67328458D01*
X138711233Y-67280244D01*
X143581015Y-67280244D01*
X143599885Y-67520017D01*
X143656031Y-67753883D01*
X143679054Y-67809464D01*
X143748072Y-67976088D01*
X143873739Y-68181158D01*
X144029940Y-68364045D01*
X144212827Y-68520246D01*
X144417897Y-68645913D01*
X144580174Y-68713130D01*
X144640101Y-68737953D01*
X144713986Y-68755691D01*
X144873969Y-68794100D01*
X145113740Y-68812970D01*
X145353511Y-68794100D01*
X145587378Y-68737953D01*
X145809583Y-68645913D01*
X146014653Y-68520246D01*
X146197540Y-68364045D01*
X146353741Y-68181158D01*
X146479408Y-67976088D01*
X146571448Y-67753883D01*
X146627595Y-67520016D01*
X146646465Y-67280245D01*
X146627595Y-67040474D01*
X146571448Y-66806607D01*
X146479408Y-66584402D01*
X146353741Y-66379332D01*
X146197540Y-66196445D01*
X146014653Y-66040244D01*
X145809583Y-65914577D01*
X145703775Y-65870750D01*
X145587378Y-65822536D01*
X145353512Y-65766390D01*
X145113740Y-65747520D01*
X144873967Y-65766390D01*
X144640101Y-65822536D01*
X144417895Y-65914578D01*
X144212828Y-66040243D01*
X144029940Y-66196445D01*
X143873738Y-66379333D01*
X143748073Y-66584400D01*
X143656031Y-66806606D01*
X143599885Y-67040472D01*
X143581015Y-67280244D01*
X138711233Y-67280244D01*
X138817039Y-67236418D01*
X139022109Y-67110751D01*
X139204996Y-66954550D01*
X139361197Y-66771663D01*
X139486864Y-66566593D01*
X139578904Y-66344388D01*
X139635051Y-66110521D01*
X139653921Y-65870750D01*
X139635051Y-65630979D01*
X139578904Y-65397112D01*
X139558256Y-65347262D01*
X147660747Y-65347262D01*
X147679617Y-65587034D01*
X147735763Y-65820900D01*
X147793804Y-65961023D01*
X147827804Y-66043105D01*
X147953471Y-66248175D01*
X148109672Y-66431062D01*
X148292559Y-66587263D01*
X148497629Y-66712930D01*
X148639419Y-66771661D01*
X148719833Y-66804970D01*
X148793718Y-66822708D01*
X148953701Y-66861117D01*
X149193472Y-66879987D01*
X149433243Y-66861117D01*
X149667110Y-66804970D01*
X149889315Y-66712930D01*
X150094385Y-66587263D01*
X150277272Y-66431062D01*
X150433473Y-66248175D01*
X150559140Y-66043105D01*
X150651180Y-65820900D01*
X150707327Y-65587033D01*
X150726197Y-65347262D01*
X150707327Y-65107491D01*
X150651180Y-64873624D01*
X150640171Y-64847047D01*
X150627138Y-64815582D01*
X150563543Y-64662049D01*
X163679983Y-64662049D01*
X163698219Y-64831177D01*
X163756402Y-64991034D01*
X163851147Y-65132318D01*
X163976954Y-65246822D01*
X164038211Y-65282464D01*
X164503357Y-65499365D01*
X164570035Y-65523380D01*
X164738616Y-65546151D01*
X164738616Y-65546150D01*
X164738617Y-65546151D01*
X164794993Y-65540072D01*
X164907748Y-65527915D01*
X165067601Y-65469733D01*
X165208886Y-65374987D01*
X165323390Y-65249181D01*
X165359031Y-65187925D01*
X165787241Y-64269625D01*
X165811257Y-64202947D01*
X165834028Y-64034366D01*
X165815792Y-63865233D01*
X165757610Y-63705381D01*
X165743923Y-63684971D01*
X165662864Y-63564095D01*
X165537057Y-63449591D01*
X165475800Y-63413949D01*
X165010654Y-63197048D01*
X164943976Y-63173033D01*
X164775394Y-63150262D01*
X164606265Y-63168498D01*
X164446410Y-63226681D01*
X164305125Y-63321426D01*
X164190623Y-63447231D01*
X164154979Y-63508493D01*
X163726769Y-64426792D01*
X163702754Y-64493466D01*
X163679983Y-64662049D01*
X150563543Y-64662049D01*
X150559140Y-64651419D01*
X150433473Y-64446349D01*
X150277272Y-64263462D01*
X150094385Y-64107261D01*
X149889315Y-63981594D01*
X149807233Y-63947594D01*
X149667110Y-63889553D01*
X149433244Y-63833407D01*
X149193472Y-63814537D01*
X148953699Y-63833407D01*
X148719833Y-63889553D01*
X148497627Y-63981595D01*
X148292560Y-64107260D01*
X148109672Y-64263462D01*
X147953470Y-64446350D01*
X147827805Y-64651417D01*
X147735763Y-64873623D01*
X147679617Y-65107489D01*
X147660747Y-65347262D01*
X139558256Y-65347262D01*
X139486864Y-65174907D01*
X139361197Y-64969837D01*
X139204996Y-64786950D01*
X139022109Y-64630749D01*
X138817039Y-64505082D01*
X138734957Y-64471082D01*
X138594834Y-64413041D01*
X138360968Y-64356895D01*
X138121196Y-64338025D01*
X137881423Y-64356895D01*
X137647557Y-64413041D01*
X137425351Y-64505083D01*
X137220284Y-64630748D01*
X137037396Y-64786950D01*
X136881194Y-64969838D01*
X136755529Y-65174905D01*
X136663487Y-65397111D01*
X136607341Y-65630977D01*
X136588471Y-65870750D01*
X133162801Y-65870750D01*
X133364818Y-65631021D01*
X133367879Y-65627525D01*
X134077808Y-64847027D01*
X134080994Y-64843654D01*
X134819990Y-64090538D01*
X134823267Y-64087322D01*
X135590252Y-63362692D01*
X135593623Y-63359627D01*
X136140450Y-62880835D01*
X141041015Y-62880835D01*
X141059885Y-63120608D01*
X141116031Y-63354474D01*
X141155431Y-63449592D01*
X141208072Y-63576679D01*
X141333739Y-63781749D01*
X141489940Y-63964636D01*
X141672827Y-64120837D01*
X141877897Y-64246504D01*
X142042060Y-64314502D01*
X142100101Y-64338544D01*
X142173986Y-64356282D01*
X142333969Y-64394691D01*
X142573740Y-64413561D01*
X142813511Y-64394691D01*
X143047378Y-64338544D01*
X143269583Y-64246504D01*
X143474653Y-64120837D01*
X143657540Y-63964636D01*
X143813741Y-63781749D01*
X143939408Y-63576679D01*
X144031448Y-63354474D01*
X144087595Y-63120607D01*
X144106465Y-62880836D01*
X144087595Y-62641065D01*
X144031448Y-62407198D01*
X143939408Y-62184993D01*
X143813741Y-61979923D01*
X143657540Y-61797036D01*
X143474653Y-61640835D01*
X143269583Y-61515168D01*
X143187501Y-61481168D01*
X143047378Y-61423127D01*
X142813512Y-61366981D01*
X142573740Y-61348111D01*
X142333967Y-61366981D01*
X142100101Y-61423127D01*
X141877895Y-61515169D01*
X141672828Y-61640834D01*
X141489940Y-61797036D01*
X141333738Y-61979924D01*
X141208073Y-62184991D01*
X141116031Y-62407197D01*
X141059885Y-62641063D01*
X141041015Y-62880835D01*
X136140450Y-62880835D01*
X136387476Y-62664543D01*
X136391006Y-62661569D01*
X137075763Y-62106348D01*
X137210539Y-61997068D01*
X137214218Y-61994198D01*
X138058300Y-61361192D01*
X138062082Y-61358467D01*
X138929548Y-60757831D01*
X138933344Y-60755307D01*
X139218201Y-60573623D01*
X145923285Y-60573623D01*
X145942155Y-60813395D01*
X145998301Y-61047261D01*
X146056342Y-61187384D01*
X146090342Y-61269466D01*
X146216009Y-61474536D01*
X146372210Y-61657423D01*
X146555097Y-61813624D01*
X146760167Y-61939291D01*
X146899654Y-61997068D01*
X146982371Y-62031331D01*
X147056256Y-62049069D01*
X147216239Y-62087478D01*
X147456010Y-62106348D01*
X147695781Y-62087478D01*
X147929648Y-62031331D01*
X148151853Y-61939291D01*
X148356923Y-61813624D01*
X148539810Y-61657423D01*
X148696011Y-61474536D01*
X148821678Y-61269466D01*
X148913718Y-61047261D01*
X148969865Y-60813394D01*
X148988735Y-60573623D01*
X148969865Y-60333852D01*
X148931476Y-60173949D01*
X149684295Y-60173949D01*
X149704051Y-60487960D01*
X149763009Y-60797032D01*
X149860235Y-61096260D01*
X149860237Y-61096265D01*
X149983616Y-61358458D01*
X149994203Y-61380957D01*
X150162793Y-61646613D01*
X150363352Y-61889047D01*
X150592711Y-62104430D01*
X150847255Y-62289366D01*
X150985114Y-62365154D01*
X151122974Y-62440944D01*
X151203759Y-62472929D01*
X151415514Y-62556769D01*
X151520791Y-62583799D01*
X151720267Y-62635016D01*
X151930347Y-62661555D01*
X152032420Y-62674450D01*
X152032422Y-62674450D01*
X152347058Y-62674450D01*
X152347060Y-62674450D01*
X152417081Y-62665603D01*
X152659213Y-62635016D01*
X152963965Y-62556769D01*
X153256506Y-62440944D01*
X153532224Y-62289366D01*
X153532775Y-62288966D01*
X153786768Y-62104430D01*
X153876981Y-62019714D01*
X155923527Y-62019714D01*
X155953153Y-62288966D01*
X155953154Y-62288968D01*
X156021668Y-62551038D01*
X156075460Y-62677620D01*
X156127611Y-62800342D01*
X156268722Y-63031561D01*
X156406442Y-63197049D01*
X156441995Y-63239770D01*
X156643738Y-63420532D01*
X156869650Y-63569994D01*
X156883913Y-63576680D01*
X157114917Y-63684971D01*
X157374302Y-63763008D01*
X157374309Y-63763010D01*
X157642301Y-63802450D01*
X157845371Y-63802450D01*
X157845374Y-63802450D01*
X158047896Y-63787627D01*
X158074292Y-63781747D01*
X158312293Y-63728730D01*
X158565298Y-63631964D01*
X158801517Y-63499391D01*
X159015917Y-63333838D01*
X159203926Y-63138831D01*
X159361539Y-62918529D01*
X159485396Y-62677625D01*
X159572858Y-62421255D01*
X159622059Y-62154883D01*
X159631952Y-61884185D01*
X159602326Y-61614932D01*
X159533812Y-61352862D01*
X159427870Y-61103560D01*
X159286758Y-60872340D01*
X159286757Y-60872338D01*
X159113486Y-60664131D01*
X159008498Y-60570062D01*
X158911742Y-60483368D01*
X158685830Y-60333906D01*
X158666286Y-60324744D01*
X158440562Y-60218928D01*
X158181177Y-60140891D01*
X158181171Y-60140890D01*
X157913179Y-60101450D01*
X157710109Y-60101450D01*
X157710106Y-60101450D01*
X157507583Y-60116272D01*
X157243189Y-60175169D01*
X156990181Y-60271936D01*
X156753963Y-60404509D01*
X156539565Y-60570059D01*
X156351553Y-60765070D01*
X156193941Y-60985370D01*
X156070082Y-61226279D01*
X155982621Y-61482645D01*
X155933420Y-61749016D01*
X155923527Y-62019714D01*
X153876981Y-62019714D01*
X154016127Y-61889047D01*
X154016127Y-61889046D01*
X154016130Y-61889044D01*
X154216687Y-61646613D01*
X154385277Y-61380957D01*
X154519243Y-61096265D01*
X154616471Y-60797029D01*
X154675428Y-60487965D01*
X154695184Y-60173950D01*
X154675428Y-59859935D01*
X154616471Y-59550871D01*
X154519243Y-59251635D01*
X154385277Y-58966943D01*
X154216687Y-58701287D01*
X154016130Y-58458856D01*
X154016127Y-58458852D01*
X153786768Y-58243469D01*
X153532224Y-58058533D01*
X153256504Y-57906955D01*
X152963965Y-57791130D01*
X152659214Y-57712884D01*
X152347060Y-57673450D01*
X152347058Y-57673450D01*
X152032422Y-57673450D01*
X152032420Y-57673450D01*
X151720265Y-57712884D01*
X151415514Y-57791130D01*
X151122975Y-57906955D01*
X150847255Y-58058533D01*
X150592711Y-58243469D01*
X150363352Y-58458852D01*
X150162793Y-58701286D01*
X149994203Y-58966942D01*
X149860235Y-59251639D01*
X149763009Y-59550867D01*
X149704051Y-59859939D01*
X149684295Y-60173949D01*
X148931476Y-60173949D01*
X148923539Y-60140890D01*
X148913718Y-60099984D01*
X148889676Y-60041943D01*
X148821678Y-59877780D01*
X148696011Y-59672710D01*
X148539810Y-59489823D01*
X148356923Y-59333622D01*
X148151853Y-59207955D01*
X148069771Y-59173955D01*
X147929648Y-59115914D01*
X147695782Y-59059768D01*
X147456010Y-59040898D01*
X147216237Y-59059768D01*
X146982371Y-59115914D01*
X146760165Y-59207956D01*
X146555098Y-59333621D01*
X146372210Y-59489823D01*
X146216008Y-59672711D01*
X146090343Y-59877778D01*
X145998301Y-60099984D01*
X145942155Y-60333850D01*
X145923285Y-60573623D01*
X139218201Y-60573623D01*
X139822972Y-60187895D01*
X139826891Y-60185498D01*
X140737293Y-59652192D01*
X140741328Y-59649929D01*
X141671260Y-59151455D01*
X141675377Y-59149347D01*
X142623494Y-58686426D01*
X142627739Y-58684454D01*
X143592648Y-58257762D01*
X143596935Y-58255961D01*
X144577355Y-57866067D01*
X144581715Y-57864429D01*
X145576137Y-57511932D01*
X145580558Y-57510459D01*
X146587639Y-57195835D01*
X146592091Y-57194535D01*
X147610367Y-56918244D01*
X147614891Y-56917108D01*
X148642876Y-56679551D01*
X148647418Y-56678592D01*
X149683639Y-56480109D01*
X149688246Y-56479316D01*
X150731284Y-56320180D01*
X150735890Y-56319568D01*
X151784158Y-56200021D01*
X151788751Y-56199584D01*
X152840876Y-56119785D01*
X152845471Y-56119524D01*
X153899785Y-56079599D01*
X153904478Y-56079510D01*
X154959526Y-56079510D01*
X154964218Y-56079599D01*
G37*
%TD.AperFunction*%
%TD*%
D20*
X167121506Y-76184213D02*
G75*
G03*
X167535838Y-72782526I-1493706J1908013D01*
G01*
X159026337Y-69639196D02*
G75*
G03*
X139997741Y-79477950I-4594337J-14434804D01*
G01*
X139489735Y-84105714D02*
G75*
G03*
X167121506Y-76184213I14942265J31714D01*
G01*
X139997740Y-79477950D02*
G75*
G03*
X139489740Y-84105714I-508000J-2286000D01*
G01*
X167535819Y-72782543D02*
G75*
G03*
X161877438Y-68460756I-13103819J-11291357D01*
G01*
D21*
X183432002Y-84073996D02*
G75*
G03*
X183432002Y-84073996I-29000000J0D01*
G01*
D20*
X161877437Y-68460759D02*
G75*
G03*
X159026339Y-69639191I-771037J-2172741D01*
G01*
M02*
