M48
; DRILL file {KiCad 7.0.6} date Fri Dec 22 17:32:43 2023
; FORMAT={-:-/ absolute / metric / decimal}
; #@! TF.CreationDate,2023-12-22T17:32:43+03:00
; #@! TF.GenerationSoftware,Kicad,Pcbnew,7.0.6
; #@! TF.FileFunction,Plated,1,4,PTH
FMAT,2
METRIC
; #@! TA.AperFunction,Plated,PTH,ComponentDrill
T1C0.500
; #@! TA.AperFunction,Plated,PTH,ComponentDrill
T2C1.000
; #@! TA.AperFunction,Plated,PTH,ComponentDrill
T3C1.370
; #@! TA.AperFunction,Plated,PTH,ComponentDrill
T4C2.000
%
G90
G05
T1
X56.891Y-97.68
X57.108Y-98.911
X89.169Y-70.243
X90.376Y-70.566
X96.281Y-72.891
X97.414Y-73.42
T2
X95.96Y-114.574
X95.96Y-117.114
X98.5Y-114.574
X98.5Y-117.114
T3
X66.957Y-77.833
X67.465Y-114.699
X70.223Y-81.724
X70.731Y-110.808
X71.41Y-74.843
X71.918Y-117.689
X73.95Y-79.242
X74.458Y-113.29
X76.292Y-72.536
X76.693Y-120.053
X78.03Y-77.309
X78.43Y-115.279
X104.612Y-91.948
X104.612Y-100.584
X104.648Y-96.266
X109.692Y-91.948
X109.692Y-100.584
X109.728Y-96.266
T4
X62.992Y-83.058
X63.754Y-113.284
X78.486Y-69.85
X82.042Y-120.142
X104.394Y-84.836
X107.442Y-104.394
T0
M30
