M48
; DRILL file {KiCad 8.0.3-8.0.3-0~ubuntu23.10.1} date 2024-10-02T13:11:45+0300
; FORMAT={-:-/ absolute / inch / decimal}
; #@! TF.CreationDate,2024-10-02T13:11:45+03:00
; #@! TF.GenerationSoftware,Kicad,Pcbnew,8.0.3-8.0.3-0~ubuntu23.10.1
; #@! TF.FileFunction,Plated,1,4,PTH
FMAT,2
INCH
; #@! TA.AperFunction,Plated,PTH,ViaDrill
T1C0.0157
; #@! TA.AperFunction,Plated,PTH,ComponentDrill
T2C0.0394
; #@! TA.AperFunction,Plated,PTH,ComponentDrill
T3C0.0539
; #@! TA.AperFunction,Plated,PTH,ComponentDrill
T4C0.1661
%
G90
G05
T1
X5.89Y-3.27
T2
X6.3306Y-3.5673
X6.4306Y-3.5673
X6.5306Y-3.5673
T3
X4.9056Y-2.8923
X4.9056Y-3.0673
X4.9056Y-3.2423
X5.1056Y-2.8923
X5.1056Y-3.0673
X5.1056Y-3.2423
X5.2306Y-1.9423
X5.2306Y-2.1423
X5.4056Y-1.9423
X5.4056Y-2.1423
X6.3556Y-1.9423
X6.3556Y-2.1423
X6.5306Y-1.9423
X6.5306Y-2.1423
X6.6556Y-2.8923
X6.6556Y-3.0673
X6.6556Y-3.2423
X6.8556Y-2.8923
X6.8556Y-3.0673
X6.8556Y-3.2423
T4
X5.31Y-2.65
X5.88Y-2.18
X6.46Y-2.65
M30
