M48
; DRILL file {KiCad 7.0.1} date Fri Dec 15 11:07:31 2023
; FORMAT={-:-/ absolute / inch / decimal}
; #@! TF.CreationDate,2023-12-15T11:07:31+03:00
; #@! TF.GenerationSoftware,Kicad,Pcbnew,7.0.1
; #@! TF.FileFunction,Plated,1,4,PTH
FMAT,2
INCH
; #@! TA.AperFunction,Plated,PTH,ComponentDrill
T1C0.0197
; #@! TA.AperFunction,Plated,PTH,ComponentDrill
T2C0.0394
; #@! TA.AperFunction,Plated,PTH,ComponentDrill
T3C0.0539
; #@! TA.AperFunction,Plated,PTH,ComponentDrill
T4C0.0787
%
G90
G05
T1
X5.1986Y-3.2017
X5.2072Y-3.1532
X6.4419Y-2.5126
X6.4865Y-2.5334
X6.7272Y-2.7172
X6.7588Y-2.7549
T2
X6.5797Y-4.0398
X6.5797Y-4.1398
X6.6797Y-4.0398
X6.6797Y-4.1398
T3
X5.4378Y-2.5933
X5.4578Y-4.0448
X5.5664Y-2.7465
X5.5864Y-3.8916
X5.6131Y-2.4756
X5.6331Y-4.1625
X5.7131Y-2.6488
X5.7331Y-3.9893
X5.8054Y-2.3848
X5.8211Y-4.2555
X5.8738Y-2.5727
X5.8895Y-4.0676
X6.9203Y-3.1491
X6.9203Y-3.4891
X6.9217Y-3.3191
X7.1203Y-3.1491
X7.1203Y-3.4891
X7.1217Y-3.3191
T4
X5.2817Y-2.7991
X5.3217Y-3.8791
X5.9917Y-2.3691
X6.0317Y-4.2591
X6.8917Y-3.7991
X6.9117Y-2.8691
T0
M30
