  0
SECTION
  2
HEADER
  9
$ANGBASE
  50
0.0
  9
$ANGDIR
  70
1
  9
$MEASUREMENT
  70
1
  0
ENDSEC
  0
SECTION
  2
TABLES
  0
TABLE
  2
LTYPE
  70
4
  0
LTYPE
  5
40F
  2
CONTINUOUS
  70
0
  3
Solid line
  72
65
  73
0
  40
0.0
  0
LTYPE
  5
410
  2
DASHDOT
 70
0
  3
Dash Dot ____ _ ____ _
 72
65
 73
4
 40
2.0
 49
1.25
 49
-0.25
 49
0.25
 49
-0.25
  0
LTYPE
  5
411
  2
DASHED
 70
0
  3
Dashed __ __ __ __ __
 72
65
 73
2
 40
0.75
 49
0.5
 49
-0.25
  0
LTYPE
  5
43B
  2
DOTTED
 70
0
  3
Dotted .  .  .  .
 72
65
 73
2
 40
0.2
 49
0.0
 49
-0.2
  0
ENDTAB
  0
TABLE
  2
STYLE
  70
4
  0
STYLE
  2
KICAD
  70
0
  40
0
  41
1
  42
1
  50
0
  71
0
  3
isocp.shx
  0
STYLE
  2
KICADB
  70
0
  40
0
  41
1
  42
1
  50
0
  71
0
  3
isocp.shx
  0
STYLE
  2
KICADI
  70
0
  40
0
  41
1
  42
1
  50
15
  71
0
  3
isocp.shx
  0
STYLE
  2
KICADBI
  70
0
  40
0
  41
1
  42
1
  50
15
  71
0
  3
isocp.shx
  0
ENDTAB
  0
TABLE
  2
LAYER
  70
1
  0
LAYER
  2
BLACK
  70
0
  62
7
  6
CONTINUOUS
  0
ENDTAB
  0
ENDSEC
  0
SECTION
  2
ENTITIES
0
ARC
8
BLACK
10
149.4505000000000052
20
-71.0742999999999938
40
28.9310431447823326
50
22.72789038
51
74.91436478
0
CIRCLE
8
BLACK
10
155.9559999999999889
20
-93.7259999999999991
40
1.436841
0
LINE
8
BLACK
6
CONTINUOUS
10
145.2908909999999878
20
-81.1345919999999978
11
145.2879999999999825
21
-88.6460000000000008
0
ARC
8
BLACK
10
149.4505020000000002
20
-71.0742959999999897
40
28.8012552578572496
50
-180.41437728
51
0.41355963
0
LINE
8
BLACK
6
CONTINUOUS
10
171.6470039999999813
20
-69.3419999999999987
11
178.2510069999999871
21
-70.8664109999999994
0
ARC
8
BLACK
10
146.052899999999994
20
-81.1345999999999918
40
0.7620090000419942
50
90.00067671
51
179.99939848
0
LINE
8
BLACK
6
CONTINUOUS
10
129.0495630000000062
20
-62.1586649999999992
11
122.7639739999999904
21
-59.8717869999999976
0
ARC
8
BLACK
10
149.4505000000000052
20
-71.0742999999999938
40
22.2639997337989755
50
4.46253627
51
23.60632807
0
LINE
8
BLACK
6
CONTINUOUS
10
143.2560000000000002
20
-88.6460000000000008
11
143.2261790000000019
21
-77.500789999999995
0
ARC
8
BLACK
10
154.9399999999999977
20
-87.8840000000000003
40
1.27
50
-143.13010235
51
-36.86989765
0
LINE
8
BLACK
6
CONTINUOUS
10
145.0339999999999918
20
-50.5459999999999994
11
141.7319999999999993
21
-43.1799999999999997
0
LINE
8
BLACK
6
CONTINUOUS
10
153.1336909999999989
20
-80.3725919999999974
11
146.0528909999999883
21
-80.3725919999999974
0
ARC
8
BLACK
10
149.4505000000000052
20
-71.0742999999999938
40
8.9466164347836532
50
-403.35232634
51
-134.08445043
0
LINE
8
BLACK
6
CONTINUOUS
10
153.6781639999999811
20
-50.5062799999999967
11
156.980164000000002
21
-43.1402799999999971
0
CIRCLE
8
BLACK
10
143.2560000000000002
20
-93.7259999999999991
40
1.436841
0
ARC
8
BLACK
10
149.4505000000000052
20
-71.0742999999999938
40
28.942476871612854
50
105.46704782
51
157.22823136
0
ARC
8
BLACK
10
153.1620000000000061
20
-81.1340999999999894
40
0.762034010753457
50
0.00255650
51
92.12898572
0
LINE
8
BLACK
6
CONTINUOUS
10
153.9240000000000066
20
-81.13406599999999
11
153.9240000000000066
21
-88.6460000000000008
0
LINE
8
BLACK
6
CONTINUOUS
10
155.9559999999999889
20
-88.6460000000000008
11
155.9559999999999889
21
-77.215999999999994
0
ARC
8
BLACK
10
149.4505000000000052
20
-71.0742999999999938
40
20.9980135522386995
50
78.38488254
51
102.14165776
0
LINE
8
BLACK
6
CONTINUOUS
10
169.8514150000000029
20
-62.1586759999999998
11
176.1350510000000043
21
-59.8966449999999995
0
LINE
8
BLACK
6
CONTINUOUS
10
120.6499999999999915
20
-70.8659999999999997
11
127.2540029999999973
21
-69.341588999999999
0
ARC
8
BLACK
10
144.2719999999999914
20
-87.8840000000000003
40
1.27
50
-143.13010235
51
-36.86989765
0
ARC
8
BLACK
10
149.4505000000000052
20
-71.0742999999999938
40
22.2640230436355999
50
156.39366867
51
175.53640784
0
LINE
8
BLACK
6
CONTINUOUS
10
125.9080000000000013
20
-56.8200000000000003
11
129.1080000000000041
21
-60.019999999999996
0
LINE
8
BLACK
6
CONTINUOUS
10
129.1080000000000041
20
-56.8200000000000003
11
125.9080000000000013
21
-60.019999999999996
0
LINE
8
BLACK
6
CONTINUOUS
10
148.0060000000000002
20
-94.6659999999999968
11
151.2059999999999889
21
-97.8659999999999997
0
LINE
8
BLACK
6
CONTINUOUS
10
151.2059999999999889
20
-94.6659999999999968
11
148.0060000000000002
21
-97.8659999999999997
0
LINE
8
BLACK
6
CONTINUOUS
10
169.8499999999999943
20
-56.8200000000000003
11
173.0499999999999829
21
-60.019999999999996
0
LINE
8
BLACK
6
CONTINUOUS
10
173.0499999999999829
20
-56.8200000000000003
11
169.8499999999999943
21
-60.019999999999996
0
LINE
8
BLACK
6
CONTINUOUS
10
123.2070149999999984
20
-103.0403889999999905
11
123.2070149999999984
21
-101.0403889999999905
0
LINE
8
BLACK
6
CONTINUOUS
10
123.2070149999999984
20
-101.0403889999999905
11
123.683205000000001
21
-101.0403889999999905
0
LINE
8
BLACK
6
CONTINUOUS
10
123.683205000000001
20
-101.0403889999999905
11
123.9689199999999971
21
-101.1356269999999995
0
LINE
8
BLACK
6
CONTINUOUS
10
123.9689199999999971
20
-101.1356269999999995
11
124.159396000000001
21
-101.3261029999999892
0
LINE
8
BLACK
6
CONTINUOUS
10
124.159396000000001
20
-101.3261029999999892
11
124.2546339999999958
21
-101.516578999999993
0
LINE
8
BLACK
6
CONTINUOUS
10
124.2546339999999958
20
-101.516578999999993
11
124.3498719999999906
21
-101.8975310000000007
0
LINE
8
BLACK
6
CONTINUOUS
10
124.3498719999999906
20
-101.8975310000000007
11
124.3498719999999906
21
-102.1832459999999969
0
LINE
8
BLACK
6
CONTINUOUS
10
124.3498719999999906
20
-102.1832459999999969
11
124.2546339999999958
21
-102.5641979999999904
0
LINE
8
BLACK
6
CONTINUOUS
10
124.2546339999999958
20
-102.5641979999999904
11
124.159396000000001
21
-102.7546739999999943
0
LINE
8
BLACK
6
CONTINUOUS
10
124.159396000000001
20
-102.7546739999999943
11
123.9689199999999971
21
-102.9451509999999956
0
LINE
8
BLACK
6
CONTINUOUS
10
123.9689199999999971
20
-102.9451509999999956
11
123.683205000000001
21
-103.0403889999999905
0
LINE
8
BLACK
6
CONTINUOUS
10
123.683205000000001
20
-103.0403889999999905
11
123.2070149999999984
21
-103.0403889999999905
0
LINE
8
BLACK
6
CONTINUOUS
10
125.2070149999999984
20
-103.0403889999999905
11
125.2070149999999984
21
-101.7070549999999969
0
LINE
8
BLACK
6
CONTINUOUS
10
125.2070149999999984
20
-102.0880080000000021
11
125.3022529999999932
21
-101.8975310000000007
0
LINE
8
BLACK
6
CONTINUOUS
10
125.3022529999999932
20
-101.8975310000000007
11
125.397490999999988
21
-101.8022929999999917
0
LINE
8
BLACK
6
CONTINUOUS
10
125.397490999999988
20
-101.8022929999999917
11
125.5879669999999919
21
-101.7070549999999969
0
LINE
8
BLACK
6
CONTINUOUS
10
125.5879669999999919
20
-101.7070549999999969
11
125.7784439999999933
21
-101.7070549999999969
0
LINE
8
BLACK
6
CONTINUOUS
10
126.4451099999999997
20
-103.0403889999999905
11
126.4451099999999997
21
-101.7070549999999969
0
LINE
8
BLACK
6
CONTINUOUS
10
126.4451099999999997
20
-101.0403889999999905
11
126.3498719999999906
21
-101.1356269999999995
0
LINE
8
BLACK
6
CONTINUOUS
10
126.3498719999999906
20
-101.1356269999999995
11
126.4451099999999997
21
-101.2308649999999943
0
LINE
8
BLACK
6
CONTINUOUS
10
126.4451099999999997
20
-101.2308649999999943
11
126.5403479999999945
21
-101.1356269999999995
0
LINE
8
BLACK
6
CONTINUOUS
10
126.5403479999999945
20
-101.1356269999999995
11
126.4451099999999997
21
-101.0403889999999905
0
LINE
8
BLACK
6
CONTINUOUS
10
126.4451099999999997
20
-101.0403889999999905
11
126.4451099999999997
21
-101.2308649999999943
0
LINE
8
BLACK
6
CONTINUOUS
10
127.683205000000001
20
-103.0403889999999905
11
127.4927289999999971
21
-102.9451509999999956
0
LINE
8
BLACK
6
CONTINUOUS
10
127.4927289999999971
20
-102.9451509999999956
11
127.397490999999988
21
-102.7546739999999943
0
LINE
8
BLACK
6
CONTINUOUS
10
127.397490999999988
20
-102.7546739999999943
11
127.397490999999988
21
-101.0403889999999905
0
LINE
8
BLACK
6
CONTINUOUS
10
128.7308239999999842
20
-103.0403889999999905
11
128.5403479999999945
21
-102.9451509999999956
0
LINE
8
BLACK
6
CONTINUOUS
10
128.5403479999999945
20
-102.9451509999999956
11
128.4451099999999997
21
-102.7546739999999943
0
LINE
8
BLACK
6
CONTINUOUS
10
128.4451099999999997
20
-102.7546739999999943
11
128.4451099999999997
21
-101.0403889999999905
0
LINE
8
BLACK
6
CONTINUOUS
10
131.0165389999999945
20
-103.0403889999999905
11
131.0165389999999945
21
-101.0403889999999905
0
LINE
8
BLACK
6
CONTINUOUS
10
131.0165389999999945
20
-101.0403889999999905
11
131.6832059999999842
21
-102.4689599999999956
0
LINE
8
BLACK
6
CONTINUOUS
10
131.6832059999999842
20
-102.4689599999999956
11
132.3498720000000048
21
-101.0403889999999905
0
LINE
8
BLACK
6
CONTINUOUS
10
132.3498720000000048
20
-101.0403889999999905
11
132.3498720000000048
21
-103.0403889999999905
0
LINE
8
BLACK
6
CONTINUOUS
10
134.1593959999999868
20
-103.0403889999999905
11
134.1593959999999868
21
-101.992769999999993
0
LINE
8
BLACK
6
CONTINUOUS
10
134.1593959999999868
20
-101.992769999999993
11
134.0641579999999919
21
-101.8022929999999917
0
LINE
8
BLACK
6
CONTINUOUS
10
134.0641579999999919
20
-101.8022929999999917
11
133.8736820000000023
21
-101.7070549999999969
0
LINE
8
BLACK
6
CONTINUOUS
10
133.8736820000000023
20
-101.7070549999999969
11
133.4927289999999971
21
-101.7070549999999969
0
LINE
8
BLACK
6
CONTINUOUS
10
133.4927289999999971
20
-101.7070549999999969
11
133.3022530000000074
21
-101.8022929999999917
0
LINE
8
BLACK
6
CONTINUOUS
10
134.1593959999999868
20
-102.9451509999999956
11
133.9689199999999971
21
-103.0403889999999905
0
LINE
8
BLACK
6
CONTINUOUS
10
133.9689199999999971
20
-103.0403889999999905
11
133.4927289999999971
21
-103.0403889999999905
0
LINE
8
BLACK
6
CONTINUOUS
10
133.4927289999999971
20
-103.0403889999999905
11
133.3022530000000074
21
-102.9451509999999956
0
LINE
8
BLACK
6
CONTINUOUS
10
133.3022530000000074
20
-102.9451509999999956
11
133.2070149999999842
21
-102.7546739999999943
0
LINE
8
BLACK
6
CONTINUOUS
10
133.2070149999999842
20
-102.7546739999999943
11
133.2070149999999842
21
-102.5641979999999904
0
LINE
8
BLACK
6
CONTINUOUS
10
133.2070149999999842
20
-102.5641979999999904
11
133.3022530000000074
21
-102.3737220000000008
0
LINE
8
BLACK
6
CONTINUOUS
10
133.3022530000000074
20
-102.3737220000000008
11
133.4927289999999971
21
-102.2784839999999917
0
LINE
8
BLACK
6
CONTINUOUS
10
133.4927289999999971
20
-102.2784839999999917
11
133.9689199999999971
21
-102.2784839999999917
0
LINE
8
BLACK
6
CONTINUOUS
10
133.9689199999999971
20
-102.2784839999999917
11
134.1593959999999868
21
-102.1832459999999969
0
LINE
8
BLACK
6
CONTINUOUS
10
135.1117769999999894
20
-101.7070549999999969
11
135.1117769999999894
21
-103.7070549999999969
0
LINE
8
BLACK
6
CONTINUOUS
10
135.1117769999999894
20
-101.8022929999999917
11
135.3022530000000074
21
-101.7070549999999969
0
LINE
8
BLACK
6
CONTINUOUS
10
135.3022530000000074
20
-101.7070549999999969
11
135.6832059999999842
21
-101.7070549999999969
0
LINE
8
BLACK
6
CONTINUOUS
10
135.6832059999999842
20
-101.7070549999999969
11
135.8736820000000023
21
-101.8022929999999917
0
LINE
8
BLACK
6
CONTINUOUS
10
135.8736820000000023
20
-101.8022929999999917
11
135.9689199999999971
21
-101.8975310000000007
0
LINE
8
BLACK
6
CONTINUOUS
10
135.9689199999999971
20
-101.8975310000000007
11
136.0641579999999919
21
-102.0880080000000021
0
LINE
8
BLACK
6
CONTINUOUS
10
136.0641579999999919
20
-102.0880080000000021
11
136.0641579999999919
21
-102.6594359999999995
0
LINE
8
BLACK
6
CONTINUOUS
10
136.0641579999999919
20
-102.6594359999999995
11
135.9689199999999971
21
-102.8499119999999891
0
LINE
8
BLACK
6
CONTINUOUS
10
135.9689199999999971
20
-102.8499119999999891
11
135.8736820000000023
21
-102.9451509999999956
0
LINE
8
BLACK
6
CONTINUOUS
10
135.8736820000000023
20
-102.9451509999999956
11
135.6832059999999842
21
-103.0403889999999905
0
LINE
8
BLACK
6
CONTINUOUS
10
135.6832059999999842
20
-103.0403889999999905
11
135.3022530000000074
21
-103.0403889999999905
0
LINE
8
BLACK
6
CONTINUOUS
10
135.3022530000000074
20
-103.0403889999999905
11
135.1117769999999894
21
-102.9451509999999956
0
LINE
8
BLACK
6
CONTINUOUS
10
136.9213009999999997
20
-102.8499119999999891
11
137.0165389999999945
21
-102.9451509999999956
0
LINE
8
BLACK
6
CONTINUOUS
10
137.0165389999999945
20
-102.9451509999999956
11
136.9213009999999997
21
-103.0403889999999905
0
LINE
8
BLACK
6
CONTINUOUS
10
136.9213009999999997
20
-103.0403889999999905
11
136.8260630000000049
21
-102.9451509999999956
0
LINE
8
BLACK
6
CONTINUOUS
10
136.8260630000000049
20
-102.9451509999999956
11
136.9213009999999997
21
-102.8499119999999891
0
LINE
8
BLACK
6
CONTINUOUS
10
136.9213009999999997
20
-102.8499119999999891
11
136.9213009999999997
21
-103.0403889999999905
0
LINE
8
BLACK
6
CONTINUOUS
10
136.9213009999999997
20
-101.8022929999999917
11
137.0165389999999945
21
-101.8975310000000007
0
LINE
8
BLACK
6
CONTINUOUS
10
137.0165389999999945
20
-101.8975310000000007
11
136.9213009999999997
21
-101.992769999999993
0
LINE
8
BLACK
6
CONTINUOUS
10
136.9213009999999997
20
-101.992769999999993
11
136.8260630000000049
21
-101.8975310000000007
0
LINE
8
BLACK
6
CONTINUOUS
10
136.8260630000000049
20
-101.8975310000000007
11
136.9213009999999997
21
-101.8022929999999917
0
LINE
8
BLACK
6
CONTINUOUS
10
136.9213009999999997
20
-101.8022929999999917
11
136.9213009999999997
21
-101.992769999999993
0
LINE
8
BLACK
6
CONTINUOUS
10
118.5992469999999912
20
-105.3255509999999902
11
120.5992469999999912
21
-107.3255509999999902
0
LINE
8
BLACK
6
CONTINUOUS
10
120.5992469999999912
20
-105.3255509999999902
11
118.5992469999999912
21
-107.3255509999999902
0
LINE
8
BLACK
6
CONTINUOUS
10
123.0165389999999945
20
-105.2403889999999933
11
124.2546339999999958
21
-105.2403889999999933
0
LINE
8
BLACK
6
CONTINUOUS
10
124.2546339999999958
20
-105.2403889999999933
11
123.5879669999999919
21
-106.0022929999999945
0
LINE
8
BLACK
6
CONTINUOUS
10
123.5879669999999919
20
-106.0022929999999945
11
123.8736819999999881
21
-106.0022929999999945
0
LINE
8
BLACK
6
CONTINUOUS
10
123.8736819999999881
20
-106.0022929999999945
11
124.0641579999999919
21
-106.0975309999999894
0
LINE
8
BLACK
6
CONTINUOUS
10
124.0641579999999919
20
-106.0975309999999894
11
124.159396000000001
21
-106.1927699999999959
0
LINE
8
BLACK
6
CONTINUOUS
10
124.159396000000001
20
-106.1927699999999959
11
124.2546339999999958
21
-106.3832459999999998
0
LINE
8
BLACK
6
CONTINUOUS
10
124.2546339999999958
20
-106.3832459999999998
11
124.2546339999999958
21
-106.8594359999999881
0
LINE
8
BLACK
6
CONTINUOUS
10
124.2546339999999958
20
-106.8594359999999881
11
124.159396000000001
21
-107.049911999999992
0
LINE
8
BLACK
6
CONTINUOUS
10
124.159396000000001
20
-107.049911999999992
11
124.0641579999999919
21
-107.1451509999999985
0
LINE
8
BLACK
6
CONTINUOUS
10
124.0641579999999919
20
-107.1451509999999985
11
123.8736819999999881
21
-107.2403889999999933
0
LINE
8
BLACK
6
CONTINUOUS
10
123.8736819999999881
20
-107.2403889999999933
11
123.3022529999999932
21
-107.2403889999999933
0
LINE
8
BLACK
6
CONTINUOUS
10
123.3022529999999932
20
-107.2403889999999933
11
123.1117769999999894
21
-107.1451509999999985
0
LINE
8
BLACK
6
CONTINUOUS
10
123.1117769999999894
20
-107.1451509999999985
11
123.0165389999999945
21
-107.049911999999992
0
LINE
8
BLACK
6
CONTINUOUS
10
125.1117769999999894
20
-107.049911999999992
11
125.2070149999999984
21
-107.1451509999999985
0
LINE
8
BLACK
6
CONTINUOUS
10
125.2070149999999984
20
-107.1451509999999985
11
125.1117769999999894
21
-107.2403889999999933
0
LINE
8
BLACK
6
CONTINUOUS
10
125.1117769999999894
20
-107.2403889999999933
11
125.0165389999999945
21
-107.1451509999999985
0
LINE
8
BLACK
6
CONTINUOUS
10
125.0165389999999945
20
-107.1451509999999985
11
125.1117769999999894
21
-107.049911999999992
0
LINE
8
BLACK
6
CONTINUOUS
10
125.1117769999999894
20
-107.049911999999992
11
125.1117769999999894
21
-107.2403889999999933
0
LINE
8
BLACK
6
CONTINUOUS
10
125.9689199999999971
20
-105.4308649999999972
11
126.0641579999999919
21
-105.3356269999999881
0
LINE
8
BLACK
6
CONTINUOUS
10
126.0641579999999919
20
-105.3356269999999881
11
126.2546339999999958
21
-105.2403889999999933
0
LINE
8
BLACK
6
CONTINUOUS
10
126.2546339999999958
20
-105.2403889999999933
11
126.7308249999999958
21
-105.2403889999999933
0
LINE
8
BLACK
6
CONTINUOUS
10
126.7308249999999958
20
-105.2403889999999933
11
126.9213009999999997
21
-105.3356269999999881
0
LINE
8
BLACK
6
CONTINUOUS
10
126.9213009999999997
20
-105.3356269999999881
11
127.0165389999999945
21
-105.4308649999999972
0
LINE
8
BLACK
6
CONTINUOUS
10
127.0165389999999945
20
-105.4308649999999972
11
127.1117769999999894
21
-105.621341000000001
0
LINE
8
BLACK
6
CONTINUOUS
10
127.1117769999999894
20
-105.621341000000001
11
127.1117769999999894
21
-105.8118169999999907
0
LINE
8
BLACK
6
CONTINUOUS
10
127.1117769999999894
20
-105.8118169999999907
11
127.0165389999999945
21
-106.0975309999999894
0
LINE
8
BLACK
6
CONTINUOUS
10
127.0165389999999945
20
-106.0975309999999894
11
125.8736819999999881
21
-107.2403889999999933
0
LINE
8
BLACK
6
CONTINUOUS
10
125.8736819999999881
20
-107.2403889999999933
11
127.1117769999999894
21
-107.2403889999999933
0
LINE
8
BLACK
6
CONTINUOUS
10
128.3498720000000048
20
-105.2403889999999933
11
128.540348999999992
21
-105.2403889999999933
0
LINE
8
BLACK
6
CONTINUOUS
10
128.540348999999992
20
-105.2403889999999933
11
128.7308249999999816
21
-105.3356269999999881
0
LINE
8
BLACK
6
CONTINUOUS
10
128.7308249999999816
20
-105.3356269999999881
11
128.8260630000000049
21
-105.4308649999999972
0
LINE
8
BLACK
6
CONTINUOUS
10
128.8260630000000049
20
-105.4308649999999972
11
128.9213009999999997
21
-105.621341000000001
0
LINE
8
BLACK
6
CONTINUOUS
10
128.9213009999999997
20
-105.621341000000001
11
129.0165389999999945
21
-106.0022929999999945
0
LINE
8
BLACK
6
CONTINUOUS
10
129.0165389999999945
20
-106.0022929999999945
11
129.0165389999999945
21
-106.4784839999999946
0
LINE
8
BLACK
6
CONTINUOUS
10
129.0165389999999945
20
-106.4784839999999946
11
128.9213009999999997
21
-106.8594359999999881
0
LINE
8
BLACK
6
CONTINUOUS
10
128.9213009999999997
20
-106.8594359999999881
11
128.8260630000000049
21
-107.049911999999992
0
LINE
8
BLACK
6
CONTINUOUS
10
128.8260630000000049
20
-107.049911999999992
11
128.7308249999999816
21
-107.1451509999999985
0
LINE
8
BLACK
6
CONTINUOUS
10
128.7308249999999816
20
-107.1451509999999985
11
128.540348999999992
21
-107.2403889999999933
0
LINE
8
BLACK
6
CONTINUOUS
10
128.540348999999992
20
-107.2403889999999933
11
128.3498720000000048
21
-107.2403889999999933
0
LINE
8
BLACK
6
CONTINUOUS
10
128.3498720000000048
20
-107.2403889999999933
11
128.1593959999999868
21
-107.1451509999999985
0
LINE
8
BLACK
6
CONTINUOUS
10
128.1593959999999868
20
-107.1451509999999985
11
128.0641579999999919
21
-107.049911999999992
0
LINE
8
BLACK
6
CONTINUOUS
10
128.0641579999999919
20
-107.049911999999992
11
127.9689199999999971
21
-106.8594359999999881
0
LINE
8
BLACK
6
CONTINUOUS
10
127.9689199999999971
20
-106.8594359999999881
11
127.8736819999999881
21
-106.4784839999999946
0
LINE
8
BLACK
6
CONTINUOUS
10
127.8736819999999881
20
-106.4784839999999946
11
127.8736819999999881
21
-106.0022929999999945
0
LINE
8
BLACK
6
CONTINUOUS
10
127.8736819999999881
20
-106.0022929999999945
11
127.9689199999999971
21
-105.621341000000001
0
LINE
8
BLACK
6
CONTINUOUS
10
127.9689199999999971
20
-105.621341000000001
11
128.0641579999999919
21
-105.4308649999999972
0
LINE
8
BLACK
6
CONTINUOUS
10
128.0641579999999919
20
-105.4308649999999972
11
128.1593959999999868
21
-105.3356269999999881
0
LINE
8
BLACK
6
CONTINUOUS
10
128.1593959999999868
20
-105.3356269999999881
11
128.3498720000000048
21
-105.2403889999999933
0
LINE
8
BLACK
6
CONTINUOUS
10
130.2546339999999816
20
-105.2403889999999933
11
130.4451109999999971
21
-105.2403889999999933
0
LINE
8
BLACK
6
CONTINUOUS
10
130.4451109999999971
20
-105.2403889999999933
11
130.6355869999999868
21
-105.3356269999999881
0
LINE
8
BLACK
6
CONTINUOUS
10
130.6355869999999868
20
-105.3356269999999881
11
130.7308249999999816
21
-105.4308649999999972
0
LINE
8
BLACK
6
CONTINUOUS
10
130.7308249999999816
20
-105.4308649999999972
11
130.8260630000000049
21
-105.621341000000001
0
LINE
8
BLACK
6
CONTINUOUS
10
130.8260630000000049
20
-105.621341000000001
11
130.9213009999999997
21
-106.0022929999999945
0
LINE
8
BLACK
6
CONTINUOUS
10
130.9213009999999997
20
-106.0022929999999945
11
130.9213009999999997
21
-106.4784839999999946
0
LINE
8
BLACK
6
CONTINUOUS
10
130.9213009999999997
20
-106.4784839999999946
11
130.8260630000000049
21
-106.8594359999999881
0
LINE
8
BLACK
6
CONTINUOUS
10
130.8260630000000049
20
-106.8594359999999881
11
130.7308249999999816
21
-107.049911999999992
0
LINE
8
BLACK
6
CONTINUOUS
10
130.7308249999999816
20
-107.049911999999992
11
130.6355869999999868
21
-107.1451509999999985
0
LINE
8
BLACK
6
CONTINUOUS
10
130.6355869999999868
20
-107.1451509999999985
11
130.4451109999999971
21
-107.2403889999999933
0
LINE
8
BLACK
6
CONTINUOUS
10
130.4451109999999971
20
-107.2403889999999933
11
130.2546339999999816
21
-107.2403889999999933
0
LINE
8
BLACK
6
CONTINUOUS
10
130.2546339999999816
20
-107.2403889999999933
11
130.0641579999999919
21
-107.1451509999999985
0
LINE
8
BLACK
6
CONTINUOUS
10
130.0641579999999919
20
-107.1451509999999985
11
129.9689199999999971
21
-107.049911999999992
0
LINE
8
BLACK
6
CONTINUOUS
10
129.9689199999999971
20
-107.049911999999992
11
129.8736820000000023
21
-106.8594359999999881
0
LINE
8
BLACK
6
CONTINUOUS
10
129.8736820000000023
20
-106.8594359999999881
11
129.7784440000000075
21
-106.4784839999999946
0
LINE
8
BLACK
6
CONTINUOUS
10
129.7784440000000075
20
-106.4784839999999946
11
129.7784440000000075
21
-106.0022929999999945
0
LINE
8
BLACK
6
CONTINUOUS
10
129.7784440000000075
20
-106.0022929999999945
11
129.8736820000000023
21
-105.621341000000001
0
LINE
8
BLACK
6
CONTINUOUS
10
129.8736820000000023
20
-105.621341000000001
11
129.9689199999999971
21
-105.4308649999999972
0
LINE
8
BLACK
6
CONTINUOUS
10
129.9689199999999971
20
-105.4308649999999972
11
130.0641579999999919
21
-105.3356269999999881
0
LINE
8
BLACK
6
CONTINUOUS
10
130.0641579999999919
20
-105.3356269999999881
11
130.2546339999999816
21
-105.2403889999999933
0
LINE
8
BLACK
6
CONTINUOUS
10
131.7784440000000075
20
-107.2403889999999933
11
131.7784440000000075
21
-105.9070549999999997
0
LINE
8
BLACK
6
CONTINUOUS
10
131.7784440000000075
20
-106.0975309999999894
11
131.8736820000000023
21
-106.0022929999999945
0
LINE
8
BLACK
6
CONTINUOUS
10
131.8736820000000023
20
-106.0022929999999945
11
132.0641579999999919
21
-105.9070549999999997
0
LINE
8
BLACK
6
CONTINUOUS
10
132.0641579999999919
20
-105.9070549999999997
11
132.3498730000000023
21
-105.9070549999999997
0
LINE
8
BLACK
6
CONTINUOUS
10
132.3498730000000023
20
-105.9070549999999997
11
132.540348999999992
21
-106.0022929999999945
0
LINE
8
BLACK
6
CONTINUOUS
10
132.540348999999992
20
-106.0022929999999945
11
132.6355869999999868
21
-106.1927699999999959
0
LINE
8
BLACK
6
CONTINUOUS
10
132.6355869999999868
20
-106.1927699999999959
11
132.6355869999999868
21
-107.2403889999999933
0
LINE
8
BLACK
6
CONTINUOUS
10
132.6355869999999868
20
-106.1927699999999959
11
132.7308249999999816
21
-106.0022929999999945
0
LINE
8
BLACK
6
CONTINUOUS
10
132.7308249999999816
20
-106.0022929999999945
11
132.9213009999999997
21
-105.9070549999999997
0
LINE
8
BLACK
6
CONTINUOUS
10
132.9213009999999997
20
-105.9070549999999997
11
133.2070149999999842
21
-105.9070549999999997
0
LINE
8
BLACK
6
CONTINUOUS
10
133.2070149999999842
20
-105.9070549999999997
11
133.3974919999999997
21
-106.0022929999999945
0
LINE
8
BLACK
6
CONTINUOUS
10
133.3974919999999997
20
-106.0022929999999945
11
133.4927299999999946
21
-106.1927699999999959
0
LINE
8
BLACK
6
CONTINUOUS
10
133.4927299999999946
20
-106.1927699999999959
11
133.4927299999999946
21
-107.2403889999999933
0
LINE
8
BLACK
6
CONTINUOUS
10
134.4451109999999971
20
-107.2403889999999933
11
134.4451109999999971
21
-105.9070549999999997
0
LINE
8
BLACK
6
CONTINUOUS
10
134.4451109999999971
20
-106.0975309999999894
11
134.540348999999992
21
-106.0022929999999945
0
LINE
8
BLACK
6
CONTINUOUS
10
134.540348999999992
20
-106.0022929999999945
11
134.7308249999999816
21
-105.9070549999999997
0
LINE
8
BLACK
6
CONTINUOUS
10
134.7308249999999816
20
-105.9070549999999997
11
135.016539999999992
21
-105.9070549999999997
0
LINE
8
BLACK
6
CONTINUOUS
10
135.016539999999992
20
-105.9070549999999997
11
135.2070159999999817
21
-106.0022929999999945
0
LINE
8
BLACK
6
CONTINUOUS
10
135.2070159999999817
20
-106.0022929999999945
11
135.3022540000000049
21
-106.1927699999999959
0
LINE
8
BLACK
6
CONTINUOUS
10
135.3022540000000049
20
-106.1927699999999959
11
135.3022540000000049
21
-107.2403889999999933
0
LINE
8
BLACK
6
CONTINUOUS
10
135.3022540000000049
20
-106.1927699999999959
11
135.3974919999999997
21
-106.0022929999999945
0
LINE
8
BLACK
6
CONTINUOUS
10
135.3974919999999997
20
-106.0022929999999945
11
135.5879679999999894
21
-105.9070549999999997
0
LINE
8
BLACK
6
CONTINUOUS
10
135.5879679999999894
20
-105.9070549999999997
11
135.8736820000000023
21
-105.9070549999999997
0
LINE
8
BLACK
6
CONTINUOUS
10
135.8736820000000023
20
-105.9070549999999997
11
136.0641589999999894
21
-106.0022929999999945
0
LINE
8
BLACK
6
CONTINUOUS
10
136.0641589999999894
20
-106.0022929999999945
11
136.1593969999999842
21
-106.1927699999999959
0
LINE
8
BLACK
6
CONTINUOUS
10
136.1593969999999842
20
-106.1927699999999959
11
136.1593969999999842
21
-107.2403889999999933
0
LINE
8
BLACK
6
CONTINUOUS
10
140.0641589999999894
20
-105.1451509999999985
11
138.3498739999999998
21
-107.7165789999999959
0
LINE
8
BLACK
6
CONTINUOUS
10
142.6355879999999843
20
-105.2403889999999933
11
142.8260649999999998
21
-105.2403889999999933
0
LINE
8
BLACK
6
CONTINUOUS
10
142.8260649999999998
20
-105.2403889999999933
11
143.0165409999999895
21
-105.3356269999999881
0
LINE
8
BLACK
6
CONTINUOUS
10
143.0165409999999895
20
-105.3356269999999881
11
143.1117789999999843
21
-105.4308649999999972
0
LINE
8
BLACK
6
CONTINUOUS
10
143.1117789999999843
20
-105.4308649999999972
11
143.2070170000000076
21
-105.621341000000001
0
LINE
8
BLACK
6
CONTINUOUS
10
143.2070170000000076
20
-105.621341000000001
11
143.3022550000000024
21
-106.0022929999999945
0
LINE
8
BLACK
6
CONTINUOUS
10
143.3022550000000024
20
-106.0022929999999945
11
143.3022550000000024
21
-106.4784839999999946
0
LINE
8
BLACK
6
CONTINUOUS
10
143.3022550000000024
20
-106.4784839999999946
11
143.2070170000000076
21
-106.8594359999999881
0
LINE
8
BLACK
6
CONTINUOUS
10
143.2070170000000076
20
-106.8594359999999881
11
143.1117789999999843
21
-107.049911999999992
0
LINE
8
BLACK
6
CONTINUOUS
10
143.1117789999999843
20
-107.049911999999992
11
143.0165409999999895
21
-107.1451509999999985
0
LINE
8
BLACK
6
CONTINUOUS
10
143.0165409999999895
20
-107.1451509999999985
11
142.8260649999999998
21
-107.2403889999999933
0
LINE
8
BLACK
6
CONTINUOUS
10
142.8260649999999998
20
-107.2403889999999933
11
142.6355879999999843
21
-107.2403889999999933
0
LINE
8
BLACK
6
CONTINUOUS
10
142.6355879999999843
20
-107.2403889999999933
11
142.4451119999999946
21
-107.1451509999999985
0
LINE
8
BLACK
6
CONTINUOUS
10
142.4451119999999946
20
-107.1451509999999985
11
142.3498739999999998
21
-107.049911999999992
0
LINE
8
BLACK
6
CONTINUOUS
10
142.3498739999999998
20
-107.049911999999992
11
142.254636000000005
21
-106.8594359999999881
0
LINE
8
BLACK
6
CONTINUOUS
10
142.254636000000005
20
-106.8594359999999881
11
142.1593979999999817
21
-106.4784839999999946
0
LINE
8
BLACK
6
CONTINUOUS
10
142.1593979999999817
20
-106.4784839999999946
11
142.1593979999999817
21
-106.0022929999999945
0
LINE
8
BLACK
6
CONTINUOUS
10
142.1593979999999817
20
-106.0022929999999945
11
142.254636000000005
21
-105.621341000000001
0
LINE
8
BLACK
6
CONTINUOUS
10
142.254636000000005
20
-105.621341000000001
11
142.3498739999999998
21
-105.4308649999999972
0
LINE
8
BLACK
6
CONTINUOUS
10
142.3498739999999998
20
-105.4308649999999972
11
142.4451119999999946
21
-105.3356269999999881
0
LINE
8
BLACK
6
CONTINUOUS
10
142.4451119999999946
20
-105.3356269999999881
11
142.6355879999999843
21
-105.2403889999999933
0
LINE
8
BLACK
6
CONTINUOUS
10
144.1593979999999817
20
-107.049911999999992
11
144.254636000000005
21
-107.1451509999999985
0
LINE
8
BLACK
6
CONTINUOUS
10
144.254636000000005
20
-107.1451509999999985
11
144.1593979999999817
21
-107.2403889999999933
0
LINE
8
BLACK
6
CONTINUOUS
10
144.1593979999999817
20
-107.2403889999999933
11
144.0641599999999869
21
-107.1451509999999985
0
LINE
8
BLACK
6
CONTINUOUS
10
144.0641599999999869
20
-107.1451509999999985
11
144.1593979999999817
21
-107.049911999999992
0
LINE
8
BLACK
6
CONTINUOUS
10
144.1593979999999817
20
-107.049911999999992
11
144.1593979999999817
21
-107.2403889999999933
0
LINE
8
BLACK
6
CONTINUOUS
10
146.1593979999999817
20
-107.2403889999999933
11
145.0165409999999895
21
-107.2403889999999933
0
LINE
8
BLACK
6
CONTINUOUS
10
145.5879689999999869
20
-107.2403889999999933
11
145.5879689999999869
21
-105.2403889999999933
0
LINE
8
BLACK
6
CONTINUOUS
10
145.5879689999999869
20
-105.2403889999999933
11
145.3974929999999972
21
-105.526102999999992
0
LINE
8
BLACK
6
CONTINUOUS
10
145.3974929999999972
20
-105.526102999999992
11
145.2070170000000076
21
-105.7165789999999959
0
LINE
8
BLACK
6
CONTINUOUS
10
145.2070170000000076
20
-105.7165789999999959
11
145.0165409999999895
21
-105.8118169999999907
0
LINE
8
BLACK
6
CONTINUOUS
10
146.9213029999999947
20
-105.4308649999999972
11
147.0165409999999895
21
-105.3356269999999881
0
LINE
8
BLACK
6
CONTINUOUS
10
147.0165409999999895
20
-105.3356269999999881
11
147.2070169999999791
21
-105.2403889999999933
0
LINE
8
BLACK
6
CONTINUOUS
10
147.2070169999999791
20
-105.2403889999999933
11
147.6832079999999792
21
-105.2403889999999933
0
LINE
8
BLACK
6
CONTINUOUS
10
147.6832079999999792
20
-105.2403889999999933
11
147.8736839999999972
21
-105.3356269999999881
0
LINE
8
BLACK
6
CONTINUOUS
10
147.8736839999999972
20
-105.3356269999999881
11
147.9689219999999921
21
-105.4308649999999972
0
LINE
8
BLACK
6
CONTINUOUS
10
147.9689219999999921
20
-105.4308649999999972
11
148.0641599999999869
21
-105.621341000000001
0
LINE
8
BLACK
6
CONTINUOUS
10
148.0641599999999869
20
-105.621341000000001
11
148.0641599999999869
21
-105.8118169999999907
0
LINE
8
BLACK
6
CONTINUOUS
10
148.0641599999999869
20
-105.8118169999999907
11
147.9689219999999921
21
-106.0975309999999894
0
LINE
8
BLACK
6
CONTINUOUS
10
147.9689219999999921
20
-106.0975309999999894
11
146.8260649999999998
21
-107.2403889999999933
0
LINE
8
BLACK
6
CONTINUOUS
10
146.8260649999999998
20
-107.2403889999999933
11
148.0641599999999869
21
-107.2403889999999933
0
LINE
8
BLACK
6
CONTINUOUS
10
149.7784460000000024
20
-105.2403889999999933
11
149.3974929999999972
21
-105.2403889999999933
0
LINE
8
BLACK
6
CONTINUOUS
10
149.3974929999999972
20
-105.2403889999999933
11
149.2070169999999791
21
-105.3356269999999881
0
LINE
8
BLACK
6
CONTINUOUS
10
149.2070169999999791
20
-105.3356269999999881
11
149.1117789999999843
21
-105.4308649999999972
0
LINE
8
BLACK
6
CONTINUOUS
10
149.1117789999999843
20
-105.4308649999999972
11
148.9213029999999947
21
-105.7165789999999959
0
LINE
8
BLACK
6
CONTINUOUS
10
148.9213029999999947
20
-105.7165789999999959
11
148.8260649999999998
21
-106.0975309999999894
0
LINE
8
BLACK
6
CONTINUOUS
10
148.8260649999999998
20
-106.0975309999999894
11
148.8260649999999998
21
-106.8594359999999881
0
LINE
8
BLACK
6
CONTINUOUS
10
148.8260649999999998
20
-106.8594359999999881
11
148.9213029999999947
21
-107.049911999999992
0
LINE
8
BLACK
6
CONTINUOUS
10
148.9213029999999947
20
-107.049911999999992
11
149.0165409999999895
21
-107.1451509999999985
0
LINE
8
BLACK
6
CONTINUOUS
10
149.0165409999999895
20
-107.1451509999999985
11
149.2070169999999791
21
-107.2403889999999933
0
LINE
8
BLACK
6
CONTINUOUS
10
149.2070169999999791
20
-107.2403889999999933
11
149.5879699999999843
21
-107.2403889999999933
0
LINE
8
BLACK
6
CONTINUOUS
10
149.5879699999999843
20
-107.2403889999999933
11
149.7784460000000024
21
-107.1451509999999985
0
LINE
8
BLACK
6
CONTINUOUS
10
149.7784460000000024
20
-107.1451509999999985
11
149.8736839999999972
21
-107.049911999999992
0
LINE
8
BLACK
6
CONTINUOUS
10
149.8736839999999972
20
-107.049911999999992
11
149.9689219999999921
21
-106.8594359999999881
0
LINE
8
BLACK
6
CONTINUOUS
10
149.9689219999999921
20
-106.8594359999999881
11
149.9689219999999921
21
-106.3832459999999998
0
LINE
8
BLACK
6
CONTINUOUS
10
149.9689219999999921
20
-106.3832459999999998
11
149.8736839999999972
21
-106.1927699999999959
0
LINE
8
BLACK
6
CONTINUOUS
10
149.8736839999999972
20
-106.1927699999999959
11
149.7784460000000024
21
-106.0975309999999894
0
LINE
8
BLACK
6
CONTINUOUS
10
149.7784460000000024
20
-106.0975309999999894
11
149.5879699999999843
21
-106.0022929999999945
0
LINE
8
BLACK
6
CONTINUOUS
10
149.5879699999999843
20
-106.0022929999999945
11
149.2070169999999791
21
-106.0022929999999945
0
LINE
8
BLACK
6
CONTINUOUS
10
149.2070169999999791
20
-106.0022929999999945
11
149.0165409999999895
21
-106.0975309999999894
0
LINE
8
BLACK
6
CONTINUOUS
10
149.0165409999999895
20
-106.0975309999999894
11
148.9213029999999947
21
-106.1927699999999959
0
LINE
8
BLACK
6
CONTINUOUS
10
148.9213029999999947
20
-106.1927699999999959
11
148.8260649999999998
21
-106.3832459999999998
0
LINE
8
BLACK
6
CONTINUOUS
10
151.2070169999999791
20
-105.2403889999999933
11
151.3974939999999947
21
-105.2403889999999933
0
LINE
8
BLACK
6
CONTINUOUS
10
151.3974939999999947
20
-105.2403889999999933
11
151.5879699999999843
21
-105.3356269999999881
0
LINE
8
BLACK
6
CONTINUOUS
10
151.5879699999999843
20
-105.3356269999999881
11
151.6832079999999792
21
-105.4308649999999972
0
LINE
8
BLACK
6
CONTINUOUS
10
151.6832079999999792
20
-105.4308649999999972
11
151.7784460000000024
21
-105.621341000000001
0
LINE
8
BLACK
6
CONTINUOUS
10
151.7784460000000024
20
-105.621341000000001
11
151.8736839999999972
21
-106.0022929999999945
0
LINE
8
BLACK
6
CONTINUOUS
10
151.8736839999999972
20
-106.0022929999999945
11
151.8736839999999972
21
-106.4784839999999946
0
LINE
8
BLACK
6
CONTINUOUS
10
151.8736839999999972
20
-106.4784839999999946
11
151.7784460000000024
21
-106.8594359999999881
0
LINE
8
BLACK
6
CONTINUOUS
10
151.7784460000000024
20
-106.8594359999999881
11
151.6832079999999792
21
-107.049911999999992
0
LINE
8
BLACK
6
CONTINUOUS
10
151.6832079999999792
20
-107.049911999999992
11
151.5879699999999843
21
-107.1451509999999985
0
LINE
8
BLACK
6
CONTINUOUS
10
151.5879699999999843
20
-107.1451509999999985
11
151.3974939999999947
21
-107.2403889999999933
0
LINE
8
BLACK
6
CONTINUOUS
10
151.3974939999999947
20
-107.2403889999999933
11
151.2070169999999791
21
-107.2403889999999933
0
LINE
8
BLACK
6
CONTINUOUS
10
151.2070169999999791
20
-107.2403889999999933
11
151.0165409999999895
21
-107.1451509999999985
0
LINE
8
BLACK
6
CONTINUOUS
10
151.0165409999999895
20
-107.1451509999999985
11
150.9213029999999947
21
-107.049911999999992
0
LINE
8
BLACK
6
CONTINUOUS
10
150.9213029999999947
20
-107.049911999999992
11
150.8260649999999998
21
-106.8594359999999881
0
LINE
8
BLACK
6
CONTINUOUS
10
150.8260649999999998
20
-106.8594359999999881
11
150.730827000000005
21
-106.4784839999999946
0
LINE
8
BLACK
6
CONTINUOUS
10
150.730827000000005
20
-106.4784839999999946
11
150.730827000000005
21
-106.0022929999999945
0
LINE
8
BLACK
6
CONTINUOUS
10
150.730827000000005
20
-106.0022929999999945
11
150.8260649999999998
21
-105.621341000000001
0
LINE
8
BLACK
6
CONTINUOUS
10
150.8260649999999998
20
-105.621341000000001
11
150.9213029999999947
21
-105.4308649999999972
0
LINE
8
BLACK
6
CONTINUOUS
10
150.9213029999999947
20
-105.4308649999999972
11
151.0165409999999895
21
-105.3356269999999881
0
LINE
8
BLACK
6
CONTINUOUS
10
151.0165409999999895
20
-105.3356269999999881
11
151.2070169999999791
21
-105.2403889999999933
0
LINE
8
BLACK
6
CONTINUOUS
10
152.6355889999999818
20
-105.2403889999999933
11
152.6355889999999818
21
-105.621341000000001
0
LINE
8
BLACK
6
CONTINUOUS
10
153.3974939999999947
20
-105.2403889999999933
11
153.3974939999999947
21
-105.621341000000001
0
LINE
8
BLACK
6
CONTINUOUS
10
156.3498759999999947
20
-108.0022929999999945
11
156.2546370000000024
21
-107.9070549999999997
0
LINE
8
BLACK
6
CONTINUOUS
10
156.2546370000000024
20
-107.9070549999999997
11
156.0641609999999844
21
-107.621341000000001
0
LINE
8
BLACK
6
CONTINUOUS
10
156.0641609999999844
20
-107.621341000000001
11
155.9689229999999895
21
-107.4308649999999972
0
LINE
8
BLACK
6
CONTINUOUS
10
155.9689229999999895
20
-107.4308649999999972
11
155.8736849999999947
21
-107.1451509999999985
0
LINE
8
BLACK
6
CONTINUOUS
10
155.8736849999999947
20
-107.1451509999999985
11
155.7784469999999999
21
-106.6689599999999984
0
LINE
8
BLACK
6
CONTINUOUS
10
155.7784469999999999
20
-106.6689599999999984
11
155.7784469999999999
21
-106.2880079999999907
0
LINE
8
BLACK
6
CONTINUOUS
10
155.7784469999999999
20
-106.2880079999999907
11
155.8736849999999947
21
-105.8118169999999907
0
LINE
8
BLACK
6
CONTINUOUS
10
155.8736849999999947
20
-105.8118169999999907
11
155.9689229999999895
21
-105.526102999999992
0
LINE
8
BLACK
6
CONTINUOUS
10
155.9689229999999895
20
-105.526102999999992
11
156.0641609999999844
21
-105.3356269999999881
0
LINE
8
BLACK
6
CONTINUOUS
10
156.0641609999999844
20
-105.3356269999999881
11
156.2546370000000024
21
-105.049911999999992
0
LINE
8
BLACK
6
CONTINUOUS
10
156.2546370000000024
20
-105.049911999999992
11
156.3498759999999947
21
-104.9546739999999971
0
LINE
8
BLACK
6
CONTINUOUS
10
156.9213039999999921
20
-105.2403889999999933
11
158.1593989999999792
21
-105.2403889999999933
0
LINE
8
BLACK
6
CONTINUOUS
10
158.1593989999999792
20
-105.2403889999999933
11
157.4927319999999895
21
-106.0022929999999945
0
LINE
8
BLACK
6
CONTINUOUS
10
157.4927319999999895
20
-106.0022929999999945
11
157.7784469999999999
21
-106.0022929999999945
0
LINE
8
BLACK
6
CONTINUOUS
10
157.7784469999999999
20
-106.0022929999999945
11
157.9689229999999895
21
-106.0975309999999894
0
LINE
8
BLACK
6
CONTINUOUS
10
157.9689229999999895
20
-106.0975309999999894
11
158.0641609999999844
21
-106.1927699999999959
0
LINE
8
BLACK
6
CONTINUOUS
10
158.0641609999999844
20
-106.1927699999999959
11
158.1593989999999792
21
-106.3832459999999998
0
LINE
8
BLACK
6
CONTINUOUS
10
158.1593989999999792
20
-106.3832459999999998
11
158.1593989999999792
21
-106.8594359999999881
0
LINE
8
BLACK
6
CONTINUOUS
10
158.1593989999999792
20
-106.8594359999999881
11
158.0641609999999844
21
-107.049911999999992
0
LINE
8
BLACK
6
CONTINUOUS
10
158.0641609999999844
20
-107.049911999999992
11
157.9689229999999895
21
-107.1451509999999985
0
LINE
8
BLACK
6
CONTINUOUS
10
157.9689229999999895
20
-107.1451509999999985
11
157.7784469999999999
21
-107.2403889999999933
0
LINE
8
BLACK
6
CONTINUOUS
10
157.7784469999999999
20
-107.2403889999999933
11
157.207018000000005
21
-107.2403889999999933
0
LINE
8
BLACK
6
CONTINUOUS
10
157.207018000000005
20
-107.2403889999999933
11
157.016541999999987
21
-107.1451509999999985
0
LINE
8
BLACK
6
CONTINUOUS
10
157.016541999999987
20
-107.1451509999999985
11
156.9213039999999921
21
-107.049911999999992
0
LINE
8
BLACK
6
CONTINUOUS
10
160.5403519999999844
20
-107.2403889999999933
11
160.5403519999999844
21
-105.2403889999999933
0
LINE
8
BLACK
6
CONTINUOUS
10
161.3974949999999922
20
-107.2403889999999933
11
161.3974949999999922
21
-106.1927699999999959
0
LINE
8
BLACK
6
CONTINUOUS
10
161.3974949999999922
20
-106.1927699999999959
11
161.3022569999999973
21
-106.0022929999999945
0
LINE
8
BLACK
6
CONTINUOUS
10
161.3022569999999973
20
-106.0022929999999945
11
161.1117809999999793
21
-105.9070549999999997
0
LINE
8
BLACK
6
CONTINUOUS
10
161.1117809999999793
20
-105.9070549999999997
11
160.8260659999999973
21
-105.9070549999999997
0
LINE
8
BLACK
6
CONTINUOUS
10
160.8260659999999973
20
-105.9070549999999997
11
160.6355899999999792
21
-106.0022929999999945
0
LINE
8
BLACK
6
CONTINUOUS
10
160.6355899999999792
20
-106.0022929999999945
11
160.5403519999999844
21
-106.0975309999999894
0
LINE
8
BLACK
6
CONTINUOUS
10
162.6355899999999792
20
-107.2403889999999933
11
162.4451139999999896
21
-107.1451509999999985
0
LINE
8
BLACK
6
CONTINUOUS
10
162.4451139999999896
20
-107.1451509999999985
11
162.3498759999999947
21
-107.049911999999992
0
LINE
8
BLACK
6
CONTINUOUS
10
162.3498759999999947
20
-107.049911999999992
11
162.2546379999999999
21
-106.8594359999999881
0
LINE
8
BLACK
6
CONTINUOUS
10
162.2546379999999999
20
-106.8594359999999881
11
162.2546379999999999
21
-106.2880079999999907
0
LINE
8
BLACK
6
CONTINUOUS
10
162.2546379999999999
20
-106.2880079999999907
11
162.3498759999999947
21
-106.0975309999999894
0
LINE
8
BLACK
6
CONTINUOUS
10
162.3498759999999947
20
-106.0975309999999894
11
162.4451139999999896
21
-106.0022929999999945
0
LINE
8
BLACK
6
CONTINUOUS
10
162.4451139999999896
20
-106.0022929999999945
11
162.6355899999999792
21
-105.9070549999999997
0
LINE
8
BLACK
6
CONTINUOUS
10
162.6355899999999792
20
-105.9070549999999997
11
162.9213049999999896
21
-105.9070549999999997
0
LINE
8
BLACK
6
CONTINUOUS
10
162.9213049999999896
20
-105.9070549999999997
11
163.1117809999999793
21
-106.0022929999999945
0
LINE
8
BLACK
6
CONTINUOUS
10
163.1117809999999793
20
-106.0022929999999945
11
163.2070190000000025
21
-106.0975309999999894
0
LINE
8
BLACK
6
CONTINUOUS
10
163.2070190000000025
20
-106.0975309999999894
11
163.3022569999999973
21
-106.2880079999999907
0
LINE
8
BLACK
6
CONTINUOUS
10
163.3022569999999973
20
-106.2880079999999907
11
163.3022569999999973
21
-106.8594359999999881
0
LINE
8
BLACK
6
CONTINUOUS
10
163.3022569999999973
20
-106.8594359999999881
11
163.2070190000000025
21
-107.049911999999992
0
LINE
8
BLACK
6
CONTINUOUS
10
163.2070190000000025
20
-107.049911999999992
11
163.1117809999999793
21
-107.1451509999999985
0
LINE
8
BLACK
6
CONTINUOUS
10
163.1117809999999793
20
-107.1451509999999985
11
162.9213049999999896
21
-107.2403889999999933
0
LINE
8
BLACK
6
CONTINUOUS
10
162.9213049999999896
20
-107.2403889999999933
11
162.6355899999999792
21
-107.2403889999999933
0
LINE
8
BLACK
6
CONTINUOUS
10
164.4451139999999896
20
-107.2403889999999933
11
164.2546379999999999
21
-107.1451509999999985
0
LINE
8
BLACK
6
CONTINUOUS
10
164.2546379999999999
20
-107.1451509999999985
11
164.1594000000000051
21
-106.9546739999999971
0
LINE
8
BLACK
6
CONTINUOUS
10
164.1594000000000051
20
-106.9546739999999971
11
164.1594000000000051
21
-105.2403889999999933
0
LINE
8
BLACK
6
CONTINUOUS
10
165.968923999999987
20
-107.1451509999999985
11
165.7784479999999974
21
-107.2403889999999933
0
LINE
8
BLACK
6
CONTINUOUS
10
165.7784479999999974
20
-107.2403889999999933
11
165.3974949999999922
21
-107.2403889999999933
0
LINE
8
BLACK
6
CONTINUOUS
10
165.3974949999999922
20
-107.2403889999999933
11
165.2070190000000025
21
-107.1451509999999985
0
LINE
8
BLACK
6
CONTINUOUS
10
165.2070190000000025
20
-107.1451509999999985
11
165.1117809999999793
21
-106.9546739999999971
0
LINE
8
BLACK
6
CONTINUOUS
10
165.1117809999999793
20
-106.9546739999999971
11
165.1117809999999793
21
-106.1927699999999959
0
LINE
8
BLACK
6
CONTINUOUS
10
165.1117809999999793
20
-106.1927699999999959
11
165.2070190000000025
21
-106.0022929999999945
0
LINE
8
BLACK
6
CONTINUOUS
10
165.2070190000000025
20
-106.0022929999999945
11
165.3974949999999922
21
-105.9070549999999997
0
LINE
8
BLACK
6
CONTINUOUS
10
165.3974949999999922
20
-105.9070549999999997
11
165.7784479999999974
21
-105.9070549999999997
0
LINE
8
BLACK
6
CONTINUOUS
10
165.7784479999999974
20
-105.9070549999999997
11
165.968923999999987
21
-106.0022929999999945
0
LINE
8
BLACK
6
CONTINUOUS
10
165.968923999999987
20
-106.0022929999999945
11
166.0641619999999818
21
-106.1927699999999959
0
LINE
8
BLACK
6
CONTINUOUS
10
166.0641619999999818
20
-106.1927699999999959
11
166.0641619999999818
21
-106.3832459999999998
0
LINE
8
BLACK
6
CONTINUOUS
10
166.0641619999999818
20
-106.3832459999999998
11
165.1117809999999793
21
-106.5737219999999894
0
LINE
8
BLACK
6
CONTINUOUS
10
166.8260669999999948
20
-107.1451509999999985
11
167.0165429999999844
21
-107.2403889999999933
0
LINE
8
BLACK
6
CONTINUOUS
10
167.0165429999999844
20
-107.2403889999999933
11
167.3974949999999922
21
-107.2403889999999933
0
LINE
8
BLACK
6
CONTINUOUS
10
167.3974949999999922
20
-107.2403889999999933
11
167.5879719999999793
21
-107.1451509999999985
0
LINE
8
BLACK
6
CONTINUOUS
10
167.5879719999999793
20
-107.1451509999999985
11
167.6832100000000025
21
-106.9546739999999971
0
LINE
8
BLACK
6
CONTINUOUS
10
167.6832100000000025
20
-106.9546739999999971
11
167.6832100000000025
21
-106.8594359999999881
0
LINE
8
BLACK
6
CONTINUOUS
10
167.6832100000000025
20
-106.8594359999999881
11
167.5879719999999793
21
-106.6689599999999984
0
LINE
8
BLACK
6
CONTINUOUS
10
167.5879719999999793
20
-106.6689599999999984
11
167.3974949999999922
21
-106.5737219999999894
0
LINE
8
BLACK
6
CONTINUOUS
10
167.3974949999999922
20
-106.5737219999999894
11
167.1117809999999793
21
-106.5737219999999894
0
LINE
8
BLACK
6
CONTINUOUS
10
167.1117809999999793
20
-106.5737219999999894
11
166.9213049999999896
21
-106.4784839999999946
0
LINE
8
BLACK
6
CONTINUOUS
10
166.9213049999999896
20
-106.4784839999999946
11
166.8260669999999948
21
-106.2880079999999907
0
LINE
8
BLACK
6
CONTINUOUS
10
166.8260669999999948
20
-106.2880079999999907
11
166.8260669999999948
21
-106.1927699999999959
0
LINE
8
BLACK
6
CONTINUOUS
10
166.8260669999999948
20
-106.1927699999999959
11
166.9213049999999896
21
-106.0022929999999945
0
LINE
8
BLACK
6
CONTINUOUS
10
166.9213049999999896
20
-106.0022929999999945
11
167.1117809999999793
21
-105.9070549999999997
0
LINE
8
BLACK
6
CONTINUOUS
10
167.1117809999999793
20
-105.9070549999999997
11
167.3974949999999922
21
-105.9070549999999997
0
LINE
8
BLACK
6
CONTINUOUS
10
167.3974949999999922
20
-105.9070549999999997
11
167.5879719999999793
21
-106.0022929999999945
0
LINE
8
BLACK
6
CONTINUOUS
10
168.3498769999999922
20
-108.0022929999999945
11
168.445114999999987
21
-107.9070549999999997
0
LINE
8
BLACK
6
CONTINUOUS
10
168.445114999999987
20
-107.9070549999999997
11
168.6355910000000051
21
-107.621341000000001
0
LINE
8
BLACK
6
CONTINUOUS
10
168.6355910000000051
20
-107.621341000000001
11
168.730829
21
-107.4308649999999972
0
LINE
8
BLACK
6
CONTINUOUS
10
168.730829
20
-107.4308649999999972
11
168.8260669999999948
21
-107.1451509999999985
0
LINE
8
BLACK
6
CONTINUOUS
10
168.8260669999999948
20
-107.1451509999999985
11
168.9213049999999896
21
-106.6689599999999984
0
LINE
8
BLACK
6
CONTINUOUS
10
168.9213049999999896
20
-106.6689599999999984
11
168.9213049999999896
21
-106.2880079999999907
0
LINE
8
BLACK
6
CONTINUOUS
10
168.9213049999999896
20
-106.2880079999999907
11
168.8260669999999948
21
-105.8118169999999907
0
LINE
8
BLACK
6
CONTINUOUS
10
168.8260669999999948
20
-105.8118169999999907
11
168.730829
21
-105.526102999999992
0
LINE
8
BLACK
6
CONTINUOUS
10
168.730829
20
-105.526102999999992
11
168.6355910000000051
21
-105.3356269999999881
0
LINE
8
BLACK
6
CONTINUOUS
10
168.6355910000000051
20
-105.3356269999999881
11
168.445114999999987
21
-105.049911999999992
0
LINE
8
BLACK
6
CONTINUOUS
10
168.445114999999987
20
-105.049911999999992
11
168.3498769999999922
21
-104.9546739999999971
0
LINE
8
BLACK
6
CONTINUOUS
10
171.9689249999999845
20
-108.0022929999999945
11
171.8736859999999922
21
-107.9070549999999997
0
LINE
8
BLACK
6
CONTINUOUS
10
171.8736859999999922
20
-107.9070549999999997
11
171.6832100000000025
21
-107.621341000000001
0
LINE
8
BLACK
6
CONTINUOUS
10
171.6832100000000025
20
-107.621341000000001
11
171.5879719999999793
21
-107.4308649999999972
0
LINE
8
BLACK
6
CONTINUOUS
10
171.5879719999999793
20
-107.4308649999999972
11
171.4927339999999845
21
-107.1451509999999985
0
LINE
8
BLACK
6
CONTINUOUS
10
171.4927339999999845
20
-107.1451509999999985
11
171.3974959999999896
21
-106.6689599999999984
0
LINE
8
BLACK
6
CONTINUOUS
10
171.3974959999999896
20
-106.6689599999999984
11
171.3974959999999896
21
-106.2880079999999907
0
LINE
8
BLACK
6
CONTINUOUS
10
171.3974959999999896
20
-106.2880079999999907
11
171.4927339999999845
21
-105.8118169999999907
0
LINE
8
BLACK
6
CONTINUOUS
10
171.4927339999999845
20
-105.8118169999999907
11
171.5879719999999793
21
-105.526102999999992
0
LINE
8
BLACK
6
CONTINUOUS
10
171.5879719999999793
20
-105.526102999999992
11
171.6832100000000025
21
-105.3356269999999881
0
LINE
8
BLACK
6
CONTINUOUS
10
171.6832100000000025
20
-105.3356269999999881
11
171.8736859999999922
21
-105.049911999999992
0
LINE
8
BLACK
6
CONTINUOUS
10
171.8736859999999922
20
-105.049911999999992
11
171.9689249999999845
21
-104.9546739999999971
0
LINE
8
BLACK
6
CONTINUOUS
10
172.730829
20
-105.9070549999999997
11
172.730829
21
-107.2403889999999933
0
LINE
8
BLACK
6
CONTINUOUS
10
172.730829
20
-106.0975309999999894
11
172.8260669999999948
21
-106.0022929999999945
0
LINE
8
BLACK
6
CONTINUOUS
10
172.8260669999999948
20
-106.0022929999999945
11
173.0165429999999844
21
-105.9070549999999997
0
LINE
8
BLACK
6
CONTINUOUS
10
173.0165429999999844
20
-105.9070549999999997
11
173.3022579999999948
21
-105.9070549999999997
0
LINE
8
BLACK
6
CONTINUOUS
10
173.3022579999999948
20
-105.9070549999999997
11
173.4927339999999845
21
-106.0022929999999945
0
LINE
8
BLACK
6
CONTINUOUS
10
173.4927339999999845
20
-106.0022929999999945
11
173.5879719999999793
21
-106.1927699999999959
0
LINE
8
BLACK
6
CONTINUOUS
10
173.5879719999999793
20
-106.1927699999999959
11
173.5879719999999793
21
-107.2403889999999933
0
LINE
8
BLACK
6
CONTINUOUS
10
174.8260669999999948
20
-107.2403889999999933
11
174.6355910000000051
21
-107.1451509999999985
0
LINE
8
BLACK
6
CONTINUOUS
10
174.6355910000000051
20
-107.1451509999999985
11
174.5403529999999819
21
-107.049911999999992
0
LINE
8
BLACK
6
CONTINUOUS
10
174.5403529999999819
20
-107.049911999999992
11
174.445114999999987
21
-106.8594359999999881
0
LINE
8
BLACK
6
CONTINUOUS
10
174.445114999999987
20
-106.8594359999999881
11
174.445114999999987
21
-106.2880079999999907
0
LINE
8
BLACK
6
CONTINUOUS
10
174.445114999999987
20
-106.2880079999999907
11
174.5403529999999819
21
-106.0975309999999894
0
LINE
8
BLACK
6
CONTINUOUS
10
174.5403529999999819
20
-106.0975309999999894
11
174.6355910000000051
21
-106.0022929999999945
0
LINE
8
BLACK
6
CONTINUOUS
10
174.6355910000000051
20
-106.0022929999999945
11
174.8260669999999948
21
-105.9070549999999997
0
LINE
8
BLACK
6
CONTINUOUS
10
174.8260669999999948
20
-105.9070549999999997
11
175.1117820000000052
21
-105.9070549999999997
0
LINE
8
BLACK
6
CONTINUOUS
10
175.1117820000000052
20
-105.9070549999999997
11
175.3022579999999948
21
-106.0022929999999945
0
LINE
8
BLACK
6
CONTINUOUS
10
175.3022579999999948
20
-106.0022929999999945
11
175.3974959999999896
21
-106.0975309999999894
0
LINE
8
BLACK
6
CONTINUOUS
10
175.3974959999999896
20
-106.0975309999999894
11
175.4927339999999845
21
-106.2880079999999907
0
LINE
8
BLACK
6
CONTINUOUS
10
175.4927339999999845
20
-106.2880079999999907
11
175.4927339999999845
21
-106.8594359999999881
0
LINE
8
BLACK
6
CONTINUOUS
10
175.4927339999999845
20
-106.8594359999999881
11
175.3974959999999896
21
-107.049911999999992
0
LINE
8
BLACK
6
CONTINUOUS
10
175.3974959999999896
20
-107.049911999999992
11
175.3022579999999948
21
-107.1451509999999985
0
LINE
8
BLACK
6
CONTINUOUS
10
175.3022579999999948
20
-107.1451509999999985
11
175.1117820000000052
21
-107.2403889999999933
0
LINE
8
BLACK
6
CONTINUOUS
10
175.1117820000000052
20
-107.2403889999999933
11
174.8260669999999948
21
-107.2403889999999933
0
LINE
8
BLACK
6
CONTINUOUS
10
176.0641629999999793
20
-105.9070549999999997
11
176.8260669999999948
21
-105.9070549999999997
0
LINE
8
BLACK
6
CONTINUOUS
10
176.3498769999999922
20
-105.2403889999999933
11
176.3498769999999922
21
-106.9546739999999971
0
LINE
8
BLACK
6
CONTINUOUS
10
176.3498769999999922
20
-106.9546739999999971
11
176.445114999999987
21
-107.1451509999999985
0
LINE
8
BLACK
6
CONTINUOUS
10
176.445114999999987
20
-107.1451509999999985
11
176.6355910000000051
21
-107.2403889999999933
0
LINE
8
BLACK
6
CONTINUOUS
10
176.6355910000000051
20
-107.2403889999999933
11
176.8260669999999948
21
-107.2403889999999933
0
LINE
8
BLACK
6
CONTINUOUS
10
179.0165439999999819
20
-105.9070549999999997
11
179.0165439999999819
21
-107.9070549999999997
0
LINE
8
BLACK
6
CONTINUOUS
10
179.0165439999999819
20
-106.0022929999999945
11
179.20702
21
-105.9070549999999997
0
LINE
8
BLACK
6
CONTINUOUS
10
179.20702
20
-105.9070549999999997
11
179.5879730000000052
21
-105.9070549999999997
0
LINE
8
BLACK
6
CONTINUOUS
10
179.5879730000000052
20
-105.9070549999999997
11
179.7784489999999948
21
-106.0022929999999945
0
LINE
8
BLACK
6
CONTINUOUS
10
179.7784489999999948
20
-106.0022929999999945
11
179.8736869999999897
21
-106.0975309999999894
0
LINE
8
BLACK
6
CONTINUOUS
10
179.8736869999999897
20
-106.0975309999999894
11
179.9689249999999845
21
-106.2880079999999907
0
LINE
8
BLACK
6
CONTINUOUS
10
179.9689249999999845
20
-106.2880079999999907
11
179.9689249999999845
21
-106.8594359999999881
0
LINE
8
BLACK
6
CONTINUOUS
10
179.9689249999999845
20
-106.8594359999999881
11
179.8736869999999897
21
-107.049911999999992
0
LINE
8
BLACK
6
CONTINUOUS
10
179.8736869999999897
20
-107.049911999999992
11
179.7784489999999948
21
-107.1451509999999985
0
LINE
8
BLACK
6
CONTINUOUS
10
179.7784489999999948
20
-107.1451509999999985
11
179.5879730000000052
21
-107.2403889999999933
0
LINE
8
BLACK
6
CONTINUOUS
10
179.5879730000000052
20
-107.2403889999999933
11
179.20702
21
-107.2403889999999933
0
LINE
8
BLACK
6
CONTINUOUS
10
179.20702
20
-107.2403889999999933
11
179.0165439999999819
21
-107.1451509999999985
0
LINE
8
BLACK
6
CONTINUOUS
10
181.1117820000000052
20
-107.2403889999999933
11
180.9213059999999871
21
-107.1451509999999985
0
LINE
8
BLACK
6
CONTINUOUS
10
180.9213059999999871
20
-107.1451509999999985
11
180.8260679999999923
21
-106.9546739999999971
0
LINE
8
BLACK
6
CONTINUOUS
10
180.8260679999999923
20
-106.9546739999999971
11
180.8260679999999923
21
-105.2403889999999933
0
LINE
8
BLACK
6
CONTINUOUS
10
182.7308299999999974
20
-107.2403889999999933
11
182.7308299999999974
21
-106.1927699999999959
0
LINE
8
BLACK
6
CONTINUOUS
10
182.7308299999999974
20
-106.1927699999999959
11
182.6355920000000026
21
-106.0022929999999945
0
LINE
8
BLACK
6
CONTINUOUS
10
182.6355920000000026
20
-106.0022929999999945
11
182.4451159999999845
21
-105.9070549999999997
0
LINE
8
BLACK
6
CONTINUOUS
10
182.4451159999999845
20
-105.9070549999999997
11
182.0641629999999793
21
-105.9070549999999997
0
LINE
8
BLACK
6
CONTINUOUS
10
182.0641629999999793
20
-105.9070549999999997
11
181.8736869999999897
21
-106.0022929999999945
0
LINE
8
BLACK
6
CONTINUOUS
10
182.7308299999999974
20
-107.1451509999999985
11
182.5403539999999794
21
-107.2403889999999933
0
LINE
8
BLACK
6
CONTINUOUS
10
182.5403539999999794
20
-107.2403889999999933
11
182.0641629999999793
21
-107.2403889999999933
0
LINE
8
BLACK
6
CONTINUOUS
10
182.0641629999999793
20
-107.2403889999999933
11
181.8736869999999897
21
-107.1451509999999985
0
LINE
8
BLACK
6
CONTINUOUS
10
181.8736869999999897
20
-107.1451509999999985
11
181.7784489999999948
21
-106.9546739999999971
0
LINE
8
BLACK
6
CONTINUOUS
10
181.7784489999999948
20
-106.9546739999999971
11
181.7784489999999948
21
-106.7641979999999933
0
LINE
8
BLACK
6
CONTINUOUS
10
181.7784489999999948
20
-106.7641979999999933
11
181.8736869999999897
21
-106.5737219999999894
0
LINE
8
BLACK
6
CONTINUOUS
10
181.8736869999999897
20
-106.5737219999999894
11
182.0641629999999793
21
-106.4784839999999946
0
LINE
8
BLACK
6
CONTINUOUS
10
182.0641629999999793
20
-106.4784839999999946
11
182.5403539999999794
21
-106.4784839999999946
0
LINE
8
BLACK
6
CONTINUOUS
10
182.5403539999999794
20
-106.4784839999999946
11
182.7308299999999974
21
-106.3832459999999998
0
LINE
8
BLACK
6
CONTINUOUS
10
183.3974969999999871
20
-105.9070549999999997
11
184.1594010000000026
21
-105.9070549999999997
0
LINE
8
BLACK
6
CONTINUOUS
10
183.683211
20
-105.2403889999999933
11
183.683211
21
-106.9546739999999971
0
LINE
8
BLACK
6
CONTINUOUS
10
183.683211
20
-106.9546739999999971
11
183.7784489999999948
21
-107.1451509999999985
0
LINE
8
BLACK
6
CONTINUOUS
10
183.7784489999999948
20
-107.1451509999999985
11
183.9689249999999845
21
-107.2403889999999933
0
LINE
8
BLACK
6
CONTINUOUS
10
183.9689249999999845
20
-107.2403889999999933
11
184.1594010000000026
21
-107.2403889999999933
0
LINE
8
BLACK
6
CONTINUOUS
10
185.5879730000000052
20
-107.1451509999999985
11
185.3974969999999871
21
-107.2403889999999933
0
LINE
8
BLACK
6
CONTINUOUS
10
185.3974969999999871
20
-107.2403889999999933
11
185.0165439999999819
21
-107.2403889999999933
0
LINE
8
BLACK
6
CONTINUOUS
10
185.0165439999999819
20
-107.2403889999999933
11
184.8260679999999923
21
-107.1451509999999985
0
LINE
8
BLACK
6
CONTINUOUS
10
184.8260679999999923
20
-107.1451509999999985
11
184.7308299999999974
21
-106.9546739999999971
0
LINE
8
BLACK
6
CONTINUOUS
10
184.7308299999999974
20
-106.9546739999999971
11
184.7308299999999974
21
-106.1927699999999959
0
LINE
8
BLACK
6
CONTINUOUS
10
184.7308299999999974
20
-106.1927699999999959
11
184.8260679999999923
21
-106.0022929999999945
0
LINE
8
BLACK
6
CONTINUOUS
10
184.8260679999999923
20
-106.0022929999999945
11
185.0165439999999819
21
-105.9070549999999997
0
LINE
8
BLACK
6
CONTINUOUS
10
185.0165439999999819
20
-105.9070549999999997
11
185.3974969999999871
21
-105.9070549999999997
0
LINE
8
BLACK
6
CONTINUOUS
10
185.3974969999999871
20
-105.9070549999999997
11
185.5879730000000052
21
-106.0022929999999945
0
LINE
8
BLACK
6
CONTINUOUS
10
185.5879730000000052
20
-106.0022929999999945
11
185.683211
21
-106.1927699999999959
0
LINE
8
BLACK
6
CONTINUOUS
10
185.683211
20
-106.1927699999999959
11
185.683211
21
-106.3832459999999998
0
LINE
8
BLACK
6
CONTINUOUS
10
185.683211
20
-106.3832459999999998
11
184.7308299999999974
21
-106.5737219999999894
0
LINE
8
BLACK
6
CONTINUOUS
10
187.3974969999999871
20
-107.2403889999999933
11
187.3974969999999871
21
-105.2403889999999933
0
LINE
8
BLACK
6
CONTINUOUS
10
187.3974969999999871
20
-107.1451509999999985
11
187.2070209999999975
21
-107.2403889999999933
0
LINE
8
BLACK
6
CONTINUOUS
10
187.2070209999999975
20
-107.2403889999999933
11
186.8260679999999923
21
-107.2403889999999933
0
LINE
8
BLACK
6
CONTINUOUS
10
186.8260679999999923
20
-107.2403889999999933
11
186.6355920000000026
21
-107.1451509999999985
0
LINE
8
BLACK
6
CONTINUOUS
10
186.6355920000000026
20
-107.1451509999999985
11
186.5403539999999794
21
-107.049911999999992
0
LINE
8
BLACK
6
CONTINUOUS
10
186.5403539999999794
20
-107.049911999999992
11
186.4451159999999845
21
-106.8594359999999881
0
LINE
8
BLACK
6
CONTINUOUS
10
186.4451159999999845
20
-106.8594359999999881
11
186.4451159999999845
21
-106.2880079999999907
0
LINE
8
BLACK
6
CONTINUOUS
10
186.4451159999999845
20
-106.2880079999999907
11
186.5403539999999794
21
-106.0975309999999894
0
LINE
8
BLACK
6
CONTINUOUS
10
186.5403539999999794
20
-106.0975309999999894
11
186.6355920000000026
21
-106.0022929999999945
0
LINE
8
BLACK
6
CONTINUOUS
10
186.6355920000000026
20
-106.0022929999999945
11
186.8260679999999923
21
-105.9070549999999997
0
LINE
8
BLACK
6
CONTINUOUS
10
186.8260679999999923
20
-105.9070549999999997
11
187.2070209999999975
21
-105.9070549999999997
0
LINE
8
BLACK
6
CONTINUOUS
10
187.2070209999999975
20
-105.9070549999999997
11
187.3974969999999871
21
-106.0022929999999945
0
LINE
8
BLACK
6
CONTINUOUS
10
188.159402
20
-108.0022929999999945
11
188.2546399999999949
21
-107.9070549999999997
0
LINE
8
BLACK
6
CONTINUOUS
10
188.2546399999999949
20
-107.9070549999999997
11
188.4451159999999845
21
-107.621341000000001
0
LINE
8
BLACK
6
CONTINUOUS
10
188.4451159999999845
20
-107.621341000000001
11
188.5403539999999794
21
-107.4308649999999972
0
LINE
8
BLACK
6
CONTINUOUS
10
188.5403539999999794
20
-107.4308649999999972
11
188.6355920000000026
21
-107.1451509999999985
0
LINE
8
BLACK
6
CONTINUOUS
10
188.6355920000000026
20
-107.1451509999999985
11
188.7308299999999974
21
-106.6689599999999984
0
LINE
8
BLACK
6
CONTINUOUS
10
188.7308299999999974
20
-106.6689599999999984
11
188.7308299999999974
21
-106.2880079999999907
0
LINE
8
BLACK
6
CONTINUOUS
10
188.7308299999999974
20
-106.2880079999999907
11
188.6355920000000026
21
-105.8118169999999907
0
LINE
8
BLACK
6
CONTINUOUS
10
188.6355920000000026
20
-105.8118169999999907
11
188.5403539999999794
21
-105.526102999999992
0
LINE
8
BLACK
6
CONTINUOUS
10
188.5403539999999794
20
-105.526102999999992
11
188.4451159999999845
21
-105.3356269999999881
0
LINE
8
BLACK
6
CONTINUOUS
10
188.4451159999999845
20
-105.3356269999999881
11
188.2546399999999949
21
-105.049911999999992
0
LINE
8
BLACK
6
CONTINUOUS
10
188.2546399999999949
20
-105.049911999999992
11
188.159402
21
-104.9546739999999971
  0
ENDSEC
  0
EOF
