  0
SECTION
  2
HEADER
  9
$ANGBASE
  50
0.0
  9
$ANGDIR
  70
1
  9
$MEASUREMENT
  70
1
  0
ENDSEC
  0
SECTION
  2
TABLES
  0
TABLE
  2
LTYPE
  70
4
  0
LTYPE
  5
40F
  2
CONTINUOUS
  70
0
  3
Solid line
  72
65
  73
0
  40
0.0
  0
LTYPE
  5
410
  2
DASHDOT
 70
0
  3
Dash Dot ____ _ ____ _
 72
65
 73
4
 40
2.0
 49
1.25
 49
-0.25
 49
0.25
 49
-0.25
  0
LTYPE
  5
411
  2
DASHED
 70
0
  3
Dashed __ __ __ __ __
 72
65
 73
2
 40
0.75
 49
0.5
 49
-0.25
  0
LTYPE
  5
43B
  2
DOTTED
 70
0
  3
Dotted .  .  .  .
 72
65
 73
2
 40
0.2
 49
0.0
 49
-0.2
  0
ENDTAB
  0
TABLE
  2
STYLE
  70
4
  0
STYLE
  2
KICAD
  70
0
  40
0
  41
1
  42
1
  50
0
  71
0
  3
isocp.shx
  0
STYLE
  2
KICADB
  70
0
  40
0
  41
1
  42
1
  50
0
  71
0
  3
isocp.shx
  0
STYLE
  2
KICADI
  70
0
  40
0
  41
1
  42
1
  50
15
  71
0
  3
isocp.shx
  0
STYLE
  2
KICADBI
  70
0
  40
0
  41
1
  42
1
  50
15
  71
0
  3
isocp.shx
  0
ENDTAB
  0
TABLE
  2
LAYER
  70
1
  0
LAYER
  2
BLACK
  70
0
  62
7
  6
CONTINUOUS
  0
ENDTAB
  0
ENDSEC
  0
SECTION
  2
ENTITIES
0
LINE
8
BLACK
6
CONTINUOUS
10
151.7264409999999941
20
-92.1956380000000024
11
151.7264409999999941
21
-90.1956380000000024
0
LINE
8
BLACK
6
CONTINUOUS
10
151.7264409999999941
20
-90.1956380000000024
11
150.9645359999999812
21
-90.1956380000000024
0
LINE
8
BLACK
6
CONTINUOUS
10
150.9645359999999812
20
-90.1956380000000024
11
150.7740599999999915
21
-90.2908759999999972
0
LINE
8
BLACK
6
CONTINUOUS
10
150.7740599999999915
20
-90.2908759999999972
11
150.6788219999999967
21
-90.3861139999999921
0
LINE
8
BLACK
6
CONTINUOUS
10
150.6788219999999967
20
-90.3861139999999921
11
150.5835840000000019
21
-90.5765899999999959
0
LINE
8
BLACK
6
CONTINUOUS
10
150.5835840000000019
20
-90.5765899999999959
11
150.5835840000000019
21
-90.8623039999999946
0
LINE
8
BLACK
6
CONTINUOUS
10
150.5835840000000019
20
-90.8623039999999946
11
150.6788219999999967
21
-91.0527799999999985
0
LINE
8
BLACK
6
CONTINUOUS
10
150.6788219999999967
20
-91.0527799999999985
11
150.7740599999999915
21
-91.1480189999999908
0
LINE
8
BLACK
6
CONTINUOUS
10
150.7740599999999915
20
-91.1480189999999908
11
150.9645359999999812
21
-91.2432569999999998
0
LINE
8
BLACK
6
CONTINUOUS
10
150.9645359999999812
20
-91.2432569999999998
11
151.7264409999999941
21
-91.2432569999999998
0
LINE
8
BLACK
6
CONTINUOUS
10
150.012155000000007
20
-90.1956380000000024
11
148.8692979999999864
21
-90.1956380000000024
0
LINE
8
BLACK
6
CONTINUOUS
10
149.4407269999999812
20
-92.1956380000000024
11
149.4407269999999812
21
-90.1956380000000024
0
LINE
8
BLACK
6
CONTINUOUS
10
147.0597740000000044
20
-92.0051610000000011
11
147.1550119999999993
21
-92.1003999999999934
0
LINE
8
BLACK
6
CONTINUOUS
10
147.1550119999999993
20
-92.1003999999999934
11
147.4407259999999837
21
-92.1956380000000024
0
LINE
8
BLACK
6
CONTINUOUS
10
147.4407259999999837
20
-92.1956380000000024
11
147.6312020000000018
21
-92.1956380000000024
0
LINE
8
BLACK
6
CONTINUOUS
10
147.6312020000000018
20
-92.1956380000000024
11
147.9169169999999838
21
-92.1003999999999934
0
LINE
8
BLACK
6
CONTINUOUS
10
147.9169169999999838
20
-92.1003999999999934
11
148.1073930000000018
21
-91.909922999999992
0
LINE
8
BLACK
6
CONTINUOUS
10
148.1073930000000018
20
-91.909922999999992
11
148.2026309999999967
21
-91.7194470000000024
0
LINE
8
BLACK
6
CONTINUOUS
10
148.2026309999999967
20
-91.7194470000000024
11
148.2978689999999915
21
-91.3384949999999947
0
LINE
8
BLACK
6
CONTINUOUS
10
148.2978689999999915
20
-91.3384949999999947
11
148.2978689999999915
21
-91.0527799999999985
0
LINE
8
BLACK
6
CONTINUOUS
10
148.2978689999999915
20
-91.0527799999999985
11
148.2026309999999967
21
-90.6718279999999908
0
LINE
8
BLACK
6
CONTINUOUS
10
148.2026309999999967
20
-90.6718279999999908
11
148.1073930000000018
21
-90.4813520000000011
0
LINE
8
BLACK
6
CONTINUOUS
10
148.1073930000000018
20
-90.4813520000000011
11
147.9169169999999838
21
-90.2908759999999972
0
LINE
8
BLACK
6
CONTINUOUS
10
147.9169169999999838
20
-90.2908759999999972
11
147.6312020000000018
21
-90.1956380000000024
0
LINE
8
BLACK
6
CONTINUOUS
10
147.6312020000000018
20
-90.1956380000000024
11
147.4407259999999837
21
-90.1956380000000024
0
LINE
8
BLACK
6
CONTINUOUS
10
147.4407259999999837
20
-90.1956380000000024
11
147.1550119999999993
21
-90.2908759999999972
0
LINE
8
BLACK
6
CONTINUOUS
10
147.1550119999999993
20
-90.2908759999999972
11
147.0597740000000044
21
-90.3861139999999921
0
LINE
8
BLACK
6
CONTINUOUS
10
165.0296789999999874
20
-74.0982089999999971
11
164.0772979999999848
21
-74.0982089999999971
0
LINE
8
BLACK
6
CONTINUOUS
10
165.2201550000000054
20
-74.669637999999992
11
164.5534889999999848
21
-72.669637999999992
0
LINE
8
BLACK
6
CONTINUOUS
10
164.5534889999999848
20
-72.669637999999992
11
163.8868219999999951
21
-74.669637999999992
0
LINE
8
BLACK
6
CONTINUOUS
10
149.0277739999999937
20
-60.4140189999999961
11
148.7420599999999808
21
-60.5092569999999981
0
LINE
8
BLACK
6
CONTINUOUS
10
148.7420599999999808
20
-60.5092569999999981
11
148.646821999999986
21
-60.604495
0
LINE
8
BLACK
6
CONTINUOUS
10
148.646821999999986
20
-60.604495
11
148.5515839999999912
21
-60.7949709999999968
0
LINE
8
BLACK
6
CONTINUOUS
10
148.5515839999999912
20
-60.7949709999999968
11
148.5515839999999912
21
-61.0806849999999955
0
LINE
8
BLACK
6
CONTINUOUS
10
148.5515839999999912
20
-61.0806849999999955
11
148.646821999999986
21
-61.2711609999999993
0
LINE
8
BLACK
6
CONTINUOUS
10
148.646821999999986
20
-61.2711609999999993
11
148.7420599999999808
21
-61.3663999999999987
0
LINE
8
BLACK
6
CONTINUOUS
10
148.7420599999999808
20
-61.3663999999999987
11
148.9325359999999989
21
-61.4616380000000007
0
LINE
8
BLACK
6
CONTINUOUS
10
148.9325359999999989
20
-61.4616380000000007
11
149.6944409999999834
21
-61.4616380000000007
0
LINE
8
BLACK
6
CONTINUOUS
10
149.6944409999999834
20
-61.4616380000000007
11
149.6944409999999834
21
-59.4616380000000007
0
LINE
8
BLACK
6
CONTINUOUS
10
149.6944409999999834
20
-59.4616380000000007
11
149.0277739999999937
21
-59.4616380000000007
0
LINE
8
BLACK
6
CONTINUOUS
10
149.0277739999999937
20
-59.4616380000000007
11
148.8372980000000041
21
-59.5568759999999955
0
LINE
8
BLACK
6
CONTINUOUS
10
148.8372980000000041
20
-59.5568759999999955
11
148.7420599999999808
21
-59.6521139999999974
0
LINE
8
BLACK
6
CONTINUOUS
10
148.7420599999999808
20
-59.6521139999999974
11
148.646821999999986
21
-59.8425899999999942
0
LINE
8
BLACK
6
CONTINUOUS
10
148.646821999999986
20
-59.8425899999999942
11
148.646821999999986
21
-60.033065999999998
0
LINE
8
BLACK
6
CONTINUOUS
10
148.646821999999986
20
-60.033065999999998
11
148.7420599999999808
21
-60.2235419999999948
0
LINE
8
BLACK
6
CONTINUOUS
10
148.7420599999999808
20
-60.2235419999999948
11
148.8372980000000041
21
-60.3187799999999967
0
LINE
8
BLACK
6
CONTINUOUS
10
148.8372980000000041
20
-60.3187799999999967
11
149.0277739999999937
21
-60.4140189999999961
0
LINE
8
BLACK
6
CONTINUOUS
10
149.0277739999999937
20
-60.4140189999999961
11
149.6944409999999834
21
-60.4140189999999961
0
LINE
8
BLACK
6
CONTINUOUS
10
134.5815839999999923
20
-74.4791609999999906
11
134.6768219999999872
21
-74.5743999999999971
0
LINE
8
BLACK
6
CONTINUOUS
10
134.6768219999999872
20
-74.5743999999999971
11
134.9625360000000001
21
-74.669637999999992
0
LINE
8
BLACK
6
CONTINUOUS
10
134.9625360000000001
20
-74.669637999999992
11
135.1530119999999897
21
-74.669637999999992
0
LINE
8
BLACK
6
CONTINUOUS
10
135.1530119999999897
20
-74.669637999999992
11
135.4387270000000001
21
-74.5743999999999971
0
LINE
8
BLACK
6
CONTINUOUS
10
135.4387270000000001
20
-74.5743999999999971
11
135.6292029999999897
21
-74.3839229999999958
0
LINE
8
BLACK
6
CONTINUOUS
10
135.6292029999999897
20
-74.3839229999999958
11
135.7244409999999846
21
-74.1934469999999919
0
LINE
8
BLACK
6
CONTINUOUS
10
135.7244409999999846
20
-74.1934469999999919
11
135.8196790000000078
21
-73.8124949999999984
0
LINE
8
BLACK
6
CONTINUOUS
10
135.8196790000000078
20
-73.8124949999999984
11
135.8196790000000078
21
-73.5267800000000022
0
LINE
8
BLACK
6
CONTINUOUS
10
135.8196790000000078
20
-73.5267800000000022
11
135.7244409999999846
21
-73.1458279999999945
0
LINE
8
BLACK
6
CONTINUOUS
10
135.7244409999999846
20
-73.1458279999999945
11
135.6292029999999897
21
-72.9553519999999907
0
LINE
8
BLACK
6
CONTINUOUS
10
135.6292029999999897
20
-72.9553519999999907
11
135.4387270000000001
21
-72.764876000000001
0
LINE
8
BLACK
6
CONTINUOUS
10
135.4387270000000001
20
-72.764876000000001
11
135.1530119999999897
21
-72.669637999999992
0
LINE
8
BLACK
6
CONTINUOUS
10
135.1530119999999897
20
-72.669637999999992
11
134.9625360000000001
21
-72.669637999999992
0
LINE
8
BLACK
6
CONTINUOUS
10
134.9625360000000001
20
-72.669637999999992
11
134.6768219999999872
21
-72.764876000000001
0
LINE
8
BLACK
6
CONTINUOUS
10
134.6768219999999872
20
-72.764876000000001
11
134.5815839999999923
21
-72.8601139999999958
0
LINE
8
BLACK
6
CONTINUOUS
10
131.5622400000000027
20
-48.9282499999999985
11
131.5622400000000027
21
-54.818249999999999
0
LINE
8
BLACK
6
CONTINUOUS
10
134.1522400000000061
20
-48.9282499999999985
11
134.1522400000000061
21
-54.818249999999999
0
LINE
8
BLACK
6
CONTINUOUS
10
168.6472399999999823
20
-72.1682500000000005
11
174.5372399999999971
21
-72.1682500000000005
0
LINE
8
BLACK
6
CONTINUOUS
10
168.6472399999999823
20
-74.7582499999999897
11
174.5372399999999971
21
-74.7582499999999897
0
LINE
8
BLACK
6
CONTINUOUS
10
160.1372399999999914
20
-48.9282499999999985
11
160.1372399999999914
21
-54.818249999999999
0
LINE
8
BLACK
6
CONTINUOUS
10
162.7272399999999948
20
-48.9282499999999985
11
162.7272399999999948
21
-54.818249999999999
0
LINE
8
BLACK
6
CONTINUOUS
10
159.4672400000000039
20
-89.2782499999999999
11
159.4672400000000039
21
-91.9382499999999965
0
LINE
8
BLACK
6
CONTINUOUS
10
159.4672400000000039
20
-89.2782499999999999
11
164.6072399999999902
21
-89.2782499999999999
0
LINE
8
BLACK
6
CONTINUOUS
10
159.4672400000000039
20
-91.9382499999999965
11
164.6072399999999902
21
-91.9382499999999965
0
LINE
8
BLACK
6
CONTINUOUS
10
164.6072399999999902
20
-89.2782499999999999
11
164.6072399999999902
21
-91.9382499999999965
0
LINE
8
BLACK
6
CONTINUOUS
10
165.8772400000000005
20
-89.2782499999999999
11
167.2072399999999845
21
-89.2782499999999999
0
LINE
8
BLACK
6
CONTINUOUS
10
167.2072399999999845
20
-89.2782499999999999
11
167.2072399999999845
21
-90.6082499999999982
0
LINE
8
BLACK
6
CONTINUOUS
10
130.08723999999998
20
-76.6132499999999936
11
124.1972399999999936
21
-76.6132499999999936
0
LINE
8
BLACK
6
CONTINUOUS
10
130.08723999999998
20
-79.203249999999997
11
124.1972399999999936
21
-79.203249999999997
0
LINE
8
BLACK
6
CONTINUOUS
10
168.6472399999999823
20
-81.058250000000001
11
174.5372399999999971
21
-81.058250000000001
0
LINE
8
BLACK
6
CONTINUOUS
10
168.6472399999999823
20
-83.6482499999999902
11
174.5372399999999971
21
-83.6482499999999902
0
LINE
8
BLACK
6
CONTINUOUS
10
136.0072399999999959
20
-48.9282499999999985
11
136.0072399999999959
21
-54.818249999999999
0
LINE
8
BLACK
6
CONTINUOUS
10
138.5972399999999993
20
-48.9282499999999985
11
138.5972399999999993
21
-54.818249999999999
0
LINE
8
BLACK
6
CONTINUOUS
10
168.6472399999999823
20
-76.6132499999999936
11
174.5372399999999971
21
-76.6132499999999936
0
LINE
8
BLACK
6
CONTINUOUS
10
168.6472399999999823
20
-79.203249999999997
11
174.5372399999999971
21
-79.203249999999997
0
LINE
8
BLACK
6
CONTINUOUS
10
130.08723999999998
20
-81.058250000000001
11
124.1972399999999936
21
-81.058250000000001
0
LINE
8
BLACK
6
CONTINUOUS
10
130.08723999999998
20
-83.6482499999999902
11
124.1972399999999936
21
-83.6482499999999902
0
LINE
8
BLACK
6
CONTINUOUS
10
164.5822399999999845
20
-48.9282499999999985
11
164.5822399999999845
21
-54.818249999999999
0
LINE
8
BLACK
6
CONTINUOUS
10
167.172239999999988
20
-48.9282499999999985
11
167.172239999999988
21
-54.818249999999999
0
LINE
8
BLACK
6
CONTINUOUS
10
130.08723999999998
20
-72.1682500000000005
11
124.1972399999999936
21
-72.1682500000000005
0
LINE
8
BLACK
6
CONTINUOUS
10
130.08723999999998
20
-74.7582499999999897
11
124.1972399999999936
21
-74.7582499999999897
0
ARC
8
BLACK
10
149.4505000000000052
20
-71.0742999999999938
40
28.9310431447823326
50
22.72789038
51
74.91436478
0
CIRCLE
8
BLACK
10
155.9559999999999889
20
-93.7259999999999991
40
1.436841
0
LINE
8
BLACK
6
CONTINUOUS
10
145.2908909999999878
20
-81.1345919999999978
11
145.2879999999999825
21
-88.6460000000000008
0
ARC
8
BLACK
10
149.4505020000000002
20
-71.0742959999999897
40
28.8012552578572496
50
-180.41437728
51
0.41355963
0
LINE
8
BLACK
6
CONTINUOUS
10
171.6470039999999813
20
-69.3419999999999987
11
178.2510069999999871
21
-70.8664109999999994
0
ARC
8
BLACK
10
146.052899999999994
20
-81.1345999999999918
40
0.7620090000419942
50
90.00067671
51
179.99939848
0
LINE
8
BLACK
6
CONTINUOUS
10
129.0495630000000062
20
-62.1586649999999992
11
122.7639739999999904
21
-59.8717869999999976
0
ARC
8
BLACK
10
149.4505000000000052
20
-71.0742999999999938
40
22.2639997337989755
50
4.46253627
51
23.60632807
0
LINE
8
BLACK
6
CONTINUOUS
10
143.2560000000000002
20
-88.6460000000000008
11
143.2261790000000019
21
-77.500789999999995
0
ARC
8
BLACK
10
154.9399999999999977
20
-87.8840000000000003
40
1.27
50
-143.13010235
51
-36.86989765
0
LINE
8
BLACK
6
CONTINUOUS
10
145.0339999999999918
20
-50.5459999999999994
11
141.7319999999999993
21
-43.1799999999999997
0
LINE
8
BLACK
6
CONTINUOUS
10
153.1336909999999989
20
-80.3725919999999974
11
146.0528909999999883
21
-80.3725919999999974
0
ARC
8
BLACK
10
149.4505000000000052
20
-71.0742999999999938
40
8.9466164347836532
50
-403.35232634
51
-134.08445043
0
LINE
8
BLACK
6
CONTINUOUS
10
153.6781639999999811
20
-50.5062799999999967
11
156.980164000000002
21
-43.1402799999999971
0
CIRCLE
8
BLACK
10
143.2560000000000002
20
-93.7259999999999991
40
1.436841
0
ARC
8
BLACK
10
149.4505000000000052
20
-71.0742999999999938
40
28.942476871612854
50
105.46704782
51
157.22823136
0
ARC
8
BLACK
10
153.1620000000000061
20
-81.1340999999999894
40
0.762034010753457
50
0.00255650
51
92.12898572
0
LINE
8
BLACK
6
CONTINUOUS
10
153.9240000000000066
20
-81.13406599999999
11
153.9240000000000066
21
-88.6460000000000008
0
LINE
8
BLACK
6
CONTINUOUS
10
155.9559999999999889
20
-88.6460000000000008
11
155.9559999999999889
21
-77.215999999999994
0
ARC
8
BLACK
10
149.4505000000000052
20
-71.0742999999999938
40
20.9980135522386995
50
78.38488254
51
102.14165776
0
LINE
8
BLACK
6
CONTINUOUS
10
169.8514150000000029
20
-62.1586759999999998
11
176.1350510000000043
21
-59.8966449999999995
0
LINE
8
BLACK
6
CONTINUOUS
10
120.6499999999999915
20
-70.8659999999999997
11
127.2540029999999973
21
-69.341588999999999
0
ARC
8
BLACK
10
144.2719999999999914
20
-87.8840000000000003
40
1.27
50
-143.13010235
51
-36.86989765
0
ARC
8
BLACK
10
149.4505000000000052
20
-71.0742999999999938
40
22.2640230436355999
50
156.39366867
51
175.53640784
  0
ENDSEC
  0
EOF
