M48
; DRILL file {KiCad 8.0.4} date 2024-12-01T18:16:35+0300
; FORMAT={-:-/ absolute / metric / decimal}
; #@! TF.CreationDate,2024-12-01T18:16:35+03:00
; #@! TF.GenerationSoftware,Kicad,Pcbnew,8.0.4
; #@! TF.FileFunction,Plated,1,4,PTH
FMAT,2
METRIC
; #@! TA.AperFunction,Plated,PTH,ViaDrill
T1C0.400
; #@! TA.AperFunction,Plated,PTH,ComponentDrill
T2C1.000
; #@! TA.AperFunction,Plated,PTH,ComponentDrill
T3C1.370
; #@! TA.AperFunction,Plated,PTH,ComponentDrill
T4C4.220
%
G90
G05
T1
X149.606Y-83.058
T2
X160.797Y-90.608
X163.337Y-90.608
X165.877Y-90.608
T3
X124.602Y-73.463
X124.602Y-77.908
X124.602Y-82.353
X129.682Y-73.463
X129.682Y-77.908
X129.682Y-82.353
X132.857Y-49.333
X132.857Y-54.413
X137.302Y-49.333
X137.302Y-54.413
X161.432Y-49.333
X161.432Y-54.413
X165.877Y-49.333
X165.877Y-54.413
X169.052Y-73.463
X169.052Y-77.908
X169.052Y-82.353
X174.132Y-73.463
X174.132Y-77.908
X174.132Y-82.353
T4
X134.874Y-67.31
X149.352Y-55.372
X164.084Y-67.31
M30
