  0
SECTION
  2
HEADER
  9
$ANGBASE
  50
0.0
  9
$ANGDIR
  70
1
  9
$MEASUREMENT
  70
1
  0
ENDSEC
  0
SECTION
  2
TABLES
  0
TABLE
  2
LTYPE
  70
4
  0
LTYPE
  5
40F
  2
CONTINUOUS
  70
0
  3
Solid line
  72
65
  73
0
  40
0.0
  0
LTYPE
  5
410
  2
DASHDOT
 70
0
  3
Dash Dot ____ _ ____ _
 72
65
 73
4
 40
2.0
 49
1.25
 49
-0.25
 49
0.25
 49
-0.25
  0
LTYPE
  5
411
  2
DASHED
 70
0
  3
Dashed __ __ __ __ __
 72
65
 73
2
 40
0.75
 49
0.5
 49
-0.25
  0
LTYPE
  5
43B
  2
DOTTED
 70
0
  3
Dotted .  .  .  .
 72
65
 73
2
 40
0.2
 49
0.0
 49
-0.2
  0
ENDTAB
  0
TABLE
  2
STYLE
  70
4
  0
STYLE
  2
KICAD
  70
0
  40
0
  41
1
  42
1
  50
0
  71
0
  3
isocp.shx
  0
STYLE
  2
KICADB
  70
0
  40
0
  41
1
  42
1
  50
0
  71
0
  3
isocp.shx
  0
STYLE
  2
KICADI
  70
0
  40
0
  41
1
  42
1
  50
15
  71
0
  3
isocp.shx
  0
STYLE
  2
KICADBI
  70
0
  40
0
  41
1
  42
1
  50
15
  71
0
  3
isocp.shx
  0
ENDTAB
  0
TABLE
  2
LAYER
  70
1
  0
LAYER
  2
BLACK
  70
0
  62
7
  6
CONTINUOUS
  0
ENDTAB
  0
ENDSEC
  0
SECTION
  2
ENTITIES
0
LINE
8
BLACK
6
CONTINUOUS
10
149.8562949999999887
20
-94.6856989999999996
11
150.1004269999999963
21
-94.7443099999999987
0
LINE
8
BLACK
6
CONTINUOUS
10
150.1004269999999963
20
-94.7443099999999987
11
150.3323849999999879
21
-94.8403899999999993
0
LINE
8
BLACK
6
CONTINUOUS
10
150.3323849999999879
20
-94.8403899999999993
11
150.5464560000000063
21
-94.9715729999999922
0
LINE
8
BLACK
6
CONTINUOUS
10
150.5464560000000063
20
-94.9715729999999922
11
150.737370999999996
21
-95.1346289999999897
0
LINE
8
BLACK
6
CONTINUOUS
10
150.737370999999996
20
-95.1346289999999897
11
150.9004269999999792
21
-95.3255439999999936
0
LINE
8
BLACK
6
CONTINUOUS
10
150.9004269999999792
20
-95.3255439999999936
11
151.0316100000000006
21
-95.5396149999999977
0
LINE
8
BLACK
6
CONTINUOUS
10
151.0316100000000006
20
-95.5396149999999977
11
151.1276900000000012
21
-95.7715729999999894
0
LINE
8
BLACK
6
CONTINUOUS
10
151.1276900000000012
20
-95.7715729999999894
11
151.1863009999999861
21
-96.015704999999997
0
LINE
8
BLACK
6
CONTINUOUS
10
151.1863009999999861
20
-96.015704999999997
11
151.2059999999999889
21
-96.2659999999999911
0
LINE
8
BLACK
6
CONTINUOUS
10
151.2059999999999889
20
-96.2659999999999911
11
151.1863009999999861
21
-96.5162949999999995
0
LINE
8
BLACK
6
CONTINUOUS
10
151.1863009999999861
20
-96.5162949999999995
11
151.1276900000000012
21
-96.7604269999999929
0
LINE
8
BLACK
6
CONTINUOUS
10
151.1276900000000012
20
-96.7604269999999929
11
151.0316100000000006
21
-96.9923849999999987
0
LINE
8
BLACK
6
CONTINUOUS
10
151.0316100000000006
20
-96.9923849999999987
11
150.9004269999999792
21
-97.2064559999999886
0
LINE
8
BLACK
6
CONTINUOUS
10
150.9004269999999792
20
-97.2064559999999886
11
150.737370999999996
21
-97.3973709999999926
0
LINE
8
BLACK
6
CONTINUOUS
10
150.737370999999996
20
-97.3973709999999926
11
150.5464560000000063
21
-97.56042699999999
0
LINE
8
BLACK
6
CONTINUOUS
10
150.5464560000000063
20
-97.56042699999999
11
150.3323849999999879
21
-97.6916099999999972
0
LINE
8
BLACK
6
CONTINUOUS
10
150.3323849999999879
20
-97.6916099999999972
11
150.1004269999999963
21
-97.7876899999999978
0
LINE
8
BLACK
6
CONTINUOUS
10
150.1004269999999963
20
-97.7876899999999978
11
149.8562949999999887
21
-97.8463009999999969
0
LINE
8
BLACK
6
CONTINUOUS
10
149.8562949999999887
20
-97.8463009999999969
11
149.6059999999999945
21
-97.8659999999999997
0
LINE
8
BLACK
6
CONTINUOUS
10
149.6059999999999945
20
-97.8659999999999997
11
149.3557050000000004
21
-97.8463009999999969
0
LINE
8
BLACK
6
CONTINUOUS
10
149.3557050000000004
20
-97.8463009999999969
11
149.1115729999999928
21
-97.7876899999999978
0
LINE
8
BLACK
6
CONTINUOUS
10
149.1115729999999928
20
-97.7876899999999978
11
148.8796150000000011
21
-97.6916099999999972
0
LINE
8
BLACK
6
CONTINUOUS
10
148.8796150000000011
20
-97.6916099999999972
11
148.6655439999999828
21
-97.56042699999999
0
LINE
8
BLACK
6
CONTINUOUS
10
148.6655439999999828
20
-97.56042699999999
11
148.4746289999999931
21
-97.3973709999999926
0
LINE
8
BLACK
6
CONTINUOUS
10
148.4746289999999931
20
-97.3973709999999926
11
148.3115729999999814
21
-97.2064559999999886
0
LINE
8
BLACK
6
CONTINUOUS
10
148.3115729999999814
20
-97.2064559999999886
11
148.1803899999999885
21
-96.9923849999999987
0
LINE
8
BLACK
6
CONTINUOUS
10
148.1803899999999885
20
-96.9923849999999987
11
148.0843099999999879
21
-96.7604269999999929
0
LINE
8
BLACK
6
CONTINUOUS
10
148.0843099999999879
20
-96.7604269999999929
11
148.025699000000003
21
-96.5162949999999995
0
LINE
8
BLACK
6
CONTINUOUS
10
148.025699000000003
20
-96.5162949999999995
11
148.0060000000000002
21
-96.2659999999999911
0
LINE
8
BLACK
6
CONTINUOUS
10
148.0060000000000002
20
-96.2659999999999911
11
148.025699000000003
21
-96.015704999999997
0
LINE
8
BLACK
6
CONTINUOUS
10
148.025699000000003
20
-96.015704999999997
11
148.0843099999999879
21
-95.7715729999999894
0
LINE
8
BLACK
6
CONTINUOUS
10
148.0843099999999879
20
-95.7715729999999894
11
148.1803899999999885
21
-95.5396149999999977
0
LINE
8
BLACK
6
CONTINUOUS
10
148.1803899999999885
20
-95.5396149999999977
11
148.3115729999999814
21
-95.3255439999999936
0
LINE
8
BLACK
6
CONTINUOUS
10
148.3115729999999814
20
-95.3255439999999936
11
148.4746289999999931
21
-95.1346289999999897
0
LINE
8
BLACK
6
CONTINUOUS
10
148.4746289999999931
20
-95.1346289999999897
11
148.6655439999999828
21
-94.9715729999999922
0
LINE
8
BLACK
6
CONTINUOUS
10
148.6655439999999828
20
-94.9715729999999922
11
148.8796150000000011
21
-94.8403899999999993
0
LINE
8
BLACK
6
CONTINUOUS
10
148.8796150000000011
20
-94.8403899999999993
11
149.1115729999999928
21
-94.7443099999999987
0
LINE
8
BLACK
6
CONTINUOUS
10
149.1115729999999928
20
-94.7443099999999987
11
149.3557050000000004
21
-94.6856989999999996
0
LINE
8
BLACK
6
CONTINUOUS
10
149.3557050000000004
20
-94.6856989999999996
11
149.6059999999999945
21
-94.6659999999999968
0
LINE
8
BLACK
6
CONTINUOUS
10
149.6059999999999945
20
-94.6659999999999968
11
149.8562949999999887
21
-94.6856989999999996
0
LINE
8
BLACK
6
CONTINUOUS
10
166.7272399999999948
20
-91.4582499999999925
11
165.0272400000000061
21
-91.4582499999999925
0
LINE
8
BLACK
6
CONTINUOUS
10
165.0272400000000061
20
-91.4582499999999925
11
165.0272400000000061
21
-89.7582499999999897
0
LINE
8
BLACK
6
CONTINUOUS
10
165.0272400000000061
20
-89.7582499999999897
11
166.7272399999999948
21
-89.7582499999999897
0
LINE
8
BLACK
6
CONTINUOUS
10
166.7272399999999948
20
-89.7582499999999897
11
166.7272399999999948
21
-91.4582499999999925
0
LINE
8
BLACK
6
CONTINUOUS
10
161.0599039999999889
20
-89.7998520000000013
11
161.2222399999999993
21
-89.8721279999999894
0
LINE
8
BLACK
6
CONTINUOUS
10
161.2222399999999993
20
-89.8721279999999894
11
161.3660009999999829
21
-89.9765769999999918
0
LINE
8
BLACK
6
CONTINUOUS
10
161.3660009999999829
20
-89.9765769999999918
11
161.4849040000000002
21
-90.1086329999999975
0
LINE
8
BLACK
6
CONTINUOUS
10
161.4849040000000002
20
-90.1086329999999975
11
161.5737539999999797
21
-90.2625239999999991
0
LINE
8
BLACK
6
CONTINUOUS
10
161.5737539999999797
20
-90.2625239999999991
11
161.6286649999999838
21
-90.4315249999999935
0
LINE
8
BLACK
6
CONTINUOUS
10
161.6286649999999838
20
-90.4315249999999935
11
161.6472399999999823
21
-90.6082499999999982
0
LINE
8
BLACK
6
CONTINUOUS
10
161.6472399999999823
20
-90.6082499999999982
11
161.6286649999999838
21
-90.7849750000000029
0
LINE
8
BLACK
6
CONTINUOUS
10
161.6286649999999838
20
-90.7849750000000029
11
161.5737539999999797
21
-90.9539759999999973
0
LINE
8
BLACK
6
CONTINUOUS
10
161.5737539999999797
20
-90.9539759999999973
11
161.4849040000000002
21
-91.1078669999999988
0
LINE
8
BLACK
6
CONTINUOUS
10
161.4849040000000002
20
-91.1078669999999988
11
161.3660009999999829
21
-91.2399229999999903
0
LINE
8
BLACK
6
CONTINUOUS
10
161.3660009999999829
20
-91.2399229999999903
11
161.2222399999999993
21
-91.3443719999999928
0
LINE
8
BLACK
6
CONTINUOUS
10
161.2222399999999993
20
-91.3443719999999928
11
161.0599039999999889
21
-91.416647999999995
0
LINE
8
BLACK
6
CONTINUOUS
10
161.0599039999999889
20
-91.416647999999995
11
160.8860889999999984
21
-91.4535939999999954
0
LINE
8
BLACK
6
CONTINUOUS
10
160.8860889999999984
20
-91.4535939999999954
11
160.708391000000006
21
-91.4535939999999954
0
LINE
8
BLACK
6
CONTINUOUS
10
160.708391000000006
20
-91.4535939999999954
11
160.5345759999999871
21
-91.416647999999995
0
LINE
8
BLACK
6
CONTINUOUS
10
160.5345759999999871
20
-91.416647999999995
11
160.372240000000005
21
-91.3443719999999928
0
LINE
8
BLACK
6
CONTINUOUS
10
160.372240000000005
20
-91.3443719999999928
11
160.228478999999993
21
-91.2399229999999903
0
LINE
8
BLACK
6
CONTINUOUS
10
160.228478999999993
20
-91.2399229999999903
11
160.1095760000000041
21
-91.1078669999999988
0
LINE
8
BLACK
6
CONTINUOUS
10
160.1095760000000041
20
-91.1078669999999988
11
160.0207259999999962
21
-90.9539759999999973
0
LINE
8
BLACK
6
CONTINUOUS
10
160.0207259999999962
20
-90.9539759999999973
11
159.9658149999999921
21
-90.7849750000000029
0
LINE
8
BLACK
6
CONTINUOUS
10
159.9658149999999921
20
-90.7849750000000029
11
159.9472399999999936
21
-90.6082499999999982
0
LINE
8
BLACK
6
CONTINUOUS
10
159.9472399999999936
20
-90.6082499999999982
11
159.9658149999999921
21
-90.4315249999999935
0
LINE
8
BLACK
6
CONTINUOUS
10
159.9658149999999921
20
-90.4315249999999935
11
160.0207259999999962
21
-90.2625239999999991
0
LINE
8
BLACK
6
CONTINUOUS
10
160.0207259999999962
20
-90.2625239999999991
11
160.1095760000000041
21
-90.1086329999999975
0
LINE
8
BLACK
6
CONTINUOUS
10
160.1095760000000041
20
-90.1086329999999975
11
160.228478999999993
21
-89.9765769999999918
0
LINE
8
BLACK
6
CONTINUOUS
10
160.228478999999993
20
-89.9765769999999918
11
160.372240000000005
21
-89.8721279999999894
0
LINE
8
BLACK
6
CONTINUOUS
10
160.372240000000005
20
-89.8721279999999894
11
160.5345759999999871
21
-89.7998520000000013
0
LINE
8
BLACK
6
CONTINUOUS
10
160.5345759999999871
20
-89.7998520000000013
11
160.708391000000006
21
-89.762906000000001
0
LINE
8
BLACK
6
CONTINUOUS
10
160.708391000000006
20
-89.762906000000001
11
160.8860889999999984
21
-89.762906000000001
0
LINE
8
BLACK
6
CONTINUOUS
10
160.8860889999999984
20
-89.762906000000001
11
161.0599039999999889
21
-89.7998520000000013
0
LINE
8
BLACK
6
CONTINUOUS
10
163.5999039999999809
20
-89.7998520000000013
11
163.7622399999999914
21
-89.8721279999999894
0
LINE
8
BLACK
6
CONTINUOUS
10
163.7622399999999914
20
-89.8721279999999894
11
163.9060010000000034
21
-89.9765769999999918
0
LINE
8
BLACK
6
CONTINUOUS
10
163.9060010000000034
20
-89.9765769999999918
11
164.0249039999999923
21
-90.1086329999999975
0
LINE
8
BLACK
6
CONTINUOUS
10
164.0249039999999923
20
-90.1086329999999975
11
164.1137540000000001
21
-90.2625239999999991
0
LINE
8
BLACK
6
CONTINUOUS
10
164.1137540000000001
20
-90.2625239999999991
11
164.1686650000000043
21
-90.4315249999999935
0
LINE
8
BLACK
6
CONTINUOUS
10
164.1686650000000043
20
-90.4315249999999935
11
164.1872400000000027
21
-90.6082499999999982
0
LINE
8
BLACK
6
CONTINUOUS
10
164.1872400000000027
20
-90.6082499999999982
11
164.1686650000000043
21
-90.7849750000000029
0
LINE
8
BLACK
6
CONTINUOUS
10
164.1686650000000043
20
-90.7849750000000029
11
164.1137540000000001
21
-90.9539759999999973
0
LINE
8
BLACK
6
CONTINUOUS
10
164.1137540000000001
20
-90.9539759999999973
11
164.0249039999999923
21
-91.1078669999999988
0
LINE
8
BLACK
6
CONTINUOUS
10
164.0249039999999923
20
-91.1078669999999988
11
163.9060010000000034
21
-91.2399229999999903
0
LINE
8
BLACK
6
CONTINUOUS
10
163.9060010000000034
20
-91.2399229999999903
11
163.7622399999999914
21
-91.3443719999999928
0
LINE
8
BLACK
6
CONTINUOUS
10
163.7622399999999914
20
-91.3443719999999928
11
163.5999039999999809
21
-91.416647999999995
0
LINE
8
BLACK
6
CONTINUOUS
10
163.5999039999999809
20
-91.416647999999995
11
163.4260889999999904
21
-91.4535939999999954
0
LINE
8
BLACK
6
CONTINUOUS
10
163.4260889999999904
20
-91.4535939999999954
11
163.248390999999998
21
-91.4535939999999954
0
LINE
8
BLACK
6
CONTINUOUS
10
163.248390999999998
20
-91.4535939999999954
11
163.0745759999999791
21
-91.416647999999995
0
LINE
8
BLACK
6
CONTINUOUS
10
163.0745759999999791
20
-91.416647999999995
11
162.9122399999999971
21
-91.3443719999999928
0
LINE
8
BLACK
6
CONTINUOUS
10
162.9122399999999971
20
-91.3443719999999928
11
162.768478999999985
21
-91.2399229999999903
0
LINE
8
BLACK
6
CONTINUOUS
10
162.768478999999985
20
-91.2399229999999903
11
162.6495759999999962
21
-91.1078669999999988
0
LINE
8
BLACK
6
CONTINUOUS
10
162.6495759999999962
20
-91.1078669999999988
11
162.5607259999999883
21
-90.9539759999999973
0
LINE
8
BLACK
6
CONTINUOUS
10
162.5607259999999883
20
-90.9539759999999973
11
162.5058149999999841
21
-90.7849750000000029
0
LINE
8
BLACK
6
CONTINUOUS
10
162.5058149999999841
20
-90.7849750000000029
11
162.4872399999999857
21
-90.6082499999999982
0
LINE
8
BLACK
6
CONTINUOUS
10
162.4872399999999857
20
-90.6082499999999982
11
162.5058149999999841
21
-90.4315249999999935
0
LINE
8
BLACK
6
CONTINUOUS
10
162.5058149999999841
20
-90.4315249999999935
11
162.5607259999999883
21
-90.2625239999999991
0
LINE
8
BLACK
6
CONTINUOUS
10
162.5607259999999883
20
-90.2625239999999991
11
162.6495759999999962
21
-90.1086329999999975
0
LINE
8
BLACK
6
CONTINUOUS
10
162.6495759999999962
20
-90.1086329999999975
11
162.768478999999985
21
-89.9765769999999918
0
LINE
8
BLACK
6
CONTINUOUS
10
162.768478999999985
20
-89.9765769999999918
11
162.9122399999999971
21
-89.8721279999999894
0
LINE
8
BLACK
6
CONTINUOUS
10
162.9122399999999971
20
-89.8721279999999894
11
163.0745759999999791
21
-89.7998520000000013
0
LINE
8
BLACK
6
CONTINUOUS
10
163.0745759999999791
20
-89.7998520000000013
11
163.248390999999998
21
-89.762906000000001
0
LINE
8
BLACK
6
CONTINUOUS
10
163.248390999999998
20
-89.762906000000001
11
163.4260889999999904
21
-89.762906000000001
0
LINE
8
BLACK
6
CONTINUOUS
10
163.4260889999999904
20
-89.762906000000001
11
163.5999039999999809
21
-89.7998520000000013
0
LINE
8
BLACK
6
CONTINUOUS
10
124.8026949999999999
20
-81.3454929999999905
11
124.9954469999999986
21
-81.403964000000002
0
LINE
8
BLACK
6
CONTINUOUS
10
124.9954469999999986
20
-81.403964000000002
11
125.1730879999999928
21
-81.4989149999999967
0
LINE
8
BLACK
6
CONTINUOUS
10
125.1730879999999928
20
-81.4989149999999967
11
125.3287919999999929
21
-81.6266979999999904
0
LINE
8
BLACK
6
CONTINUOUS
10
125.3287919999999929
20
-81.6266979999999904
11
125.4565750000000008
21
-81.7824019999999905
0
LINE
8
BLACK
6
CONTINUOUS
10
125.4565750000000008
20
-81.7824019999999905
11
125.5515259999999955
21
-81.9600429999999989
0
LINE
8
BLACK
6
CONTINUOUS
10
125.5515259999999955
20
-81.9600429999999989
11
125.6099969999999928
21
-82.1527949999999976
0
LINE
8
BLACK
6
CONTINUOUS
10
125.6099969999999928
20
-82.1527949999999976
11
125.6297399999999982
21
-82.3532500000000027
0
LINE
8
BLACK
6
CONTINUOUS
10
125.6297399999999982
20
-82.3532500000000027
11
125.6099969999999928
21
-82.5537049999999937
0
LINE
8
BLACK
6
CONTINUOUS
10
125.6099969999999928
20
-82.5537049999999937
11
125.5515259999999955
21
-82.7464569999999924
0
LINE
8
BLACK
6
CONTINUOUS
10
125.5515259999999955
20
-82.7464569999999924
11
125.4565750000000008
21
-82.9240980000000008
0
LINE
8
BLACK
6
CONTINUOUS
10
125.4565750000000008
20
-82.9240980000000008
11
125.3287919999999929
21
-83.0798020000000008
0
LINE
8
BLACK
6
CONTINUOUS
10
125.3287919999999929
20
-83.0798020000000008
11
125.1730879999999928
21
-83.2075849999999946
0
LINE
8
BLACK
6
CONTINUOUS
10
125.1730879999999928
20
-83.2075849999999946
11
124.9954469999999986
21
-83.3025359999999893
0
LINE
8
BLACK
6
CONTINUOUS
10
124.9954469999999986
20
-83.3025359999999893
11
124.8026949999999999
21
-83.3610070000000007
0
LINE
8
BLACK
6
CONTINUOUS
10
124.8026949999999999
20
-83.3610070000000007
11
124.6022399999999948
21
-83.3807499999999919
0
LINE
8
BLACK
6
CONTINUOUS
10
124.6022399999999948
20
-83.3807499999999919
11
124.4017849999999896
21
-83.3610070000000007
0
LINE
8
BLACK
6
CONTINUOUS
10
124.4017849999999896
20
-83.3610070000000007
11
124.2090329999999909
21
-83.3025359999999893
0
LINE
8
BLACK
6
CONTINUOUS
10
124.2090329999999909
20
-83.3025359999999893
11
124.0313919999999968
21
-83.2075849999999946
0
LINE
8
BLACK
6
CONTINUOUS
10
124.0313919999999968
20
-83.2075849999999946
11
123.8756879999999967
21
-83.0798020000000008
0
LINE
8
BLACK
6
CONTINUOUS
10
123.8756879999999967
20
-83.0798020000000008
11
123.7479049999999887
21
-82.9240980000000008
0
LINE
8
BLACK
6
CONTINUOUS
10
123.7479049999999887
20
-82.9240980000000008
11
123.652953999999994
21
-82.7464569999999924
0
LINE
8
BLACK
6
CONTINUOUS
10
123.652953999999994
20
-82.7464569999999924
11
123.5944829999999968
21
-82.5537049999999937
0
LINE
8
BLACK
6
CONTINUOUS
10
123.5944829999999968
20
-82.5537049999999937
11
123.5747399999999914
21
-82.3532500000000027
0
LINE
8
BLACK
6
CONTINUOUS
10
123.5747399999999914
20
-82.3532500000000027
11
123.5944829999999968
21
-82.1527949999999976
0
LINE
8
BLACK
6
CONTINUOUS
10
123.5944829999999968
20
-82.1527949999999976
11
123.652953999999994
21
-81.9600429999999989
0
LINE
8
BLACK
6
CONTINUOUS
10
123.652953999999994
20
-81.9600429999999989
11
123.7479049999999887
21
-81.7824019999999905
0
LINE
8
BLACK
6
CONTINUOUS
10
123.7479049999999887
20
-81.7824019999999905
11
123.8756879999999967
21
-81.6266979999999904
0
LINE
8
BLACK
6
CONTINUOUS
10
123.8756879999999967
20
-81.6266979999999904
11
124.0313919999999968
21
-81.4989149999999967
0
LINE
8
BLACK
6
CONTINUOUS
10
124.0313919999999968
20
-81.4989149999999967
11
124.2090329999999909
21
-81.403964000000002
0
LINE
8
BLACK
6
CONTINUOUS
10
124.2090329999999909
20
-81.403964000000002
11
124.4017849999999896
21
-81.3454929999999905
0
LINE
8
BLACK
6
CONTINUOUS
10
124.4017849999999896
20
-81.3454929999999905
11
124.6022399999999948
21
-81.3257499999999993
0
LINE
8
BLACK
6
CONTINUOUS
10
124.6022399999999948
20
-81.3257499999999993
11
124.8026949999999999
21
-81.3454929999999905
0
LINE
8
BLACK
6
CONTINUOUS
10
129.882694999999984
20
-81.3454929999999905
11
130.0754469999999969
21
-81.403964000000002
0
LINE
8
BLACK
6
CONTINUOUS
10
130.0754469999999969
20
-81.403964000000002
11
130.2530879999999911
21
-81.4989149999999967
0
LINE
8
BLACK
6
CONTINUOUS
10
130.2530879999999911
20
-81.4989149999999967
11
130.4087920000000054
21
-81.6266979999999904
0
LINE
8
BLACK
6
CONTINUOUS
10
130.4087920000000054
20
-81.6266979999999904
11
130.5365749999999991
21
-81.7824019999999905
0
LINE
8
BLACK
6
CONTINUOUS
10
130.5365749999999991
20
-81.7824019999999905
11
130.631526000000008
21
-81.9600429999999989
0
LINE
8
BLACK
6
CONTINUOUS
10
130.631526000000008
20
-81.9600429999999989
11
130.6899970000000053
21
-82.1527949999999976
0
LINE
8
BLACK
6
CONTINUOUS
10
130.6899970000000053
20
-82.1527949999999976
11
130.7097399999999823
21
-82.3532500000000027
0
LINE
8
BLACK
6
CONTINUOUS
10
130.7097399999999823
20
-82.3532500000000027
11
130.6899970000000053
21
-82.5537049999999937
0
LINE
8
BLACK
6
CONTINUOUS
10
130.6899970000000053
20
-82.5537049999999937
11
130.631526000000008
21
-82.7464569999999924
0
LINE
8
BLACK
6
CONTINUOUS
10
130.631526000000008
20
-82.7464569999999924
11
130.5365749999999991
21
-82.9240980000000008
0
LINE
8
BLACK
6
CONTINUOUS
10
130.5365749999999991
20
-82.9240980000000008
11
130.4087920000000054
21
-83.0798020000000008
0
LINE
8
BLACK
6
CONTINUOUS
10
130.4087920000000054
20
-83.0798020000000008
11
130.2530879999999911
21
-83.2075849999999946
0
LINE
8
BLACK
6
CONTINUOUS
10
130.2530879999999911
20
-83.2075849999999946
11
130.0754469999999969
21
-83.3025359999999893
0
LINE
8
BLACK
6
CONTINUOUS
10
130.0754469999999969
20
-83.3025359999999893
11
129.882694999999984
21
-83.3610070000000007
0
LINE
8
BLACK
6
CONTINUOUS
10
129.882694999999984
20
-83.3610070000000007
11
129.6822400000000073
21
-83.3807499999999919
0
LINE
8
BLACK
6
CONTINUOUS
10
129.6822400000000073
20
-83.3807499999999919
11
129.4817850000000021
21
-83.3610070000000007
0
LINE
8
BLACK
6
CONTINUOUS
10
129.4817850000000021
20
-83.3610070000000007
11
129.2890329999999892
21
-83.3025359999999893
0
LINE
8
BLACK
6
CONTINUOUS
10
129.2890329999999892
20
-83.3025359999999893
11
129.1113919999999951
21
-83.2075849999999946
0
LINE
8
BLACK
6
CONTINUOUS
10
129.1113919999999951
20
-83.2075849999999946
11
128.9556879999999808
21
-83.0798020000000008
0
LINE
8
BLACK
6
CONTINUOUS
10
128.9556879999999808
20
-83.0798020000000008
11
128.827904999999987
21
-82.9240980000000008
0
LINE
8
BLACK
6
CONTINUOUS
10
128.827904999999987
20
-82.9240980000000008
11
128.7329540000000065
21
-82.7464569999999924
0
LINE
8
BLACK
6
CONTINUOUS
10
128.7329540000000065
20
-82.7464569999999924
11
128.6744829999999808
21
-82.5537049999999937
0
LINE
8
BLACK
6
CONTINUOUS
10
128.6744829999999808
20
-82.5537049999999937
11
128.6547400000000039
21
-82.3532500000000027
0
LINE
8
BLACK
6
CONTINUOUS
10
128.6547400000000039
20
-82.3532500000000027
11
128.6744829999999808
21
-82.1527949999999976
0
LINE
8
BLACK
6
CONTINUOUS
10
128.6744829999999808
20
-82.1527949999999976
11
128.7329540000000065
21
-81.9600429999999989
0
LINE
8
BLACK
6
CONTINUOUS
10
128.7329540000000065
20
-81.9600429999999989
11
128.827904999999987
21
-81.7824019999999905
0
LINE
8
BLACK
6
CONTINUOUS
10
128.827904999999987
20
-81.7824019999999905
11
128.9556879999999808
21
-81.6266979999999904
0
LINE
8
BLACK
6
CONTINUOUS
10
128.9556879999999808
20
-81.6266979999999904
11
129.1113919999999951
21
-81.4989149999999967
0
LINE
8
BLACK
6
CONTINUOUS
10
129.1113919999999951
20
-81.4989149999999967
11
129.2890329999999892
21
-81.403964000000002
0
LINE
8
BLACK
6
CONTINUOUS
10
129.2890329999999892
20
-81.403964000000002
11
129.4817850000000021
21
-81.3454929999999905
0
LINE
8
BLACK
6
CONTINUOUS
10
129.4817850000000021
20
-81.3454929999999905
11
129.6822400000000073
21
-81.3257499999999993
0
LINE
8
BLACK
6
CONTINUOUS
10
129.6822400000000073
20
-81.3257499999999993
11
129.882694999999984
21
-81.3454929999999905
0
LINE
8
BLACK
6
CONTINUOUS
10
169.2526949999999886
20
-81.3454929999999905
11
169.4454470000000015
21
-81.403964000000002
0
LINE
8
BLACK
6
CONTINUOUS
10
169.4454470000000015
20
-81.403964000000002
11
169.6230879999999956
21
-81.4989149999999967
0
LINE
8
BLACK
6
CONTINUOUS
10
169.6230879999999956
20
-81.4989149999999967
11
169.7787919999999815
21
-81.6266979999999904
0
LINE
8
BLACK
6
CONTINUOUS
10
169.7787919999999815
20
-81.6266979999999904
11
169.9065750000000037
21
-81.7824019999999905
0
LINE
8
BLACK
6
CONTINUOUS
10
169.9065750000000037
20
-81.7824019999999905
11
170.0015259999999842
21
-81.9600429999999989
0
LINE
8
BLACK
6
CONTINUOUS
10
170.0015259999999842
20
-81.9600429999999989
11
170.0599969999999814
21
-82.1527949999999976
0
LINE
8
BLACK
6
CONTINUOUS
10
170.0599969999999814
20
-82.1527949999999976
11
170.0797399999999868
21
-82.3532500000000027
0
LINE
8
BLACK
6
CONTINUOUS
10
170.0797399999999868
20
-82.3532500000000027
11
170.0599969999999814
21
-82.5537049999999937
0
LINE
8
BLACK
6
CONTINUOUS
10
170.0599969999999814
20
-82.5537049999999937
11
170.0015259999999842
21
-82.7464569999999924
0
LINE
8
BLACK
6
CONTINUOUS
10
170.0015259999999842
20
-82.7464569999999924
11
169.9065750000000037
21
-82.9240980000000008
0
LINE
8
BLACK
6
CONTINUOUS
10
169.9065750000000037
20
-82.9240980000000008
11
169.7787919999999815
21
-83.0798020000000008
0
LINE
8
BLACK
6
CONTINUOUS
10
169.7787919999999815
20
-83.0798020000000008
11
169.6230879999999956
21
-83.2075849999999946
0
LINE
8
BLACK
6
CONTINUOUS
10
169.6230879999999956
20
-83.2075849999999946
11
169.4454470000000015
21
-83.3025359999999893
0
LINE
8
BLACK
6
CONTINUOUS
10
169.4454470000000015
20
-83.3025359999999893
11
169.2526949999999886
21
-83.3610070000000007
0
LINE
8
BLACK
6
CONTINUOUS
10
169.2526949999999886
20
-83.3610070000000007
11
169.0522399999999834
21
-83.3807499999999919
0
LINE
8
BLACK
6
CONTINUOUS
10
169.0522399999999834
20
-83.3807499999999919
11
168.8517849999999783
21
-83.3610070000000007
0
LINE
8
BLACK
6
CONTINUOUS
10
168.8517849999999783
20
-83.3610070000000007
11
168.6590329999999938
21
-83.3025359999999893
0
LINE
8
BLACK
6
CONTINUOUS
10
168.6590329999999938
20
-83.3025359999999893
11
168.4813919999999996
21
-83.2075849999999946
0
LINE
8
BLACK
6
CONTINUOUS
10
168.4813919999999996
20
-83.2075849999999946
11
168.3256879999999853
21
-83.0798020000000008
0
LINE
8
BLACK
6
CONTINUOUS
10
168.3256879999999853
20
-83.0798020000000008
11
168.1979049999999916
21
-82.9240980000000008
0
LINE
8
BLACK
6
CONTINUOUS
10
168.1979049999999916
20
-82.9240980000000008
11
168.1029539999999827
21
-82.7464569999999924
0
LINE
8
BLACK
6
CONTINUOUS
10
168.1029539999999827
20
-82.7464569999999924
11
168.0444829999999854
21
-82.5537049999999937
0
LINE
8
BLACK
6
CONTINUOUS
10
168.0444829999999854
20
-82.5537049999999937
11
168.02473999999998
21
-82.3532500000000027
0
LINE
8
BLACK
6
CONTINUOUS
10
168.02473999999998
20
-82.3532500000000027
11
168.0444829999999854
21
-82.1527949999999976
0
LINE
8
BLACK
6
CONTINUOUS
10
168.0444829999999854
20
-82.1527949999999976
11
168.1029539999999827
21
-81.9600429999999989
0
LINE
8
BLACK
6
CONTINUOUS
10
168.1029539999999827
20
-81.9600429999999989
11
168.1979049999999916
21
-81.7824019999999905
0
LINE
8
BLACK
6
CONTINUOUS
10
168.1979049999999916
20
-81.7824019999999905
11
168.3256879999999853
21
-81.6266979999999904
0
LINE
8
BLACK
6
CONTINUOUS
10
168.3256879999999853
20
-81.6266979999999904
11
168.4813919999999996
21
-81.4989149999999967
0
LINE
8
BLACK
6
CONTINUOUS
10
168.4813919999999996
20
-81.4989149999999967
11
168.6590329999999938
21
-81.403964000000002
0
LINE
8
BLACK
6
CONTINUOUS
10
168.6590329999999938
20
-81.403964000000002
11
168.8517849999999783
21
-81.3454929999999905
0
LINE
8
BLACK
6
CONTINUOUS
10
168.8517849999999783
20
-81.3454929999999905
11
169.0522399999999834
21
-81.3257499999999993
0
LINE
8
BLACK
6
CONTINUOUS
10
169.0522399999999834
20
-81.3257499999999993
11
169.2526949999999886
21
-81.3454929999999905
0
LINE
8
BLACK
6
CONTINUOUS
10
174.3326950000000011
20
-81.3454929999999905
11
174.5254469999999856
21
-81.403964000000002
0
LINE
8
BLACK
6
CONTINUOUS
10
174.5254469999999856
20
-81.403964000000002
11
174.7030879999999797
21
-81.4989149999999967
0
LINE
8
BLACK
6
CONTINUOUS
10
174.7030879999999797
20
-81.4989149999999967
11
174.858791999999994
21
-81.6266979999999904
0
LINE
8
BLACK
6
CONTINUOUS
10
174.858791999999994
20
-81.6266979999999904
11
174.9865749999999878
21
-81.7824019999999905
0
LINE
8
BLACK
6
CONTINUOUS
10
174.9865749999999878
20
-81.7824019999999905
11
175.0815259999999967
21
-81.9600429999999989
0
LINE
8
BLACK
6
CONTINUOUS
10
175.0815259999999967
20
-81.9600429999999989
11
175.1399969999999939
21
-82.1527949999999976
0
LINE
8
BLACK
6
CONTINUOUS
10
175.1399969999999939
20
-82.1527949999999976
11
175.1597399999999993
21
-82.3532500000000027
0
LINE
8
BLACK
6
CONTINUOUS
10
175.1597399999999993
20
-82.3532500000000027
11
175.1399969999999939
21
-82.5537049999999937
0
LINE
8
BLACK
6
CONTINUOUS
10
175.1399969999999939
20
-82.5537049999999937
11
175.0815259999999967
21
-82.7464569999999924
0
LINE
8
BLACK
6
CONTINUOUS
10
175.0815259999999967
20
-82.7464569999999924
11
174.9865749999999878
21
-82.9240980000000008
0
LINE
8
BLACK
6
CONTINUOUS
10
174.9865749999999878
20
-82.9240980000000008
11
174.858791999999994
21
-83.0798020000000008
0
LINE
8
BLACK
6
CONTINUOUS
10
174.858791999999994
20
-83.0798020000000008
11
174.7030879999999797
21
-83.2075849999999946
0
LINE
8
BLACK
6
CONTINUOUS
10
174.7030879999999797
20
-83.2075849999999946
11
174.5254469999999856
21
-83.3025359999999893
0
LINE
8
BLACK
6
CONTINUOUS
10
174.5254469999999856
20
-83.3025359999999893
11
174.3326950000000011
21
-83.3610070000000007
0
LINE
8
BLACK
6
CONTINUOUS
10
174.3326950000000011
20
-83.3610070000000007
11
174.1322399999999959
21
-83.3807499999999919
0
LINE
8
BLACK
6
CONTINUOUS
10
174.1322399999999959
20
-83.3807499999999919
11
173.9317849999999908
21
-83.3610070000000007
0
LINE
8
BLACK
6
CONTINUOUS
10
173.9317849999999908
20
-83.3610070000000007
11
173.7390330000000063
21
-83.3025359999999893
0
LINE
8
BLACK
6
CONTINUOUS
10
173.7390330000000063
20
-83.3025359999999893
11
173.5613919999999837
21
-83.2075849999999946
0
LINE
8
BLACK
6
CONTINUOUS
10
173.5613919999999837
20
-83.2075849999999946
11
173.4056879999999978
21
-83.0798020000000008
0
LINE
8
BLACK
6
CONTINUOUS
10
173.4056879999999978
20
-83.0798020000000008
11
173.2779050000000041
21
-82.9240980000000008
0
LINE
8
BLACK
6
CONTINUOUS
10
173.2779050000000041
20
-82.9240980000000008
11
173.1829539999999952
21
-82.7464569999999924
0
LINE
8
BLACK
6
CONTINUOUS
10
173.1829539999999952
20
-82.7464569999999924
11
173.1244829999999979
21
-82.5537049999999937
0
LINE
8
BLACK
6
CONTINUOUS
10
173.1244829999999979
20
-82.5537049999999937
11
173.1047399999999925
21
-82.3532500000000027
0
LINE
8
BLACK
6
CONTINUOUS
10
173.1047399999999925
20
-82.3532500000000027
11
173.1244829999999979
21
-82.1527949999999976
0
LINE
8
BLACK
6
CONTINUOUS
10
173.1244829999999979
20
-82.1527949999999976
11
173.1829539999999952
21
-81.9600429999999989
0
LINE
8
BLACK
6
CONTINUOUS
10
173.1829539999999952
20
-81.9600429999999989
11
173.2779050000000041
21
-81.7824019999999905
0
LINE
8
BLACK
6
CONTINUOUS
10
173.2779050000000041
20
-81.7824019999999905
11
173.4056879999999978
21
-81.6266979999999904
0
LINE
8
BLACK
6
CONTINUOUS
10
173.4056879999999978
20
-81.6266979999999904
11
173.5613919999999837
21
-81.4989149999999967
0
LINE
8
BLACK
6
CONTINUOUS
10
173.5613919999999837
20
-81.4989149999999967
11
173.7390330000000063
21
-81.403964000000002
0
LINE
8
BLACK
6
CONTINUOUS
10
173.7390330000000063
20
-81.403964000000002
11
173.9317849999999908
21
-81.3454929999999905
0
LINE
8
BLACK
6
CONTINUOUS
10
173.9317849999999908
20
-81.3454929999999905
11
174.1322399999999959
21
-81.3257499999999993
0
LINE
8
BLACK
6
CONTINUOUS
10
174.1322399999999959
20
-81.3257499999999993
11
174.3326950000000011
21
-81.3454929999999905
0
LINE
8
BLACK
6
CONTINUOUS
10
124.8026949999999999
20
-76.9004929999999973
11
124.9954469999999986
21
-76.9589639999999946
0
LINE
8
BLACK
6
CONTINUOUS
10
124.9954469999999986
20
-76.9589639999999946
11
125.1730879999999928
21
-77.0539150000000035
0
LINE
8
BLACK
6
CONTINUOUS
10
125.1730879999999928
20
-77.0539150000000035
11
125.3287919999999929
21
-77.1816979999999973
0
LINE
8
BLACK
6
CONTINUOUS
10
125.3287919999999929
20
-77.1816979999999973
11
125.4565750000000008
21
-77.3374019999999973
0
LINE
8
BLACK
6
CONTINUOUS
10
125.4565750000000008
20
-77.3374019999999973
11
125.5515259999999955
21
-77.5150429999999915
0
LINE
8
BLACK
6
CONTINUOUS
10
125.5515259999999955
20
-77.5150429999999915
11
125.6099969999999928
21
-77.7077949999999902
0
LINE
8
BLACK
6
CONTINUOUS
10
125.6099969999999928
20
-77.7077949999999902
11
125.6297399999999982
21
-77.9082499999999953
0
LINE
8
BLACK
6
CONTINUOUS
10
125.6297399999999982
20
-77.9082499999999953
11
125.6099969999999928
21
-78.1087050000000005
0
LINE
8
BLACK
6
CONTINUOUS
10
125.6099969999999928
20
-78.1087050000000005
11
125.5515259999999955
21
-78.3014569999999992
0
LINE
8
BLACK
6
CONTINUOUS
10
125.5515259999999955
20
-78.3014569999999992
11
125.4565750000000008
21
-78.4790979999999934
0
LINE
8
BLACK
6
CONTINUOUS
10
125.4565750000000008
20
-78.4790979999999934
11
125.3287919999999929
21
-78.6348019999999934
0
LINE
8
BLACK
6
CONTINUOUS
10
125.3287919999999929
20
-78.6348019999999934
11
125.1730879999999928
21
-78.7625850000000014
0
LINE
8
BLACK
6
CONTINUOUS
10
125.1730879999999928
20
-78.7625850000000014
11
124.9954469999999986
21
-78.8575359999999961
0
LINE
8
BLACK
6
CONTINUOUS
10
124.9954469999999986
20
-78.8575359999999961
11
124.8026949999999999
21
-78.9160069999999934
0
LINE
8
BLACK
6
CONTINUOUS
10
124.8026949999999999
20
-78.9160069999999934
11
124.6022399999999948
21
-78.9357499999999987
0
LINE
8
BLACK
6
CONTINUOUS
10
124.6022399999999948
20
-78.9357499999999987
11
124.4017849999999896
21
-78.9160069999999934
0
LINE
8
BLACK
6
CONTINUOUS
10
124.4017849999999896
20
-78.9160069999999934
11
124.2090329999999909
21
-78.8575359999999961
0
LINE
8
BLACK
6
CONTINUOUS
10
124.2090329999999909
20
-78.8575359999999961
11
124.0313919999999968
21
-78.7625850000000014
0
LINE
8
BLACK
6
CONTINUOUS
10
124.0313919999999968
20
-78.7625850000000014
11
123.8756879999999967
21
-78.6348019999999934
0
LINE
8
BLACK
6
CONTINUOUS
10
123.8756879999999967
20
-78.6348019999999934
11
123.7479049999999887
21
-78.4790979999999934
0
LINE
8
BLACK
6
CONTINUOUS
10
123.7479049999999887
20
-78.4790979999999934
11
123.652953999999994
21
-78.3014569999999992
0
LINE
8
BLACK
6
CONTINUOUS
10
123.652953999999994
20
-78.3014569999999992
11
123.5944829999999968
21
-78.1087050000000005
0
LINE
8
BLACK
6
CONTINUOUS
10
123.5944829999999968
20
-78.1087050000000005
11
123.5747399999999914
21
-77.9082499999999953
0
LINE
8
BLACK
6
CONTINUOUS
10
123.5747399999999914
20
-77.9082499999999953
11
123.5944829999999968
21
-77.7077949999999902
0
LINE
8
BLACK
6
CONTINUOUS
10
123.5944829999999968
20
-77.7077949999999902
11
123.652953999999994
21
-77.5150429999999915
0
LINE
8
BLACK
6
CONTINUOUS
10
123.652953999999994
20
-77.5150429999999915
11
123.7479049999999887
21
-77.3374019999999973
0
LINE
8
BLACK
6
CONTINUOUS
10
123.7479049999999887
20
-77.3374019999999973
11
123.8756879999999967
21
-77.1816979999999973
0
LINE
8
BLACK
6
CONTINUOUS
10
123.8756879999999967
20
-77.1816979999999973
11
124.0313919999999968
21
-77.0539150000000035
0
LINE
8
BLACK
6
CONTINUOUS
10
124.0313919999999968
20
-77.0539150000000035
11
124.2090329999999909
21
-76.9589639999999946
0
LINE
8
BLACK
6
CONTINUOUS
10
124.2090329999999909
20
-76.9589639999999946
11
124.4017849999999896
21
-76.9004929999999973
0
LINE
8
BLACK
6
CONTINUOUS
10
124.4017849999999896
20
-76.9004929999999973
11
124.6022399999999948
21
-76.8807499999999919
0
LINE
8
BLACK
6
CONTINUOUS
10
124.6022399999999948
20
-76.8807499999999919
11
124.8026949999999999
21
-76.9004929999999973
0
LINE
8
BLACK
6
CONTINUOUS
10
129.882694999999984
20
-76.9004929999999973
11
130.0754469999999969
21
-76.9589639999999946
0
LINE
8
BLACK
6
CONTINUOUS
10
130.0754469999999969
20
-76.9589639999999946
11
130.2530879999999911
21
-77.0539150000000035
0
LINE
8
BLACK
6
CONTINUOUS
10
130.2530879999999911
20
-77.0539150000000035
11
130.4087920000000054
21
-77.1816979999999973
0
LINE
8
BLACK
6
CONTINUOUS
10
130.4087920000000054
20
-77.1816979999999973
11
130.5365749999999991
21
-77.3374019999999973
0
LINE
8
BLACK
6
CONTINUOUS
10
130.5365749999999991
20
-77.3374019999999973
11
130.631526000000008
21
-77.5150429999999915
0
LINE
8
BLACK
6
CONTINUOUS
10
130.631526000000008
20
-77.5150429999999915
11
130.6899970000000053
21
-77.7077949999999902
0
LINE
8
BLACK
6
CONTINUOUS
10
130.6899970000000053
20
-77.7077949999999902
11
130.7097399999999823
21
-77.9082499999999953
0
LINE
8
BLACK
6
CONTINUOUS
10
130.7097399999999823
20
-77.9082499999999953
11
130.6899970000000053
21
-78.1087050000000005
0
LINE
8
BLACK
6
CONTINUOUS
10
130.6899970000000053
20
-78.1087050000000005
11
130.631526000000008
21
-78.3014569999999992
0
LINE
8
BLACK
6
CONTINUOUS
10
130.631526000000008
20
-78.3014569999999992
11
130.5365749999999991
21
-78.4790979999999934
0
LINE
8
BLACK
6
CONTINUOUS
10
130.5365749999999991
20
-78.4790979999999934
11
130.4087920000000054
21
-78.6348019999999934
0
LINE
8
BLACK
6
CONTINUOUS
10
130.4087920000000054
20
-78.6348019999999934
11
130.2530879999999911
21
-78.7625850000000014
0
LINE
8
BLACK
6
CONTINUOUS
10
130.2530879999999911
20
-78.7625850000000014
11
130.0754469999999969
21
-78.8575359999999961
0
LINE
8
BLACK
6
CONTINUOUS
10
130.0754469999999969
20
-78.8575359999999961
11
129.882694999999984
21
-78.9160069999999934
0
LINE
8
BLACK
6
CONTINUOUS
10
129.882694999999984
20
-78.9160069999999934
11
129.6822400000000073
21
-78.9357499999999987
0
LINE
8
BLACK
6
CONTINUOUS
10
129.6822400000000073
20
-78.9357499999999987
11
129.4817850000000021
21
-78.9160069999999934
0
LINE
8
BLACK
6
CONTINUOUS
10
129.4817850000000021
20
-78.9160069999999934
11
129.2890329999999892
21
-78.8575359999999961
0
LINE
8
BLACK
6
CONTINUOUS
10
129.2890329999999892
20
-78.8575359999999961
11
129.1113919999999951
21
-78.7625850000000014
0
LINE
8
BLACK
6
CONTINUOUS
10
129.1113919999999951
20
-78.7625850000000014
11
128.9556879999999808
21
-78.6348019999999934
0
LINE
8
BLACK
6
CONTINUOUS
10
128.9556879999999808
20
-78.6348019999999934
11
128.827904999999987
21
-78.4790979999999934
0
LINE
8
BLACK
6
CONTINUOUS
10
128.827904999999987
20
-78.4790979999999934
11
128.7329540000000065
21
-78.3014569999999992
0
LINE
8
BLACK
6
CONTINUOUS
10
128.7329540000000065
20
-78.3014569999999992
11
128.6744829999999808
21
-78.1087050000000005
0
LINE
8
BLACK
6
CONTINUOUS
10
128.6744829999999808
20
-78.1087050000000005
11
128.6547400000000039
21
-77.9082499999999953
0
LINE
8
BLACK
6
CONTINUOUS
10
128.6547400000000039
20
-77.9082499999999953
11
128.6744829999999808
21
-77.7077949999999902
0
LINE
8
BLACK
6
CONTINUOUS
10
128.6744829999999808
20
-77.7077949999999902
11
128.7329540000000065
21
-77.5150429999999915
0
LINE
8
BLACK
6
CONTINUOUS
10
128.7329540000000065
20
-77.5150429999999915
11
128.827904999999987
21
-77.3374019999999973
0
LINE
8
BLACK
6
CONTINUOUS
10
128.827904999999987
20
-77.3374019999999973
11
128.9556879999999808
21
-77.1816979999999973
0
LINE
8
BLACK
6
CONTINUOUS
10
128.9556879999999808
20
-77.1816979999999973
11
129.1113919999999951
21
-77.0539150000000035
0
LINE
8
BLACK
6
CONTINUOUS
10
129.1113919999999951
20
-77.0539150000000035
11
129.2890329999999892
21
-76.9589639999999946
0
LINE
8
BLACK
6
CONTINUOUS
10
129.2890329999999892
20
-76.9589639999999946
11
129.4817850000000021
21
-76.9004929999999973
0
LINE
8
BLACK
6
CONTINUOUS
10
129.4817850000000021
20
-76.9004929999999973
11
129.6822400000000073
21
-76.8807499999999919
0
LINE
8
BLACK
6
CONTINUOUS
10
129.6822400000000073
20
-76.8807499999999919
11
129.882694999999984
21
-76.9004929999999973
0
LINE
8
BLACK
6
CONTINUOUS
10
169.2526949999999886
20
-76.9004929999999973
11
169.4454470000000015
21
-76.9589639999999946
0
LINE
8
BLACK
6
CONTINUOUS
10
169.4454470000000015
20
-76.9589639999999946
11
169.6230879999999956
21
-77.0539150000000035
0
LINE
8
BLACK
6
CONTINUOUS
10
169.6230879999999956
20
-77.0539150000000035
11
169.7787919999999815
21
-77.1816979999999973
0
LINE
8
BLACK
6
CONTINUOUS
10
169.7787919999999815
20
-77.1816979999999973
11
169.9065750000000037
21
-77.3374019999999973
0
LINE
8
BLACK
6
CONTINUOUS
10
169.9065750000000037
20
-77.3374019999999973
11
170.0015259999999842
21
-77.5150429999999915
0
LINE
8
BLACK
6
CONTINUOUS
10
170.0015259999999842
20
-77.5150429999999915
11
170.0599969999999814
21
-77.7077949999999902
0
LINE
8
BLACK
6
CONTINUOUS
10
170.0599969999999814
20
-77.7077949999999902
11
170.0797399999999868
21
-77.9082499999999953
0
LINE
8
BLACK
6
CONTINUOUS
10
170.0797399999999868
20
-77.9082499999999953
11
170.0599969999999814
21
-78.1087050000000005
0
LINE
8
BLACK
6
CONTINUOUS
10
170.0599969999999814
20
-78.1087050000000005
11
170.0015259999999842
21
-78.3014569999999992
0
LINE
8
BLACK
6
CONTINUOUS
10
170.0015259999999842
20
-78.3014569999999992
11
169.9065750000000037
21
-78.4790979999999934
0
LINE
8
BLACK
6
CONTINUOUS
10
169.9065750000000037
20
-78.4790979999999934
11
169.7787919999999815
21
-78.6348019999999934
0
LINE
8
BLACK
6
CONTINUOUS
10
169.7787919999999815
20
-78.6348019999999934
11
169.6230879999999956
21
-78.7625850000000014
0
LINE
8
BLACK
6
CONTINUOUS
10
169.6230879999999956
20
-78.7625850000000014
11
169.4454470000000015
21
-78.8575359999999961
0
LINE
8
BLACK
6
CONTINUOUS
10
169.4454470000000015
20
-78.8575359999999961
11
169.2526949999999886
21
-78.9160069999999934
0
LINE
8
BLACK
6
CONTINUOUS
10
169.2526949999999886
20
-78.9160069999999934
11
169.0522399999999834
21
-78.9357499999999987
0
LINE
8
BLACK
6
CONTINUOUS
10
169.0522399999999834
20
-78.9357499999999987
11
168.8517849999999783
21
-78.9160069999999934
0
LINE
8
BLACK
6
CONTINUOUS
10
168.8517849999999783
20
-78.9160069999999934
11
168.6590329999999938
21
-78.8575359999999961
0
LINE
8
BLACK
6
CONTINUOUS
10
168.6590329999999938
20
-78.8575359999999961
11
168.4813919999999996
21
-78.7625850000000014
0
LINE
8
BLACK
6
CONTINUOUS
10
168.4813919999999996
20
-78.7625850000000014
11
168.3256879999999853
21
-78.6348019999999934
0
LINE
8
BLACK
6
CONTINUOUS
10
168.3256879999999853
20
-78.6348019999999934
11
168.1979049999999916
21
-78.4790979999999934
0
LINE
8
BLACK
6
CONTINUOUS
10
168.1979049999999916
20
-78.4790979999999934
11
168.1029539999999827
21
-78.3014569999999992
0
LINE
8
BLACK
6
CONTINUOUS
10
168.1029539999999827
20
-78.3014569999999992
11
168.0444829999999854
21
-78.1087050000000005
0
LINE
8
BLACK
6
CONTINUOUS
10
168.0444829999999854
20
-78.1087050000000005
11
168.02473999999998
21
-77.9082499999999953
0
LINE
8
BLACK
6
CONTINUOUS
10
168.02473999999998
20
-77.9082499999999953
11
168.0444829999999854
21
-77.7077949999999902
0
LINE
8
BLACK
6
CONTINUOUS
10
168.0444829999999854
20
-77.7077949999999902
11
168.1029539999999827
21
-77.5150429999999915
0
LINE
8
BLACK
6
CONTINUOUS
10
168.1029539999999827
20
-77.5150429999999915
11
168.1979049999999916
21
-77.3374019999999973
0
LINE
8
BLACK
6
CONTINUOUS
10
168.1979049999999916
20
-77.3374019999999973
11
168.3256879999999853
21
-77.1816979999999973
0
LINE
8
BLACK
6
CONTINUOUS
10
168.3256879999999853
20
-77.1816979999999973
11
168.4813919999999996
21
-77.0539150000000035
0
LINE
8
BLACK
6
CONTINUOUS
10
168.4813919999999996
20
-77.0539150000000035
11
168.6590329999999938
21
-76.9589639999999946
0
LINE
8
BLACK
6
CONTINUOUS
10
168.6590329999999938
20
-76.9589639999999946
11
168.8517849999999783
21
-76.9004929999999973
0
LINE
8
BLACK
6
CONTINUOUS
10
168.8517849999999783
20
-76.9004929999999973
11
169.0522399999999834
21
-76.8807499999999919
0
LINE
8
BLACK
6
CONTINUOUS
10
169.0522399999999834
20
-76.8807499999999919
11
169.2526949999999886
21
-76.9004929999999973
0
LINE
8
BLACK
6
CONTINUOUS
10
174.3326950000000011
20
-76.9004929999999973
11
174.5254469999999856
21
-76.9589639999999946
0
LINE
8
BLACK
6
CONTINUOUS
10
174.5254469999999856
20
-76.9589639999999946
11
174.7030879999999797
21
-77.0539150000000035
0
LINE
8
BLACK
6
CONTINUOUS
10
174.7030879999999797
20
-77.0539150000000035
11
174.858791999999994
21
-77.1816979999999973
0
LINE
8
BLACK
6
CONTINUOUS
10
174.858791999999994
20
-77.1816979999999973
11
174.9865749999999878
21
-77.3374019999999973
0
LINE
8
BLACK
6
CONTINUOUS
10
174.9865749999999878
20
-77.3374019999999973
11
175.0815259999999967
21
-77.5150429999999915
0
LINE
8
BLACK
6
CONTINUOUS
10
175.0815259999999967
20
-77.5150429999999915
11
175.1399969999999939
21
-77.7077949999999902
0
LINE
8
BLACK
6
CONTINUOUS
10
175.1399969999999939
20
-77.7077949999999902
11
175.1597399999999993
21
-77.9082499999999953
0
LINE
8
BLACK
6
CONTINUOUS
10
175.1597399999999993
20
-77.9082499999999953
11
175.1399969999999939
21
-78.1087050000000005
0
LINE
8
BLACK
6
CONTINUOUS
10
175.1399969999999939
20
-78.1087050000000005
11
175.0815259999999967
21
-78.3014569999999992
0
LINE
8
BLACK
6
CONTINUOUS
10
175.0815259999999967
20
-78.3014569999999992
11
174.9865749999999878
21
-78.4790979999999934
0
LINE
8
BLACK
6
CONTINUOUS
10
174.9865749999999878
20
-78.4790979999999934
11
174.858791999999994
21
-78.6348019999999934
0
LINE
8
BLACK
6
CONTINUOUS
10
174.858791999999994
20
-78.6348019999999934
11
174.7030879999999797
21
-78.7625850000000014
0
LINE
8
BLACK
6
CONTINUOUS
10
174.7030879999999797
20
-78.7625850000000014
11
174.5254469999999856
21
-78.8575359999999961
0
LINE
8
BLACK
6
CONTINUOUS
10
174.5254469999999856
20
-78.8575359999999961
11
174.3326950000000011
21
-78.9160069999999934
0
LINE
8
BLACK
6
CONTINUOUS
10
174.3326950000000011
20
-78.9160069999999934
11
174.1322399999999959
21
-78.9357499999999987
0
LINE
8
BLACK
6
CONTINUOUS
10
174.1322399999999959
20
-78.9357499999999987
11
173.9317849999999908
21
-78.9160069999999934
0
LINE
8
BLACK
6
CONTINUOUS
10
173.9317849999999908
20
-78.9160069999999934
11
173.7390330000000063
21
-78.8575359999999961
0
LINE
8
BLACK
6
CONTINUOUS
10
173.7390330000000063
20
-78.8575359999999961
11
173.5613919999999837
21
-78.7625850000000014
0
LINE
8
BLACK
6
CONTINUOUS
10
173.5613919999999837
20
-78.7625850000000014
11
173.4056879999999978
21
-78.6348019999999934
0
LINE
8
BLACK
6
CONTINUOUS
10
173.4056879999999978
20
-78.6348019999999934
11
173.2779050000000041
21
-78.4790979999999934
0
LINE
8
BLACK
6
CONTINUOUS
10
173.2779050000000041
20
-78.4790979999999934
11
173.1829539999999952
21
-78.3014569999999992
0
LINE
8
BLACK
6
CONTINUOUS
10
173.1829539999999952
20
-78.3014569999999992
11
173.1244829999999979
21
-78.1087050000000005
0
LINE
8
BLACK
6
CONTINUOUS
10
173.1244829999999979
20
-78.1087050000000005
11
173.1047399999999925
21
-77.9082499999999953
0
LINE
8
BLACK
6
CONTINUOUS
10
173.1047399999999925
20
-77.9082499999999953
11
173.1244829999999979
21
-77.7077949999999902
0
LINE
8
BLACK
6
CONTINUOUS
10
173.1244829999999979
20
-77.7077949999999902
11
173.1829539999999952
21
-77.5150429999999915
0
LINE
8
BLACK
6
CONTINUOUS
10
173.1829539999999952
20
-77.5150429999999915
11
173.2779050000000041
21
-77.3374019999999973
0
LINE
8
BLACK
6
CONTINUOUS
10
173.2779050000000041
20
-77.3374019999999973
11
173.4056879999999978
21
-77.1816979999999973
0
LINE
8
BLACK
6
CONTINUOUS
10
173.4056879999999978
20
-77.1816979999999973
11
173.5613919999999837
21
-77.0539150000000035
0
LINE
8
BLACK
6
CONTINUOUS
10
173.5613919999999837
20
-77.0539150000000035
11
173.7390330000000063
21
-76.9589639999999946
0
LINE
8
BLACK
6
CONTINUOUS
10
173.7390330000000063
20
-76.9589639999999946
11
173.9317849999999908
21
-76.9004929999999973
0
LINE
8
BLACK
6
CONTINUOUS
10
173.9317849999999908
20
-76.9004929999999973
11
174.1322399999999959
21
-76.8807499999999919
0
LINE
8
BLACK
6
CONTINUOUS
10
174.1322399999999959
20
-76.8807499999999919
11
174.3326950000000011
21
-76.9004929999999973
0
LINE
8
BLACK
6
CONTINUOUS
10
124.8026949999999999
20
-72.4554929999999899
11
124.9954469999999986
21
-72.5139640000000014
0
LINE
8
BLACK
6
CONTINUOUS
10
124.9954469999999986
20
-72.5139640000000014
11
125.1730879999999928
21
-72.6089149999999961
0
LINE
8
BLACK
6
CONTINUOUS
10
125.1730879999999928
20
-72.6089149999999961
11
125.3287919999999929
21
-72.7366979999999899
0
LINE
8
BLACK
6
CONTINUOUS
10
125.3287919999999929
20
-72.7366979999999899
11
125.4565750000000008
21
-72.8924019999999899
0
LINE
8
BLACK
6
CONTINUOUS
10
125.4565750000000008
20
-72.8924019999999899
11
125.5515259999999955
21
-73.0700429999999983
0
LINE
8
BLACK
6
CONTINUOUS
10
125.5515259999999955
20
-73.0700429999999983
11
125.6099969999999928
21
-73.262794999999997
0
LINE
8
BLACK
6
CONTINUOUS
10
125.6099969999999928
20
-73.262794999999997
11
125.6297399999999982
21
-73.4632500000000022
0
LINE
8
BLACK
6
CONTINUOUS
10
125.6297399999999982
20
-73.4632500000000022
11
125.6099969999999928
21
-73.6637049999999931
0
LINE
8
BLACK
6
CONTINUOUS
10
125.6099969999999928
20
-73.6637049999999931
11
125.5515259999999955
21
-73.8564569999999918
0
LINE
8
BLACK
6
CONTINUOUS
10
125.5515259999999955
20
-73.8564569999999918
11
125.4565750000000008
21
-74.0340980000000002
0
LINE
8
BLACK
6
CONTINUOUS
10
125.4565750000000008
20
-74.0340980000000002
11
125.3287919999999929
21
-74.1898020000000002
0
LINE
8
BLACK
6
CONTINUOUS
10
125.3287919999999929
20
-74.1898020000000002
11
125.1730879999999928
21
-74.317584999999994
0
LINE
8
BLACK
6
CONTINUOUS
10
125.1730879999999928
20
-74.317584999999994
11
124.9954469999999986
21
-74.4125360000000029
0
LINE
8
BLACK
6
CONTINUOUS
10
124.9954469999999986
20
-74.4125360000000029
11
124.8026949999999999
21
-74.4710070000000002
0
LINE
8
BLACK
6
CONTINUOUS
10
124.8026949999999999
20
-74.4710070000000002
11
124.6022399999999948
21
-74.4907499999999914
0
LINE
8
BLACK
6
CONTINUOUS
10
124.6022399999999948
20
-74.4907499999999914
11
124.4017849999999896
21
-74.4710070000000002
0
LINE
8
BLACK
6
CONTINUOUS
10
124.4017849999999896
20
-74.4710070000000002
11
124.2090329999999909
21
-74.4125360000000029
0
LINE
8
BLACK
6
CONTINUOUS
10
124.2090329999999909
20
-74.4125360000000029
11
124.0313919999999968
21
-74.317584999999994
0
LINE
8
BLACK
6
CONTINUOUS
10
124.0313919999999968
20
-74.317584999999994
11
123.8756879999999967
21
-74.1898020000000002
0
LINE
8
BLACK
6
CONTINUOUS
10
123.8756879999999967
20
-74.1898020000000002
11
123.7479049999999887
21
-74.0340980000000002
0
LINE
8
BLACK
6
CONTINUOUS
10
123.7479049999999887
20
-74.0340980000000002
11
123.652953999999994
21
-73.8564569999999918
0
LINE
8
BLACK
6
CONTINUOUS
10
123.652953999999994
20
-73.8564569999999918
11
123.5944829999999968
21
-73.6637049999999931
0
LINE
8
BLACK
6
CONTINUOUS
10
123.5944829999999968
20
-73.6637049999999931
11
123.5747399999999914
21
-73.4632500000000022
0
LINE
8
BLACK
6
CONTINUOUS
10
123.5747399999999914
20
-73.4632500000000022
11
123.5944829999999968
21
-73.262794999999997
0
LINE
8
BLACK
6
CONTINUOUS
10
123.5944829999999968
20
-73.262794999999997
11
123.652953999999994
21
-73.0700429999999983
0
LINE
8
BLACK
6
CONTINUOUS
10
123.652953999999994
20
-73.0700429999999983
11
123.7479049999999887
21
-72.8924019999999899
0
LINE
8
BLACK
6
CONTINUOUS
10
123.7479049999999887
20
-72.8924019999999899
11
123.8756879999999967
21
-72.7366979999999899
0
LINE
8
BLACK
6
CONTINUOUS
10
123.8756879999999967
20
-72.7366979999999899
11
124.0313919999999968
21
-72.6089149999999961
0
LINE
8
BLACK
6
CONTINUOUS
10
124.0313919999999968
20
-72.6089149999999961
11
124.2090329999999909
21
-72.5139640000000014
0
LINE
8
BLACK
6
CONTINUOUS
10
124.2090329999999909
20
-72.5139640000000014
11
124.4017849999999896
21
-72.4554929999999899
0
LINE
8
BLACK
6
CONTINUOUS
10
124.4017849999999896
20
-72.4554929999999899
11
124.6022399999999948
21
-72.4357499999999987
0
LINE
8
BLACK
6
CONTINUOUS
10
124.6022399999999948
20
-72.4357499999999987
11
124.8026949999999999
21
-72.4554929999999899
0
LINE
8
BLACK
6
CONTINUOUS
10
129.882694999999984
20
-72.4554929999999899
11
130.0754469999999969
21
-72.5139640000000014
0
LINE
8
BLACK
6
CONTINUOUS
10
130.0754469999999969
20
-72.5139640000000014
11
130.2530879999999911
21
-72.6089149999999961
0
LINE
8
BLACK
6
CONTINUOUS
10
130.2530879999999911
20
-72.6089149999999961
11
130.4087920000000054
21
-72.7366979999999899
0
LINE
8
BLACK
6
CONTINUOUS
10
130.4087920000000054
20
-72.7366979999999899
11
130.5365749999999991
21
-72.8924019999999899
0
LINE
8
BLACK
6
CONTINUOUS
10
130.5365749999999991
20
-72.8924019999999899
11
130.631526000000008
21
-73.0700429999999983
0
LINE
8
BLACK
6
CONTINUOUS
10
130.631526000000008
20
-73.0700429999999983
11
130.6899970000000053
21
-73.262794999999997
0
LINE
8
BLACK
6
CONTINUOUS
10
130.6899970000000053
20
-73.262794999999997
11
130.7097399999999823
21
-73.4632500000000022
0
LINE
8
BLACK
6
CONTINUOUS
10
130.7097399999999823
20
-73.4632500000000022
11
130.6899970000000053
21
-73.6637049999999931
0
LINE
8
BLACK
6
CONTINUOUS
10
130.6899970000000053
20
-73.6637049999999931
11
130.631526000000008
21
-73.8564569999999918
0
LINE
8
BLACK
6
CONTINUOUS
10
130.631526000000008
20
-73.8564569999999918
11
130.5365749999999991
21
-74.0340980000000002
0
LINE
8
BLACK
6
CONTINUOUS
10
130.5365749999999991
20
-74.0340980000000002
11
130.4087920000000054
21
-74.1898020000000002
0
LINE
8
BLACK
6
CONTINUOUS
10
130.4087920000000054
20
-74.1898020000000002
11
130.2530879999999911
21
-74.317584999999994
0
LINE
8
BLACK
6
CONTINUOUS
10
130.2530879999999911
20
-74.317584999999994
11
130.0754469999999969
21
-74.4125360000000029
0
LINE
8
BLACK
6
CONTINUOUS
10
130.0754469999999969
20
-74.4125360000000029
11
129.882694999999984
21
-74.4710070000000002
0
LINE
8
BLACK
6
CONTINUOUS
10
129.882694999999984
20
-74.4710070000000002
11
129.6822400000000073
21
-74.4907499999999914
0
LINE
8
BLACK
6
CONTINUOUS
10
129.6822400000000073
20
-74.4907499999999914
11
129.4817850000000021
21
-74.4710070000000002
0
LINE
8
BLACK
6
CONTINUOUS
10
129.4817850000000021
20
-74.4710070000000002
11
129.2890329999999892
21
-74.4125360000000029
0
LINE
8
BLACK
6
CONTINUOUS
10
129.2890329999999892
20
-74.4125360000000029
11
129.1113919999999951
21
-74.317584999999994
0
LINE
8
BLACK
6
CONTINUOUS
10
129.1113919999999951
20
-74.317584999999994
11
128.9556879999999808
21
-74.1898020000000002
0
LINE
8
BLACK
6
CONTINUOUS
10
128.9556879999999808
20
-74.1898020000000002
11
128.827904999999987
21
-74.0340980000000002
0
LINE
8
BLACK
6
CONTINUOUS
10
128.827904999999987
20
-74.0340980000000002
11
128.7329540000000065
21
-73.8564569999999918
0
LINE
8
BLACK
6
CONTINUOUS
10
128.7329540000000065
20
-73.8564569999999918
11
128.6744829999999808
21
-73.6637049999999931
0
LINE
8
BLACK
6
CONTINUOUS
10
128.6744829999999808
20
-73.6637049999999931
11
128.6547400000000039
21
-73.4632500000000022
0
LINE
8
BLACK
6
CONTINUOUS
10
128.6547400000000039
20
-73.4632500000000022
11
128.6744829999999808
21
-73.262794999999997
0
LINE
8
BLACK
6
CONTINUOUS
10
128.6744829999999808
20
-73.262794999999997
11
128.7329540000000065
21
-73.0700429999999983
0
LINE
8
BLACK
6
CONTINUOUS
10
128.7329540000000065
20
-73.0700429999999983
11
128.827904999999987
21
-72.8924019999999899
0
LINE
8
BLACK
6
CONTINUOUS
10
128.827904999999987
20
-72.8924019999999899
11
128.9556879999999808
21
-72.7366979999999899
0
LINE
8
BLACK
6
CONTINUOUS
10
128.9556879999999808
20
-72.7366979999999899
11
129.1113919999999951
21
-72.6089149999999961
0
LINE
8
BLACK
6
CONTINUOUS
10
129.1113919999999951
20
-72.6089149999999961
11
129.2890329999999892
21
-72.5139640000000014
0
LINE
8
BLACK
6
CONTINUOUS
10
129.2890329999999892
20
-72.5139640000000014
11
129.4817850000000021
21
-72.4554929999999899
0
LINE
8
BLACK
6
CONTINUOUS
10
129.4817850000000021
20
-72.4554929999999899
11
129.6822400000000073
21
-72.4357499999999987
0
LINE
8
BLACK
6
CONTINUOUS
10
129.6822400000000073
20
-72.4357499999999987
11
129.882694999999984
21
-72.4554929999999899
0
LINE
8
BLACK
6
CONTINUOUS
10
169.2526949999999886
20
-72.4554929999999899
11
169.4454470000000015
21
-72.5139640000000014
0
LINE
8
BLACK
6
CONTINUOUS
10
169.4454470000000015
20
-72.5139640000000014
11
169.6230879999999956
21
-72.6089149999999961
0
LINE
8
BLACK
6
CONTINUOUS
10
169.6230879999999956
20
-72.6089149999999961
11
169.7787919999999815
21
-72.7366979999999899
0
LINE
8
BLACK
6
CONTINUOUS
10
169.7787919999999815
20
-72.7366979999999899
11
169.9065750000000037
21
-72.8924019999999899
0
LINE
8
BLACK
6
CONTINUOUS
10
169.9065750000000037
20
-72.8924019999999899
11
170.0015259999999842
21
-73.0700429999999983
0
LINE
8
BLACK
6
CONTINUOUS
10
170.0015259999999842
20
-73.0700429999999983
11
170.0599969999999814
21
-73.262794999999997
0
LINE
8
BLACK
6
CONTINUOUS
10
170.0599969999999814
20
-73.262794999999997
11
170.0797399999999868
21
-73.4632500000000022
0
LINE
8
BLACK
6
CONTINUOUS
10
170.0797399999999868
20
-73.4632500000000022
11
170.0599969999999814
21
-73.6637049999999931
0
LINE
8
BLACK
6
CONTINUOUS
10
170.0599969999999814
20
-73.6637049999999931
11
170.0015259999999842
21
-73.8564569999999918
0
LINE
8
BLACK
6
CONTINUOUS
10
170.0015259999999842
20
-73.8564569999999918
11
169.9065750000000037
21
-74.0340980000000002
0
LINE
8
BLACK
6
CONTINUOUS
10
169.9065750000000037
20
-74.0340980000000002
11
169.7787919999999815
21
-74.1898020000000002
0
LINE
8
BLACK
6
CONTINUOUS
10
169.7787919999999815
20
-74.1898020000000002
11
169.6230879999999956
21
-74.317584999999994
0
LINE
8
BLACK
6
CONTINUOUS
10
169.6230879999999956
20
-74.317584999999994
11
169.4454470000000015
21
-74.4125360000000029
0
LINE
8
BLACK
6
CONTINUOUS
10
169.4454470000000015
20
-74.4125360000000029
11
169.2526949999999886
21
-74.4710070000000002
0
LINE
8
BLACK
6
CONTINUOUS
10
169.2526949999999886
20
-74.4710070000000002
11
169.0522399999999834
21
-74.4907499999999914
0
LINE
8
BLACK
6
CONTINUOUS
10
169.0522399999999834
20
-74.4907499999999914
11
168.8517849999999783
21
-74.4710070000000002
0
LINE
8
BLACK
6
CONTINUOUS
10
168.8517849999999783
20
-74.4710070000000002
11
168.6590329999999938
21
-74.4125360000000029
0
LINE
8
BLACK
6
CONTINUOUS
10
168.6590329999999938
20
-74.4125360000000029
11
168.4813919999999996
21
-74.317584999999994
0
LINE
8
BLACK
6
CONTINUOUS
10
168.4813919999999996
20
-74.317584999999994
11
168.3256879999999853
21
-74.1898020000000002
0
LINE
8
BLACK
6
CONTINUOUS
10
168.3256879999999853
20
-74.1898020000000002
11
168.1979049999999916
21
-74.0340980000000002
0
LINE
8
BLACK
6
CONTINUOUS
10
168.1979049999999916
20
-74.0340980000000002
11
168.1029539999999827
21
-73.8564569999999918
0
LINE
8
BLACK
6
CONTINUOUS
10
168.1029539999999827
20
-73.8564569999999918
11
168.0444829999999854
21
-73.6637049999999931
0
LINE
8
BLACK
6
CONTINUOUS
10
168.0444829999999854
20
-73.6637049999999931
11
168.02473999999998
21
-73.4632500000000022
0
LINE
8
BLACK
6
CONTINUOUS
10
168.02473999999998
20
-73.4632500000000022
11
168.0444829999999854
21
-73.262794999999997
0
LINE
8
BLACK
6
CONTINUOUS
10
168.0444829999999854
20
-73.262794999999997
11
168.1029539999999827
21
-73.0700429999999983
0
LINE
8
BLACK
6
CONTINUOUS
10
168.1029539999999827
20
-73.0700429999999983
11
168.1979049999999916
21
-72.8924019999999899
0
LINE
8
BLACK
6
CONTINUOUS
10
168.1979049999999916
20
-72.8924019999999899
11
168.3256879999999853
21
-72.7366979999999899
0
LINE
8
BLACK
6
CONTINUOUS
10
168.3256879999999853
20
-72.7366979999999899
11
168.4813919999999996
21
-72.6089149999999961
0
LINE
8
BLACK
6
CONTINUOUS
10
168.4813919999999996
20
-72.6089149999999961
11
168.6590329999999938
21
-72.5139640000000014
0
LINE
8
BLACK
6
CONTINUOUS
10
168.6590329999999938
20
-72.5139640000000014
11
168.8517849999999783
21
-72.4554929999999899
0
LINE
8
BLACK
6
CONTINUOUS
10
168.8517849999999783
20
-72.4554929999999899
11
169.0522399999999834
21
-72.4357499999999987
0
LINE
8
BLACK
6
CONTINUOUS
10
169.0522399999999834
20
-72.4357499999999987
11
169.2526949999999886
21
-72.4554929999999899
0
LINE
8
BLACK
6
CONTINUOUS
10
174.3326950000000011
20
-72.4554929999999899
11
174.5254469999999856
21
-72.5139640000000014
0
LINE
8
BLACK
6
CONTINUOUS
10
174.5254469999999856
20
-72.5139640000000014
11
174.7030879999999797
21
-72.6089149999999961
0
LINE
8
BLACK
6
CONTINUOUS
10
174.7030879999999797
20
-72.6089149999999961
11
174.858791999999994
21
-72.7366979999999899
0
LINE
8
BLACK
6
CONTINUOUS
10
174.858791999999994
20
-72.7366979999999899
11
174.9865749999999878
21
-72.8924019999999899
0
LINE
8
BLACK
6
CONTINUOUS
10
174.9865749999999878
20
-72.8924019999999899
11
175.0815259999999967
21
-73.0700429999999983
0
LINE
8
BLACK
6
CONTINUOUS
10
175.0815259999999967
20
-73.0700429999999983
11
175.1399969999999939
21
-73.262794999999997
0
LINE
8
BLACK
6
CONTINUOUS
10
175.1399969999999939
20
-73.262794999999997
11
175.1597399999999993
21
-73.4632500000000022
0
LINE
8
BLACK
6
CONTINUOUS
10
175.1597399999999993
20
-73.4632500000000022
11
175.1399969999999939
21
-73.6637049999999931
0
LINE
8
BLACK
6
CONTINUOUS
10
175.1399969999999939
20
-73.6637049999999931
11
175.0815259999999967
21
-73.8564569999999918
0
LINE
8
BLACK
6
CONTINUOUS
10
175.0815259999999967
20
-73.8564569999999918
11
174.9865749999999878
21
-74.0340980000000002
0
LINE
8
BLACK
6
CONTINUOUS
10
174.9865749999999878
20
-74.0340980000000002
11
174.858791999999994
21
-74.1898020000000002
0
LINE
8
BLACK
6
CONTINUOUS
10
174.858791999999994
20
-74.1898020000000002
11
174.7030879999999797
21
-74.317584999999994
0
LINE
8
BLACK
6
CONTINUOUS
10
174.7030879999999797
20
-74.317584999999994
11
174.5254469999999856
21
-74.4125360000000029
0
LINE
8
BLACK
6
CONTINUOUS
10
174.5254469999999856
20
-74.4125360000000029
11
174.3326950000000011
21
-74.4710070000000002
0
LINE
8
BLACK
6
CONTINUOUS
10
174.3326950000000011
20
-74.4710070000000002
11
174.1322399999999959
21
-74.4907499999999914
0
LINE
8
BLACK
6
CONTINUOUS
10
174.1322399999999959
20
-74.4907499999999914
11
173.9317849999999908
21
-74.4710070000000002
0
LINE
8
BLACK
6
CONTINUOUS
10
173.9317849999999908
20
-74.4710070000000002
11
173.7390330000000063
21
-74.4125360000000029
0
LINE
8
BLACK
6
CONTINUOUS
10
173.7390330000000063
20
-74.4125360000000029
11
173.5613919999999837
21
-74.317584999999994
0
LINE
8
BLACK
6
CONTINUOUS
10
173.5613919999999837
20
-74.317584999999994
11
173.4056879999999978
21
-74.1898020000000002
0
LINE
8
BLACK
6
CONTINUOUS
10
173.4056879999999978
20
-74.1898020000000002
11
173.2779050000000041
21
-74.0340980000000002
0
LINE
8
BLACK
6
CONTINUOUS
10
173.2779050000000041
20
-74.0340980000000002
11
173.1829539999999952
21
-73.8564569999999918
0
LINE
8
BLACK
6
CONTINUOUS
10
173.1829539999999952
20
-73.8564569999999918
11
173.1244829999999979
21
-73.6637049999999931
0
LINE
8
BLACK
6
CONTINUOUS
10
173.1244829999999979
20
-73.6637049999999931
11
173.1047399999999925
21
-73.4632500000000022
0
LINE
8
BLACK
6
CONTINUOUS
10
173.1047399999999925
20
-73.4632500000000022
11
173.1244829999999979
21
-73.262794999999997
0
LINE
8
BLACK
6
CONTINUOUS
10
173.1244829999999979
20
-73.262794999999997
11
173.1829539999999952
21
-73.0700429999999983
0
LINE
8
BLACK
6
CONTINUOUS
10
173.1829539999999952
20
-73.0700429999999983
11
173.2779050000000041
21
-72.8924019999999899
0
LINE
8
BLACK
6
CONTINUOUS
10
173.2779050000000041
20
-72.8924019999999899
11
173.4056879999999978
21
-72.7366979999999899
0
LINE
8
BLACK
6
CONTINUOUS
10
173.4056879999999978
20
-72.7366979999999899
11
173.5613919999999837
21
-72.6089149999999961
0
LINE
8
BLACK
6
CONTINUOUS
10
173.5613919999999837
20
-72.6089149999999961
11
173.7390330000000063
21
-72.5139640000000014
0
LINE
8
BLACK
6
CONTINUOUS
10
173.7390330000000063
20
-72.5139640000000014
11
173.9317849999999908
21
-72.4554929999999899
0
LINE
8
BLACK
6
CONTINUOUS
10
173.9317849999999908
20
-72.4554929999999899
11
174.1322399999999959
21
-72.4357499999999987
0
LINE
8
BLACK
6
CONTINUOUS
10
174.1322399999999959
20
-72.4357499999999987
11
174.3326950000000011
21
-72.4554929999999899
0
LINE
8
BLACK
6
CONTINUOUS
10
135.2398499999999899
20
-63.8291729999999973
11
135.6016909999999882
21
-63.8864829999999984
0
LINE
8
BLACK
6
CONTINUOUS
10
135.6016909999999882
20
-63.8864829999999984
11
135.9555589999999938
21
-63.9813019999999995
0
LINE
8
BLACK
6
CONTINUOUS
10
135.9555589999999938
20
-63.9813019999999995
11
136.2975779999999872
21
-64.1125909999999948
0
LINE
8
BLACK
6
CONTINUOUS
10
136.2975779999999872
20
-64.1125909999999948
11
136.6239999999999952
21
-64.2789109999999937
0
LINE
8
BLACK
6
CONTINUOUS
10
136.6239999999999952
20
-64.2789109999999937
11
136.9312479999999823
21
-64.4784410000000037
0
LINE
8
BLACK
6
CONTINUOUS
10
136.9312479999999823
20
-64.4784410000000037
11
137.2159570000000031
21
-64.7089929999999924
0
LINE
8
BLACK
6
CONTINUOUS
10
137.2159570000000031
20
-64.7089929999999924
11
137.4750070000000051
21
-64.9680429999999944
0
LINE
8
BLACK
6
CONTINUOUS
10
137.4750070000000051
20
-64.9680429999999944
11
137.7055589999999938
21
-65.252752000000001
0
LINE
8
BLACK
6
CONTINUOUS
10
137.7055589999999938
20
-65.252752000000001
11
137.9050890000000038
21
-65.5600000000000023
0
LINE
8
BLACK
6
CONTINUOUS
10
137.9050890000000038
20
-65.5600000000000023
11
138.0714089999999885
21
-65.886421999999996
0
LINE
8
BLACK
6
CONTINUOUS
10
138.0714089999999885
20
-65.886421999999996
11
138.202697999999998
21
-66.2284410000000037
0
LINE
8
BLACK
6
CONTINUOUS
10
138.202697999999998
20
-66.2284410000000037
11
138.2975169999999991
21
-66.5823089999999951
0
LINE
8
BLACK
6
CONTINUOUS
10
138.2975169999999991
20
-66.5823089999999951
11
138.3548270000000002
21
-66.9441499999999934
0
LINE
8
BLACK
6
CONTINUOUS
10
138.3548270000000002
20
-66.9441499999999934
11
138.3739999999999952
21
-67.3100000000000023
0
LINE
8
BLACK
6
CONTINUOUS
10
138.3739999999999952
20
-67.3100000000000023
11
138.3548270000000002
21
-67.675849999999997
0
LINE
8
BLACK
6
CONTINUOUS
10
138.3548270000000002
20
-67.675849999999997
11
138.2975169999999991
21
-68.0376909999999953
0
LINE
8
BLACK
6
CONTINUOUS
10
138.2975169999999991
20
-68.0376909999999953
11
138.202697999999998
21
-68.3915590000000009
0
LINE
8
BLACK
6
CONTINUOUS
10
138.202697999999998
20
-68.3915590000000009
11
138.0714089999999885
21
-68.7335779999999943
0
LINE
8
BLACK
6
CONTINUOUS
10
138.0714089999999885
20
-68.7335779999999943
11
137.9050890000000038
21
-69.0600000000000023
0
LINE
8
BLACK
6
CONTINUOUS
10
137.9050890000000038
20
-69.0600000000000023
11
137.7055589999999938
21
-69.3672480000000036
0
LINE
8
BLACK
6
CONTINUOUS
10
137.7055589999999938
20
-69.3672480000000036
11
137.4750070000000051
21
-69.6519569999999959
0
LINE
8
BLACK
6
CONTINUOUS
10
137.4750070000000051
20
-69.6519569999999959
11
137.2159570000000031
21
-69.9110069999999979
0
LINE
8
BLACK
6
CONTINUOUS
10
137.2159570000000031
20
-69.9110069999999979
11
136.9312479999999823
21
-70.1415590000000009
0
LINE
8
BLACK
6
CONTINUOUS
10
136.9312479999999823
20
-70.1415590000000009
11
136.6239999999999952
21
-70.3410889999999966
0
LINE
8
BLACK
6
CONTINUOUS
10
136.6239999999999952
20
-70.3410889999999966
11
136.2975779999999872
21
-70.5074089999999956
0
LINE
8
BLACK
6
CONTINUOUS
10
136.2975779999999872
20
-70.5074089999999956
11
135.9555589999999938
21
-70.6386979999999909
0
LINE
8
BLACK
6
CONTINUOUS
10
135.9555589999999938
20
-70.6386979999999909
11
135.6016909999999882
21
-70.733516999999992
0
LINE
8
BLACK
6
CONTINUOUS
10
135.6016909999999882
20
-70.733516999999992
11
135.2398499999999899
21
-70.7908269999999931
0
LINE
8
BLACK
6
CONTINUOUS
10
135.2398499999999899
20
-70.7908269999999931
11
134.8739999999999952
21
-70.8100000000000023
0
LINE
8
BLACK
6
CONTINUOUS
10
134.8739999999999952
20
-70.8100000000000023
11
134.5081500000000005
21
-70.7908269999999931
0
LINE
8
BLACK
6
CONTINUOUS
10
134.5081500000000005
20
-70.7908269999999931
11
134.1463090000000022
21
-70.733516999999992
0
LINE
8
BLACK
6
CONTINUOUS
10
134.1463090000000022
20
-70.733516999999992
11
133.7924409999999966
21
-70.6386979999999909
0
LINE
8
BLACK
6
CONTINUOUS
10
133.7924409999999966
20
-70.6386979999999909
11
133.4504220000000032
21
-70.5074089999999956
0
LINE
8
BLACK
6
CONTINUOUS
10
133.4504220000000032
20
-70.5074089999999956
11
133.1239999999999952
21
-70.3410889999999966
0
LINE
8
BLACK
6
CONTINUOUS
10
133.1239999999999952
20
-70.3410889999999966
11
132.8167520000000081
21
-70.1415590000000009
0
LINE
8
BLACK
6
CONTINUOUS
10
132.8167520000000081
20
-70.1415590000000009
11
132.5320429999999874
21
-69.9110069999999979
0
LINE
8
BLACK
6
CONTINUOUS
10
132.5320429999999874
20
-69.9110069999999979
11
132.2729929999999854
21
-69.6519569999999959
0
LINE
8
BLACK
6
CONTINUOUS
10
132.2729929999999854
20
-69.6519569999999959
11
132.0424409999999966
21
-69.3672480000000036
0
LINE
8
BLACK
6
CONTINUOUS
10
132.0424409999999966
20
-69.3672480000000036
11
131.8429109999999866
21
-69.0600000000000023
0
LINE
8
BLACK
6
CONTINUOUS
10
131.8429109999999866
20
-69.0600000000000023
11
131.6765910000000019
21
-68.7335779999999943
0
LINE
8
BLACK
6
CONTINUOUS
10
131.6765910000000019
20
-68.7335779999999943
11
131.5453019999999924
21
-68.3915590000000009
0
LINE
8
BLACK
6
CONTINUOUS
10
131.5453019999999924
20
-68.3915590000000009
11
131.4504829999999913
21
-68.0376909999999953
0
LINE
8
BLACK
6
CONTINUOUS
10
131.4504829999999913
20
-68.0376909999999953
11
131.3931729999999902
21
-67.675849999999997
0
LINE
8
BLACK
6
CONTINUOUS
10
131.3931729999999902
20
-67.675849999999997
11
131.3739999999999952
21
-67.3100000000000023
0
LINE
8
BLACK
6
CONTINUOUS
10
131.3739999999999952
20
-67.3100000000000023
11
131.3931729999999902
21
-66.9441499999999934
0
LINE
8
BLACK
6
CONTINUOUS
10
131.3931729999999902
20
-66.9441499999999934
11
131.4504829999999913
21
-66.5823089999999951
0
LINE
8
BLACK
6
CONTINUOUS
10
131.4504829999999913
20
-66.5823089999999951
11
131.5453019999999924
21
-66.2284410000000037
0
LINE
8
BLACK
6
CONTINUOUS
10
131.5453019999999924
20
-66.2284410000000037
11
131.6765910000000019
21
-65.886421999999996
0
LINE
8
BLACK
6
CONTINUOUS
10
131.6765910000000019
20
-65.886421999999996
11
131.8429109999999866
21
-65.5600000000000023
0
LINE
8
BLACK
6
CONTINUOUS
10
131.8429109999999866
20
-65.5600000000000023
11
132.0424409999999966
21
-65.252752000000001
0
LINE
8
BLACK
6
CONTINUOUS
10
132.0424409999999966
20
-65.252752000000001
11
132.2729929999999854
21
-64.9680429999999944
0
LINE
8
BLACK
6
CONTINUOUS
10
132.2729929999999854
20
-64.9680429999999944
11
132.5320429999999874
21
-64.7089929999999924
0
LINE
8
BLACK
6
CONTINUOUS
10
132.5320429999999874
20
-64.7089929999999924
11
132.8167520000000081
21
-64.4784410000000037
0
LINE
8
BLACK
6
CONTINUOUS
10
132.8167520000000081
20
-64.4784410000000037
11
133.1239999999999952
21
-64.2789109999999937
0
LINE
8
BLACK
6
CONTINUOUS
10
133.1239999999999952
20
-64.2789109999999937
11
133.4504220000000032
21
-64.1125909999999948
0
LINE
8
BLACK
6
CONTINUOUS
10
133.4504220000000032
20
-64.1125909999999948
11
133.7924409999999966
21
-63.9813019999999995
0
LINE
8
BLACK
6
CONTINUOUS
10
133.7924409999999966
20
-63.9813019999999995
11
134.1463090000000022
21
-63.8864829999999984
0
LINE
8
BLACK
6
CONTINUOUS
10
134.1463090000000022
20
-63.8864829999999984
11
134.5081500000000005
21
-63.8291729999999973
0
LINE
8
BLACK
6
CONTINUOUS
10
134.5081500000000005
20
-63.8291729999999973
11
134.8739999999999952
21
-63.8099999999999952
0
LINE
8
BLACK
6
CONTINUOUS
10
134.8739999999999952
20
-63.8099999999999952
11
135.2398499999999899
21
-63.8291729999999973
0
LINE
8
BLACK
6
CONTINUOUS
10
164.4498499999999979
20
-63.8291729999999973
11
164.8116909999999962
21
-63.8864829999999984
0
LINE
8
BLACK
6
CONTINUOUS
10
164.8116909999999962
20
-63.8864829999999984
11
165.1655590000000018
21
-63.9813019999999995
0
LINE
8
BLACK
6
CONTINUOUS
10
165.1655590000000018
20
-63.9813019999999995
11
165.5075779999999952
21
-64.1125909999999948
0
LINE
8
BLACK
6
CONTINUOUS
10
165.5075779999999952
20
-64.1125909999999948
11
165.8340000000000032
21
-64.2789109999999937
0
LINE
8
BLACK
6
CONTINUOUS
10
165.8340000000000032
20
-64.2789109999999937
11
166.1412479999999903
21
-64.4784410000000037
0
LINE
8
BLACK
6
CONTINUOUS
10
166.1412479999999903
20
-64.4784410000000037
11
166.4259569999999826
21
-64.7089929999999924
0
LINE
8
BLACK
6
CONTINUOUS
10
166.4259569999999826
20
-64.7089929999999924
11
166.6850069999999846
21
-64.9680429999999944
0
LINE
8
BLACK
6
CONTINUOUS
10
166.6850069999999846
20
-64.9680429999999944
11
166.9155590000000018
21
-65.252752000000001
0
LINE
8
BLACK
6
CONTINUOUS
10
166.9155590000000018
20
-65.252752000000001
11
167.1150889999999833
21
-65.5600000000000023
0
LINE
8
BLACK
6
CONTINUOUS
10
167.1150889999999833
20
-65.5600000000000023
11
167.2814089999999965
21
-65.886421999999996
0
LINE
8
BLACK
6
CONTINUOUS
10
167.2814089999999965
20
-65.886421999999996
11
167.412698000000006
21
-66.2284410000000037
0
LINE
8
BLACK
6
CONTINUOUS
10
167.412698000000006
20
-66.2284410000000037
11
167.5075169999999787
21
-66.5823089999999951
0
LINE
8
BLACK
6
CONTINUOUS
10
167.5075169999999787
20
-66.5823089999999951
11
167.5648269999999798
21
-66.9441499999999934
0
LINE
8
BLACK
6
CONTINUOUS
10
167.5648269999999798
20
-66.9441499999999934
11
167.5840000000000032
21
-67.3100000000000023
0
LINE
8
BLACK
6
CONTINUOUS
10
167.5840000000000032
20
-67.3100000000000023
11
167.5648269999999798
21
-67.675849999999997
0
LINE
8
BLACK
6
CONTINUOUS
10
167.5648269999999798
20
-67.675849999999997
11
167.5075169999999787
21
-68.0376909999999953
0
LINE
8
BLACK
6
CONTINUOUS
10
167.5075169999999787
20
-68.0376909999999953
11
167.412698000000006
21
-68.3915590000000009
0
LINE
8
BLACK
6
CONTINUOUS
10
167.412698000000006
20
-68.3915590000000009
11
167.2814089999999965
21
-68.7335779999999943
0
LINE
8
BLACK
6
CONTINUOUS
10
167.2814089999999965
20
-68.7335779999999943
11
167.1150889999999833
21
-69.0600000000000023
0
LINE
8
BLACK
6
CONTINUOUS
10
167.1150889999999833
20
-69.0600000000000023
11
166.9155590000000018
21
-69.3672480000000036
0
LINE
8
BLACK
6
CONTINUOUS
10
166.9155590000000018
20
-69.3672480000000036
11
166.6850069999999846
21
-69.6519569999999959
0
LINE
8
BLACK
6
CONTINUOUS
10
166.6850069999999846
20
-69.6519569999999959
11
166.4259569999999826
21
-69.9110069999999979
0
LINE
8
BLACK
6
CONTINUOUS
10
166.4259569999999826
20
-69.9110069999999979
11
166.1412479999999903
21
-70.1415590000000009
0
LINE
8
BLACK
6
CONTINUOUS
10
166.1412479999999903
20
-70.1415590000000009
11
165.8340000000000032
21
-70.3410889999999966
0
LINE
8
BLACK
6
CONTINUOUS
10
165.8340000000000032
20
-70.3410889999999966
11
165.5075779999999952
21
-70.5074089999999956
0
LINE
8
BLACK
6
CONTINUOUS
10
165.5075779999999952
20
-70.5074089999999956
11
165.1655590000000018
21
-70.6386979999999909
0
LINE
8
BLACK
6
CONTINUOUS
10
165.1655590000000018
20
-70.6386979999999909
11
164.8116909999999962
21
-70.733516999999992
0
LINE
8
BLACK
6
CONTINUOUS
10
164.8116909999999962
20
-70.733516999999992
11
164.4498499999999979
21
-70.7908269999999931
0
LINE
8
BLACK
6
CONTINUOUS
10
164.4498499999999979
20
-70.7908269999999931
11
164.0840000000000032
21
-70.8100000000000023
0
LINE
8
BLACK
6
CONTINUOUS
10
164.0840000000000032
20
-70.8100000000000023
11
163.7181499999999801
21
-70.7908269999999931
0
LINE
8
BLACK
6
CONTINUOUS
10
163.7181499999999801
20
-70.7908269999999931
11
163.3563089999999818
21
-70.733516999999992
0
LINE
8
BLACK
6
CONTINUOUS
10
163.3563089999999818
20
-70.733516999999992
11
163.0024410000000046
21
-70.6386979999999909
0
LINE
8
BLACK
6
CONTINUOUS
10
163.0024410000000046
20
-70.6386979999999909
11
162.6604219999999827
21
-70.5074089999999956
0
LINE
8
BLACK
6
CONTINUOUS
10
162.6604219999999827
20
-70.5074089999999956
11
162.3340000000000032
21
-70.3410889999999966
0
LINE
8
BLACK
6
CONTINUOUS
10
162.3340000000000032
20
-70.3410889999999966
11
162.0267519999999877
21
-70.1415590000000009
0
LINE
8
BLACK
6
CONTINUOUS
10
162.0267519999999877
20
-70.1415590000000009
11
161.7420429999999953
21
-69.9110069999999979
0
LINE
8
BLACK
6
CONTINUOUS
10
161.7420429999999953
20
-69.9110069999999979
11
161.4829929999999933
21
-69.6519569999999959
0
LINE
8
BLACK
6
CONTINUOUS
10
161.4829929999999933
20
-69.6519569999999959
11
161.2524410000000046
21
-69.3672480000000036
0
LINE
8
BLACK
6
CONTINUOUS
10
161.2524410000000046
20
-69.3672480000000036
11
161.0529109999999946
21
-69.0600000000000023
0
LINE
8
BLACK
6
CONTINUOUS
10
161.0529109999999946
20
-69.0600000000000023
11
160.8865909999999815
21
-68.7335779999999943
0
LINE
8
BLACK
6
CONTINUOUS
10
160.8865909999999815
20
-68.7335779999999943
11
160.7553020000000004
21
-68.3915590000000009
0
LINE
8
BLACK
6
CONTINUOUS
10
160.7553020000000004
20
-68.3915590000000009
11
160.6604829999999993
21
-68.0376909999999953
0
LINE
8
BLACK
6
CONTINUOUS
10
160.6604829999999993
20
-68.0376909999999953
11
160.6031729999999982
21
-67.675849999999997
0
LINE
8
BLACK
6
CONTINUOUS
10
160.6031729999999982
20
-67.675849999999997
11
160.5840000000000032
21
-67.3100000000000023
0
LINE
8
BLACK
6
CONTINUOUS
10
160.5840000000000032
20
-67.3100000000000023
11
160.6031729999999982
21
-66.9441499999999934
0
LINE
8
BLACK
6
CONTINUOUS
10
160.6031729999999982
20
-66.9441499999999934
11
160.6604829999999993
21
-66.5823089999999951
0
LINE
8
BLACK
6
CONTINUOUS
10
160.6604829999999993
20
-66.5823089999999951
11
160.7553020000000004
21
-66.2284410000000037
0
LINE
8
BLACK
6
CONTINUOUS
10
160.7553020000000004
20
-66.2284410000000037
11
160.8865909999999815
21
-65.886421999999996
0
LINE
8
BLACK
6
CONTINUOUS
10
160.8865909999999815
20
-65.886421999999996
11
161.0529109999999946
21
-65.5600000000000023
0
LINE
8
BLACK
6
CONTINUOUS
10
161.0529109999999946
20
-65.5600000000000023
11
161.2524410000000046
21
-65.252752000000001
0
LINE
8
BLACK
6
CONTINUOUS
10
161.2524410000000046
20
-65.252752000000001
11
161.4829929999999933
21
-64.9680429999999944
0
LINE
8
BLACK
6
CONTINUOUS
10
161.4829929999999933
20
-64.9680429999999944
11
161.7420429999999953
21
-64.7089929999999924
0
LINE
8
BLACK
6
CONTINUOUS
10
161.7420429999999953
20
-64.7089929999999924
11
162.0267519999999877
21
-64.4784410000000037
0
LINE
8
BLACK
6
CONTINUOUS
10
162.0267519999999877
20
-64.4784410000000037
11
162.3340000000000032
21
-64.2789109999999937
0
LINE
8
BLACK
6
CONTINUOUS
10
162.3340000000000032
20
-64.2789109999999937
11
162.6604219999999827
21
-64.1125909999999948
0
LINE
8
BLACK
6
CONTINUOUS
10
162.6604219999999827
20
-64.1125909999999948
11
163.0024410000000046
21
-63.9813019999999995
0
LINE
8
BLACK
6
CONTINUOUS
10
163.0024410000000046
20
-63.9813019999999995
11
163.3563089999999818
21
-63.8864829999999984
0
LINE
8
BLACK
6
CONTINUOUS
10
163.3563089999999818
20
-63.8864829999999984
11
163.7181499999999801
21
-63.8291729999999973
0
LINE
8
BLACK
6
CONTINUOUS
10
163.7181499999999801
20
-63.8291729999999973
11
164.0840000000000032
21
-63.8099999999999952
0
LINE
8
BLACK
6
CONTINUOUS
10
164.0840000000000032
20
-63.8099999999999952
11
164.4498499999999979
21
-63.8291729999999973
0
LINE
8
BLACK
6
CONTINUOUS
10
127.7582949999999897
20
-56.839698999999996
11
128.0024269999999831
21
-56.8983099999999951
0
LINE
8
BLACK
6
CONTINUOUS
10
128.0024269999999831
20
-56.8983099999999951
11
128.2343850000000032
21
-56.9943899999999957
0
LINE
8
BLACK
6
CONTINUOUS
10
128.2343850000000032
20
-56.9943899999999957
11
128.4484559999999931
21
-57.1255729999999957
0
LINE
8
BLACK
6
CONTINUOUS
10
128.4484559999999931
20
-57.1255729999999957
11
128.6393709999999828
21
-57.2886290000000002
0
LINE
8
BLACK
6
CONTINUOUS
10
128.6393709999999828
20
-57.2886290000000002
11
128.8024269999999945
21
-57.4795439999999971
0
LINE
8
BLACK
6
CONTINUOUS
10
128.8024269999999945
20
-57.4795439999999971
11
128.9336099999999874
21
-57.6936149999999941
0
LINE
8
BLACK
6
CONTINUOUS
10
128.9336099999999874
20
-57.6936149999999941
11
129.029689999999988
21
-57.925573
0
LINE
8
BLACK
6
CONTINUOUS
10
129.029689999999988
20
-57.925573
11
129.0883010000000013
21
-58.1697050000000004
0
LINE
8
BLACK
6
CONTINUOUS
10
129.0883010000000013
20
-58.1697050000000004
11
129.1080000000000041
21
-58.4199999999999946
0
LINE
8
BLACK
6
CONTINUOUS
10
129.1080000000000041
20
-58.4199999999999946
11
129.0883010000000013
21
-58.6702949999999959
0
LINE
8
BLACK
6
CONTINUOUS
10
129.0883010000000013
20
-58.6702949999999959
11
129.029689999999988
21
-58.9144269999999963
0
LINE
8
BLACK
6
CONTINUOUS
10
129.029689999999988
20
-58.9144269999999963
11
128.9336099999999874
21
-59.1463849999999951
0
LINE
8
BLACK
6
CONTINUOUS
10
128.9336099999999874
20
-59.1463849999999951
11
128.8024269999999945
21
-59.3604559999999992
0
LINE
8
BLACK
6
CONTINUOUS
10
128.8024269999999945
20
-59.3604559999999992
11
128.6393709999999828
21
-59.5513709999999961
0
LINE
8
BLACK
6
CONTINUOUS
10
128.6393709999999828
20
-59.5513709999999961
11
128.4484559999999931
21
-59.7144270000000006
0
LINE
8
BLACK
6
CONTINUOUS
10
128.4484559999999931
20
-59.7144270000000006
11
128.2343850000000032
21
-59.8456100000000006
0
LINE
8
BLACK
6
CONTINUOUS
10
128.2343850000000032
20
-59.8456100000000006
11
128.0024269999999831
21
-59.9416899999999941
0
LINE
8
BLACK
6
CONTINUOUS
10
128.0024269999999831
20
-59.9416899999999941
11
127.7582949999999897
21
-60.0003010000000003
0
LINE
8
BLACK
6
CONTINUOUS
10
127.7582949999999897
20
-60.0003010000000003
11
127.5079999999999956
21
-60.019999999999996
0
LINE
8
BLACK
6
CONTINUOUS
10
127.5079999999999956
20
-60.019999999999996
11
127.2577049999999872
21
-60.0003010000000003
0
LINE
8
BLACK
6
CONTINUOUS
10
127.2577049999999872
20
-60.0003010000000003
11
127.0135729999999938
21
-59.9416899999999941
0
LINE
8
BLACK
6
CONTINUOUS
10
127.0135729999999938
20
-59.9416899999999941
11
126.781614999999988
21
-59.8456100000000006
0
LINE
8
BLACK
6
CONTINUOUS
10
126.781614999999988
20
-59.8456100000000006
11
126.5675439999999981
21
-59.7144270000000006
0
LINE
8
BLACK
6
CONTINUOUS
10
126.5675439999999981
20
-59.7144270000000006
11
126.3766289999999941
21
-59.5513709999999961
0
LINE
8
BLACK
6
CONTINUOUS
10
126.3766289999999941
20
-59.5513709999999961
11
126.2135729999999967
21
-59.3604559999999992
0
LINE
8
BLACK
6
CONTINUOUS
10
126.2135729999999967
20
-59.3604559999999992
11
126.0823899999999895
21
-59.1463849999999951
0
LINE
8
BLACK
6
CONTINUOUS
10
126.0823899999999895
20
-59.1463849999999951
11
125.9863099999999889
21
-58.9144269999999963
0
LINE
8
BLACK
6
CONTINUOUS
10
125.9863099999999889
20
-58.9144269999999963
11
125.9276989999999898
21
-58.6702949999999959
0
LINE
8
BLACK
6
CONTINUOUS
10
125.9276989999999898
20
-58.6702949999999959
11
125.9080000000000013
21
-58.4199999999999946
0
LINE
8
BLACK
6
CONTINUOUS
10
125.9080000000000013
20
-58.4199999999999946
11
125.9276989999999898
21
-58.1697050000000004
0
LINE
8
BLACK
6
CONTINUOUS
10
125.9276989999999898
20
-58.1697050000000004
11
125.9863099999999889
21
-57.925573
0
LINE
8
BLACK
6
CONTINUOUS
10
125.9863099999999889
20
-57.925573
11
126.0823899999999895
21
-57.6936149999999941
0
LINE
8
BLACK
6
CONTINUOUS
10
126.0823899999999895
20
-57.6936149999999941
11
126.2135729999999967
21
-57.4795439999999971
0
LINE
8
BLACK
6
CONTINUOUS
10
126.2135729999999967
20
-57.4795439999999971
11
126.3766289999999941
21
-57.2886290000000002
0
LINE
8
BLACK
6
CONTINUOUS
10
126.3766289999999941
20
-57.2886290000000002
11
126.5675439999999981
21
-57.1255729999999957
0
LINE
8
BLACK
6
CONTINUOUS
10
126.5675439999999981
20
-57.1255729999999957
11
126.781614999999988
21
-56.9943899999999957
0
LINE
8
BLACK
6
CONTINUOUS
10
126.781614999999988
20
-56.9943899999999957
11
127.0135729999999938
21
-56.8983099999999951
0
LINE
8
BLACK
6
CONTINUOUS
10
127.0135729999999938
20
-56.8983099999999951
11
127.2577049999999872
21
-56.839698999999996
0
LINE
8
BLACK
6
CONTINUOUS
10
127.2577049999999872
20
-56.839698999999996
11
127.5079999999999956
21
-56.8200000000000003
0
LINE
8
BLACK
6
CONTINUOUS
10
127.5079999999999956
20
-56.8200000000000003
11
127.7582949999999897
21
-56.839698999999996
0
LINE
8
BLACK
6
CONTINUOUS
10
171.7002949999999828
20
-56.839698999999996
11
171.9444269999999904
21
-56.8983099999999951
0
LINE
8
BLACK
6
CONTINUOUS
10
171.9444269999999904
20
-56.8983099999999951
11
172.176384999999982
21
-56.9943899999999957
0
LINE
8
BLACK
6
CONTINUOUS
10
172.176384999999982
20
-56.9943899999999957
11
172.3904560000000004
21
-57.1255729999999957
0
LINE
8
BLACK
6
CONTINUOUS
10
172.3904560000000004
20
-57.1255729999999957
11
172.5813709999999901
21
-57.2886290000000002
0
LINE
8
BLACK
6
CONTINUOUS
10
172.5813709999999901
20
-57.2886290000000002
11
172.7444270000000017
21
-57.4795439999999971
0
LINE
8
BLACK
6
CONTINUOUS
10
172.7444270000000017
20
-57.4795439999999971
11
172.8756099999999947
21
-57.6936149999999941
0
LINE
8
BLACK
6
CONTINUOUS
10
172.8756099999999947
20
-57.6936149999999941
11
172.9716899999999953
21
-57.925573
0
LINE
8
BLACK
6
CONTINUOUS
10
172.9716899999999953
20
-57.925573
11
173.0303009999999801
21
-58.1697050000000004
0
LINE
8
BLACK
6
CONTINUOUS
10
173.0303009999999801
20
-58.1697050000000004
11
173.0499999999999829
21
-58.4199999999999946
0
LINE
8
BLACK
6
CONTINUOUS
10
173.0499999999999829
20
-58.4199999999999946
11
173.0303009999999801
21
-58.6702949999999959
0
LINE
8
BLACK
6
CONTINUOUS
10
173.0303009999999801
20
-58.6702949999999959
11
172.9716899999999953
21
-58.9144269999999963
0
LINE
8
BLACK
6
CONTINUOUS
10
172.9716899999999953
20
-58.9144269999999963
11
172.8756099999999947
21
-59.1463849999999951
0
LINE
8
BLACK
6
CONTINUOUS
10
172.8756099999999947
20
-59.1463849999999951
11
172.7444270000000017
21
-59.3604559999999992
0
LINE
8
BLACK
6
CONTINUOUS
10
172.7444270000000017
20
-59.3604559999999992
11
172.5813709999999901
21
-59.5513709999999961
0
LINE
8
BLACK
6
CONTINUOUS
10
172.5813709999999901
20
-59.5513709999999961
11
172.3904560000000004
21
-59.7144270000000006
0
LINE
8
BLACK
6
CONTINUOUS
10
172.3904560000000004
20
-59.7144270000000006
11
172.176384999999982
21
-59.8456100000000006
0
LINE
8
BLACK
6
CONTINUOUS
10
172.176384999999982
20
-59.8456100000000006
11
171.9444269999999904
21
-59.9416899999999941
0
LINE
8
BLACK
6
CONTINUOUS
10
171.9444269999999904
20
-59.9416899999999941
11
171.7002949999999828
21
-60.0003010000000003
0
LINE
8
BLACK
6
CONTINUOUS
10
171.7002949999999828
20
-60.0003010000000003
11
171.4499999999999886
21
-60.019999999999996
0
LINE
8
BLACK
6
CONTINUOUS
10
171.4499999999999886
20
-60.019999999999996
11
171.1997049999999945
21
-60.0003010000000003
0
LINE
8
BLACK
6
CONTINUOUS
10
171.1997049999999945
20
-60.0003010000000003
11
170.9555729999999869
21
-59.9416899999999941
0
LINE
8
BLACK
6
CONTINUOUS
10
170.9555729999999869
20
-59.9416899999999941
11
170.7236149999999952
21
-59.8456100000000006
0
LINE
8
BLACK
6
CONTINUOUS
10
170.7236149999999952
20
-59.8456100000000006
11
170.5095440000000053
21
-59.7144270000000006
0
LINE
8
BLACK
6
CONTINUOUS
10
170.5095440000000053
20
-59.7144270000000006
11
170.3186289999999872
21
-59.5513709999999961
0
LINE
8
BLACK
6
CONTINUOUS
10
170.3186289999999872
20
-59.5513709999999961
11
170.155573000000004
21
-59.3604559999999992
0
LINE
8
BLACK
6
CONTINUOUS
10
170.155573000000004
20
-59.3604559999999992
11
170.0243899999999826
21
-59.1463849999999951
0
LINE
8
BLACK
6
CONTINUOUS
10
170.0243899999999826
20
-59.1463849999999951
11
169.928309999999982
21
-58.9144269999999963
0
LINE
8
BLACK
6
CONTINUOUS
10
169.928309999999982
20
-58.9144269999999963
11
169.8696989999999971
21
-58.6702949999999959
0
LINE
8
BLACK
6
CONTINUOUS
10
169.8696989999999971
20
-58.6702949999999959
11
169.8499999999999943
21
-58.4199999999999946
0
LINE
8
BLACK
6
CONTINUOUS
10
169.8499999999999943
20
-58.4199999999999946
11
169.8696989999999971
21
-58.1697050000000004
0
LINE
8
BLACK
6
CONTINUOUS
10
169.8696989999999971
20
-58.1697050000000004
11
169.928309999999982
21
-57.925573
0
LINE
8
BLACK
6
CONTINUOUS
10
169.928309999999982
20
-57.925573
11
170.0243899999999826
21
-57.6936149999999941
0
LINE
8
BLACK
6
CONTINUOUS
10
170.0243899999999826
20
-57.6936149999999941
11
170.155573000000004
21
-57.4795439999999971
0
LINE
8
BLACK
6
CONTINUOUS
10
170.155573000000004
20
-57.4795439999999971
11
170.3186289999999872
21
-57.2886290000000002
0
LINE
8
BLACK
6
CONTINUOUS
10
170.3186289999999872
20
-57.2886290000000002
11
170.5095440000000053
21
-57.1255729999999957
0
LINE
8
BLACK
6
CONTINUOUS
10
170.5095440000000053
20
-57.1255729999999957
11
170.7236149999999952
21
-56.9943899999999957
0
LINE
8
BLACK
6
CONTINUOUS
10
170.7236149999999952
20
-56.9943899999999957
11
170.9555729999999869
21
-56.8983099999999951
0
LINE
8
BLACK
6
CONTINUOUS
10
170.9555729999999869
20
-56.8983099999999951
11
171.1997049999999945
21
-56.839698999999996
0
LINE
8
BLACK
6
CONTINUOUS
10
171.1997049999999945
20
-56.839698999999996
11
171.4499999999999886
21
-56.8200000000000003
0
LINE
8
BLACK
6
CONTINUOUS
10
171.4499999999999886
20
-56.8200000000000003
11
171.7002949999999828
21
-56.839698999999996
0
LINE
8
BLACK
6
CONTINUOUS
10
149.7178499999999985
20
-51.8911729999999949
11
150.0796909999999968
21
-51.948482999999996
0
LINE
8
BLACK
6
CONTINUOUS
10
150.0796909999999968
20
-51.948482999999996
11
150.4335590000000025
21
-52.0433019999999971
0
LINE
8
BLACK
6
CONTINUOUS
10
150.4335590000000025
20
-52.0433019999999971
11
150.7755779999999959
21
-52.1745909999999995
0
LINE
8
BLACK
6
CONTINUOUS
10
150.7755779999999959
20
-52.1745909999999995
11
151.1020000000000039
21
-52.3409109999999984
0
LINE
8
BLACK
6
CONTINUOUS
10
151.1020000000000039
20
-52.3409109999999984
11
151.409247999999991
21
-52.5404409999999942
0
LINE
8
BLACK
6
CONTINUOUS
10
151.409247999999991
20
-52.5404409999999942
11
151.6939569999999833
21
-52.7709929999999972
0
LINE
8
BLACK
6
CONTINUOUS
10
151.6939569999999833
20
-52.7709929999999972
11
151.9530069999999853
21
-53.0300429999999992
0
LINE
8
BLACK
6
CONTINUOUS
10
151.9530069999999853
20
-53.0300429999999992
11
152.1835590000000025
21
-53.3147519999999986
0
LINE
8
BLACK
6
CONTINUOUS
10
152.1835590000000025
20
-53.3147519999999986
11
152.383088999999984
21
-53.6219999999999999
0
LINE
8
BLACK
6
CONTINUOUS
10
152.383088999999984
20
-53.6219999999999999
11
152.5494089999999971
21
-53.9484220000000008
0
LINE
8
BLACK
6
CONTINUOUS
10
152.5494089999999971
20
-53.9484220000000008
11
152.6806980000000067
21
-54.2904409999999942
0
LINE
8
BLACK
6
CONTINUOUS
10
152.6806980000000067
20
-54.2904409999999942
11
152.7755169999999794
21
-54.6443089999999998
0
LINE
8
BLACK
6
CONTINUOUS
10
152.7755169999999794
20
-54.6443089999999998
11
152.8328269999999804
21
-55.0061499999999981
0
LINE
8
BLACK
6
CONTINUOUS
10
152.8328269999999804
20
-55.0061499999999981
11
152.8520000000000039
21
-55.3719999999999999
0
LINE
8
BLACK
6
CONTINUOUS
10
152.8520000000000039
20
-55.3719999999999999
11
152.8328269999999804
21
-55.7378499999999946
0
LINE
8
BLACK
6
CONTINUOUS
10
152.8328269999999804
20
-55.7378499999999946
11
152.7755169999999794
21
-56.099691
0
LINE
8
BLACK
6
CONTINUOUS
10
152.7755169999999794
20
-56.099691
11
152.6806980000000067
21
-56.4535589999999985
0
LINE
8
BLACK
6
CONTINUOUS
10
152.6806980000000067
20
-56.4535589999999985
11
152.5494089999999971
21
-56.795577999999999
0
LINE
8
BLACK
6
CONTINUOUS
10
152.5494089999999971
20
-56.795577999999999
11
152.383088999999984
21
-57.1219999999999999
0
LINE
8
BLACK
6
CONTINUOUS
10
152.383088999999984
20
-57.1219999999999999
11
152.1835590000000025
21
-57.4292479999999941
0
LINE
8
BLACK
6
CONTINUOUS
10
152.1835590000000025
20
-57.4292479999999941
11
151.9530069999999853
21
-57.7139570000000006
0
LINE
8
BLACK
6
CONTINUOUS
10
151.9530069999999853
20
-57.7139570000000006
11
151.6939569999999833
21
-57.9730069999999955
0
LINE
8
BLACK
6
CONTINUOUS
10
151.6939569999999833
20
-57.9730069999999955
11
151.409247999999991
21
-58.2035589999999985
0
LINE
8
BLACK
6
CONTINUOUS
10
151.409247999999991
20
-58.2035589999999985
11
151.1020000000000039
21
-58.4030889999999943
0
LINE
8
BLACK
6
CONTINUOUS
10
151.1020000000000039
20
-58.4030889999999943
11
150.7755779999999959
21
-58.5694090000000003
0
LINE
8
BLACK
6
CONTINUOUS
10
150.7755779999999959
20
-58.5694090000000003
11
150.4335590000000025
21
-58.7006979999999956
0
LINE
8
BLACK
6
CONTINUOUS
10
150.4335590000000025
20
-58.7006979999999956
11
150.0796909999999968
21
-58.7955169999999967
0
LINE
8
BLACK
6
CONTINUOUS
10
150.0796909999999968
20
-58.7955169999999967
11
149.7178499999999985
21
-58.8528269999999978
0
LINE
8
BLACK
6
CONTINUOUS
10
149.7178499999999985
20
-58.8528269999999978
11
149.3520000000000039
21
-58.8719999999999999
0
LINE
8
BLACK
6
CONTINUOUS
10
149.3520000000000039
20
-58.8719999999999999
11
148.9861499999999808
21
-58.8528269999999978
0
LINE
8
BLACK
6
CONTINUOUS
10
148.9861499999999808
20
-58.8528269999999978
11
148.6243089999999825
21
-58.7955169999999967
0
LINE
8
BLACK
6
CONTINUOUS
10
148.6243089999999825
20
-58.7955169999999967
11
148.2704410000000053
21
-58.7006979999999956
0
LINE
8
BLACK
6
CONTINUOUS
10
148.2704410000000053
20
-58.7006979999999956
11
147.9284219999999834
21
-58.5694090000000003
0
LINE
8
BLACK
6
CONTINUOUS
10
147.9284219999999834
20
-58.5694090000000003
11
147.6020000000000039
21
-58.4030889999999943
0
LINE
8
BLACK
6
CONTINUOUS
10
147.6020000000000039
20
-58.4030889999999943
11
147.2947519999999884
21
-58.2035589999999985
0
LINE
8
BLACK
6
CONTINUOUS
10
147.2947519999999884
20
-58.2035589999999985
11
147.010042999999996
21
-57.9730069999999955
0
LINE
8
BLACK
6
CONTINUOUS
10
147.010042999999996
20
-57.9730069999999955
11
146.750992999999994
21
-57.7139570000000006
0
LINE
8
BLACK
6
CONTINUOUS
10
146.750992999999994
20
-57.7139570000000006
11
146.5204410000000053
21
-57.4292479999999941
0
LINE
8
BLACK
6
CONTINUOUS
10
146.5204410000000053
20
-57.4292479999999941
11
146.3209109999999953
21
-57.1219999999999999
0
LINE
8
BLACK
6
CONTINUOUS
10
146.3209109999999953
20
-57.1219999999999999
11
146.1545909999999822
21
-56.795577999999999
0
LINE
8
BLACK
6
CONTINUOUS
10
146.1545909999999822
20
-56.795577999999999
11
146.023302000000001
21
-56.4535589999999985
0
LINE
8
BLACK
6
CONTINUOUS
10
146.023302000000001
20
-56.4535589999999985
11
145.9284829999999999
21
-56.099691
0
LINE
8
BLACK
6
CONTINUOUS
10
145.9284829999999999
20
-56.099691
11
145.8711729999999989
21
-55.7378499999999946
0
LINE
8
BLACK
6
CONTINUOUS
10
145.8711729999999989
20
-55.7378499999999946
11
145.8520000000000039
21
-55.3719999999999999
0
LINE
8
BLACK
6
CONTINUOUS
10
145.8520000000000039
20
-55.3719999999999999
11
145.8711729999999989
21
-55.0061499999999981
0
LINE
8
BLACK
6
CONTINUOUS
10
145.8711729999999989
20
-55.0061499999999981
11
145.9284829999999999
21
-54.6443089999999998
0
LINE
8
BLACK
6
CONTINUOUS
10
145.9284829999999999
20
-54.6443089999999998
11
146.023302000000001
21
-54.2904409999999942
0
LINE
8
BLACK
6
CONTINUOUS
10
146.023302000000001
20
-54.2904409999999942
11
146.1545909999999822
21
-53.9484220000000008
0
LINE
8
BLACK
6
CONTINUOUS
10
146.1545909999999822
20
-53.9484220000000008
11
146.3209109999999953
21
-53.6219999999999999
0
LINE
8
BLACK
6
CONTINUOUS
10
146.3209109999999953
20
-53.6219999999999999
11
146.5204410000000053
21
-53.3147519999999986
0
LINE
8
BLACK
6
CONTINUOUS
10
146.5204410000000053
20
-53.3147519999999986
11
146.750992999999994
21
-53.0300429999999992
0
LINE
8
BLACK
6
CONTINUOUS
10
146.750992999999994
20
-53.0300429999999992
11
147.010042999999996
21
-52.7709929999999972
0
LINE
8
BLACK
6
CONTINUOUS
10
147.010042999999996
20
-52.7709929999999972
11
147.2947519999999884
21
-52.5404409999999942
0
LINE
8
BLACK
6
CONTINUOUS
10
147.2947519999999884
20
-52.5404409999999942
11
147.6020000000000039
21
-52.3409109999999984
0
LINE
8
BLACK
6
CONTINUOUS
10
147.6020000000000039
20
-52.3409109999999984
11
147.9284219999999834
21
-52.1745909999999995
0
LINE
8
BLACK
6
CONTINUOUS
10
147.9284219999999834
20
-52.1745909999999995
11
148.2704410000000053
21
-52.0433019999999971
0
LINE
8
BLACK
6
CONTINUOUS
10
148.2704410000000053
20
-52.0433019999999971
11
148.6243089999999825
21
-51.948482999999996
0
LINE
8
BLACK
6
CONTINUOUS
10
148.6243089999999825
20
-51.948482999999996
11
148.9861499999999808
21
-51.8911729999999949
0
LINE
8
BLACK
6
CONTINUOUS
10
148.9861499999999808
20
-51.8911729999999949
11
149.3520000000000039
21
-51.8719999999999999
0
LINE
8
BLACK
6
CONTINUOUS
10
149.3520000000000039
20
-51.8719999999999999
11
149.7178499999999985
21
-51.8911729999999949
0
LINE
8
BLACK
6
CONTINUOUS
10
133.0576949999999954
20
-53.4054929999999999
11
133.2504469999999799
21
-53.4639639999999972
0
LINE
8
BLACK
6
CONTINUOUS
10
133.2504469999999799
20
-53.4639639999999972
11
133.4280880000000025
21
-53.5589149999999989
0
LINE
8
BLACK
6
CONTINUOUS
10
133.4280880000000025
20
-53.5589149999999989
11
133.5837919999999883
21
-53.6866979999999998
0
LINE
8
BLACK
6
CONTINUOUS
10
133.5837919999999883
20
-53.6866979999999998
11
133.7115749999999821
21
-53.8424019999999999
0
LINE
8
BLACK
6
CONTINUOUS
10
133.7115749999999821
20
-53.8424019999999999
11
133.806525999999991
21
-54.020042999999994
0
LINE
8
BLACK
6
CONTINUOUS
10
133.806525999999991
20
-54.020042999999994
11
133.8649969999999882
21
-54.2127949999999998
0
LINE
8
BLACK
6
CONTINUOUS
10
133.8649969999999882
20
-54.2127949999999998
11
133.8847399999999936
21
-54.4132499999999979
0
LINE
8
BLACK
6
CONTINUOUS
10
133.8847399999999936
20
-54.4132499999999979
11
133.8649969999999882
21
-54.6137049999999959
0
LINE
8
BLACK
6
CONTINUOUS
10
133.8649969999999882
20
-54.6137049999999959
11
133.806525999999991
21
-54.8064569999999947
0
LINE
8
BLACK
6
CONTINUOUS
10
133.806525999999991
20
-54.8064569999999947
11
133.7115749999999821
21
-54.9840979999999959
0
LINE
8
BLACK
6
CONTINUOUS
10
133.7115749999999821
20
-54.9840979999999959
11
133.5837919999999883
21
-55.139801999999996
0
LINE
8
BLACK
6
CONTINUOUS
10
133.5837919999999883
20
-55.139801999999996
11
133.4280880000000025
21
-55.2675849999999969
0
LINE
8
BLACK
6
CONTINUOUS
10
133.4280880000000025
20
-55.2675849999999969
11
133.2504469999999799
21
-55.3625359999999986
0
LINE
8
BLACK
6
CONTINUOUS
10
133.2504469999999799
20
-55.3625359999999986
11
133.0576949999999954
21
-55.4210069999999959
0
LINE
8
BLACK
6
CONTINUOUS
10
133.0576949999999954
20
-55.4210069999999959
11
132.8572399999999902
21
-55.4407499999999942
0
LINE
8
BLACK
6
CONTINUOUS
10
132.8572399999999902
20
-55.4407499999999942
11
132.6567849999999851
21
-55.4210069999999959
0
LINE
8
BLACK
6
CONTINUOUS
10
132.6567849999999851
20
-55.4210069999999959
11
132.4640330000000006
21
-55.3625359999999986
0
LINE
8
BLACK
6
CONTINUOUS
10
132.4640330000000006
20
-55.3625359999999986
11
132.2863920000000064
21
-55.2675849999999969
0
LINE
8
BLACK
6
CONTINUOUS
10
132.2863920000000064
20
-55.2675849999999969
11
132.1306879999999921
21
-55.139801999999996
0
LINE
8
BLACK
6
CONTINUOUS
10
132.1306879999999921
20
-55.139801999999996
11
132.0029049999999984
21
-54.9840979999999959
0
LINE
8
BLACK
6
CONTINUOUS
10
132.0029049999999984
20
-54.9840979999999959
11
131.9079539999999895
21
-54.8064569999999947
0
LINE
8
BLACK
6
CONTINUOUS
10
131.9079539999999895
20
-54.8064569999999947
11
131.8494829999999922
21
-54.6137049999999959
0
LINE
8
BLACK
6
CONTINUOUS
10
131.8494829999999922
20
-54.6137049999999959
11
131.8297399999999868
21
-54.4132499999999979
0
LINE
8
BLACK
6
CONTINUOUS
10
131.8297399999999868
20
-54.4132499999999979
11
131.8494829999999922
21
-54.2127949999999998
0
LINE
8
BLACK
6
CONTINUOUS
10
131.8494829999999922
20
-54.2127949999999998
11
131.9079539999999895
21
-54.020042999999994
0
LINE
8
BLACK
6
CONTINUOUS
10
131.9079539999999895
20
-54.020042999999994
11
132.0029049999999984
21
-53.8424019999999999
0
LINE
8
BLACK
6
CONTINUOUS
10
132.0029049999999984
20
-53.8424019999999999
11
132.1306879999999921
21
-53.6866979999999998
0
LINE
8
BLACK
6
CONTINUOUS
10
132.1306879999999921
20
-53.6866979999999998
11
132.2863920000000064
21
-53.5589149999999989
0
LINE
8
BLACK
6
CONTINUOUS
10
132.2863920000000064
20
-53.5589149999999989
11
132.4640330000000006
21
-53.4639639999999972
0
LINE
8
BLACK
6
CONTINUOUS
10
132.4640330000000006
20
-53.4639639999999972
11
132.6567849999999851
21
-53.4054929999999999
0
LINE
8
BLACK
6
CONTINUOUS
10
132.6567849999999851
20
-53.4054929999999999
11
132.8572399999999902
21
-53.3857499999999945
0
LINE
8
BLACK
6
CONTINUOUS
10
132.8572399999999902
20
-53.3857499999999945
11
133.0576949999999954
21
-53.4054929999999999
0
LINE
8
BLACK
6
CONTINUOUS
10
137.5026949999999886
20
-53.4054929999999999
11
137.6954470000000015
21
-53.4639639999999972
0
LINE
8
BLACK
6
CONTINUOUS
10
137.6954470000000015
20
-53.4639639999999972
11
137.8730879999999956
21
-53.5589149999999989
0
LINE
8
BLACK
6
CONTINUOUS
10
137.8730879999999956
20
-53.5589149999999989
11
138.0287919999999815
21
-53.6866979999999998
0
LINE
8
BLACK
6
CONTINUOUS
10
138.0287919999999815
20
-53.6866979999999998
11
138.1565750000000037
21
-53.8424019999999999
0
LINE
8
BLACK
6
CONTINUOUS
10
138.1565750000000037
20
-53.8424019999999999
11
138.2515259999999842
21
-54.020042999999994
0
LINE
8
BLACK
6
CONTINUOUS
10
138.2515259999999842
20
-54.020042999999994
11
138.3099969999999814
21
-54.2127949999999998
0
LINE
8
BLACK
6
CONTINUOUS
10
138.3099969999999814
20
-54.2127949999999998
11
138.3297399999999868
21
-54.4132499999999979
0
LINE
8
BLACK
6
CONTINUOUS
10
138.3297399999999868
20
-54.4132499999999979
11
138.3099969999999814
21
-54.6137049999999959
0
LINE
8
BLACK
6
CONTINUOUS
10
138.3099969999999814
20
-54.6137049999999959
11
138.2515259999999842
21
-54.8064569999999947
0
LINE
8
BLACK
6
CONTINUOUS
10
138.2515259999999842
20
-54.8064569999999947
11
138.1565750000000037
21
-54.9840979999999959
0
LINE
8
BLACK
6
CONTINUOUS
10
138.1565750000000037
20
-54.9840979999999959
11
138.0287919999999815
21
-55.139801999999996
0
LINE
8
BLACK
6
CONTINUOUS
10
138.0287919999999815
20
-55.139801999999996
11
137.8730879999999956
21
-55.2675849999999969
0
LINE
8
BLACK
6
CONTINUOUS
10
137.8730879999999956
20
-55.2675849999999969
11
137.6954470000000015
21
-55.3625359999999986
0
LINE
8
BLACK
6
CONTINUOUS
10
137.6954470000000015
20
-55.3625359999999986
11
137.5026949999999886
21
-55.4210069999999959
0
LINE
8
BLACK
6
CONTINUOUS
10
137.5026949999999886
20
-55.4210069999999959
11
137.3022399999999834
21
-55.4407499999999942
0
LINE
8
BLACK
6
CONTINUOUS
10
137.3022399999999834
20
-55.4407499999999942
11
137.1017850000000067
21
-55.4210069999999959
0
LINE
8
BLACK
6
CONTINUOUS
10
137.1017850000000067
20
-55.4210069999999959
11
136.9090329999999938
21
-55.3625359999999986
0
LINE
8
BLACK
6
CONTINUOUS
10
136.9090329999999938
20
-55.3625359999999986
11
136.7313919999999996
21
-55.2675849999999969
0
LINE
8
BLACK
6
CONTINUOUS
10
136.7313919999999996
20
-55.2675849999999969
11
136.5756879999999853
21
-55.139801999999996
0
LINE
8
BLACK
6
CONTINUOUS
10
136.5756879999999853
20
-55.139801999999996
11
136.4479049999999916
21
-54.9840979999999959
0
LINE
8
BLACK
6
CONTINUOUS
10
136.4479049999999916
20
-54.9840979999999959
11
136.3529539999999827
21
-54.8064569999999947
0
LINE
8
BLACK
6
CONTINUOUS
10
136.3529539999999827
20
-54.8064569999999947
11
136.2944829999999854
21
-54.6137049999999959
0
LINE
8
BLACK
6
CONTINUOUS
10
136.2944829999999854
20
-54.6137049999999959
11
136.27473999999998
21
-54.4132499999999979
0
LINE
8
BLACK
6
CONTINUOUS
10
136.27473999999998
20
-54.4132499999999979
11
136.2944829999999854
21
-54.2127949999999998
0
LINE
8
BLACK
6
CONTINUOUS
10
136.2944829999999854
20
-54.2127949999999998
11
136.3529539999999827
21
-54.020042999999994
0
LINE
8
BLACK
6
CONTINUOUS
10
136.3529539999999827
20
-54.020042999999994
11
136.4479049999999916
21
-53.8424019999999999
0
LINE
8
BLACK
6
CONTINUOUS
10
136.4479049999999916
20
-53.8424019999999999
11
136.5756879999999853
21
-53.6866979999999998
0
LINE
8
BLACK
6
CONTINUOUS
10
136.5756879999999853
20
-53.6866979999999998
11
136.7313919999999996
21
-53.5589149999999989
0
LINE
8
BLACK
6
CONTINUOUS
10
136.7313919999999996
20
-53.5589149999999989
11
136.9090329999999938
21
-53.4639639999999972
0
LINE
8
BLACK
6
CONTINUOUS
10
136.9090329999999938
20
-53.4639639999999972
11
137.1017850000000067
21
-53.4054929999999999
0
LINE
8
BLACK
6
CONTINUOUS
10
137.1017850000000067
20
-53.4054929999999999
11
137.3022399999999834
21
-53.3857499999999945
0
LINE
8
BLACK
6
CONTINUOUS
10
137.3022399999999834
20
-53.3857499999999945
11
137.5026949999999886
21
-53.4054929999999999
0
LINE
8
BLACK
6
CONTINUOUS
10
161.632694999999984
20
-53.4054929999999999
11
161.8254469999999969
21
-53.4639639999999972
0
LINE
8
BLACK
6
CONTINUOUS
10
161.8254469999999969
20
-53.4639639999999972
11
162.0030879999999911
21
-53.5589149999999989
0
LINE
8
BLACK
6
CONTINUOUS
10
162.0030879999999911
20
-53.5589149999999989
11
162.1587920000000054
21
-53.6866979999999998
0
LINE
8
BLACK
6
CONTINUOUS
10
162.1587920000000054
20
-53.6866979999999998
11
162.2865749999999991
21
-53.8424019999999999
0
LINE
8
BLACK
6
CONTINUOUS
10
162.2865749999999991
20
-53.8424019999999999
11
162.3815259999999796
21
-54.020042999999994
0
LINE
8
BLACK
6
CONTINUOUS
10
162.3815259999999796
20
-54.020042999999994
11
162.4399970000000053
21
-54.2127949999999998
0
LINE
8
BLACK
6
CONTINUOUS
10
162.4399970000000053
20
-54.2127949999999998
11
162.4597399999999823
21
-54.4132499999999979
0
LINE
8
BLACK
6
CONTINUOUS
10
162.4597399999999823
20
-54.4132499999999979
11
162.4399970000000053
21
-54.6137049999999959
0
LINE
8
BLACK
6
CONTINUOUS
10
162.4399970000000053
20
-54.6137049999999959
11
162.3815259999999796
21
-54.8064569999999947
0
LINE
8
BLACK
6
CONTINUOUS
10
162.3815259999999796
20
-54.8064569999999947
11
162.2865749999999991
21
-54.9840979999999959
0
LINE
8
BLACK
6
CONTINUOUS
10
162.2865749999999991
20
-54.9840979999999959
11
162.1587920000000054
21
-55.139801999999996
0
LINE
8
BLACK
6
CONTINUOUS
10
162.1587920000000054
20
-55.139801999999996
11
162.0030879999999911
21
-55.2675849999999969
0
LINE
8
BLACK
6
CONTINUOUS
10
162.0030879999999911
20
-55.2675849999999969
11
161.8254469999999969
21
-55.3625359999999986
0
LINE
8
BLACK
6
CONTINUOUS
10
161.8254469999999969
20
-55.3625359999999986
11
161.632694999999984
21
-55.4210069999999959
0
LINE
8
BLACK
6
CONTINUOUS
10
161.632694999999984
20
-55.4210069999999959
11
161.4322399999999789
21
-55.4407499999999942
0
LINE
8
BLACK
6
CONTINUOUS
10
161.4322399999999789
20
-55.4407499999999942
11
161.2317850000000021
21
-55.4210069999999959
0
LINE
8
BLACK
6
CONTINUOUS
10
161.2317850000000021
20
-55.4210069999999959
11
161.0390329999999892
21
-55.3625359999999986
0
LINE
8
BLACK
6
CONTINUOUS
10
161.0390329999999892
20
-55.3625359999999986
11
160.8613919999999951
21
-55.2675849999999969
0
LINE
8
BLACK
6
CONTINUOUS
10
160.8613919999999951
20
-55.2675849999999969
11
160.7056879999999808
21
-55.139801999999996
0
LINE
8
BLACK
6
CONTINUOUS
10
160.7056879999999808
20
-55.139801999999996
11
160.577904999999987
21
-54.9840979999999959
0
LINE
8
BLACK
6
CONTINUOUS
10
160.577904999999987
20
-54.9840979999999959
11
160.4829540000000065
21
-54.8064569999999947
0
LINE
8
BLACK
6
CONTINUOUS
10
160.4829540000000065
20
-54.8064569999999947
11
160.4244829999999808
21
-54.6137049999999959
0
LINE
8
BLACK
6
CONTINUOUS
10
160.4244829999999808
20
-54.6137049999999959
11
160.4047400000000039
21
-54.4132499999999979
0
LINE
8
BLACK
6
CONTINUOUS
10
160.4047400000000039
20
-54.4132499999999979
11
160.4244829999999808
21
-54.2127949999999998
0
LINE
8
BLACK
6
CONTINUOUS
10
160.4244829999999808
20
-54.2127949999999998
11
160.4829540000000065
21
-54.020042999999994
0
LINE
8
BLACK
6
CONTINUOUS
10
160.4829540000000065
20
-54.020042999999994
11
160.577904999999987
21
-53.8424019999999999
0
LINE
8
BLACK
6
CONTINUOUS
10
160.577904999999987
20
-53.8424019999999999
11
160.7056879999999808
21
-53.6866979999999998
0
LINE
8
BLACK
6
CONTINUOUS
10
160.7056879999999808
20
-53.6866979999999998
11
160.8613919999999951
21
-53.5589149999999989
0
LINE
8
BLACK
6
CONTINUOUS
10
160.8613919999999951
20
-53.5589149999999989
11
161.0390329999999892
21
-53.4639639999999972
0
LINE
8
BLACK
6
CONTINUOUS
10
161.0390329999999892
20
-53.4639639999999972
11
161.2317850000000021
21
-53.4054929999999999
0
LINE
8
BLACK
6
CONTINUOUS
10
161.2317850000000021
20
-53.4054929999999999
11
161.4322399999999789
21
-53.3857499999999945
0
LINE
8
BLACK
6
CONTINUOUS
10
161.4322399999999789
20
-53.3857499999999945
11
161.632694999999984
21
-53.4054929999999999
0
LINE
8
BLACK
6
CONTINUOUS
10
166.0776950000000056
20
-53.4054929999999999
11
166.2704469999999901
21
-53.4639639999999972
0
LINE
8
BLACK
6
CONTINUOUS
10
166.2704469999999901
20
-53.4639639999999972
11
166.4480879999999843
21
-53.5589149999999989
0
LINE
8
BLACK
6
CONTINUOUS
10
166.4480879999999843
20
-53.5589149999999989
11
166.6037919999999986
21
-53.6866979999999998
0
LINE
8
BLACK
6
CONTINUOUS
10
166.6037919999999986
20
-53.6866979999999998
11
166.7315749999999923
21
-53.8424019999999999
0
LINE
8
BLACK
6
CONTINUOUS
10
166.7315749999999923
20
-53.8424019999999999
11
166.8265260000000012
21
-54.020042999999994
0
LINE
8
BLACK
6
CONTINUOUS
10
166.8265260000000012
20
-54.020042999999994
11
166.8849969999999985
21
-54.2127949999999998
0
LINE
8
BLACK
6
CONTINUOUS
10
166.8849969999999985
20
-54.2127949999999998
11
166.9047400000000039
21
-54.4132499999999979
0
LINE
8
BLACK
6
CONTINUOUS
10
166.9047400000000039
20
-54.4132499999999979
11
166.8849969999999985
21
-54.6137049999999959
0
LINE
8
BLACK
6
CONTINUOUS
10
166.8849969999999985
20
-54.6137049999999959
11
166.8265260000000012
21
-54.8064569999999947
0
LINE
8
BLACK
6
CONTINUOUS
10
166.8265260000000012
20
-54.8064569999999947
11
166.7315749999999923
21
-54.9840979999999959
0
LINE
8
BLACK
6
CONTINUOUS
10
166.7315749999999923
20
-54.9840979999999959
11
166.6037919999999986
21
-55.139801999999996
0
LINE
8
BLACK
6
CONTINUOUS
10
166.6037919999999986
20
-55.139801999999996
11
166.4480879999999843
21
-55.2675849999999969
0
LINE
8
BLACK
6
CONTINUOUS
10
166.4480879999999843
20
-55.2675849999999969
11
166.2704469999999901
21
-55.3625359999999986
0
LINE
8
BLACK
6
CONTINUOUS
10
166.2704469999999901
20
-55.3625359999999986
11
166.0776950000000056
21
-55.4210069999999959
0
LINE
8
BLACK
6
CONTINUOUS
10
166.0776950000000056
20
-55.4210069999999959
11
165.8772400000000005
21
-55.4407499999999942
0
LINE
8
BLACK
6
CONTINUOUS
10
165.8772400000000005
20
-55.4407499999999942
11
165.6767849999999953
21
-55.4210069999999959
0
LINE
8
BLACK
6
CONTINUOUS
10
165.6767849999999953
20
-55.4210069999999959
11
165.4840329999999824
21
-55.3625359999999986
0
LINE
8
BLACK
6
CONTINUOUS
10
165.4840329999999824
20
-55.3625359999999986
11
165.3063919999999882
21
-55.2675849999999969
0
LINE
8
BLACK
6
CONTINUOUS
10
165.3063919999999882
20
-55.2675849999999969
11
165.1506880000000024
21
-55.139801999999996
0
LINE
8
BLACK
6
CONTINUOUS
10
165.1506880000000024
20
-55.139801999999996
11
165.0229049999999802
21
-54.9840979999999959
0
LINE
8
BLACK
6
CONTINUOUS
10
165.0229049999999802
20
-54.9840979999999959
11
164.9279539999999997
21
-54.8064569999999947
0
LINE
8
BLACK
6
CONTINUOUS
10
164.9279539999999997
20
-54.8064569999999947
11
164.8694830000000024
21
-54.6137049999999959
0
LINE
8
BLACK
6
CONTINUOUS
10
164.8694830000000024
20
-54.6137049999999959
11
164.8497399999999971
21
-54.4132499999999979
0
LINE
8
BLACK
6
CONTINUOUS
10
164.8497399999999971
20
-54.4132499999999979
11
164.8694830000000024
21
-54.2127949999999998
0
LINE
8
BLACK
6
CONTINUOUS
10
164.8694830000000024
20
-54.2127949999999998
11
164.9279539999999997
21
-54.020042999999994
0
LINE
8
BLACK
6
CONTINUOUS
10
164.9279539999999997
20
-54.020042999999994
11
165.0229049999999802
21
-53.8424019999999999
0
LINE
8
BLACK
6
CONTINUOUS
10
165.0229049999999802
20
-53.8424019999999999
11
165.1506880000000024
21
-53.6866979999999998
0
LINE
8
BLACK
6
CONTINUOUS
10
165.1506880000000024
20
-53.6866979999999998
11
165.3063919999999882
21
-53.5589149999999989
0
LINE
8
BLACK
6
CONTINUOUS
10
165.3063919999999882
20
-53.5589149999999989
11
165.4840329999999824
21
-53.4639639999999972
0
LINE
8
BLACK
6
CONTINUOUS
10
165.4840329999999824
20
-53.4639639999999972
11
165.6767849999999953
21
-53.4054929999999999
0
LINE
8
BLACK
6
CONTINUOUS
10
165.6767849999999953
20
-53.4054929999999999
11
165.8772400000000005
21
-53.3857499999999945
0
LINE
8
BLACK
6
CONTINUOUS
10
165.8772400000000005
20
-53.3857499999999945
11
166.0776950000000056
21
-53.4054929999999999
0
LINE
8
BLACK
6
CONTINUOUS
10
133.0576949999999954
20
-48.3254929999999945
11
133.2504469999999799
21
-48.3839639999999989
0
LINE
8
BLACK
6
CONTINUOUS
10
133.2504469999999799
20
-48.3839639999999989
11
133.4280880000000025
21
-48.4789150000000006
0
LINE
8
BLACK
6
CONTINUOUS
10
133.4280880000000025
20
-48.4789150000000006
11
133.5837919999999883
21
-48.6066979999999944
0
LINE
8
BLACK
6
CONTINUOUS
10
133.5837919999999883
20
-48.6066979999999944
11
133.7115749999999821
21
-48.7624019999999945
0
LINE
8
BLACK
6
CONTINUOUS
10
133.7115749999999821
20
-48.7624019999999945
11
133.806525999999991
21
-48.9400429999999957
0
LINE
8
BLACK
6
CONTINUOUS
10
133.806525999999991
20
-48.9400429999999957
11
133.8649969999999882
21
-49.1327949999999944
0
LINE
8
BLACK
6
CONTINUOUS
10
133.8649969999999882
20
-49.1327949999999944
11
133.8847399999999936
21
-49.3332499999999996
0
LINE
8
BLACK
6
CONTINUOUS
10
133.8847399999999936
20
-49.3332499999999996
11
133.8649969999999882
21
-49.5337049999999977
0
LINE
8
BLACK
6
CONTINUOUS
10
133.8649969999999882
20
-49.5337049999999977
11
133.806525999999991
21
-49.7264569999999964
0
LINE
8
BLACK
6
CONTINUOUS
10
133.806525999999991
20
-49.7264569999999964
11
133.7115749999999821
21
-49.9040979999999976
0
LINE
8
BLACK
6
CONTINUOUS
10
133.7115749999999821
20
-49.9040979999999976
11
133.5837919999999883
21
-50.0598019999999977
0
LINE
8
BLACK
6
CONTINUOUS
10
133.5837919999999883
20
-50.0598019999999977
11
133.4280880000000025
21
-50.1875849999999986
0
LINE
8
BLACK
6
CONTINUOUS
10
133.4280880000000025
20
-50.1875849999999986
11
133.2504469999999799
21
-50.2825360000000003
0
LINE
8
BLACK
6
CONTINUOUS
10
133.2504469999999799
20
-50.2825360000000003
11
133.0576949999999954
21
-50.3410069999999976
0
LINE
8
BLACK
6
CONTINUOUS
10
133.0576949999999954
20
-50.3410069999999976
11
132.8572399999999902
21
-50.3607499999999959
0
LINE
8
BLACK
6
CONTINUOUS
10
132.8572399999999902
20
-50.3607499999999959
11
132.6567849999999851
21
-50.3410069999999976
0
LINE
8
BLACK
6
CONTINUOUS
10
132.6567849999999851
20
-50.3410069999999976
11
132.4640330000000006
21
-50.2825360000000003
0
LINE
8
BLACK
6
CONTINUOUS
10
132.4640330000000006
20
-50.2825360000000003
11
132.2863920000000064
21
-50.1875849999999986
0
LINE
8
BLACK
6
CONTINUOUS
10
132.2863920000000064
20
-50.1875849999999986
11
132.1306879999999921
21
-50.0598019999999977
0
LINE
8
BLACK
6
CONTINUOUS
10
132.1306879999999921
20
-50.0598019999999977
11
132.0029049999999984
21
-49.9040979999999976
0
LINE
8
BLACK
6
CONTINUOUS
10
132.0029049999999984
20
-49.9040979999999976
11
131.9079539999999895
21
-49.7264569999999964
0
LINE
8
BLACK
6
CONTINUOUS
10
131.9079539999999895
20
-49.7264569999999964
11
131.8494829999999922
21
-49.5337049999999977
0
LINE
8
BLACK
6
CONTINUOUS
10
131.8494829999999922
20
-49.5337049999999977
11
131.8297399999999868
21
-49.3332499999999996
0
LINE
8
BLACK
6
CONTINUOUS
10
131.8297399999999868
20
-49.3332499999999996
11
131.8494829999999922
21
-49.1327949999999944
0
LINE
8
BLACK
6
CONTINUOUS
10
131.8494829999999922
20
-49.1327949999999944
11
131.9079539999999895
21
-48.9400429999999957
0
LINE
8
BLACK
6
CONTINUOUS
10
131.9079539999999895
20
-48.9400429999999957
11
132.0029049999999984
21
-48.7624019999999945
0
LINE
8
BLACK
6
CONTINUOUS
10
132.0029049999999984
20
-48.7624019999999945
11
132.1306879999999921
21
-48.6066979999999944
0
LINE
8
BLACK
6
CONTINUOUS
10
132.1306879999999921
20
-48.6066979999999944
11
132.2863920000000064
21
-48.4789150000000006
0
LINE
8
BLACK
6
CONTINUOUS
10
132.2863920000000064
20
-48.4789150000000006
11
132.4640330000000006
21
-48.3839639999999989
0
LINE
8
BLACK
6
CONTINUOUS
10
132.4640330000000006
20
-48.3839639999999989
11
132.6567849999999851
21
-48.3254929999999945
0
LINE
8
BLACK
6
CONTINUOUS
10
132.6567849999999851
20
-48.3254929999999945
11
132.8572399999999902
21
-48.3057499999999962
0
LINE
8
BLACK
6
CONTINUOUS
10
132.8572399999999902
20
-48.3057499999999962
11
133.0576949999999954
21
-48.3254929999999945
0
LINE
8
BLACK
6
CONTINUOUS
10
137.5026949999999886
20
-48.3254929999999945
11
137.6954470000000015
21
-48.3839639999999989
0
LINE
8
BLACK
6
CONTINUOUS
10
137.6954470000000015
20
-48.3839639999999989
11
137.8730879999999956
21
-48.4789150000000006
0
LINE
8
BLACK
6
CONTINUOUS
10
137.8730879999999956
20
-48.4789150000000006
11
138.0287919999999815
21
-48.6066979999999944
0
LINE
8
BLACK
6
CONTINUOUS
10
138.0287919999999815
20
-48.6066979999999944
11
138.1565750000000037
21
-48.7624019999999945
0
LINE
8
BLACK
6
CONTINUOUS
10
138.1565750000000037
20
-48.7624019999999945
11
138.2515259999999842
21
-48.9400429999999957
0
LINE
8
BLACK
6
CONTINUOUS
10
138.2515259999999842
20
-48.9400429999999957
11
138.3099969999999814
21
-49.1327949999999944
0
LINE
8
BLACK
6
CONTINUOUS
10
138.3099969999999814
20
-49.1327949999999944
11
138.3297399999999868
21
-49.3332499999999996
0
LINE
8
BLACK
6
CONTINUOUS
10
138.3297399999999868
20
-49.3332499999999996
11
138.3099969999999814
21
-49.5337049999999977
0
LINE
8
BLACK
6
CONTINUOUS
10
138.3099969999999814
20
-49.5337049999999977
11
138.2515259999999842
21
-49.7264569999999964
0
LINE
8
BLACK
6
CONTINUOUS
10
138.2515259999999842
20
-49.7264569999999964
11
138.1565750000000037
21
-49.9040979999999976
0
LINE
8
BLACK
6
CONTINUOUS
10
138.1565750000000037
20
-49.9040979999999976
11
138.0287919999999815
21
-50.0598019999999977
0
LINE
8
BLACK
6
CONTINUOUS
10
138.0287919999999815
20
-50.0598019999999977
11
137.8730879999999956
21
-50.1875849999999986
0
LINE
8
BLACK
6
CONTINUOUS
10
137.8730879999999956
20
-50.1875849999999986
11
137.6954470000000015
21
-50.2825360000000003
0
LINE
8
BLACK
6
CONTINUOUS
10
137.6954470000000015
20
-50.2825360000000003
11
137.5026949999999886
21
-50.3410069999999976
0
LINE
8
BLACK
6
CONTINUOUS
10
137.5026949999999886
20
-50.3410069999999976
11
137.3022399999999834
21
-50.3607499999999959
0
LINE
8
BLACK
6
CONTINUOUS
10
137.3022399999999834
20
-50.3607499999999959
11
137.1017850000000067
21
-50.3410069999999976
0
LINE
8
BLACK
6
CONTINUOUS
10
137.1017850000000067
20
-50.3410069999999976
11
136.9090329999999938
21
-50.2825360000000003
0
LINE
8
BLACK
6
CONTINUOUS
10
136.9090329999999938
20
-50.2825360000000003
11
136.7313919999999996
21
-50.1875849999999986
0
LINE
8
BLACK
6
CONTINUOUS
10
136.7313919999999996
20
-50.1875849999999986
11
136.5756879999999853
21
-50.0598019999999977
0
LINE
8
BLACK
6
CONTINUOUS
10
136.5756879999999853
20
-50.0598019999999977
11
136.4479049999999916
21
-49.9040979999999976
0
LINE
8
BLACK
6
CONTINUOUS
10
136.4479049999999916
20
-49.9040979999999976
11
136.3529539999999827
21
-49.7264569999999964
0
LINE
8
BLACK
6
CONTINUOUS
10
136.3529539999999827
20
-49.7264569999999964
11
136.2944829999999854
21
-49.5337049999999977
0
LINE
8
BLACK
6
CONTINUOUS
10
136.2944829999999854
20
-49.5337049999999977
11
136.27473999999998
21
-49.3332499999999996
0
LINE
8
BLACK
6
CONTINUOUS
10
136.27473999999998
20
-49.3332499999999996
11
136.2944829999999854
21
-49.1327949999999944
0
LINE
8
BLACK
6
CONTINUOUS
10
136.2944829999999854
20
-49.1327949999999944
11
136.3529539999999827
21
-48.9400429999999957
0
LINE
8
BLACK
6
CONTINUOUS
10
136.3529539999999827
20
-48.9400429999999957
11
136.4479049999999916
21
-48.7624019999999945
0
LINE
8
BLACK
6
CONTINUOUS
10
136.4479049999999916
20
-48.7624019999999945
11
136.5756879999999853
21
-48.6066979999999944
0
LINE
8
BLACK
6
CONTINUOUS
10
136.5756879999999853
20
-48.6066979999999944
11
136.7313919999999996
21
-48.4789150000000006
0
LINE
8
BLACK
6
CONTINUOUS
10
136.7313919999999996
20
-48.4789150000000006
11
136.9090329999999938
21
-48.3839639999999989
0
LINE
8
BLACK
6
CONTINUOUS
10
136.9090329999999938
20
-48.3839639999999989
11
137.1017850000000067
21
-48.3254929999999945
0
LINE
8
BLACK
6
CONTINUOUS
10
137.1017850000000067
20
-48.3254929999999945
11
137.3022399999999834
21
-48.3057499999999962
0
LINE
8
BLACK
6
CONTINUOUS
10
137.3022399999999834
20
-48.3057499999999962
11
137.5026949999999886
21
-48.3254929999999945
0
LINE
8
BLACK
6
CONTINUOUS
10
161.632694999999984
20
-48.3254929999999945
11
161.8254469999999969
21
-48.3839639999999989
0
LINE
8
BLACK
6
CONTINUOUS
10
161.8254469999999969
20
-48.3839639999999989
11
162.0030879999999911
21
-48.4789150000000006
0
LINE
8
BLACK
6
CONTINUOUS
10
162.0030879999999911
20
-48.4789150000000006
11
162.1587920000000054
21
-48.6066979999999944
0
LINE
8
BLACK
6
CONTINUOUS
10
162.1587920000000054
20
-48.6066979999999944
11
162.2865749999999991
21
-48.7624019999999945
0
LINE
8
BLACK
6
CONTINUOUS
10
162.2865749999999991
20
-48.7624019999999945
11
162.3815259999999796
21
-48.9400429999999957
0
LINE
8
BLACK
6
CONTINUOUS
10
162.3815259999999796
20
-48.9400429999999957
11
162.4399970000000053
21
-49.1327949999999944
0
LINE
8
BLACK
6
CONTINUOUS
10
162.4399970000000053
20
-49.1327949999999944
11
162.4597399999999823
21
-49.3332499999999996
0
LINE
8
BLACK
6
CONTINUOUS
10
162.4597399999999823
20
-49.3332499999999996
11
162.4399970000000053
21
-49.5337049999999977
0
LINE
8
BLACK
6
CONTINUOUS
10
162.4399970000000053
20
-49.5337049999999977
11
162.3815259999999796
21
-49.7264569999999964
0
LINE
8
BLACK
6
CONTINUOUS
10
162.3815259999999796
20
-49.7264569999999964
11
162.2865749999999991
21
-49.9040979999999976
0
LINE
8
BLACK
6
CONTINUOUS
10
162.2865749999999991
20
-49.9040979999999976
11
162.1587920000000054
21
-50.0598019999999977
0
LINE
8
BLACK
6
CONTINUOUS
10
162.1587920000000054
20
-50.0598019999999977
11
162.0030879999999911
21
-50.1875849999999986
0
LINE
8
BLACK
6
CONTINUOUS
10
162.0030879999999911
20
-50.1875849999999986
11
161.8254469999999969
21
-50.2825360000000003
0
LINE
8
BLACK
6
CONTINUOUS
10
161.8254469999999969
20
-50.2825360000000003
11
161.632694999999984
21
-50.3410069999999976
0
LINE
8
BLACK
6
CONTINUOUS
10
161.632694999999984
20
-50.3410069999999976
11
161.4322399999999789
21
-50.3607499999999959
0
LINE
8
BLACK
6
CONTINUOUS
10
161.4322399999999789
20
-50.3607499999999959
11
161.2317850000000021
21
-50.3410069999999976
0
LINE
8
BLACK
6
CONTINUOUS
10
161.2317850000000021
20
-50.3410069999999976
11
161.0390329999999892
21
-50.2825360000000003
0
LINE
8
BLACK
6
CONTINUOUS
10
161.0390329999999892
20
-50.2825360000000003
11
160.8613919999999951
21
-50.1875849999999986
0
LINE
8
BLACK
6
CONTINUOUS
10
160.8613919999999951
20
-50.1875849999999986
11
160.7056879999999808
21
-50.0598019999999977
0
LINE
8
BLACK
6
CONTINUOUS
10
160.7056879999999808
20
-50.0598019999999977
11
160.577904999999987
21
-49.9040979999999976
0
LINE
8
BLACK
6
CONTINUOUS
10
160.577904999999987
20
-49.9040979999999976
11
160.4829540000000065
21
-49.7264569999999964
0
LINE
8
BLACK
6
CONTINUOUS
10
160.4829540000000065
20
-49.7264569999999964
11
160.4244829999999808
21
-49.5337049999999977
0
LINE
8
BLACK
6
CONTINUOUS
10
160.4244829999999808
20
-49.5337049999999977
11
160.4047400000000039
21
-49.3332499999999996
0
LINE
8
BLACK
6
CONTINUOUS
10
160.4047400000000039
20
-49.3332499999999996
11
160.4244829999999808
21
-49.1327949999999944
0
LINE
8
BLACK
6
CONTINUOUS
10
160.4244829999999808
20
-49.1327949999999944
11
160.4829540000000065
21
-48.9400429999999957
0
LINE
8
BLACK
6
CONTINUOUS
10
160.4829540000000065
20
-48.9400429999999957
11
160.577904999999987
21
-48.7624019999999945
0
LINE
8
BLACK
6
CONTINUOUS
10
160.577904999999987
20
-48.7624019999999945
11
160.7056879999999808
21
-48.6066979999999944
0
LINE
8
BLACK
6
CONTINUOUS
10
160.7056879999999808
20
-48.6066979999999944
11
160.8613919999999951
21
-48.4789150000000006
0
LINE
8
BLACK
6
CONTINUOUS
10
160.8613919999999951
20
-48.4789150000000006
11
161.0390329999999892
21
-48.3839639999999989
0
LINE
8
BLACK
6
CONTINUOUS
10
161.0390329999999892
20
-48.3839639999999989
11
161.2317850000000021
21
-48.3254929999999945
0
LINE
8
BLACK
6
CONTINUOUS
10
161.2317850000000021
20
-48.3254929999999945
11
161.4322399999999789
21
-48.3057499999999962
0
LINE
8
BLACK
6
CONTINUOUS
10
161.4322399999999789
20
-48.3057499999999962
11
161.632694999999984
21
-48.3254929999999945
0
LINE
8
BLACK
6
CONTINUOUS
10
166.0776950000000056
20
-48.3254929999999945
11
166.2704469999999901
21
-48.3839639999999989
0
LINE
8
BLACK
6
CONTINUOUS
10
166.2704469999999901
20
-48.3839639999999989
11
166.4480879999999843
21
-48.4789150000000006
0
LINE
8
BLACK
6
CONTINUOUS
10
166.4480879999999843
20
-48.4789150000000006
11
166.6037919999999986
21
-48.6066979999999944
0
LINE
8
BLACK
6
CONTINUOUS
10
166.6037919999999986
20
-48.6066979999999944
11
166.7315749999999923
21
-48.7624019999999945
0
LINE
8
BLACK
6
CONTINUOUS
10
166.7315749999999923
20
-48.7624019999999945
11
166.8265260000000012
21
-48.9400429999999957
0
LINE
8
BLACK
6
CONTINUOUS
10
166.8265260000000012
20
-48.9400429999999957
11
166.8849969999999985
21
-49.1327949999999944
0
LINE
8
BLACK
6
CONTINUOUS
10
166.8849969999999985
20
-49.1327949999999944
11
166.9047400000000039
21
-49.3332499999999996
0
LINE
8
BLACK
6
CONTINUOUS
10
166.9047400000000039
20
-49.3332499999999996
11
166.8849969999999985
21
-49.5337049999999977
0
LINE
8
BLACK
6
CONTINUOUS
10
166.8849969999999985
20
-49.5337049999999977
11
166.8265260000000012
21
-49.7264569999999964
0
LINE
8
BLACK
6
CONTINUOUS
10
166.8265260000000012
20
-49.7264569999999964
11
166.7315749999999923
21
-49.9040979999999976
0
LINE
8
BLACK
6
CONTINUOUS
10
166.7315749999999923
20
-49.9040979999999976
11
166.6037919999999986
21
-50.0598019999999977
0
LINE
8
BLACK
6
CONTINUOUS
10
166.6037919999999986
20
-50.0598019999999977
11
166.4480879999999843
21
-50.1875849999999986
0
LINE
8
BLACK
6
CONTINUOUS
10
166.4480879999999843
20
-50.1875849999999986
11
166.2704469999999901
21
-50.2825360000000003
0
LINE
8
BLACK
6
CONTINUOUS
10
166.2704469999999901
20
-50.2825360000000003
11
166.0776950000000056
21
-50.3410069999999976
0
LINE
8
BLACK
6
CONTINUOUS
10
166.0776950000000056
20
-50.3410069999999976
11
165.8772400000000005
21
-50.3607499999999959
0
LINE
8
BLACK
6
CONTINUOUS
10
165.8772400000000005
20
-50.3607499999999959
11
165.6767849999999953
21
-50.3410069999999976
0
LINE
8
BLACK
6
CONTINUOUS
10
165.6767849999999953
20
-50.3410069999999976
11
165.4840329999999824
21
-50.2825360000000003
0
LINE
8
BLACK
6
CONTINUOUS
10
165.4840329999999824
20
-50.2825360000000003
11
165.3063919999999882
21
-50.1875849999999986
0
LINE
8
BLACK
6
CONTINUOUS
10
165.3063919999999882
20
-50.1875849999999986
11
165.1506880000000024
21
-50.0598019999999977
0
LINE
8
BLACK
6
CONTINUOUS
10
165.1506880000000024
20
-50.0598019999999977
11
165.0229049999999802
21
-49.9040979999999976
0
LINE
8
BLACK
6
CONTINUOUS
10
165.0229049999999802
20
-49.9040979999999976
11
164.9279539999999997
21
-49.7264569999999964
0
LINE
8
BLACK
6
CONTINUOUS
10
164.9279539999999997
20
-49.7264569999999964
11
164.8694830000000024
21
-49.5337049999999977
0
LINE
8
BLACK
6
CONTINUOUS
10
164.8694830000000024
20
-49.5337049999999977
11
164.8497399999999971
21
-49.3332499999999996
0
LINE
8
BLACK
6
CONTINUOUS
10
164.8497399999999971
20
-49.3332499999999996
11
164.8694830000000024
21
-49.1327949999999944
0
LINE
8
BLACK
6
CONTINUOUS
10
164.8694830000000024
20
-49.1327949999999944
11
164.9279539999999997
21
-48.9400429999999957
0
LINE
8
BLACK
6
CONTINUOUS
10
164.9279539999999997
20
-48.9400429999999957
11
165.0229049999999802
21
-48.7624019999999945
0
LINE
8
BLACK
6
CONTINUOUS
10
165.0229049999999802
20
-48.7624019999999945
11
165.1506880000000024
21
-48.6066979999999944
0
LINE
8
BLACK
6
CONTINUOUS
10
165.1506880000000024
20
-48.6066979999999944
11
165.3063919999999882
21
-48.4789150000000006
0
LINE
8
BLACK
6
CONTINUOUS
10
165.3063919999999882
20
-48.4789150000000006
11
165.4840329999999824
21
-48.3839639999999989
0
LINE
8
BLACK
6
CONTINUOUS
10
165.4840329999999824
20
-48.3839639999999989
11
165.6767849999999953
21
-48.3254929999999945
0
LINE
8
BLACK
6
CONTINUOUS
10
165.6767849999999953
20
-48.3254929999999945
11
165.8772400000000005
21
-48.3057499999999962
0
LINE
8
BLACK
6
CONTINUOUS
10
165.8772400000000005
20
-48.3057499999999962
11
166.0776950000000056
21
-48.3254929999999945
0
ARC
8
BLACK
10
149.4505000000000052
20
-71.0742999999999938
40
28.9310431447823326
50
22.72789038
51
74.91436478
0
CIRCLE
8
BLACK
10
155.9559999999999889
20
-93.7259999999999991
40
1.436841
0
LINE
8
BLACK
6
CONTINUOUS
10
145.2908909999999878
20
-81.1345919999999978
11
145.2879999999999825
21
-88.6460000000000008
0
ARC
8
BLACK
10
149.4505020000000002
20
-71.0742959999999897
40
28.8012552578572496
50
-180.41437728
51
0.41355963
0
LINE
8
BLACK
6
CONTINUOUS
10
171.6470039999999813
20
-69.3419999999999987
11
178.2510069999999871
21
-70.8664109999999994
0
ARC
8
BLACK
10
146.052899999999994
20
-81.1345999999999918
40
0.7620090000419942
50
90.00067671
51
179.99939848
0
LINE
8
BLACK
6
CONTINUOUS
10
129.0495630000000062
20
-62.1586649999999992
11
122.7639739999999904
21
-59.8717869999999976
0
ARC
8
BLACK
10
149.4505000000000052
20
-71.0742999999999938
40
22.2639997337989755
50
4.46253627
51
23.60632807
0
LINE
8
BLACK
6
CONTINUOUS
10
143.2560000000000002
20
-88.6460000000000008
11
143.2261790000000019
21
-77.500789999999995
0
ARC
8
BLACK
10
154.9399999999999977
20
-87.8840000000000003
40
1.27
50
-143.13010235
51
-36.86989765
0
LINE
8
BLACK
6
CONTINUOUS
10
145.0339999999999918
20
-50.5459999999999994
11
141.7319999999999993
21
-43.1799999999999997
0
LINE
8
BLACK
6
CONTINUOUS
10
153.1336909999999989
20
-80.3725919999999974
11
146.0528909999999883
21
-80.3725919999999974
0
ARC
8
BLACK
10
149.4505000000000052
20
-71.0742999999999938
40
8.9466164347836532
50
-403.35232634
51
-134.08445043
0
LINE
8
BLACK
6
CONTINUOUS
10
153.6781639999999811
20
-50.5062799999999967
11
156.980164000000002
21
-43.1402799999999971
0
CIRCLE
8
BLACK
10
143.2560000000000002
20
-93.7259999999999991
40
1.436841
0
ARC
8
BLACK
10
149.4505000000000052
20
-71.0742999999999938
40
28.942476871612854
50
105.46704782
51
157.22823136
0
ARC
8
BLACK
10
153.1620000000000061
20
-81.1340999999999894
40
0.762034010753457
50
0.00255650
51
92.12898572
0
LINE
8
BLACK
6
CONTINUOUS
10
153.9240000000000066
20
-81.13406599999999
11
153.9240000000000066
21
-88.6460000000000008
0
LINE
8
BLACK
6
CONTINUOUS
10
155.9559999999999889
20
-88.6460000000000008
11
155.9559999999999889
21
-77.215999999999994
0
ARC
8
BLACK
10
149.4505000000000052
20
-71.0742999999999938
40
20.9980135522386995
50
78.38488254
51
102.14165776
0
LINE
8
BLACK
6
CONTINUOUS
10
169.8514150000000029
20
-62.1586759999999998
11
176.1350510000000043
21
-59.8966449999999995
0
LINE
8
BLACK
6
CONTINUOUS
10
120.6499999999999915
20
-70.8659999999999997
11
127.2540029999999973
21
-69.341588999999999
0
ARC
8
BLACK
10
144.2719999999999914
20
-87.8840000000000003
40
1.27
50
-143.13010235
51
-36.86989765
0
ARC
8
BLACK
10
149.4505000000000052
20
-71.0742999999999938
40
22.2640230436355999
50
156.39366867
51
175.53640784
  0
ENDSEC
  0
EOF
