  0
SECTION
  2
HEADER
  9
$ANGBASE
  50
0.0
  9
$ANGDIR
  70
1
  9
$MEASUREMENT
  70
1
  0
ENDSEC
  0
SECTION
  2
TABLES
  0
TABLE
  2
LTYPE
  70
4
  0
LTYPE
  5
40F
  2
CONTINUOUS
  70
0
  3
Solid line
  72
65
  73
0
  40
0.0
  0
LTYPE
  5
410
  2
DASHDOT
 70
0
  3
Dash Dot ____ _ ____ _
 72
65
 73
4
 40
2.0
 49
1.25
 49
-0.25
 49
0.25
 49
-0.25
  0
LTYPE
  5
411
  2
DASHED
 70
0
  3
Dashed __ __ __ __ __
 72
65
 73
2
 40
0.75
 49
0.5
 49
-0.25
  0
LTYPE
  5
43B
  2
DOTTED
 70
0
  3
Dotted .  .  .  .
 72
65
 73
2
 40
0.2
 49
0.0
 49
-0.2
  0
ENDTAB
  0
TABLE
  2
STYLE
  70
4
  0
STYLE
  2
KICAD
  70
0
  40
0
  41
1
  42
1
  50
0
  71
0
  3
isocp.shx
  0
STYLE
  2
KICADB
  70
0
  40
0
  41
1
  42
1
  50
0
  71
0
  3
isocp.shx
  0
STYLE
  2
KICADI
  70
0
  40
0
  41
1
  42
1
  50
15
  71
0
  3
isocp.shx
  0
STYLE
  2
KICADBI
  70
0
  40
0
  41
1
  42
1
  50
15
  71
0
  3
isocp.shx
  0
ENDTAB
  0
TABLE
  2
LAYER
  70
1
  0
LAYER
  2
BLACK
  70
0
  62
7
  6
CONTINUOUS
  0
ENDTAB
  0
ENDSEC
  0
SECTION
  2
ENTITIES
0
ARC
8
BLACK
10
149.4505000000000052
20
-71.0742999999999938
40
28.9310431447823326
50
22.72789038
51
74.91436478
0
CIRCLE
8
BLACK
10
155.9559999999999889
20
-93.7259999999999991
40
1.436841
0
LINE
8
BLACK
6
CONTINUOUS
10
145.2908909999999878
20
-81.1345919999999978
11
145.2879999999999825
21
-88.6460000000000008
0
ARC
8
BLACK
10
149.4505020000000002
20
-71.0742959999999897
40
28.8012552578572496
50
-180.41437728
51
0.41355963
0
LINE
8
BLACK
6
CONTINUOUS
10
171.6470039999999813
20
-69.3419999999999987
11
178.2510069999999871
21
-70.8664109999999994
0
ARC
8
BLACK
10
146.052899999999994
20
-81.1345999999999918
40
0.7620090000419942
50
90.00067671
51
179.99939848
0
LINE
8
BLACK
6
CONTINUOUS
10
129.0495630000000062
20
-62.1586649999999992
11
122.7639739999999904
21
-59.8717869999999976
0
ARC
8
BLACK
10
149.4505000000000052
20
-71.0742999999999938
40
22.2639997337989755
50
4.46253627
51
23.60632807
0
LINE
8
BLACK
6
CONTINUOUS
10
143.2560000000000002
20
-88.6460000000000008
11
143.2261790000000019
21
-77.500789999999995
0
ARC
8
BLACK
10
154.9399999999999977
20
-87.8840000000000003
40
1.27
50
-143.13010235
51
-36.86989765
0
LINE
8
BLACK
6
CONTINUOUS
10
145.0339999999999918
20
-50.5459999999999994
11
141.7319999999999993
21
-43.1799999999999997
0
LINE
8
BLACK
6
CONTINUOUS
10
153.1336909999999989
20
-80.3725919999999974
11
146.0528909999999883
21
-80.3725919999999974
0
ARC
8
BLACK
10
149.4505000000000052
20
-71.0742999999999938
40
8.9466164347836532
50
-403.35232634
51
-134.08445043
0
LINE
8
BLACK
6
CONTINUOUS
10
153.6781639999999811
20
-50.5062799999999967
11
156.980164000000002
21
-43.1402799999999971
0
CIRCLE
8
BLACK
10
143.2560000000000002
20
-93.7259999999999991
40
1.436841
0
ARC
8
BLACK
10
149.4505000000000052
20
-71.0742999999999938
40
28.942476871612854
50
105.46704782
51
157.22823136
0
ARC
8
BLACK
10
153.1620000000000061
20
-81.1340999999999894
40
0.762034010753457
50
0.00255650
51
92.12898572
0
LINE
8
BLACK
6
CONTINUOUS
10
153.9240000000000066
20
-81.13406599999999
11
153.9240000000000066
21
-88.6460000000000008
0
LINE
8
BLACK
6
CONTINUOUS
10
155.9559999999999889
20
-88.6460000000000008
11
155.9559999999999889
21
-77.215999999999994
0
ARC
8
BLACK
10
149.4505000000000052
20
-71.0742999999999938
40
20.9980135522386995
50
78.38488254
51
102.14165776
0
LINE
8
BLACK
6
CONTINUOUS
10
169.8514150000000029
20
-62.1586759999999998
11
176.1350510000000043
21
-59.8966449999999995
0
LINE
8
BLACK
6
CONTINUOUS
10
120.6499999999999915
20
-70.8659999999999997
11
127.2540029999999973
21
-69.341588999999999
0
ARC
8
BLACK
10
144.2719999999999914
20
-87.8840000000000003
40
1.27
50
-143.13010235
51
-36.86989765
0
ARC
8
BLACK
10
149.4505000000000052
20
-71.0742999999999938
40
22.2640230436355999
50
156.39366867
51
175.53640784
  0
ENDSEC
  0
EOF
