  0
SECTION
  2
HEADER
  9
$ANGBASE
  50
0.0
  9
$ANGDIR
  70
1
  9
$MEASUREMENT
  70
1
  0
ENDSEC
  0
SECTION
  2
TABLES
  0
TABLE
  2
LTYPE
  70
4
  0
LTYPE
  5
40F
  2
CONTINUOUS
  70
0
  3
Solid line
  72
65
  73
0
  40
0.0
  0
LTYPE
  5
410
  2
DASHDOT
 70
0
  3
Dash Dot ____ _ ____ _
 72
65
 73
4
 40
2.0
 49
1.25
 49
-0.25
 49
0.25
 49
-0.25
  0
LTYPE
  5
411
  2
DASHED
 70
0
  3
Dashed __ __ __ __ __
 72
65
 73
2
 40
0.75
 49
0.5
 49
-0.25
  0
LTYPE
  5
43B
  2
DOTTED
 70
0
  3
Dotted .  .  .  .
 72
65
 73
2
 40
0.2
 49
0.0
 49
-0.2
  0
ENDTAB
  0
TABLE
  2
STYLE
  70
4
  0
STYLE
  2
KICAD
  70
0
  40
0
  41
1
  42
1
  50
0
  71
0
  3
isocp.shx
  0
STYLE
  2
KICADB
  70
0
  40
0
  41
1
  42
1
  50
0
  71
0
  3
isocp.shx
  0
STYLE
  2
KICADI
  70
0
  40
0
  41
1
  42
1
  50
15
  71
0
  3
isocp.shx
  0
STYLE
  2
KICADBI
  70
0
  40
0
  41
1
  42
1
  50
15
  71
0
  3
isocp.shx
  0
ENDTAB
  0
TABLE
  2
LAYER
  70
1
  0
LAYER
  2
BLACK
  70
0
  62
7
  6
CONTINUOUS
  0
ENDTAB
  0
ENDSEC
  0
SECTION
  2
ENTITIES
0
ARC
8
BLACK
10
149.4505000000000052
20
-71.0742999999999938
40
28.9310431447823326
50
22.72789038
51
74.91436478
0
CIRCLE
8
BLACK
10
155.9559999999999889
20
-93.7259999999999991
40
1.436841
0
LINE
8
BLACK
6
CONTINUOUS
10
145.2908909999999878
20
-81.1345919999999978
11
145.2879999999999825
21
-88.6460000000000008
0
ARC
8
BLACK
10
149.4505020000000002
20
-71.0742959999999897
40
28.8012552578572496
50
-180.41437728
51
0.41355963
0
LINE
8
BLACK
6
CONTINUOUS
10
171.6470039999999813
20
-69.3419999999999987
11
178.2510069999999871
21
-70.8664109999999994
0
ARC
8
BLACK
10
146.052899999999994
20
-81.1345999999999918
40
0.7620090000419942
50
90.00067671
51
179.99939848
0
LINE
8
BLACK
6
CONTINUOUS
10
129.0495630000000062
20
-62.1586649999999992
11
122.7639739999999904
21
-59.8717869999999976
0
ARC
8
BLACK
10
149.4505000000000052
20
-71.0742999999999938
40
22.2639997337989755
50
4.46253627
51
23.60632807
0
LINE
8
BLACK
6
CONTINUOUS
10
143.2560000000000002
20
-88.6460000000000008
11
143.2261790000000019
21
-77.500789999999995
0
ARC
8
BLACK
10
154.9399999999999977
20
-87.8840000000000003
40
1.27
50
-143.13010235
51
-36.86989765
0
LINE
8
BLACK
6
CONTINUOUS
10
145.0339999999999918
20
-50.5459999999999994
11
141.7319999999999993
21
-43.1799999999999997
0
LINE
8
BLACK
6
CONTINUOUS
10
153.1336909999999989
20
-80.3725919999999974
11
146.0528909999999883
21
-80.3725919999999974
0
ARC
8
BLACK
10
149.4505000000000052
20
-71.0742999999999938
40
8.9466164347836532
50
-403.35232634
51
-134.08445043
0
LINE
8
BLACK
6
CONTINUOUS
10
153.6781639999999811
20
-50.5062799999999967
11
156.980164000000002
21
-43.1402799999999971
0
CIRCLE
8
BLACK
10
143.2560000000000002
20
-93.7259999999999991
40
1.436841
0
ARC
8
BLACK
10
149.4505000000000052
20
-71.0742999999999938
40
28.942476871612854
50
105.46704782
51
157.22823136
0
ARC
8
BLACK
10
153.1620000000000061
20
-81.1340999999999894
40
0.762034010753457
50
0.00255650
51
92.12898572
0
LINE
8
BLACK
6
CONTINUOUS
10
153.9240000000000066
20
-81.13406599999999
11
153.9240000000000066
21
-88.6460000000000008
0
LINE
8
BLACK
6
CONTINUOUS
10
155.9559999999999889
20
-88.6460000000000008
11
155.9559999999999889
21
-77.215999999999994
0
ARC
8
BLACK
10
149.4505000000000052
20
-71.0742999999999938
40
20.9980135522386995
50
78.38488254
51
102.14165776
0
LINE
8
BLACK
6
CONTINUOUS
10
169.8514150000000029
20
-62.1586759999999998
11
176.1350510000000043
21
-59.8966449999999995
0
LINE
8
BLACK
6
CONTINUOUS
10
120.6499999999999915
20
-70.8659999999999997
11
127.2540029999999973
21
-69.341588999999999
0
ARC
8
BLACK
10
144.2719999999999914
20
-87.8840000000000003
40
1.27
50
-143.13010235
51
-36.86989765
0
ARC
8
BLACK
10
149.4505000000000052
20
-71.0742999999999938
40
22.2640230436355999
50
156.39366867
51
175.53640784
0
LINE
8
BLACK
6
CONTINUOUS
10
149.4060000000000059
20
-82.8579999999999899
11
149.8059999999999832
21
-83.2579999999999956
0
LINE
8
BLACK
6
CONTINUOUS
10
149.8059999999999832
20
-82.8579999999999899
11
149.4060000000000059
21
-83.2579999999999956
0
CIRCLE
8
BLACK
10
160.797239999999988
20
-90.6082499999999982
40
0.5
0
CIRCLE
8
BLACK
10
163.33723999999998
20
-90.6082499999999982
40
0.5
0
CIRCLE
8
BLACK
10
165.8772400000000005
20
-90.6082499999999982
40
0.5
0
LINE
8
BLACK
6
CONTINUOUS
10
124.6022399999999948
20
-72.7782499999999999
11
124.6022399999999948
21
-74.1482499999999902
0
LINE
8
BLACK
6
CONTINUOUS
10
123.9172399999999925
20
-73.4632500000000022
11
125.2872399999999971
21
-73.4632500000000022
0
LINE
8
BLACK
6
CONTINUOUS
10
124.6022399999999948
20
-77.2232499999999931
11
124.6022399999999948
21
-78.5932499999999976
0
LINE
8
BLACK
6
CONTINUOUS
10
123.9172399999999925
20
-77.9082499999999953
11
125.2872399999999971
21
-77.9082499999999953
0
LINE
8
BLACK
6
CONTINUOUS
10
124.6022399999999948
20
-81.6682500000000005
11
124.6022399999999948
21
-83.0382499999999908
0
LINE
8
BLACK
6
CONTINUOUS
10
123.9172399999999925
20
-82.3532500000000027
11
125.2872399999999971
21
-82.3532500000000027
0
LINE
8
BLACK
6
CONTINUOUS
10
129.6822400000000073
20
-72.7782499999999999
11
129.6822400000000073
21
-74.1482499999999902
0
LINE
8
BLACK
6
CONTINUOUS
10
128.997240000000005
20
-73.4632500000000022
11
130.3672399999999811
21
-73.4632500000000022
0
LINE
8
BLACK
6
CONTINUOUS
10
129.6822400000000073
20
-77.2232499999999931
11
129.6822400000000073
21
-78.5932499999999976
0
LINE
8
BLACK
6
CONTINUOUS
10
128.997240000000005
20
-77.9082499999999953
11
130.3672399999999811
21
-77.9082499999999953
0
LINE
8
BLACK
6
CONTINUOUS
10
129.6822400000000073
20
-81.6682500000000005
11
129.6822400000000073
21
-83.0382499999999908
0
LINE
8
BLACK
6
CONTINUOUS
10
128.997240000000005
20
-82.3532500000000027
11
130.3672399999999811
21
-82.3532500000000027
0
LINE
8
BLACK
6
CONTINUOUS
10
132.8572399999999902
20
-48.6482499999999973
11
132.8572399999999902
21
-50.0182499999999948
0
LINE
8
BLACK
6
CONTINUOUS
10
132.172239999999988
20
-49.3332499999999996
11
133.5422399999999925
21
-49.3332499999999996
0
LINE
8
BLACK
6
CONTINUOUS
10
132.8572399999999902
20
-53.7282499999999956
11
132.8572399999999902
21
-55.0982500000000002
0
LINE
8
BLACK
6
CONTINUOUS
10
132.172239999999988
20
-54.4132499999999979
11
133.5422399999999925
21
-54.4132499999999979
0
LINE
8
BLACK
6
CONTINUOUS
10
137.3022399999999834
20
-48.6482499999999973
11
137.3022399999999834
21
-50.0182499999999948
0
LINE
8
BLACK
6
CONTINUOUS
10
136.6172399999999811
20
-49.3332499999999996
11
137.9872399999999857
21
-49.3332499999999996
0
LINE
8
BLACK
6
CONTINUOUS
10
137.3022399999999834
20
-53.7282499999999956
11
137.3022399999999834
21
-55.0982500000000002
0
LINE
8
BLACK
6
CONTINUOUS
10
136.6172399999999811
20
-54.4132499999999979
11
137.9872399999999857
21
-54.4132499999999979
0
LINE
8
BLACK
6
CONTINUOUS
10
161.4322399999999789
20
-48.6482499999999973
11
161.4322399999999789
21
-50.0182499999999948
0
LINE
8
BLACK
6
CONTINUOUS
10
160.747240000000005
20
-49.3332499999999996
11
162.1172399999999811
21
-49.3332499999999996
0
LINE
8
BLACK
6
CONTINUOUS
10
161.4322399999999789
20
-53.7282499999999956
11
161.4322399999999789
21
-55.0982500000000002
0
LINE
8
BLACK
6
CONTINUOUS
10
160.747240000000005
20
-54.4132499999999979
11
162.1172399999999811
21
-54.4132499999999979
0
LINE
8
BLACK
6
CONTINUOUS
10
165.8772400000000005
20
-48.6482499999999973
11
165.8772400000000005
21
-50.0182499999999948
0
LINE
8
BLACK
6
CONTINUOUS
10
165.1922399999999982
20
-49.3332499999999996
11
166.5622400000000027
21
-49.3332499999999996
0
LINE
8
BLACK
6
CONTINUOUS
10
165.8772400000000005
20
-53.7282499999999956
11
165.8772400000000005
21
-55.0982500000000002
0
LINE
8
BLACK
6
CONTINUOUS
10
165.1922399999999982
20
-54.4132499999999979
11
166.5622400000000027
21
-54.4132499999999979
0
LINE
8
BLACK
6
CONTINUOUS
10
169.0522399999999834
20
-72.7782499999999999
11
169.0522399999999834
21
-74.1482499999999902
0
LINE
8
BLACK
6
CONTINUOUS
10
168.3672399999999811
20
-73.4632500000000022
11
169.7372399999999857
21
-73.4632500000000022
0
LINE
8
BLACK
6
CONTINUOUS
10
169.0522399999999834
20
-77.2232499999999931
11
169.0522399999999834
21
-78.5932499999999976
0
LINE
8
BLACK
6
CONTINUOUS
10
168.3672399999999811
20
-77.9082499999999953
11
169.7372399999999857
21
-77.9082499999999953
0
LINE
8
BLACK
6
CONTINUOUS
10
169.0522399999999834
20
-81.6682500000000005
11
169.0522399999999834
21
-83.0382499999999908
0
LINE
8
BLACK
6
CONTINUOUS
10
168.3672399999999811
20
-82.3532500000000027
11
169.7372399999999857
21
-82.3532500000000027
0
LINE
8
BLACK
6
CONTINUOUS
10
174.1322399999999959
20
-72.7782499999999999
11
174.1322399999999959
21
-74.1482499999999902
0
LINE
8
BLACK
6
CONTINUOUS
10
173.4472399999999936
20
-73.4632500000000022
11
174.8172399999999982
21
-73.4632500000000022
0
LINE
8
BLACK
6
CONTINUOUS
10
174.1322399999999959
20
-77.2232499999999931
11
174.1322399999999959
21
-78.5932499999999976
0
LINE
8
BLACK
6
CONTINUOUS
10
173.4472399999999936
20
-77.9082499999999953
11
174.8172399999999982
21
-77.9082499999999953
0
LINE
8
BLACK
6
CONTINUOUS
10
174.1322399999999959
20
-81.6682500000000005
11
174.1322399999999959
21
-83.0382499999999908
0
LINE
8
BLACK
6
CONTINUOUS
10
173.4472399999999936
20
-82.3532500000000027
11
174.8172399999999982
21
-82.3532500000000027
0
LINE
8
BLACK
6
CONTINUOUS
10
136.3660099999999886
20
-68.8020099999999957
11
136.3660099999999886
21
-65.8179899999999947
0
LINE
8
BLACK
6
CONTINUOUS
10
136.3660099999999886
20
-65.8179899999999947
11
133.3819900000000018
21
-65.8179899999999947
0
LINE
8
BLACK
6
CONTINUOUS
10
133.3819900000000018
20
-65.8179899999999947
11
133.3819900000000018
21
-68.8020099999999957
0
LINE
8
BLACK
6
CONTINUOUS
10
133.3819900000000018
20
-68.8020099999999957
11
136.3660099999999886
21
-68.8020099999999957
0
LINE
8
BLACK
6
CONTINUOUS
10
150.8440099999999973
20
-56.8640100000000004
11
150.8440099999999973
21
-53.8799899999999994
0
LINE
8
BLACK
6
CONTINUOUS
10
150.8440099999999973
20
-53.8799899999999994
11
147.859989999999982
21
-53.8799899999999994
0
LINE
8
BLACK
6
CONTINUOUS
10
147.859989999999982
20
-53.8799899999999994
11
147.859989999999982
21
-56.8640100000000004
0
LINE
8
BLACK
6
CONTINUOUS
10
147.859989999999982
20
-56.8640100000000004
11
150.8440099999999973
21
-56.8640100000000004
0
LINE
8
BLACK
6
CONTINUOUS
10
165.5760099999999966
20
-68.8020099999999957
11
165.5760099999999966
21
-65.8179899999999947
0
LINE
8
BLACK
6
CONTINUOUS
10
165.5760099999999966
20
-65.8179899999999947
11
162.5919899999999814
21
-65.8179899999999947
0
LINE
8
BLACK
6
CONTINUOUS
10
162.5919899999999814
20
-65.8179899999999947
11
162.5919899999999814
21
-68.8020099999999957
0
LINE
8
BLACK
6
CONTINUOUS
10
162.5919899999999814
20
-68.8020099999999957
11
165.5760099999999966
21
-68.8020099999999957
0
LINE
8
BLACK
6
CONTINUOUS
10
127.5079999999999956
20
-60.019999999999996
11
129.1080000000000041
21
-58.4199999999999946
0
LINE
8
BLACK
6
CONTINUOUS
10
129.1080000000000041
20
-58.4199999999999946
11
127.5079999999999956
21
-56.8200000000000003
0
LINE
8
BLACK
6
CONTINUOUS
10
127.5079999999999956
20
-56.8200000000000003
11
125.9080000000000013
21
-58.4199999999999946
0
LINE
8
BLACK
6
CONTINUOUS
10
125.9080000000000013
20
-58.4199999999999946
11
127.5079999999999956
21
-60.019999999999996
0
LINE
8
BLACK
6
CONTINUOUS
10
149.6059999999999945
20
-97.8659999999999997
11
151.2059999999999889
21
-96.2659999999999911
0
LINE
8
BLACK
6
CONTINUOUS
10
151.2059999999999889
20
-96.2659999999999911
11
149.6059999999999945
21
-94.6659999999999968
0
LINE
8
BLACK
6
CONTINUOUS
10
149.6059999999999945
20
-94.6659999999999968
11
148.0060000000000002
21
-96.2659999999999911
0
LINE
8
BLACK
6
CONTINUOUS
10
148.0060000000000002
20
-96.2659999999999911
11
149.6059999999999945
21
-97.8659999999999997
0
LINE
8
BLACK
6
CONTINUOUS
10
171.4499999999999886
20
-60.019999999999996
11
173.0499999999999829
21
-58.4199999999999946
0
LINE
8
BLACK
6
CONTINUOUS
10
173.0499999999999829
20
-58.4199999999999946
11
171.4499999999999886
21
-56.8200000000000003
0
LINE
8
BLACK
6
CONTINUOUS
10
171.4499999999999886
20
-56.8200000000000003
11
169.8499999999999943
21
-58.4199999999999946
0
LINE
8
BLACK
6
CONTINUOUS
10
169.8499999999999943
20
-58.4199999999999946
11
171.4499999999999886
21
-60.019999999999996
0
LINE
8
BLACK
6
CONTINUOUS
10
123.2070149999999984
20
-103.0403889999999905
11
123.2070149999999984
21
-101.0403889999999905
0
LINE
8
BLACK
6
CONTINUOUS
10
123.2070149999999984
20
-101.0403889999999905
11
123.683205000000001
21
-101.0403889999999905
0
LINE
8
BLACK
6
CONTINUOUS
10
123.683205000000001
20
-101.0403889999999905
11
123.9689199999999971
21
-101.1356269999999995
0
LINE
8
BLACK
6
CONTINUOUS
10
123.9689199999999971
20
-101.1356269999999995
11
124.159396000000001
21
-101.3261029999999892
0
LINE
8
BLACK
6
CONTINUOUS
10
124.159396000000001
20
-101.3261029999999892
11
124.2546339999999958
21
-101.516578999999993
0
LINE
8
BLACK
6
CONTINUOUS
10
124.2546339999999958
20
-101.516578999999993
11
124.3498719999999906
21
-101.8975310000000007
0
LINE
8
BLACK
6
CONTINUOUS
10
124.3498719999999906
20
-101.8975310000000007
11
124.3498719999999906
21
-102.1832459999999969
0
LINE
8
BLACK
6
CONTINUOUS
10
124.3498719999999906
20
-102.1832459999999969
11
124.2546339999999958
21
-102.5641979999999904
0
LINE
8
BLACK
6
CONTINUOUS
10
124.2546339999999958
20
-102.5641979999999904
11
124.159396000000001
21
-102.7546739999999943
0
LINE
8
BLACK
6
CONTINUOUS
10
124.159396000000001
20
-102.7546739999999943
11
123.9689199999999971
21
-102.9451509999999956
0
LINE
8
BLACK
6
CONTINUOUS
10
123.9689199999999971
20
-102.9451509999999956
11
123.683205000000001
21
-103.0403889999999905
0
LINE
8
BLACK
6
CONTINUOUS
10
123.683205000000001
20
-103.0403889999999905
11
123.2070149999999984
21
-103.0403889999999905
0
LINE
8
BLACK
6
CONTINUOUS
10
125.2070149999999984
20
-103.0403889999999905
11
125.2070149999999984
21
-101.7070549999999969
0
LINE
8
BLACK
6
CONTINUOUS
10
125.2070149999999984
20
-102.0880080000000021
11
125.3022529999999932
21
-101.8975310000000007
0
LINE
8
BLACK
6
CONTINUOUS
10
125.3022529999999932
20
-101.8975310000000007
11
125.397490999999988
21
-101.8022929999999917
0
LINE
8
BLACK
6
CONTINUOUS
10
125.397490999999988
20
-101.8022929999999917
11
125.5879669999999919
21
-101.7070549999999969
0
LINE
8
BLACK
6
CONTINUOUS
10
125.5879669999999919
20
-101.7070549999999969
11
125.7784439999999933
21
-101.7070549999999969
0
LINE
8
BLACK
6
CONTINUOUS
10
126.4451099999999997
20
-103.0403889999999905
11
126.4451099999999997
21
-101.7070549999999969
0
LINE
8
BLACK
6
CONTINUOUS
10
126.4451099999999997
20
-101.0403889999999905
11
126.3498719999999906
21
-101.1356269999999995
0
LINE
8
BLACK
6
CONTINUOUS
10
126.3498719999999906
20
-101.1356269999999995
11
126.4451099999999997
21
-101.2308649999999943
0
LINE
8
BLACK
6
CONTINUOUS
10
126.4451099999999997
20
-101.2308649999999943
11
126.5403479999999945
21
-101.1356269999999995
0
LINE
8
BLACK
6
CONTINUOUS
10
126.5403479999999945
20
-101.1356269999999995
11
126.4451099999999997
21
-101.0403889999999905
0
LINE
8
BLACK
6
CONTINUOUS
10
126.4451099999999997
20
-101.0403889999999905
11
126.4451099999999997
21
-101.2308649999999943
0
LINE
8
BLACK
6
CONTINUOUS
10
127.683205000000001
20
-103.0403889999999905
11
127.4927289999999971
21
-102.9451509999999956
0
LINE
8
BLACK
6
CONTINUOUS
10
127.4927289999999971
20
-102.9451509999999956
11
127.397490999999988
21
-102.7546739999999943
0
LINE
8
BLACK
6
CONTINUOUS
10
127.397490999999988
20
-102.7546739999999943
11
127.397490999999988
21
-101.0403889999999905
0
LINE
8
BLACK
6
CONTINUOUS
10
128.7308239999999842
20
-103.0403889999999905
11
128.5403479999999945
21
-102.9451509999999956
0
LINE
8
BLACK
6
CONTINUOUS
10
128.5403479999999945
20
-102.9451509999999956
11
128.4451099999999997
21
-102.7546739999999943
0
LINE
8
BLACK
6
CONTINUOUS
10
128.4451099999999997
20
-102.7546739999999943
11
128.4451099999999997
21
-101.0403889999999905
0
LINE
8
BLACK
6
CONTINUOUS
10
131.0165389999999945
20
-103.0403889999999905
11
131.0165389999999945
21
-101.0403889999999905
0
LINE
8
BLACK
6
CONTINUOUS
10
131.0165389999999945
20
-101.0403889999999905
11
131.6832059999999842
21
-102.4689599999999956
0
LINE
8
BLACK
6
CONTINUOUS
10
131.6832059999999842
20
-102.4689599999999956
11
132.3498720000000048
21
-101.0403889999999905
0
LINE
8
BLACK
6
CONTINUOUS
10
132.3498720000000048
20
-101.0403889999999905
11
132.3498720000000048
21
-103.0403889999999905
0
LINE
8
BLACK
6
CONTINUOUS
10
134.1593959999999868
20
-103.0403889999999905
11
134.1593959999999868
21
-101.992769999999993
0
LINE
8
BLACK
6
CONTINUOUS
10
134.1593959999999868
20
-101.992769999999993
11
134.0641579999999919
21
-101.8022929999999917
0
LINE
8
BLACK
6
CONTINUOUS
10
134.0641579999999919
20
-101.8022929999999917
11
133.8736820000000023
21
-101.7070549999999969
0
LINE
8
BLACK
6
CONTINUOUS
10
133.8736820000000023
20
-101.7070549999999969
11
133.4927289999999971
21
-101.7070549999999969
0
LINE
8
BLACK
6
CONTINUOUS
10
133.4927289999999971
20
-101.7070549999999969
11
133.3022530000000074
21
-101.8022929999999917
0
LINE
8
BLACK
6
CONTINUOUS
10
134.1593959999999868
20
-102.9451509999999956
11
133.9689199999999971
21
-103.0403889999999905
0
LINE
8
BLACK
6
CONTINUOUS
10
133.9689199999999971
20
-103.0403889999999905
11
133.4927289999999971
21
-103.0403889999999905
0
LINE
8
BLACK
6
CONTINUOUS
10
133.4927289999999971
20
-103.0403889999999905
11
133.3022530000000074
21
-102.9451509999999956
0
LINE
8
BLACK
6
CONTINUOUS
10
133.3022530000000074
20
-102.9451509999999956
11
133.2070149999999842
21
-102.7546739999999943
0
LINE
8
BLACK
6
CONTINUOUS
10
133.2070149999999842
20
-102.7546739999999943
11
133.2070149999999842
21
-102.5641979999999904
0
LINE
8
BLACK
6
CONTINUOUS
10
133.2070149999999842
20
-102.5641979999999904
11
133.3022530000000074
21
-102.3737220000000008
0
LINE
8
BLACK
6
CONTINUOUS
10
133.3022530000000074
20
-102.3737220000000008
11
133.4927289999999971
21
-102.2784839999999917
0
LINE
8
BLACK
6
CONTINUOUS
10
133.4927289999999971
20
-102.2784839999999917
11
133.9689199999999971
21
-102.2784839999999917
0
LINE
8
BLACK
6
CONTINUOUS
10
133.9689199999999971
20
-102.2784839999999917
11
134.1593959999999868
21
-102.1832459999999969
0
LINE
8
BLACK
6
CONTINUOUS
10
135.1117769999999894
20
-101.7070549999999969
11
135.1117769999999894
21
-103.7070549999999969
0
LINE
8
BLACK
6
CONTINUOUS
10
135.1117769999999894
20
-101.8022929999999917
11
135.3022530000000074
21
-101.7070549999999969
0
LINE
8
BLACK
6
CONTINUOUS
10
135.3022530000000074
20
-101.7070549999999969
11
135.6832059999999842
21
-101.7070549999999969
0
LINE
8
BLACK
6
CONTINUOUS
10
135.6832059999999842
20
-101.7070549999999969
11
135.8736820000000023
21
-101.8022929999999917
0
LINE
8
BLACK
6
CONTINUOUS
10
135.8736820000000023
20
-101.8022929999999917
11
135.9689199999999971
21
-101.8975310000000007
0
LINE
8
BLACK
6
CONTINUOUS
10
135.9689199999999971
20
-101.8975310000000007
11
136.0641579999999919
21
-102.0880080000000021
0
LINE
8
BLACK
6
CONTINUOUS
10
136.0641579999999919
20
-102.0880080000000021
11
136.0641579999999919
21
-102.6594359999999995
0
LINE
8
BLACK
6
CONTINUOUS
10
136.0641579999999919
20
-102.6594359999999995
11
135.9689199999999971
21
-102.8499119999999891
0
LINE
8
BLACK
6
CONTINUOUS
10
135.9689199999999971
20
-102.8499119999999891
11
135.8736820000000023
21
-102.9451509999999956
0
LINE
8
BLACK
6
CONTINUOUS
10
135.8736820000000023
20
-102.9451509999999956
11
135.6832059999999842
21
-103.0403889999999905
0
LINE
8
BLACK
6
CONTINUOUS
10
135.6832059999999842
20
-103.0403889999999905
11
135.3022530000000074
21
-103.0403889999999905
0
LINE
8
BLACK
6
CONTINUOUS
10
135.3022530000000074
20
-103.0403889999999905
11
135.1117769999999894
21
-102.9451509999999956
0
LINE
8
BLACK
6
CONTINUOUS
10
136.9213009999999997
20
-102.8499119999999891
11
137.0165389999999945
21
-102.9451509999999956
0
LINE
8
BLACK
6
CONTINUOUS
10
137.0165389999999945
20
-102.9451509999999956
11
136.9213009999999997
21
-103.0403889999999905
0
LINE
8
BLACK
6
CONTINUOUS
10
136.9213009999999997
20
-103.0403889999999905
11
136.8260630000000049
21
-102.9451509999999956
0
LINE
8
BLACK
6
CONTINUOUS
10
136.8260630000000049
20
-102.9451509999999956
11
136.9213009999999997
21
-102.8499119999999891
0
LINE
8
BLACK
6
CONTINUOUS
10
136.9213009999999997
20
-102.8499119999999891
11
136.9213009999999997
21
-103.0403889999999905
0
LINE
8
BLACK
6
CONTINUOUS
10
136.9213009999999997
20
-101.8022929999999917
11
137.0165389999999945
21
-101.8975310000000007
0
LINE
8
BLACK
6
CONTINUOUS
10
137.0165389999999945
20
-101.8975310000000007
11
136.9213009999999997
21
-101.992769999999993
0
LINE
8
BLACK
6
CONTINUOUS
10
136.9213009999999997
20
-101.992769999999993
11
136.8260630000000049
21
-101.8975310000000007
0
LINE
8
BLACK
6
CONTINUOUS
10
136.8260630000000049
20
-101.8975310000000007
11
136.9213009999999997
21
-101.8022929999999917
0
LINE
8
BLACK
6
CONTINUOUS
10
136.9213009999999997
20
-101.8022929999999917
11
136.9213009999999997
21
-101.992769999999993
0
LINE
8
BLACK
6
CONTINUOUS
10
120.1992469999999997
20
-106.1255510000000015
11
120.5992469999999912
21
-106.525550999999993
0
LINE
8
BLACK
6
CONTINUOUS
10
120.5992469999999912
20
-106.1255510000000015
11
120.1992469999999997
21
-106.525550999999993
0
LINE
8
BLACK
6
CONTINUOUS
10
123.5879669999999919
20
-105.2403889999999933
11
123.7784439999999933
21
-105.2403889999999933
0
LINE
8
BLACK
6
CONTINUOUS
10
123.7784439999999933
20
-105.2403889999999933
11
123.9689199999999971
21
-105.3356269999999881
0
LINE
8
BLACK
6
CONTINUOUS
10
123.9689199999999971
20
-105.3356269999999881
11
124.0641579999999919
21
-105.4308649999999972
0
LINE
8
BLACK
6
CONTINUOUS
10
124.0641579999999919
20
-105.4308649999999972
11
124.159396000000001
21
-105.621341000000001
0
LINE
8
BLACK
6
CONTINUOUS
10
124.159396000000001
20
-105.621341000000001
11
124.2546339999999958
21
-106.0022929999999945
0
LINE
8
BLACK
6
CONTINUOUS
10
124.2546339999999958
20
-106.0022929999999945
11
124.2546339999999958
21
-106.4784839999999946
0
LINE
8
BLACK
6
CONTINUOUS
10
124.2546339999999958
20
-106.4784839999999946
11
124.159396000000001
21
-106.8594359999999881
0
LINE
8
BLACK
6
CONTINUOUS
10
124.159396000000001
20
-106.8594359999999881
11
124.0641579999999919
21
-107.049911999999992
0
LINE
8
BLACK
6
CONTINUOUS
10
124.0641579999999919
20
-107.049911999999992
11
123.9689199999999971
21
-107.1451509999999985
0
LINE
8
BLACK
6
CONTINUOUS
10
123.9689199999999971
20
-107.1451509999999985
11
123.7784439999999933
21
-107.2403889999999933
0
LINE
8
BLACK
6
CONTINUOUS
10
123.7784439999999933
20
-107.2403889999999933
11
123.5879669999999919
21
-107.2403889999999933
0
LINE
8
BLACK
6
CONTINUOUS
10
123.5879669999999919
20
-107.2403889999999933
11
123.397490999999988
21
-107.1451509999999985
0
LINE
8
BLACK
6
CONTINUOUS
10
123.397490999999988
20
-107.1451509999999985
11
123.3022529999999932
21
-107.049911999999992
0
LINE
8
BLACK
6
CONTINUOUS
10
123.3022529999999932
20
-107.049911999999992
11
123.2070149999999984
21
-106.8594359999999881
0
LINE
8
BLACK
6
CONTINUOUS
10
123.2070149999999984
20
-106.8594359999999881
11
123.1117769999999894
21
-106.4784839999999946
0
LINE
8
BLACK
6
CONTINUOUS
10
123.1117769999999894
20
-106.4784839999999946
11
123.1117769999999894
21
-106.0022929999999945
0
LINE
8
BLACK
6
CONTINUOUS
10
123.1117769999999894
20
-106.0022929999999945
11
123.2070149999999984
21
-105.621341000000001
0
LINE
8
BLACK
6
CONTINUOUS
10
123.2070149999999984
20
-105.621341000000001
11
123.3022529999999932
21
-105.4308649999999972
0
LINE
8
BLACK
6
CONTINUOUS
10
123.3022529999999932
20
-105.4308649999999972
11
123.397490999999988
21
-105.3356269999999881
0
LINE
8
BLACK
6
CONTINUOUS
10
123.397490999999988
20
-105.3356269999999881
11
123.5879669999999919
21
-105.2403889999999933
0
LINE
8
BLACK
6
CONTINUOUS
10
125.1117769999999894
20
-107.049911999999992
11
125.2070149999999984
21
-107.1451509999999985
0
LINE
8
BLACK
6
CONTINUOUS
10
125.2070149999999984
20
-107.1451509999999985
11
125.1117769999999894
21
-107.2403889999999933
0
LINE
8
BLACK
6
CONTINUOUS
10
125.1117769999999894
20
-107.2403889999999933
11
125.0165389999999945
21
-107.1451509999999985
0
LINE
8
BLACK
6
CONTINUOUS
10
125.0165389999999945
20
-107.1451509999999985
11
125.1117769999999894
21
-107.049911999999992
0
LINE
8
BLACK
6
CONTINUOUS
10
125.1117769999999894
20
-107.049911999999992
11
125.1117769999999894
21
-107.2403889999999933
0
LINE
8
BLACK
6
CONTINUOUS
10
126.9213009999999997
20
-105.9070549999999997
11
126.9213009999999997
21
-107.2403889999999933
0
LINE
8
BLACK
6
CONTINUOUS
10
126.4451099999999997
20
-105.1451509999999985
11
125.9689199999999971
21
-106.5737219999999894
0
LINE
8
BLACK
6
CONTINUOUS
10
125.9689199999999971
20
-106.5737219999999894
11
127.2070149999999984
21
-106.5737219999999894
0
LINE
8
BLACK
6
CONTINUOUS
10
128.3498720000000048
20
-105.2403889999999933
11
128.540348999999992
21
-105.2403889999999933
0
LINE
8
BLACK
6
CONTINUOUS
10
128.540348999999992
20
-105.2403889999999933
11
128.7308249999999816
21
-105.3356269999999881
0
LINE
8
BLACK
6
CONTINUOUS
10
128.7308249999999816
20
-105.3356269999999881
11
128.8260630000000049
21
-105.4308649999999972
0
LINE
8
BLACK
6
CONTINUOUS
10
128.8260630000000049
20
-105.4308649999999972
11
128.9213009999999997
21
-105.621341000000001
0
LINE
8
BLACK
6
CONTINUOUS
10
128.9213009999999997
20
-105.621341000000001
11
129.0165389999999945
21
-106.0022929999999945
0
LINE
8
BLACK
6
CONTINUOUS
10
129.0165389999999945
20
-106.0022929999999945
11
129.0165389999999945
21
-106.4784839999999946
0
LINE
8
BLACK
6
CONTINUOUS
10
129.0165389999999945
20
-106.4784839999999946
11
128.9213009999999997
21
-106.8594359999999881
0
LINE
8
BLACK
6
CONTINUOUS
10
128.9213009999999997
20
-106.8594359999999881
11
128.8260630000000049
21
-107.049911999999992
0
LINE
8
BLACK
6
CONTINUOUS
10
128.8260630000000049
20
-107.049911999999992
11
128.7308249999999816
21
-107.1451509999999985
0
LINE
8
BLACK
6
CONTINUOUS
10
128.7308249999999816
20
-107.1451509999999985
11
128.540348999999992
21
-107.2403889999999933
0
LINE
8
BLACK
6
CONTINUOUS
10
128.540348999999992
20
-107.2403889999999933
11
128.3498720000000048
21
-107.2403889999999933
0
LINE
8
BLACK
6
CONTINUOUS
10
128.3498720000000048
20
-107.2403889999999933
11
128.1593959999999868
21
-107.1451509999999985
0
LINE
8
BLACK
6
CONTINUOUS
10
128.1593959999999868
20
-107.1451509999999985
11
128.0641579999999919
21
-107.049911999999992
0
LINE
8
BLACK
6
CONTINUOUS
10
128.0641579999999919
20
-107.049911999999992
11
127.9689199999999971
21
-106.8594359999999881
0
LINE
8
BLACK
6
CONTINUOUS
10
127.9689199999999971
20
-106.8594359999999881
11
127.8736819999999881
21
-106.4784839999999946
0
LINE
8
BLACK
6
CONTINUOUS
10
127.8736819999999881
20
-106.4784839999999946
11
127.8736819999999881
21
-106.0022929999999945
0
LINE
8
BLACK
6
CONTINUOUS
10
127.8736819999999881
20
-106.0022929999999945
11
127.9689199999999971
21
-105.621341000000001
0
LINE
8
BLACK
6
CONTINUOUS
10
127.9689199999999971
20
-105.621341000000001
11
128.0641579999999919
21
-105.4308649999999972
0
LINE
8
BLACK
6
CONTINUOUS
10
128.0641579999999919
20
-105.4308649999999972
11
128.1593959999999868
21
-105.3356269999999881
0
LINE
8
BLACK
6
CONTINUOUS
10
128.1593959999999868
20
-105.3356269999999881
11
128.3498720000000048
21
-105.2403889999999933
0
LINE
8
BLACK
6
CONTINUOUS
10
130.2546339999999816
20
-105.2403889999999933
11
130.4451109999999971
21
-105.2403889999999933
0
LINE
8
BLACK
6
CONTINUOUS
10
130.4451109999999971
20
-105.2403889999999933
11
130.6355869999999868
21
-105.3356269999999881
0
LINE
8
BLACK
6
CONTINUOUS
10
130.6355869999999868
20
-105.3356269999999881
11
130.7308249999999816
21
-105.4308649999999972
0
LINE
8
BLACK
6
CONTINUOUS
10
130.7308249999999816
20
-105.4308649999999972
11
130.8260630000000049
21
-105.621341000000001
0
LINE
8
BLACK
6
CONTINUOUS
10
130.8260630000000049
20
-105.621341000000001
11
130.9213009999999997
21
-106.0022929999999945
0
LINE
8
BLACK
6
CONTINUOUS
10
130.9213009999999997
20
-106.0022929999999945
11
130.9213009999999997
21
-106.4784839999999946
0
LINE
8
BLACK
6
CONTINUOUS
10
130.9213009999999997
20
-106.4784839999999946
11
130.8260630000000049
21
-106.8594359999999881
0
LINE
8
BLACK
6
CONTINUOUS
10
130.8260630000000049
20
-106.8594359999999881
11
130.7308249999999816
21
-107.049911999999992
0
LINE
8
BLACK
6
CONTINUOUS
10
130.7308249999999816
20
-107.049911999999992
11
130.6355869999999868
21
-107.1451509999999985
0
LINE
8
BLACK
6
CONTINUOUS
10
130.6355869999999868
20
-107.1451509999999985
11
130.4451109999999971
21
-107.2403889999999933
0
LINE
8
BLACK
6
CONTINUOUS
10
130.4451109999999971
20
-107.2403889999999933
11
130.2546339999999816
21
-107.2403889999999933
0
LINE
8
BLACK
6
CONTINUOUS
10
130.2546339999999816
20
-107.2403889999999933
11
130.0641579999999919
21
-107.1451509999999985
0
LINE
8
BLACK
6
CONTINUOUS
10
130.0641579999999919
20
-107.1451509999999985
11
129.9689199999999971
21
-107.049911999999992
0
LINE
8
BLACK
6
CONTINUOUS
10
129.9689199999999971
20
-107.049911999999992
11
129.8736820000000023
21
-106.8594359999999881
0
LINE
8
BLACK
6
CONTINUOUS
10
129.8736820000000023
20
-106.8594359999999881
11
129.7784440000000075
21
-106.4784839999999946
0
LINE
8
BLACK
6
CONTINUOUS
10
129.7784440000000075
20
-106.4784839999999946
11
129.7784440000000075
21
-106.0022929999999945
0
LINE
8
BLACK
6
CONTINUOUS
10
129.7784440000000075
20
-106.0022929999999945
11
129.8736820000000023
21
-105.621341000000001
0
LINE
8
BLACK
6
CONTINUOUS
10
129.8736820000000023
20
-105.621341000000001
11
129.9689199999999971
21
-105.4308649999999972
0
LINE
8
BLACK
6
CONTINUOUS
10
129.9689199999999971
20
-105.4308649999999972
11
130.0641579999999919
21
-105.3356269999999881
0
LINE
8
BLACK
6
CONTINUOUS
10
130.0641579999999919
20
-105.3356269999999881
11
130.2546339999999816
21
-105.2403889999999933
0
LINE
8
BLACK
6
CONTINUOUS
10
131.7784440000000075
20
-107.2403889999999933
11
131.7784440000000075
21
-105.9070549999999997
0
LINE
8
BLACK
6
CONTINUOUS
10
131.7784440000000075
20
-106.0975309999999894
11
131.8736820000000023
21
-106.0022929999999945
0
LINE
8
BLACK
6
CONTINUOUS
10
131.8736820000000023
20
-106.0022929999999945
11
132.0641579999999919
21
-105.9070549999999997
0
LINE
8
BLACK
6
CONTINUOUS
10
132.0641579999999919
20
-105.9070549999999997
11
132.3498730000000023
21
-105.9070549999999997
0
LINE
8
BLACK
6
CONTINUOUS
10
132.3498730000000023
20
-105.9070549999999997
11
132.540348999999992
21
-106.0022929999999945
0
LINE
8
BLACK
6
CONTINUOUS
10
132.540348999999992
20
-106.0022929999999945
11
132.6355869999999868
21
-106.1927699999999959
0
LINE
8
BLACK
6
CONTINUOUS
10
132.6355869999999868
20
-106.1927699999999959
11
132.6355869999999868
21
-107.2403889999999933
0
LINE
8
BLACK
6
CONTINUOUS
10
132.6355869999999868
20
-106.1927699999999959
11
132.7308249999999816
21
-106.0022929999999945
0
LINE
8
BLACK
6
CONTINUOUS
10
132.7308249999999816
20
-106.0022929999999945
11
132.9213009999999997
21
-105.9070549999999997
0
LINE
8
BLACK
6
CONTINUOUS
10
132.9213009999999997
20
-105.9070549999999997
11
133.2070149999999842
21
-105.9070549999999997
0
LINE
8
BLACK
6
CONTINUOUS
10
133.2070149999999842
20
-105.9070549999999997
11
133.3974919999999997
21
-106.0022929999999945
0
LINE
8
BLACK
6
CONTINUOUS
10
133.3974919999999997
20
-106.0022929999999945
11
133.4927299999999946
21
-106.1927699999999959
0
LINE
8
BLACK
6
CONTINUOUS
10
133.4927299999999946
20
-106.1927699999999959
11
133.4927299999999946
21
-107.2403889999999933
0
LINE
8
BLACK
6
CONTINUOUS
10
134.4451109999999971
20
-107.2403889999999933
11
134.4451109999999971
21
-105.9070549999999997
0
LINE
8
BLACK
6
CONTINUOUS
10
134.4451109999999971
20
-106.0975309999999894
11
134.540348999999992
21
-106.0022929999999945
0
LINE
8
BLACK
6
CONTINUOUS
10
134.540348999999992
20
-106.0022929999999945
11
134.7308249999999816
21
-105.9070549999999997
0
LINE
8
BLACK
6
CONTINUOUS
10
134.7308249999999816
20
-105.9070549999999997
11
135.016539999999992
21
-105.9070549999999997
0
LINE
8
BLACK
6
CONTINUOUS
10
135.016539999999992
20
-105.9070549999999997
11
135.2070159999999817
21
-106.0022929999999945
0
LINE
8
BLACK
6
CONTINUOUS
10
135.2070159999999817
20
-106.0022929999999945
11
135.3022540000000049
21
-106.1927699999999959
0
LINE
8
BLACK
6
CONTINUOUS
10
135.3022540000000049
20
-106.1927699999999959
11
135.3022540000000049
21
-107.2403889999999933
0
LINE
8
BLACK
6
CONTINUOUS
10
135.3022540000000049
20
-106.1927699999999959
11
135.3974919999999997
21
-106.0022929999999945
0
LINE
8
BLACK
6
CONTINUOUS
10
135.3974919999999997
20
-106.0022929999999945
11
135.5879679999999894
21
-105.9070549999999997
0
LINE
8
BLACK
6
CONTINUOUS
10
135.5879679999999894
20
-105.9070549999999997
11
135.8736820000000023
21
-105.9070549999999997
0
LINE
8
BLACK
6
CONTINUOUS
10
135.8736820000000023
20
-105.9070549999999997
11
136.0641589999999894
21
-106.0022929999999945
0
LINE
8
BLACK
6
CONTINUOUS
10
136.0641589999999894
20
-106.0022929999999945
11
136.1593969999999842
21
-106.1927699999999959
0
LINE
8
BLACK
6
CONTINUOUS
10
136.1593969999999842
20
-106.1927699999999959
11
136.1593969999999842
21
-107.2403889999999933
0
LINE
8
BLACK
6
CONTINUOUS
10
140.0641589999999894
20
-105.1451509999999985
11
138.3498739999999998
21
-107.7165789999999959
0
LINE
8
BLACK
6
CONTINUOUS
10
142.6355879999999843
20
-105.2403889999999933
11
142.8260649999999998
21
-105.2403889999999933
0
LINE
8
BLACK
6
CONTINUOUS
10
142.8260649999999998
20
-105.2403889999999933
11
143.0165409999999895
21
-105.3356269999999881
0
LINE
8
BLACK
6
CONTINUOUS
10
143.0165409999999895
20
-105.3356269999999881
11
143.1117789999999843
21
-105.4308649999999972
0
LINE
8
BLACK
6
CONTINUOUS
10
143.1117789999999843
20
-105.4308649999999972
11
143.2070170000000076
21
-105.621341000000001
0
LINE
8
BLACK
6
CONTINUOUS
10
143.2070170000000076
20
-105.621341000000001
11
143.3022550000000024
21
-106.0022929999999945
0
LINE
8
BLACK
6
CONTINUOUS
10
143.3022550000000024
20
-106.0022929999999945
11
143.3022550000000024
21
-106.4784839999999946
0
LINE
8
BLACK
6
CONTINUOUS
10
143.3022550000000024
20
-106.4784839999999946
11
143.2070170000000076
21
-106.8594359999999881
0
LINE
8
BLACK
6
CONTINUOUS
10
143.2070170000000076
20
-106.8594359999999881
11
143.1117789999999843
21
-107.049911999999992
0
LINE
8
BLACK
6
CONTINUOUS
10
143.1117789999999843
20
-107.049911999999992
11
143.0165409999999895
21
-107.1451509999999985
0
LINE
8
BLACK
6
CONTINUOUS
10
143.0165409999999895
20
-107.1451509999999985
11
142.8260649999999998
21
-107.2403889999999933
0
LINE
8
BLACK
6
CONTINUOUS
10
142.8260649999999998
20
-107.2403889999999933
11
142.6355879999999843
21
-107.2403889999999933
0
LINE
8
BLACK
6
CONTINUOUS
10
142.6355879999999843
20
-107.2403889999999933
11
142.4451119999999946
21
-107.1451509999999985
0
LINE
8
BLACK
6
CONTINUOUS
10
142.4451119999999946
20
-107.1451509999999985
11
142.3498739999999998
21
-107.049911999999992
0
LINE
8
BLACK
6
CONTINUOUS
10
142.3498739999999998
20
-107.049911999999992
11
142.254636000000005
21
-106.8594359999999881
0
LINE
8
BLACK
6
CONTINUOUS
10
142.254636000000005
20
-106.8594359999999881
11
142.1593979999999817
21
-106.4784839999999946
0
LINE
8
BLACK
6
CONTINUOUS
10
142.1593979999999817
20
-106.4784839999999946
11
142.1593979999999817
21
-106.0022929999999945
0
LINE
8
BLACK
6
CONTINUOUS
10
142.1593979999999817
20
-106.0022929999999945
11
142.254636000000005
21
-105.621341000000001
0
LINE
8
BLACK
6
CONTINUOUS
10
142.254636000000005
20
-105.621341000000001
11
142.3498739999999998
21
-105.4308649999999972
0
LINE
8
BLACK
6
CONTINUOUS
10
142.3498739999999998
20
-105.4308649999999972
11
142.4451119999999946
21
-105.3356269999999881
0
LINE
8
BLACK
6
CONTINUOUS
10
142.4451119999999946
20
-105.3356269999999881
11
142.6355879999999843
21
-105.2403889999999933
0
LINE
8
BLACK
6
CONTINUOUS
10
144.1593979999999817
20
-107.049911999999992
11
144.254636000000005
21
-107.1451509999999985
0
LINE
8
BLACK
6
CONTINUOUS
10
144.254636000000005
20
-107.1451509999999985
11
144.1593979999999817
21
-107.2403889999999933
0
LINE
8
BLACK
6
CONTINUOUS
10
144.1593979999999817
20
-107.2403889999999933
11
144.0641599999999869
21
-107.1451509999999985
0
LINE
8
BLACK
6
CONTINUOUS
10
144.0641599999999869
20
-107.1451509999999985
11
144.1593979999999817
21
-107.049911999999992
0
LINE
8
BLACK
6
CONTINUOUS
10
144.1593979999999817
20
-107.049911999999992
11
144.1593979999999817
21
-107.2403889999999933
0
LINE
8
BLACK
6
CONTINUOUS
10
145.492730999999992
20
-105.2403889999999933
11
145.6832080000000076
21
-105.2403889999999933
0
LINE
8
BLACK
6
CONTINUOUS
10
145.6832080000000076
20
-105.2403889999999933
11
145.8736839999999972
21
-105.3356269999999881
0
LINE
8
BLACK
6
CONTINUOUS
10
145.8736839999999972
20
-105.3356269999999881
11
145.9689219999999921
21
-105.4308649999999972
0
LINE
8
BLACK
6
CONTINUOUS
10
145.9689219999999921
20
-105.4308649999999972
11
146.0641599999999869
21
-105.621341000000001
0
LINE
8
BLACK
6
CONTINUOUS
10
146.0641599999999869
20
-105.621341000000001
11
146.1593979999999817
21
-106.0022929999999945
0
LINE
8
BLACK
6
CONTINUOUS
10
146.1593979999999817
20
-106.0022929999999945
11
146.1593979999999817
21
-106.4784839999999946
0
LINE
8
BLACK
6
CONTINUOUS
10
146.1593979999999817
20
-106.4784839999999946
11
146.0641599999999869
21
-106.8594359999999881
0
LINE
8
BLACK
6
CONTINUOUS
10
146.0641599999999869
20
-106.8594359999999881
11
145.9689219999999921
21
-107.049911999999992
0
LINE
8
BLACK
6
CONTINUOUS
10
145.9689219999999921
20
-107.049911999999992
11
145.8736839999999972
21
-107.1451509999999985
0
LINE
8
BLACK
6
CONTINUOUS
10
145.8736839999999972
20
-107.1451509999999985
11
145.6832080000000076
21
-107.2403889999999933
0
LINE
8
BLACK
6
CONTINUOUS
10
145.6832080000000076
20
-107.2403889999999933
11
145.492730999999992
21
-107.2403889999999933
0
LINE
8
BLACK
6
CONTINUOUS
10
145.492730999999992
20
-107.2403889999999933
11
145.3022550000000024
21
-107.1451509999999985
0
LINE
8
BLACK
6
CONTINUOUS
10
145.3022550000000024
20
-107.1451509999999985
11
145.2070170000000076
21
-107.049911999999992
0
LINE
8
BLACK
6
CONTINUOUS
10
145.2070170000000076
20
-107.049911999999992
11
145.1117789999999843
21
-106.8594359999999881
0
LINE
8
BLACK
6
CONTINUOUS
10
145.1117789999999843
20
-106.8594359999999881
11
145.0165409999999895
21
-106.4784839999999946
0
LINE
8
BLACK
6
CONTINUOUS
10
145.0165409999999895
20
-106.4784839999999946
11
145.0165409999999895
21
-106.0022929999999945
0
LINE
8
BLACK
6
CONTINUOUS
10
145.0165409999999895
20
-106.0022929999999945
11
145.1117789999999843
21
-105.621341000000001
0
LINE
8
BLACK
6
CONTINUOUS
10
145.1117789999999843
20
-105.621341000000001
11
145.2070170000000076
21
-105.4308649999999972
0
LINE
8
BLACK
6
CONTINUOUS
10
145.2070170000000076
20
-105.4308649999999972
11
145.3022550000000024
21
-105.3356269999999881
0
LINE
8
BLACK
6
CONTINUOUS
10
145.3022550000000024
20
-105.3356269999999881
11
145.492730999999992
21
-105.2403889999999933
0
LINE
8
BLACK
6
CONTINUOUS
10
148.0641599999999869
20
-107.2403889999999933
11
146.9213029999999947
21
-107.2403889999999933
0
LINE
8
BLACK
6
CONTINUOUS
10
147.492730999999992
20
-107.2403889999999933
11
147.492730999999992
21
-105.2403889999999933
0
LINE
8
BLACK
6
CONTINUOUS
10
147.492730999999992
20
-105.2403889999999933
11
147.3022550000000024
21
-105.526102999999992
0
LINE
8
BLACK
6
CONTINUOUS
10
147.3022550000000024
20
-105.526102999999992
11
147.1117789999999843
21
-105.7165789999999959
0
LINE
8
BLACK
6
CONTINUOUS
10
147.1117789999999843
20
-105.7165789999999959
11
146.9213029999999947
21
-105.8118169999999907
0
LINE
8
BLACK
6
CONTINUOUS
10
149.8736839999999972
20
-105.2403889999999933
11
148.9213029999999947
21
-105.2403889999999933
0
LINE
8
BLACK
6
CONTINUOUS
10
148.9213029999999947
20
-105.2403889999999933
11
148.8260649999999998
21
-106.1927699999999959
0
LINE
8
BLACK
6
CONTINUOUS
10
148.8260649999999998
20
-106.1927699999999959
11
148.9213029999999947
21
-106.0975309999999894
0
LINE
8
BLACK
6
CONTINUOUS
10
148.9213029999999947
20
-106.0975309999999894
11
149.1117789999999843
21
-106.0022929999999945
0
LINE
8
BLACK
6
CONTINUOUS
10
149.1117789999999843
20
-106.0022929999999945
11
149.5879699999999843
21
-106.0022929999999945
0
LINE
8
BLACK
6
CONTINUOUS
10
149.5879699999999843
20
-106.0022929999999945
11
149.7784460000000024
21
-106.0975309999999894
0
LINE
8
BLACK
6
CONTINUOUS
10
149.7784460000000024
20
-106.0975309999999894
11
149.8736839999999972
21
-106.1927699999999959
0
LINE
8
BLACK
6
CONTINUOUS
10
149.8736839999999972
20
-106.1927699999999959
11
149.9689219999999921
21
-106.3832459999999998
0
LINE
8
BLACK
6
CONTINUOUS
10
149.9689219999999921
20
-106.3832459999999998
11
149.9689219999999921
21
-106.8594359999999881
0
LINE
8
BLACK
6
CONTINUOUS
10
149.9689219999999921
20
-106.8594359999999881
11
149.8736839999999972
21
-107.049911999999992
0
LINE
8
BLACK
6
CONTINUOUS
10
149.8736839999999972
20
-107.049911999999992
11
149.7784460000000024
21
-107.1451509999999985
0
LINE
8
BLACK
6
CONTINUOUS
10
149.7784460000000024
20
-107.1451509999999985
11
149.5879699999999843
21
-107.2403889999999933
0
LINE
8
BLACK
6
CONTINUOUS
10
149.5879699999999843
20
-107.2403889999999933
11
149.1117789999999843
21
-107.2403889999999933
0
LINE
8
BLACK
6
CONTINUOUS
10
149.1117789999999843
20
-107.2403889999999933
11
148.9213029999999947
21
-107.1451509999999985
0
LINE
8
BLACK
6
CONTINUOUS
10
148.9213029999999947
20
-107.1451509999999985
11
148.8260649999999998
21
-107.049911999999992
0
LINE
8
BLACK
6
CONTINUOUS
10
150.6355889999999818
20
-105.2403889999999933
11
151.9689219999999921
21
-105.2403889999999933
0
LINE
8
BLACK
6
CONTINUOUS
10
151.9689219999999921
20
-105.2403889999999933
11
151.1117789999999843
21
-107.2403889999999933
0
LINE
8
BLACK
6
CONTINUOUS
10
152.6355889999999818
20
-105.2403889999999933
11
152.6355889999999818
21
-105.621341000000001
0
LINE
8
BLACK
6
CONTINUOUS
10
153.3974939999999947
20
-105.2403889999999933
11
153.3974939999999947
21
-105.621341000000001
0
LINE
8
BLACK
6
CONTINUOUS
10
156.3498759999999947
20
-108.0022929999999945
11
156.2546370000000024
21
-107.9070549999999997
0
LINE
8
BLACK
6
CONTINUOUS
10
156.2546370000000024
20
-107.9070549999999997
11
156.0641609999999844
21
-107.621341000000001
0
LINE
8
BLACK
6
CONTINUOUS
10
156.0641609999999844
20
-107.621341000000001
11
155.9689229999999895
21
-107.4308649999999972
0
LINE
8
BLACK
6
CONTINUOUS
10
155.9689229999999895
20
-107.4308649999999972
11
155.8736849999999947
21
-107.1451509999999985
0
LINE
8
BLACK
6
CONTINUOUS
10
155.8736849999999947
20
-107.1451509999999985
11
155.7784469999999999
21
-106.6689599999999984
0
LINE
8
BLACK
6
CONTINUOUS
10
155.7784469999999999
20
-106.6689599999999984
11
155.7784469999999999
21
-106.2880079999999907
0
LINE
8
BLACK
6
CONTINUOUS
10
155.7784469999999999
20
-106.2880079999999907
11
155.8736849999999947
21
-105.8118169999999907
0
LINE
8
BLACK
6
CONTINUOUS
10
155.8736849999999947
20
-105.8118169999999907
11
155.9689229999999895
21
-105.526102999999992
0
LINE
8
BLACK
6
CONTINUOUS
10
155.9689229999999895
20
-105.526102999999992
11
156.0641609999999844
21
-105.3356269999999881
0
LINE
8
BLACK
6
CONTINUOUS
10
156.0641609999999844
20
-105.3356269999999881
11
156.2546370000000024
21
-105.049911999999992
0
LINE
8
BLACK
6
CONTINUOUS
10
156.2546370000000024
20
-105.049911999999992
11
156.3498759999999947
21
-104.9546739999999971
0
LINE
8
BLACK
6
CONTINUOUS
10
158.1593989999999792
20
-107.2403889999999933
11
157.016541999999987
21
-107.2403889999999933
0
LINE
8
BLACK
6
CONTINUOUS
10
157.5879699999999843
20
-107.2403889999999933
11
157.5879699999999843
21
-105.2403889999999933
0
LINE
8
BLACK
6
CONTINUOUS
10
157.5879699999999843
20
-105.2403889999999933
11
157.3974939999999947
21
-105.526102999999992
0
LINE
8
BLACK
6
CONTINUOUS
10
157.3974939999999947
20
-105.526102999999992
11
157.207018000000005
21
-105.7165789999999959
0
LINE
8
BLACK
6
CONTINUOUS
10
157.207018000000005
20
-105.7165789999999959
11
157.016541999999987
21
-105.8118169999999907
0
LINE
8
BLACK
6
CONTINUOUS
10
160.5403519999999844
20
-107.2403889999999933
11
160.5403519999999844
21
-105.2403889999999933
0
LINE
8
BLACK
6
CONTINUOUS
10
161.3974949999999922
20
-107.2403889999999933
11
161.3974949999999922
21
-106.1927699999999959
0
LINE
8
BLACK
6
CONTINUOUS
10
161.3974949999999922
20
-106.1927699999999959
11
161.3022569999999973
21
-106.0022929999999945
0
LINE
8
BLACK
6
CONTINUOUS
10
161.3022569999999973
20
-106.0022929999999945
11
161.1117809999999793
21
-105.9070549999999997
0
LINE
8
BLACK
6
CONTINUOUS
10
161.1117809999999793
20
-105.9070549999999997
11
160.8260659999999973
21
-105.9070549999999997
0
LINE
8
BLACK
6
CONTINUOUS
10
160.8260659999999973
20
-105.9070549999999997
11
160.6355899999999792
21
-106.0022929999999945
0
LINE
8
BLACK
6
CONTINUOUS
10
160.6355899999999792
20
-106.0022929999999945
11
160.5403519999999844
21
-106.0975309999999894
0
LINE
8
BLACK
6
CONTINUOUS
10
162.6355899999999792
20
-107.2403889999999933
11
162.4451139999999896
21
-107.1451509999999985
0
LINE
8
BLACK
6
CONTINUOUS
10
162.4451139999999896
20
-107.1451509999999985
11
162.3498759999999947
21
-107.049911999999992
0
LINE
8
BLACK
6
CONTINUOUS
10
162.3498759999999947
20
-107.049911999999992
11
162.2546379999999999
21
-106.8594359999999881
0
LINE
8
BLACK
6
CONTINUOUS
10
162.2546379999999999
20
-106.8594359999999881
11
162.2546379999999999
21
-106.2880079999999907
0
LINE
8
BLACK
6
CONTINUOUS
10
162.2546379999999999
20
-106.2880079999999907
11
162.3498759999999947
21
-106.0975309999999894
0
LINE
8
BLACK
6
CONTINUOUS
10
162.3498759999999947
20
-106.0975309999999894
11
162.4451139999999896
21
-106.0022929999999945
0
LINE
8
BLACK
6
CONTINUOUS
10
162.4451139999999896
20
-106.0022929999999945
11
162.6355899999999792
21
-105.9070549999999997
0
LINE
8
BLACK
6
CONTINUOUS
10
162.6355899999999792
20
-105.9070549999999997
11
162.9213049999999896
21
-105.9070549999999997
0
LINE
8
BLACK
6
CONTINUOUS
10
162.9213049999999896
20
-105.9070549999999997
11
163.1117809999999793
21
-106.0022929999999945
0
LINE
8
BLACK
6
CONTINUOUS
10
163.1117809999999793
20
-106.0022929999999945
11
163.2070190000000025
21
-106.0975309999999894
0
LINE
8
BLACK
6
CONTINUOUS
10
163.2070190000000025
20
-106.0975309999999894
11
163.3022569999999973
21
-106.2880079999999907
0
LINE
8
BLACK
6
CONTINUOUS
10
163.3022569999999973
20
-106.2880079999999907
11
163.3022569999999973
21
-106.8594359999999881
0
LINE
8
BLACK
6
CONTINUOUS
10
163.3022569999999973
20
-106.8594359999999881
11
163.2070190000000025
21
-107.049911999999992
0
LINE
8
BLACK
6
CONTINUOUS
10
163.2070190000000025
20
-107.049911999999992
11
163.1117809999999793
21
-107.1451509999999985
0
LINE
8
BLACK
6
CONTINUOUS
10
163.1117809999999793
20
-107.1451509999999985
11
162.9213049999999896
21
-107.2403889999999933
0
LINE
8
BLACK
6
CONTINUOUS
10
162.9213049999999896
20
-107.2403889999999933
11
162.6355899999999792
21
-107.2403889999999933
0
LINE
8
BLACK
6
CONTINUOUS
10
164.4451139999999896
20
-107.2403889999999933
11
164.2546379999999999
21
-107.1451509999999985
0
LINE
8
BLACK
6
CONTINUOUS
10
164.2546379999999999
20
-107.1451509999999985
11
164.1594000000000051
21
-106.9546739999999971
0
LINE
8
BLACK
6
CONTINUOUS
10
164.1594000000000051
20
-106.9546739999999971
11
164.1594000000000051
21
-105.2403889999999933
0
LINE
8
BLACK
6
CONTINUOUS
10
165.968923999999987
20
-107.1451509999999985
11
165.7784479999999974
21
-107.2403889999999933
0
LINE
8
BLACK
6
CONTINUOUS
10
165.7784479999999974
20
-107.2403889999999933
11
165.3974949999999922
21
-107.2403889999999933
0
LINE
8
BLACK
6
CONTINUOUS
10
165.3974949999999922
20
-107.2403889999999933
11
165.2070190000000025
21
-107.1451509999999985
0
LINE
8
BLACK
6
CONTINUOUS
10
165.2070190000000025
20
-107.1451509999999985
11
165.1117809999999793
21
-106.9546739999999971
0
LINE
8
BLACK
6
CONTINUOUS
10
165.1117809999999793
20
-106.9546739999999971
11
165.1117809999999793
21
-106.1927699999999959
0
LINE
8
BLACK
6
CONTINUOUS
10
165.1117809999999793
20
-106.1927699999999959
11
165.2070190000000025
21
-106.0022929999999945
0
LINE
8
BLACK
6
CONTINUOUS
10
165.2070190000000025
20
-106.0022929999999945
11
165.3974949999999922
21
-105.9070549999999997
0
LINE
8
BLACK
6
CONTINUOUS
10
165.3974949999999922
20
-105.9070549999999997
11
165.7784479999999974
21
-105.9070549999999997
0
LINE
8
BLACK
6
CONTINUOUS
10
165.7784479999999974
20
-105.9070549999999997
11
165.968923999999987
21
-106.0022929999999945
0
LINE
8
BLACK
6
CONTINUOUS
10
165.968923999999987
20
-106.0022929999999945
11
166.0641619999999818
21
-106.1927699999999959
0
LINE
8
BLACK
6
CONTINUOUS
10
166.0641619999999818
20
-106.1927699999999959
11
166.0641619999999818
21
-106.3832459999999998
0
LINE
8
BLACK
6
CONTINUOUS
10
166.0641619999999818
20
-106.3832459999999998
11
165.1117809999999793
21
-106.5737219999999894
0
LINE
8
BLACK
6
CONTINUOUS
10
166.730829
20
-108.0022929999999945
11
166.8260669999999948
21
-107.9070549999999997
0
LINE
8
BLACK
6
CONTINUOUS
10
166.8260669999999948
20
-107.9070549999999997
11
167.0165429999999844
21
-107.621341000000001
0
LINE
8
BLACK
6
CONTINUOUS
10
167.0165429999999844
20
-107.621341000000001
11
167.1117809999999793
21
-107.4308649999999972
0
LINE
8
BLACK
6
CONTINUOUS
10
167.1117809999999793
20
-107.4308649999999972
11
167.2070190000000025
21
-107.1451509999999985
0
LINE
8
BLACK
6
CONTINUOUS
10
167.2070190000000025
20
-107.1451509999999985
11
167.3022569999999973
21
-106.6689599999999984
0
LINE
8
BLACK
6
CONTINUOUS
10
167.3022569999999973
20
-106.6689599999999984
11
167.3022569999999973
21
-106.2880079999999907
0
LINE
8
BLACK
6
CONTINUOUS
10
167.3022569999999973
20
-106.2880079999999907
11
167.2070190000000025
21
-105.8118169999999907
0
LINE
8
BLACK
6
CONTINUOUS
10
167.2070190000000025
20
-105.8118169999999907
11
167.1117809999999793
21
-105.526102999999992
0
LINE
8
BLACK
6
CONTINUOUS
10
167.1117809999999793
20
-105.526102999999992
11
167.0165429999999844
21
-105.3356269999999881
0
LINE
8
BLACK
6
CONTINUOUS
10
167.0165429999999844
20
-105.3356269999999881
11
166.8260669999999948
21
-105.049911999999992
0
LINE
8
BLACK
6
CONTINUOUS
10
166.8260669999999948
20
-105.049911999999992
11
166.730829
21
-104.9546739999999971
0
CIRCLE
8
BLACK
10
120.0992469999999912
20
-108.9655509999999907
40
0.5
0
LINE
8
BLACK
6
CONTINUOUS
10
124.2546339999999958
20
-109.8803889999999939
11
123.1117769999999894
21
-109.8803889999999939
0
LINE
8
BLACK
6
CONTINUOUS
10
123.683205000000001
20
-109.8803889999999939
11
123.683205000000001
21
-107.8803889999999939
0
LINE
8
BLACK
6
CONTINUOUS
10
123.683205000000001
20
-107.8803889999999939
11
123.4927289999999971
21
-108.1661029999999926
0
LINE
8
BLACK
6
CONTINUOUS
10
123.4927289999999971
20
-108.1661029999999926
11
123.3022529999999932
21
-108.3565789999999964
0
LINE
8
BLACK
6
CONTINUOUS
10
123.3022529999999932
20
-108.3565789999999964
11
123.1117769999999894
21
-108.4518169999999913
0
LINE
8
BLACK
6
CONTINUOUS
10
125.1117769999999894
20
-109.6899119999999925
11
125.2070149999999984
21
-109.785150999999999
0
LINE
8
BLACK
6
CONTINUOUS
10
125.2070149999999984
20
-109.785150999999999
11
125.1117769999999894
21
-109.8803889999999939
0
LINE
8
BLACK
6
CONTINUOUS
10
125.1117769999999894
20
-109.8803889999999939
11
125.0165389999999945
21
-109.785150999999999
0
LINE
8
BLACK
6
CONTINUOUS
10
125.0165389999999945
20
-109.785150999999999
11
125.1117769999999894
21
-109.6899119999999925
0
LINE
8
BLACK
6
CONTINUOUS
10
125.1117769999999894
20
-109.6899119999999925
11
125.1117769999999894
21
-109.8803889999999939
0
LINE
8
BLACK
6
CONTINUOUS
10
126.4451099999999997
20
-107.8803889999999939
11
126.635587000000001
21
-107.8803889999999939
0
LINE
8
BLACK
6
CONTINUOUS
10
126.635587000000001
20
-107.8803889999999939
11
126.8260629999999907
21
-107.9756269999999887
0
LINE
8
BLACK
6
CONTINUOUS
10
126.8260629999999907
20
-107.9756269999999887
11
126.9213009999999997
21
-108.0708649999999977
0
LINE
8
BLACK
6
CONTINUOUS
10
126.9213009999999997
20
-108.0708649999999977
11
127.0165389999999945
21
-108.2613410000000016
0
LINE
8
BLACK
6
CONTINUOUS
10
127.0165389999999945
20
-108.2613410000000016
11
127.1117769999999894
21
-108.6422929999999951
0
LINE
8
BLACK
6
CONTINUOUS
10
127.1117769999999894
20
-108.6422929999999951
11
127.1117769999999894
21
-109.1184839999999951
0
LINE
8
BLACK
6
CONTINUOUS
10
127.1117769999999894
20
-109.1184839999999951
11
127.0165389999999945
21
-109.4994359999999887
0
LINE
8
BLACK
6
CONTINUOUS
10
127.0165389999999945
20
-109.4994359999999887
11
126.9213009999999997
21
-109.6899119999999925
0
LINE
8
BLACK
6
CONTINUOUS
10
126.9213009999999997
20
-109.6899119999999925
11
126.8260629999999907
21
-109.785150999999999
0
LINE
8
BLACK
6
CONTINUOUS
10
126.8260629999999907
20
-109.785150999999999
11
126.635587000000001
21
-109.8803889999999939
0
LINE
8
BLACK
6
CONTINUOUS
10
126.635587000000001
20
-109.8803889999999939
11
126.4451099999999997
21
-109.8803889999999939
0
LINE
8
BLACK
6
CONTINUOUS
10
126.4451099999999997
20
-109.8803889999999939
11
126.2546339999999958
21
-109.785150999999999
0
LINE
8
BLACK
6
CONTINUOUS
10
126.2546339999999958
20
-109.785150999999999
11
126.159396000000001
21
-109.6899119999999925
0
LINE
8
BLACK
6
CONTINUOUS
10
126.159396000000001
20
-109.6899119999999925
11
126.0641579999999919
21
-109.4994359999999887
0
LINE
8
BLACK
6
CONTINUOUS
10
126.0641579999999919
20
-109.4994359999999887
11
125.9689199999999971
21
-109.1184839999999951
0
LINE
8
BLACK
6
CONTINUOUS
10
125.9689199999999971
20
-109.1184839999999951
11
125.9689199999999971
21
-108.6422929999999951
0
LINE
8
BLACK
6
CONTINUOUS
10
125.9689199999999971
20
-108.6422929999999951
11
126.0641579999999919
21
-108.2613410000000016
0
LINE
8
BLACK
6
CONTINUOUS
10
126.0641579999999919
20
-108.2613410000000016
11
126.159396000000001
21
-108.0708649999999977
0
LINE
8
BLACK
6
CONTINUOUS
10
126.159396000000001
20
-108.0708649999999977
11
126.2546339999999958
21
-107.9756269999999887
0
LINE
8
BLACK
6
CONTINUOUS
10
126.2546339999999958
20
-107.9756269999999887
11
126.4451099999999997
21
-107.8803889999999939
0
LINE
8
BLACK
6
CONTINUOUS
10
128.3498720000000048
20
-107.8803889999999939
11
128.540348999999992
21
-107.8803889999999939
0
LINE
8
BLACK
6
CONTINUOUS
10
128.540348999999992
20
-107.8803889999999939
11
128.7308249999999816
21
-107.9756269999999887
0
LINE
8
BLACK
6
CONTINUOUS
10
128.7308249999999816
20
-107.9756269999999887
11
128.8260630000000049
21
-108.0708649999999977
0
LINE
8
BLACK
6
CONTINUOUS
10
128.8260630000000049
20
-108.0708649999999977
11
128.9213009999999997
21
-108.2613410000000016
0
LINE
8
BLACK
6
CONTINUOUS
10
128.9213009999999997
20
-108.2613410000000016
11
129.0165389999999945
21
-108.6422929999999951
0
LINE
8
BLACK
6
CONTINUOUS
10
129.0165389999999945
20
-108.6422929999999951
11
129.0165389999999945
21
-109.1184839999999951
0
LINE
8
BLACK
6
CONTINUOUS
10
129.0165389999999945
20
-109.1184839999999951
11
128.9213009999999997
21
-109.4994359999999887
0
LINE
8
BLACK
6
CONTINUOUS
10
128.9213009999999997
20
-109.4994359999999887
11
128.8260630000000049
21
-109.6899119999999925
0
LINE
8
BLACK
6
CONTINUOUS
10
128.8260630000000049
20
-109.6899119999999925
11
128.7308249999999816
21
-109.785150999999999
0
LINE
8
BLACK
6
CONTINUOUS
10
128.7308249999999816
20
-109.785150999999999
11
128.540348999999992
21
-109.8803889999999939
0
LINE
8
BLACK
6
CONTINUOUS
10
128.540348999999992
20
-109.8803889999999939
11
128.3498720000000048
21
-109.8803889999999939
0
LINE
8
BLACK
6
CONTINUOUS
10
128.3498720000000048
20
-109.8803889999999939
11
128.1593959999999868
21
-109.785150999999999
0
LINE
8
BLACK
6
CONTINUOUS
10
128.1593959999999868
20
-109.785150999999999
11
128.0641579999999919
21
-109.6899119999999925
0
LINE
8
BLACK
6
CONTINUOUS
10
128.0641579999999919
20
-109.6899119999999925
11
127.9689199999999971
21
-109.4994359999999887
0
LINE
8
BLACK
6
CONTINUOUS
10
127.9689199999999971
20
-109.4994359999999887
11
127.8736819999999881
21
-109.1184839999999951
0
LINE
8
BLACK
6
CONTINUOUS
10
127.8736819999999881
20
-109.1184839999999951
11
127.8736819999999881
21
-108.6422929999999951
0
LINE
8
BLACK
6
CONTINUOUS
10
127.8736819999999881
20
-108.6422929999999951
11
127.9689199999999971
21
-108.2613410000000016
0
LINE
8
BLACK
6
CONTINUOUS
10
127.9689199999999971
20
-108.2613410000000016
11
128.0641579999999919
21
-108.0708649999999977
0
LINE
8
BLACK
6
CONTINUOUS
10
128.0641579999999919
20
-108.0708649999999977
11
128.1593959999999868
21
-107.9756269999999887
0
LINE
8
BLACK
6
CONTINUOUS
10
128.1593959999999868
20
-107.9756269999999887
11
128.3498720000000048
21
-107.8803889999999939
0
LINE
8
BLACK
6
CONTINUOUS
10
130.2546339999999816
20
-107.8803889999999939
11
130.4451109999999971
21
-107.8803889999999939
0
LINE
8
BLACK
6
CONTINUOUS
10
130.4451109999999971
20
-107.8803889999999939
11
130.6355869999999868
21
-107.9756269999999887
0
LINE
8
BLACK
6
CONTINUOUS
10
130.6355869999999868
20
-107.9756269999999887
11
130.7308249999999816
21
-108.0708649999999977
0
LINE
8
BLACK
6
CONTINUOUS
10
130.7308249999999816
20
-108.0708649999999977
11
130.8260630000000049
21
-108.2613410000000016
0
LINE
8
BLACK
6
CONTINUOUS
10
130.8260630000000049
20
-108.2613410000000016
11
130.9213009999999997
21
-108.6422929999999951
0
LINE
8
BLACK
6
CONTINUOUS
10
130.9213009999999997
20
-108.6422929999999951
11
130.9213009999999997
21
-109.1184839999999951
0
LINE
8
BLACK
6
CONTINUOUS
10
130.9213009999999997
20
-109.1184839999999951
11
130.8260630000000049
21
-109.4994359999999887
0
LINE
8
BLACK
6
CONTINUOUS
10
130.8260630000000049
20
-109.4994359999999887
11
130.7308249999999816
21
-109.6899119999999925
0
LINE
8
BLACK
6
CONTINUOUS
10
130.7308249999999816
20
-109.6899119999999925
11
130.6355869999999868
21
-109.785150999999999
0
LINE
8
BLACK
6
CONTINUOUS
10
130.6355869999999868
20
-109.785150999999999
11
130.4451109999999971
21
-109.8803889999999939
0
LINE
8
BLACK
6
CONTINUOUS
10
130.4451109999999971
20
-109.8803889999999939
11
130.2546339999999816
21
-109.8803889999999939
0
LINE
8
BLACK
6
CONTINUOUS
10
130.2546339999999816
20
-109.8803889999999939
11
130.0641579999999919
21
-109.785150999999999
0
LINE
8
BLACK
6
CONTINUOUS
10
130.0641579999999919
20
-109.785150999999999
11
129.9689199999999971
21
-109.6899119999999925
0
LINE
8
BLACK
6
CONTINUOUS
10
129.9689199999999971
20
-109.6899119999999925
11
129.8736820000000023
21
-109.4994359999999887
0
LINE
8
BLACK
6
CONTINUOUS
10
129.8736820000000023
20
-109.4994359999999887
11
129.7784440000000075
21
-109.1184839999999951
0
LINE
8
BLACK
6
CONTINUOUS
10
129.7784440000000075
20
-109.1184839999999951
11
129.7784440000000075
21
-108.6422929999999951
0
LINE
8
BLACK
6
CONTINUOUS
10
129.7784440000000075
20
-108.6422929999999951
11
129.8736820000000023
21
-108.2613410000000016
0
LINE
8
BLACK
6
CONTINUOUS
10
129.8736820000000023
20
-108.2613410000000016
11
129.9689199999999971
21
-108.0708649999999977
0
LINE
8
BLACK
6
CONTINUOUS
10
129.9689199999999971
20
-108.0708649999999977
11
130.0641579999999919
21
-107.9756269999999887
0
LINE
8
BLACK
6
CONTINUOUS
10
130.0641579999999919
20
-107.9756269999999887
11
130.2546339999999816
21
-107.8803889999999939
0
LINE
8
BLACK
6
CONTINUOUS
10
131.7784440000000075
20
-109.8803889999999939
11
131.7784440000000075
21
-108.5470550000000003
0
LINE
8
BLACK
6
CONTINUOUS
10
131.7784440000000075
20
-108.7375309999999899
11
131.8736820000000023
21
-108.6422929999999951
0
LINE
8
BLACK
6
CONTINUOUS
10
131.8736820000000023
20
-108.6422929999999951
11
132.0641579999999919
21
-108.5470550000000003
0
LINE
8
BLACK
6
CONTINUOUS
10
132.0641579999999919
20
-108.5470550000000003
11
132.3498730000000023
21
-108.5470550000000003
0
LINE
8
BLACK
6
CONTINUOUS
10
132.3498730000000023
20
-108.5470550000000003
11
132.540348999999992
21
-108.6422929999999951
0
LINE
8
BLACK
6
CONTINUOUS
10
132.540348999999992
20
-108.6422929999999951
11
132.6355869999999868
21
-108.8327699999999965
0
LINE
8
BLACK
6
CONTINUOUS
10
132.6355869999999868
20
-108.8327699999999965
11
132.6355869999999868
21
-109.8803889999999939
0
LINE
8
BLACK
6
CONTINUOUS
10
132.6355869999999868
20
-108.8327699999999965
11
132.7308249999999816
21
-108.6422929999999951
0
LINE
8
BLACK
6
CONTINUOUS
10
132.7308249999999816
20
-108.6422929999999951
11
132.9213009999999997
21
-108.5470550000000003
0
LINE
8
BLACK
6
CONTINUOUS
10
132.9213009999999997
20
-108.5470550000000003
11
133.2070149999999842
21
-108.5470550000000003
0
LINE
8
BLACK
6
CONTINUOUS
10
133.2070149999999842
20
-108.5470550000000003
11
133.3974919999999997
21
-108.6422929999999951
0
LINE
8
BLACK
6
CONTINUOUS
10
133.3974919999999997
20
-108.6422929999999951
11
133.4927299999999946
21
-108.8327699999999965
0
LINE
8
BLACK
6
CONTINUOUS
10
133.4927299999999946
20
-108.8327699999999965
11
133.4927299999999946
21
-109.8803889999999939
0
LINE
8
BLACK
6
CONTINUOUS
10
134.4451109999999971
20
-109.8803889999999939
11
134.4451109999999971
21
-108.5470550000000003
0
LINE
8
BLACK
6
CONTINUOUS
10
134.4451109999999971
20
-108.7375309999999899
11
134.540348999999992
21
-108.6422929999999951
0
LINE
8
BLACK
6
CONTINUOUS
10
134.540348999999992
20
-108.6422929999999951
11
134.7308249999999816
21
-108.5470550000000003
0
LINE
8
BLACK
6
CONTINUOUS
10
134.7308249999999816
20
-108.5470550000000003
11
135.016539999999992
21
-108.5470550000000003
0
LINE
8
BLACK
6
CONTINUOUS
10
135.016539999999992
20
-108.5470550000000003
11
135.2070159999999817
21
-108.6422929999999951
0
LINE
8
BLACK
6
CONTINUOUS
10
135.2070159999999817
20
-108.6422929999999951
11
135.3022540000000049
21
-108.8327699999999965
0
LINE
8
BLACK
6
CONTINUOUS
10
135.3022540000000049
20
-108.8327699999999965
11
135.3022540000000049
21
-109.8803889999999939
0
LINE
8
BLACK
6
CONTINUOUS
10
135.3022540000000049
20
-108.8327699999999965
11
135.3974919999999997
21
-108.6422929999999951
0
LINE
8
BLACK
6
CONTINUOUS
10
135.3974919999999997
20
-108.6422929999999951
11
135.5879679999999894
21
-108.5470550000000003
0
LINE
8
BLACK
6
CONTINUOUS
10
135.5879679999999894
20
-108.5470550000000003
11
135.8736820000000023
21
-108.5470550000000003
0
LINE
8
BLACK
6
CONTINUOUS
10
135.8736820000000023
20
-108.5470550000000003
11
136.0641589999999894
21
-108.6422929999999951
0
LINE
8
BLACK
6
CONTINUOUS
10
136.0641589999999894
20
-108.6422929999999951
11
136.1593969999999842
21
-108.8327699999999965
0
LINE
8
BLACK
6
CONTINUOUS
10
136.1593969999999842
20
-108.8327699999999965
11
136.1593969999999842
21
-109.8803889999999939
0
LINE
8
BLACK
6
CONTINUOUS
10
140.0641589999999894
20
-107.785150999999999
11
138.3498739999999998
21
-110.3565789999999964
0
LINE
8
BLACK
6
CONTINUOUS
10
142.6355879999999843
20
-107.8803889999999939
11
142.8260649999999998
21
-107.8803889999999939
0
LINE
8
BLACK
6
CONTINUOUS
10
142.8260649999999998
20
-107.8803889999999939
11
143.0165409999999895
21
-107.9756269999999887
0
LINE
8
BLACK
6
CONTINUOUS
10
143.0165409999999895
20
-107.9756269999999887
11
143.1117789999999843
21
-108.0708649999999977
0
LINE
8
BLACK
6
CONTINUOUS
10
143.1117789999999843
20
-108.0708649999999977
11
143.2070170000000076
21
-108.2613410000000016
0
LINE
8
BLACK
6
CONTINUOUS
10
143.2070170000000076
20
-108.2613410000000016
11
143.3022550000000024
21
-108.6422929999999951
0
LINE
8
BLACK
6
CONTINUOUS
10
143.3022550000000024
20
-108.6422929999999951
11
143.3022550000000024
21
-109.1184839999999951
0
LINE
8
BLACK
6
CONTINUOUS
10
143.3022550000000024
20
-109.1184839999999951
11
143.2070170000000076
21
-109.4994359999999887
0
LINE
8
BLACK
6
CONTINUOUS
10
143.2070170000000076
20
-109.4994359999999887
11
143.1117789999999843
21
-109.6899119999999925
0
LINE
8
BLACK
6
CONTINUOUS
10
143.1117789999999843
20
-109.6899119999999925
11
143.0165409999999895
21
-109.785150999999999
0
LINE
8
BLACK
6
CONTINUOUS
10
143.0165409999999895
20
-109.785150999999999
11
142.8260649999999998
21
-109.8803889999999939
0
LINE
8
BLACK
6
CONTINUOUS
10
142.8260649999999998
20
-109.8803889999999939
11
142.6355879999999843
21
-109.8803889999999939
0
LINE
8
BLACK
6
CONTINUOUS
10
142.6355879999999843
20
-109.8803889999999939
11
142.4451119999999946
21
-109.785150999999999
0
LINE
8
BLACK
6
CONTINUOUS
10
142.4451119999999946
20
-109.785150999999999
11
142.3498739999999998
21
-109.6899119999999925
0
LINE
8
BLACK
6
CONTINUOUS
10
142.3498739999999998
20
-109.6899119999999925
11
142.254636000000005
21
-109.4994359999999887
0
LINE
8
BLACK
6
CONTINUOUS
10
142.254636000000005
20
-109.4994359999999887
11
142.1593979999999817
21
-109.1184839999999951
0
LINE
8
BLACK
6
CONTINUOUS
10
142.1593979999999817
20
-109.1184839999999951
11
142.1593979999999817
21
-108.6422929999999951
0
LINE
8
BLACK
6
CONTINUOUS
10
142.1593979999999817
20
-108.6422929999999951
11
142.254636000000005
21
-108.2613410000000016
0
LINE
8
BLACK
6
CONTINUOUS
10
142.254636000000005
20
-108.2613410000000016
11
142.3498739999999998
21
-108.0708649999999977
0
LINE
8
BLACK
6
CONTINUOUS
10
142.3498739999999998
20
-108.0708649999999977
11
142.4451119999999946
21
-107.9756269999999887
0
LINE
8
BLACK
6
CONTINUOUS
10
142.4451119999999946
20
-107.9756269999999887
11
142.6355879999999843
21
-107.8803889999999939
0
LINE
8
BLACK
6
CONTINUOUS
10
144.1593979999999817
20
-109.6899119999999925
11
144.254636000000005
21
-109.785150999999999
0
LINE
8
BLACK
6
CONTINUOUS
10
144.254636000000005
20
-109.785150999999999
11
144.1593979999999817
21
-109.8803889999999939
0
LINE
8
BLACK
6
CONTINUOUS
10
144.1593979999999817
20
-109.8803889999999939
11
144.0641599999999869
21
-109.785150999999999
0
LINE
8
BLACK
6
CONTINUOUS
10
144.0641599999999869
20
-109.785150999999999
11
144.1593979999999817
21
-109.6899119999999925
0
LINE
8
BLACK
6
CONTINUOUS
10
144.1593979999999817
20
-109.6899119999999925
11
144.1593979999999817
21
-109.8803889999999939
0
LINE
8
BLACK
6
CONTINUOUS
10
145.492730999999992
20
-107.8803889999999939
11
145.6832080000000076
21
-107.8803889999999939
0
LINE
8
BLACK
6
CONTINUOUS
10
145.6832080000000076
20
-107.8803889999999939
11
145.8736839999999972
21
-107.9756269999999887
0
LINE
8
BLACK
6
CONTINUOUS
10
145.8736839999999972
20
-107.9756269999999887
11
145.9689219999999921
21
-108.0708649999999977
0
LINE
8
BLACK
6
CONTINUOUS
10
145.9689219999999921
20
-108.0708649999999977
11
146.0641599999999869
21
-108.2613410000000016
0
LINE
8
BLACK
6
CONTINUOUS
10
146.0641599999999869
20
-108.2613410000000016
11
146.1593979999999817
21
-108.6422929999999951
0
LINE
8
BLACK
6
CONTINUOUS
10
146.1593979999999817
20
-108.6422929999999951
11
146.1593979999999817
21
-109.1184839999999951
0
LINE
8
BLACK
6
CONTINUOUS
10
146.1593979999999817
20
-109.1184839999999951
11
146.0641599999999869
21
-109.4994359999999887
0
LINE
8
BLACK
6
CONTINUOUS
10
146.0641599999999869
20
-109.4994359999999887
11
145.9689219999999921
21
-109.6899119999999925
0
LINE
8
BLACK
6
CONTINUOUS
10
145.9689219999999921
20
-109.6899119999999925
11
145.8736839999999972
21
-109.785150999999999
0
LINE
8
BLACK
6
CONTINUOUS
10
145.8736839999999972
20
-109.785150999999999
11
145.6832080000000076
21
-109.8803889999999939
0
LINE
8
BLACK
6
CONTINUOUS
10
145.6832080000000076
20
-109.8803889999999939
11
145.492730999999992
21
-109.8803889999999939
0
LINE
8
BLACK
6
CONTINUOUS
10
145.492730999999992
20
-109.8803889999999939
11
145.3022550000000024
21
-109.785150999999999
0
LINE
8
BLACK
6
CONTINUOUS
10
145.3022550000000024
20
-109.785150999999999
11
145.2070170000000076
21
-109.6899119999999925
0
LINE
8
BLACK
6
CONTINUOUS
10
145.2070170000000076
20
-109.6899119999999925
11
145.1117789999999843
21
-109.4994359999999887
0
LINE
8
BLACK
6
CONTINUOUS
10
145.1117789999999843
20
-109.4994359999999887
11
145.0165409999999895
21
-109.1184839999999951
0
LINE
8
BLACK
6
CONTINUOUS
10
145.0165409999999895
20
-109.1184839999999951
11
145.0165409999999895
21
-108.6422929999999951
0
LINE
8
BLACK
6
CONTINUOUS
10
145.0165409999999895
20
-108.6422929999999951
11
145.1117789999999843
21
-108.2613410000000016
0
LINE
8
BLACK
6
CONTINUOUS
10
145.1117789999999843
20
-108.2613410000000016
11
145.2070170000000076
21
-108.0708649999999977
0
LINE
8
BLACK
6
CONTINUOUS
10
145.2070170000000076
20
-108.0708649999999977
11
145.3022550000000024
21
-107.9756269999999887
0
LINE
8
BLACK
6
CONTINUOUS
10
145.3022550000000024
20
-107.9756269999999887
11
145.492730999999992
21
-107.8803889999999939
0
LINE
8
BLACK
6
CONTINUOUS
10
146.8260649999999998
20
-107.8803889999999939
11
148.0641599999999869
21
-107.8803889999999939
0
LINE
8
BLACK
6
CONTINUOUS
10
148.0641599999999869
20
-107.8803889999999939
11
147.3974929999999972
21
-108.6422929999999951
0
LINE
8
BLACK
6
CONTINUOUS
10
147.3974929999999972
20
-108.6422929999999951
11
147.6832079999999792
21
-108.6422929999999951
0
LINE
8
BLACK
6
CONTINUOUS
10
147.6832079999999792
20
-108.6422929999999951
11
147.8736839999999972
21
-108.7375309999999899
0
LINE
8
BLACK
6
CONTINUOUS
10
147.8736839999999972
20
-108.7375309999999899
11
147.9689219999999921
21
-108.8327699999999965
0
LINE
8
BLACK
6
CONTINUOUS
10
147.9689219999999921
20
-108.8327699999999965
11
148.0641599999999869
21
-109.0232460000000003
0
LINE
8
BLACK
6
CONTINUOUS
10
148.0641599999999869
20
-109.0232460000000003
11
148.0641599999999869
21
-109.4994359999999887
0
LINE
8
BLACK
6
CONTINUOUS
10
148.0641599999999869
20
-109.4994359999999887
11
147.9689219999999921
21
-109.6899119999999925
0
LINE
8
BLACK
6
CONTINUOUS
10
147.9689219999999921
20
-109.6899119999999925
11
147.8736839999999972
21
-109.785150999999999
0
LINE
8
BLACK
6
CONTINUOUS
10
147.8736839999999972
20
-109.785150999999999
11
147.6832079999999792
21
-109.8803889999999939
0
LINE
8
BLACK
6
CONTINUOUS
10
147.6832079999999792
20
-109.8803889999999939
11
147.1117789999999843
21
-109.8803889999999939
0
LINE
8
BLACK
6
CONTINUOUS
10
147.1117789999999843
20
-109.8803889999999939
11
146.9213029999999947
21
-109.785150999999999
0
LINE
8
BLACK
6
CONTINUOUS
10
146.9213029999999947
20
-109.785150999999999
11
146.8260649999999998
21
-109.6899119999999925
0
LINE
8
BLACK
6
CONTINUOUS
10
149.0165409999999895
20
-109.8803889999999939
11
149.3974929999999972
21
-109.8803889999999939
0
LINE
8
BLACK
6
CONTINUOUS
10
149.3974929999999972
20
-109.8803889999999939
11
149.5879699999999843
21
-109.785150999999999
0
LINE
8
BLACK
6
CONTINUOUS
10
149.5879699999999843
20
-109.785150999999999
11
149.6832079999999792
21
-109.6899119999999925
0
LINE
8
BLACK
6
CONTINUOUS
10
149.6832079999999792
20
-109.6899119999999925
11
149.8736839999999972
21
-109.4041979999999938
0
LINE
8
BLACK
6
CONTINUOUS
10
149.8736839999999972
20
-109.4041979999999938
11
149.9689219999999921
21
-109.0232460000000003
0
LINE
8
BLACK
6
CONTINUOUS
10
149.9689219999999921
20
-109.0232460000000003
11
149.9689219999999921
21
-108.2613410000000016
0
LINE
8
BLACK
6
CONTINUOUS
10
149.9689219999999921
20
-108.2613410000000016
11
149.8736839999999972
21
-108.0708649999999977
0
LINE
8
BLACK
6
CONTINUOUS
10
149.8736839999999972
20
-108.0708649999999977
11
149.7784460000000024
21
-107.9756269999999887
0
LINE
8
BLACK
6
CONTINUOUS
10
149.7784460000000024
20
-107.9756269999999887
11
149.5879699999999843
21
-107.8803889999999939
0
LINE
8
BLACK
6
CONTINUOUS
10
149.5879699999999843
20
-107.8803889999999939
11
149.2070169999999791
21
-107.8803889999999939
0
LINE
8
BLACK
6
CONTINUOUS
10
149.2070169999999791
20
-107.8803889999999939
11
149.0165409999999895
21
-107.9756269999999887
0
LINE
8
BLACK
6
CONTINUOUS
10
149.0165409999999895
20
-107.9756269999999887
11
148.9213029999999947
21
-108.0708649999999977
0
LINE
8
BLACK
6
CONTINUOUS
10
148.9213029999999947
20
-108.0708649999999977
11
148.8260649999999998
21
-108.2613410000000016
0
LINE
8
BLACK
6
CONTINUOUS
10
148.8260649999999998
20
-108.2613410000000016
11
148.8260649999999998
21
-108.7375309999999899
0
LINE
8
BLACK
6
CONTINUOUS
10
148.8260649999999998
20
-108.7375309999999899
11
148.9213029999999947
21
-108.9280079999999913
0
LINE
8
BLACK
6
CONTINUOUS
10
148.9213029999999947
20
-108.9280079999999913
11
149.0165409999999895
21
-109.0232460000000003
0
LINE
8
BLACK
6
CONTINUOUS
10
149.0165409999999895
20
-109.0232460000000003
11
149.2070169999999791
21
-109.1184839999999951
0
LINE
8
BLACK
6
CONTINUOUS
10
149.2070169999999791
20
-109.1184839999999951
11
149.5879699999999843
21
-109.1184839999999951
0
LINE
8
BLACK
6
CONTINUOUS
10
149.5879699999999843
20
-109.1184839999999951
11
149.7784460000000024
21
-109.0232460000000003
0
LINE
8
BLACK
6
CONTINUOUS
10
149.7784460000000024
20
-109.0232460000000003
11
149.8736839999999972
21
-108.9280079999999913
0
LINE
8
BLACK
6
CONTINUOUS
10
149.8736839999999972
20
-108.9280079999999913
11
149.9689219999999921
21
-108.7375309999999899
0
LINE
8
BLACK
6
CONTINUOUS
10
151.6832079999999792
20
-108.5470550000000003
11
151.6832079999999792
21
-109.8803889999999939
0
LINE
8
BLACK
6
CONTINUOUS
10
151.2070169999999791
20
-107.785150999999999
11
150.730827000000005
21
-109.21372199999999
0
LINE
8
BLACK
6
CONTINUOUS
10
150.730827000000005
20
-109.21372199999999
11
151.9689219999999921
21
-109.21372199999999
0
LINE
8
BLACK
6
CONTINUOUS
10
152.6355889999999818
20
-107.8803889999999939
11
152.6355889999999818
21
-108.2613410000000016
0
LINE
8
BLACK
6
CONTINUOUS
10
153.3974939999999947
20
-107.8803889999999939
11
153.3974939999999947
21
-108.2613410000000016
0
LINE
8
BLACK
6
CONTINUOUS
10
156.3498759999999947
20
-110.6422929999999951
11
156.2546370000000024
21
-110.5470550000000003
0
LINE
8
BLACK
6
CONTINUOUS
10
156.2546370000000024
20
-110.5470550000000003
11
156.0641609999999844
21
-110.2613410000000016
0
LINE
8
BLACK
6
CONTINUOUS
10
156.0641609999999844
20
-110.2613410000000016
11
155.9689229999999895
21
-110.0708649999999977
0
LINE
8
BLACK
6
CONTINUOUS
10
155.9689229999999895
20
-110.0708649999999977
11
155.8736849999999947
21
-109.785150999999999
0
LINE
8
BLACK
6
CONTINUOUS
10
155.8736849999999947
20
-109.785150999999999
11
155.7784469999999999
21
-109.308959999999999
0
LINE
8
BLACK
6
CONTINUOUS
10
155.7784469999999999
20
-109.308959999999999
11
155.7784469999999999
21
-108.9280079999999913
0
LINE
8
BLACK
6
CONTINUOUS
10
155.7784469999999999
20
-108.9280079999999913
11
155.8736849999999947
21
-108.4518169999999913
0
LINE
8
BLACK
6
CONTINUOUS
10
155.8736849999999947
20
-108.4518169999999913
11
155.9689229999999895
21
-108.1661029999999926
0
LINE
8
BLACK
6
CONTINUOUS
10
155.9689229999999895
20
-108.1661029999999926
11
156.0641609999999844
21
-107.9756269999999887
0
LINE
8
BLACK
6
CONTINUOUS
10
156.0641609999999844
20
-107.9756269999999887
11
156.2546370000000024
21
-107.6899119999999925
0
LINE
8
BLACK
6
CONTINUOUS
10
156.2546370000000024
20
-107.6899119999999925
11
156.3498759999999947
21
-107.5946739999999977
0
LINE
8
BLACK
6
CONTINUOUS
10
156.9213039999999921
20
-107.8803889999999939
11
158.1593989999999792
21
-107.8803889999999939
0
LINE
8
BLACK
6
CONTINUOUS
10
158.1593989999999792
20
-107.8803889999999939
11
157.4927319999999895
21
-108.6422929999999951
0
LINE
8
BLACK
6
CONTINUOUS
10
157.4927319999999895
20
-108.6422929999999951
11
157.7784469999999999
21
-108.6422929999999951
0
LINE
8
BLACK
6
CONTINUOUS
10
157.7784469999999999
20
-108.6422929999999951
11
157.9689229999999895
21
-108.7375309999999899
0
LINE
8
BLACK
6
CONTINUOUS
10
157.9689229999999895
20
-108.7375309999999899
11
158.0641609999999844
21
-108.8327699999999965
0
LINE
8
BLACK
6
CONTINUOUS
10
158.0641609999999844
20
-108.8327699999999965
11
158.1593989999999792
21
-109.0232460000000003
0
LINE
8
BLACK
6
CONTINUOUS
10
158.1593989999999792
20
-109.0232460000000003
11
158.1593989999999792
21
-109.4994359999999887
0
LINE
8
BLACK
6
CONTINUOUS
10
158.1593989999999792
20
-109.4994359999999887
11
158.0641609999999844
21
-109.6899119999999925
0
LINE
8
BLACK
6
CONTINUOUS
10
158.0641609999999844
20
-109.6899119999999925
11
157.9689229999999895
21
-109.785150999999999
0
LINE
8
BLACK
6
CONTINUOUS
10
157.9689229999999895
20
-109.785150999999999
11
157.7784469999999999
21
-109.8803889999999939
0
LINE
8
BLACK
6
CONTINUOUS
10
157.7784469999999999
20
-109.8803889999999939
11
157.207018000000005
21
-109.8803889999999939
0
LINE
8
BLACK
6
CONTINUOUS
10
157.207018000000005
20
-109.8803889999999939
11
157.016541999999987
21
-109.785150999999999
0
LINE
8
BLACK
6
CONTINUOUS
10
157.016541999999987
20
-109.785150999999999
11
156.9213039999999921
21
-109.6899119999999925
0
LINE
8
BLACK
6
CONTINUOUS
10
160.5403519999999844
20
-109.8803889999999939
11
160.5403519999999844
21
-107.8803889999999939
0
LINE
8
BLACK
6
CONTINUOUS
10
161.3974949999999922
20
-109.8803889999999939
11
161.3974949999999922
21
-108.8327699999999965
0
LINE
8
BLACK
6
CONTINUOUS
10
161.3974949999999922
20
-108.8327699999999965
11
161.3022569999999973
21
-108.6422929999999951
0
LINE
8
BLACK
6
CONTINUOUS
10
161.3022569999999973
20
-108.6422929999999951
11
161.1117809999999793
21
-108.5470550000000003
0
LINE
8
BLACK
6
CONTINUOUS
10
161.1117809999999793
20
-108.5470550000000003
11
160.8260659999999973
21
-108.5470550000000003
0
LINE
8
BLACK
6
CONTINUOUS
10
160.8260659999999973
20
-108.5470550000000003
11
160.6355899999999792
21
-108.6422929999999951
0
LINE
8
BLACK
6
CONTINUOUS
10
160.6355899999999792
20
-108.6422929999999951
11
160.5403519999999844
21
-108.7375309999999899
0
LINE
8
BLACK
6
CONTINUOUS
10
162.6355899999999792
20
-109.8803889999999939
11
162.4451139999999896
21
-109.785150999999999
0
LINE
8
BLACK
6
CONTINUOUS
10
162.4451139999999896
20
-109.785150999999999
11
162.3498759999999947
21
-109.6899119999999925
0
LINE
8
BLACK
6
CONTINUOUS
10
162.3498759999999947
20
-109.6899119999999925
11
162.2546379999999999
21
-109.4994359999999887
0
LINE
8
BLACK
6
CONTINUOUS
10
162.2546379999999999
20
-109.4994359999999887
11
162.2546379999999999
21
-108.9280079999999913
0
LINE
8
BLACK
6
CONTINUOUS
10
162.2546379999999999
20
-108.9280079999999913
11
162.3498759999999947
21
-108.7375309999999899
0
LINE
8
BLACK
6
CONTINUOUS
10
162.3498759999999947
20
-108.7375309999999899
11
162.4451139999999896
21
-108.6422929999999951
0
LINE
8
BLACK
6
CONTINUOUS
10
162.4451139999999896
20
-108.6422929999999951
11
162.6355899999999792
21
-108.5470550000000003
0
LINE
8
BLACK
6
CONTINUOUS
10
162.6355899999999792
20
-108.5470550000000003
11
162.9213049999999896
21
-108.5470550000000003
0
LINE
8
BLACK
6
CONTINUOUS
10
162.9213049999999896
20
-108.5470550000000003
11
163.1117809999999793
21
-108.6422929999999951
0
LINE
8
BLACK
6
CONTINUOUS
10
163.1117809999999793
20
-108.6422929999999951
11
163.2070190000000025
21
-108.7375309999999899
0
LINE
8
BLACK
6
CONTINUOUS
10
163.2070190000000025
20
-108.7375309999999899
11
163.3022569999999973
21
-108.9280079999999913
0
LINE
8
BLACK
6
CONTINUOUS
10
163.3022569999999973
20
-108.9280079999999913
11
163.3022569999999973
21
-109.4994359999999887
0
LINE
8
BLACK
6
CONTINUOUS
10
163.3022569999999973
20
-109.4994359999999887
11
163.2070190000000025
21
-109.6899119999999925
0
LINE
8
BLACK
6
CONTINUOUS
10
163.2070190000000025
20
-109.6899119999999925
11
163.1117809999999793
21
-109.785150999999999
0
LINE
8
BLACK
6
CONTINUOUS
10
163.1117809999999793
20
-109.785150999999999
11
162.9213049999999896
21
-109.8803889999999939
0
LINE
8
BLACK
6
CONTINUOUS
10
162.9213049999999896
20
-109.8803889999999939
11
162.6355899999999792
21
-109.8803889999999939
0
LINE
8
BLACK
6
CONTINUOUS
10
164.4451139999999896
20
-109.8803889999999939
11
164.2546379999999999
21
-109.785150999999999
0
LINE
8
BLACK
6
CONTINUOUS
10
164.2546379999999999
20
-109.785150999999999
11
164.1594000000000051
21
-109.5946739999999977
0
LINE
8
BLACK
6
CONTINUOUS
10
164.1594000000000051
20
-109.5946739999999977
11
164.1594000000000051
21
-107.8803889999999939
0
LINE
8
BLACK
6
CONTINUOUS
10
165.968923999999987
20
-109.785150999999999
11
165.7784479999999974
21
-109.8803889999999939
0
LINE
8
BLACK
6
CONTINUOUS
10
165.7784479999999974
20
-109.8803889999999939
11
165.3974949999999922
21
-109.8803889999999939
0
LINE
8
BLACK
6
CONTINUOUS
10
165.3974949999999922
20
-109.8803889999999939
11
165.2070190000000025
21
-109.785150999999999
0
LINE
8
BLACK
6
CONTINUOUS
10
165.2070190000000025
20
-109.785150999999999
11
165.1117809999999793
21
-109.5946739999999977
0
LINE
8
BLACK
6
CONTINUOUS
10
165.1117809999999793
20
-109.5946739999999977
11
165.1117809999999793
21
-108.8327699999999965
0
LINE
8
BLACK
6
CONTINUOUS
10
165.1117809999999793
20
-108.8327699999999965
11
165.2070190000000025
21
-108.6422929999999951
0
LINE
8
BLACK
6
CONTINUOUS
10
165.2070190000000025
20
-108.6422929999999951
11
165.3974949999999922
21
-108.5470550000000003
0
LINE
8
BLACK
6
CONTINUOUS
10
165.3974949999999922
20
-108.5470550000000003
11
165.7784479999999974
21
-108.5470550000000003
0
LINE
8
BLACK
6
CONTINUOUS
10
165.7784479999999974
20
-108.5470550000000003
11
165.968923999999987
21
-108.6422929999999951
0
LINE
8
BLACK
6
CONTINUOUS
10
165.968923999999987
20
-108.6422929999999951
11
166.0641619999999818
21
-108.8327699999999965
0
LINE
8
BLACK
6
CONTINUOUS
10
166.0641619999999818
20
-108.8327699999999965
11
166.0641619999999818
21
-109.0232460000000003
0
LINE
8
BLACK
6
CONTINUOUS
10
166.0641619999999818
20
-109.0232460000000003
11
165.1117809999999793
21
-109.21372199999999
0
LINE
8
BLACK
6
CONTINUOUS
10
166.8260669999999948
20
-109.785150999999999
11
167.0165429999999844
21
-109.8803889999999939
0
LINE
8
BLACK
6
CONTINUOUS
10
167.0165429999999844
20
-109.8803889999999939
11
167.3974949999999922
21
-109.8803889999999939
0
LINE
8
BLACK
6
CONTINUOUS
10
167.3974949999999922
20
-109.8803889999999939
11
167.5879719999999793
21
-109.785150999999999
0
LINE
8
BLACK
6
CONTINUOUS
10
167.5879719999999793
20
-109.785150999999999
11
167.6832100000000025
21
-109.5946739999999977
0
LINE
8
BLACK
6
CONTINUOUS
10
167.6832100000000025
20
-109.5946739999999977
11
167.6832100000000025
21
-109.4994359999999887
0
LINE
8
BLACK
6
CONTINUOUS
10
167.6832100000000025
20
-109.4994359999999887
11
167.5879719999999793
21
-109.308959999999999
0
LINE
8
BLACK
6
CONTINUOUS
10
167.5879719999999793
20
-109.308959999999999
11
167.3974949999999922
21
-109.21372199999999
0
LINE
8
BLACK
6
CONTINUOUS
10
167.3974949999999922
20
-109.21372199999999
11
167.1117809999999793
21
-109.21372199999999
0
LINE
8
BLACK
6
CONTINUOUS
10
167.1117809999999793
20
-109.21372199999999
11
166.9213049999999896
21
-109.1184839999999951
0
LINE
8
BLACK
6
CONTINUOUS
10
166.9213049999999896
20
-109.1184839999999951
11
166.8260669999999948
21
-108.9280079999999913
0
LINE
8
BLACK
6
CONTINUOUS
10
166.8260669999999948
20
-108.9280079999999913
11
166.8260669999999948
21
-108.8327699999999965
0
LINE
8
BLACK
6
CONTINUOUS
10
166.8260669999999948
20
-108.8327699999999965
11
166.9213049999999896
21
-108.6422929999999951
0
LINE
8
BLACK
6
CONTINUOUS
10
166.9213049999999896
20
-108.6422929999999951
11
167.1117809999999793
21
-108.5470550000000003
0
LINE
8
BLACK
6
CONTINUOUS
10
167.1117809999999793
20
-108.5470550000000003
11
167.3974949999999922
21
-108.5470550000000003
0
LINE
8
BLACK
6
CONTINUOUS
10
167.3974949999999922
20
-108.5470550000000003
11
167.5879719999999793
21
-108.6422929999999951
0
LINE
8
BLACK
6
CONTINUOUS
10
168.3498769999999922
20
-110.6422929999999951
11
168.445114999999987
21
-110.5470550000000003
0
LINE
8
BLACK
6
CONTINUOUS
10
168.445114999999987
20
-110.5470550000000003
11
168.6355910000000051
21
-110.2613410000000016
0
LINE
8
BLACK
6
CONTINUOUS
10
168.6355910000000051
20
-110.2613410000000016
11
168.730829
21
-110.0708649999999977
0
LINE
8
BLACK
6
CONTINUOUS
10
168.730829
20
-110.0708649999999977
11
168.8260669999999948
21
-109.785150999999999
0
LINE
8
BLACK
6
CONTINUOUS
10
168.8260669999999948
20
-109.785150999999999
11
168.9213049999999896
21
-109.308959999999999
0
LINE
8
BLACK
6
CONTINUOUS
10
168.9213049999999896
20
-109.308959999999999
11
168.9213049999999896
21
-108.9280079999999913
0
LINE
8
BLACK
6
CONTINUOUS
10
168.9213049999999896
20
-108.9280079999999913
11
168.8260669999999948
21
-108.4518169999999913
0
LINE
8
BLACK
6
CONTINUOUS
10
168.8260669999999948
20
-108.4518169999999913
11
168.730829
21
-108.1661029999999926
0
LINE
8
BLACK
6
CONTINUOUS
10
168.730829
20
-108.1661029999999926
11
168.6355910000000051
21
-107.9756269999999887
0
LINE
8
BLACK
6
CONTINUOUS
10
168.6355910000000051
20
-107.9756269999999887
11
168.445114999999987
21
-107.6899119999999925
0
LINE
8
BLACK
6
CONTINUOUS
10
168.445114999999987
20
-107.6899119999999925
11
168.3498769999999922
21
-107.5946739999999977
0
LINE
8
BLACK
6
CONTINUOUS
10
119.9142469999999889
20
-110.920550999999989
11
119.9142469999999889
21
-112.2905509999999936
0
LINE
8
BLACK
6
CONTINUOUS
10
119.2292470000000009
20
-111.6055509999999913
11
120.5992469999999912
21
-111.6055509999999913
0
LINE
8
BLACK
6
CONTINUOUS
10
124.2546339999999958
20
-112.5203889999999944
11
123.1117769999999894
21
-112.5203889999999944
0
LINE
8
BLACK
6
CONTINUOUS
10
123.683205000000001
20
-112.5203889999999944
11
123.683205000000001
21
-110.5203889999999944
0
LINE
8
BLACK
6
CONTINUOUS
10
123.683205000000001
20
-110.5203889999999944
11
123.4927289999999971
21
-110.8061029999999931
0
LINE
8
BLACK
6
CONTINUOUS
10
123.4927289999999971
20
-110.8061029999999931
11
123.3022529999999932
21
-110.996578999999997
0
LINE
8
BLACK
6
CONTINUOUS
10
123.3022529999999932
20
-110.996578999999997
11
123.1117769999999894
21
-111.0918169999999918
0
LINE
8
BLACK
6
CONTINUOUS
10
125.1117769999999894
20
-112.3299119999999931
11
125.2070149999999984
21
-112.4251509999999996
0
LINE
8
BLACK
6
CONTINUOUS
10
125.2070149999999984
20
-112.4251509999999996
11
125.1117769999999894
21
-112.5203889999999944
0
LINE
8
BLACK
6
CONTINUOUS
10
125.1117769999999894
20
-112.5203889999999944
11
125.0165389999999945
21
-112.4251509999999996
0
LINE
8
BLACK
6
CONTINUOUS
10
125.0165389999999945
20
-112.4251509999999996
11
125.1117769999999894
21
-112.3299119999999931
0
LINE
8
BLACK
6
CONTINUOUS
10
125.1117769999999894
20
-112.3299119999999931
11
125.1117769999999894
21
-112.5203889999999944
0
LINE
8
BLACK
6
CONTINUOUS
10
125.8736819999999881
20
-110.5203889999999944
11
127.1117769999999894
21
-110.5203889999999944
0
LINE
8
BLACK
6
CONTINUOUS
10
127.1117769999999894
20
-110.5203889999999944
11
126.4451099999999997
21
-111.2822929999999957
0
LINE
8
BLACK
6
CONTINUOUS
10
126.4451099999999997
20
-111.2822929999999957
11
126.7308249999999958
21
-111.2822929999999957
0
LINE
8
BLACK
6
CONTINUOUS
10
126.7308249999999958
20
-111.2822929999999957
11
126.9213009999999997
21
-111.3775309999999905
0
LINE
8
BLACK
6
CONTINUOUS
10
126.9213009999999997
20
-111.3775309999999905
11
127.0165389999999945
21
-111.472769999999997
0
LINE
8
BLACK
6
CONTINUOUS
10
127.0165389999999945
20
-111.472769999999997
11
127.1117769999999894
21
-111.6632460000000009
0
LINE
8
BLACK
6
CONTINUOUS
10
127.1117769999999894
20
-111.6632460000000009
11
127.1117769999999894
21
-112.1394359999999892
0
LINE
8
BLACK
6
CONTINUOUS
10
127.1117769999999894
20
-112.1394359999999892
11
127.0165389999999945
21
-112.3299119999999931
0
LINE
8
BLACK
6
CONTINUOUS
10
127.0165389999999945
20
-112.3299119999999931
11
126.9213009999999997
21
-112.4251509999999996
0
LINE
8
BLACK
6
CONTINUOUS
10
126.9213009999999997
20
-112.4251509999999996
11
126.7308249999999958
21
-112.5203889999999944
0
LINE
8
BLACK
6
CONTINUOUS
10
126.7308249999999958
20
-112.5203889999999944
11
126.159396000000001
21
-112.5203889999999944
0
LINE
8
BLACK
6
CONTINUOUS
10
126.159396000000001
20
-112.5203889999999944
11
125.9689199999999971
21
-112.4251509999999996
0
LINE
8
BLACK
6
CONTINUOUS
10
125.9689199999999971
20
-112.4251509999999996
11
125.8736819999999881
21
-112.3299119999999931
0
LINE
8
BLACK
6
CONTINUOUS
10
127.7784439999999933
20
-110.5203889999999944
11
129.1117769999999894
21
-110.5203889999999944
0
LINE
8
BLACK
6
CONTINUOUS
10
129.1117769999999894
20
-110.5203889999999944
11
128.2546339999999816
21
-112.5203889999999944
0
LINE
8
BLACK
6
CONTINUOUS
10
130.2546339999999816
20
-110.5203889999999944
11
130.4451109999999971
21
-110.5203889999999944
0
LINE
8
BLACK
6
CONTINUOUS
10
130.4451109999999971
20
-110.5203889999999944
11
130.6355869999999868
21
-110.6156269999999893
0
LINE
8
BLACK
6
CONTINUOUS
10
130.6355869999999868
20
-110.6156269999999893
11
130.7308249999999816
21
-110.7108649999999983
0
LINE
8
BLACK
6
CONTINUOUS
10
130.7308249999999816
20
-110.7108649999999983
11
130.8260630000000049
21
-110.901340999999988
0
LINE
8
BLACK
6
CONTINUOUS
10
130.8260630000000049
20
-110.901340999999988
11
130.9213009999999997
21
-111.2822929999999957
0
LINE
8
BLACK
6
CONTINUOUS
10
130.9213009999999997
20
-111.2822929999999957
11
130.9213009999999997
21
-111.7584839999999957
0
LINE
8
BLACK
6
CONTINUOUS
10
130.9213009999999997
20
-111.7584839999999957
11
130.8260630000000049
21
-112.1394359999999892
0
LINE
8
BLACK
6
CONTINUOUS
10
130.8260630000000049
20
-112.1394359999999892
11
130.7308249999999816
21
-112.3299119999999931
0
LINE
8
BLACK
6
CONTINUOUS
10
130.7308249999999816
20
-112.3299119999999931
11
130.6355869999999868
21
-112.4251509999999996
0
LINE
8
BLACK
6
CONTINUOUS
10
130.6355869999999868
20
-112.4251509999999996
11
130.4451109999999971
21
-112.5203889999999944
0
LINE
8
BLACK
6
CONTINUOUS
10
130.4451109999999971
20
-112.5203889999999944
11
130.2546339999999816
21
-112.5203889999999944
0
LINE
8
BLACK
6
CONTINUOUS
10
130.2546339999999816
20
-112.5203889999999944
11
130.0641579999999919
21
-112.4251509999999996
0
LINE
8
BLACK
6
CONTINUOUS
10
130.0641579999999919
20
-112.4251509999999996
11
129.9689199999999971
21
-112.3299119999999931
0
LINE
8
BLACK
6
CONTINUOUS
10
129.9689199999999971
20
-112.3299119999999931
11
129.8736820000000023
21
-112.1394359999999892
0
LINE
8
BLACK
6
CONTINUOUS
10
129.8736820000000023
20
-112.1394359999999892
11
129.7784440000000075
21
-111.7584839999999957
0
LINE
8
BLACK
6
CONTINUOUS
10
129.7784440000000075
20
-111.7584839999999957
11
129.7784440000000075
21
-111.2822929999999957
0
LINE
8
BLACK
6
CONTINUOUS
10
129.7784440000000075
20
-111.2822929999999957
11
129.8736820000000023
21
-110.901340999999988
0
LINE
8
BLACK
6
CONTINUOUS
10
129.8736820000000023
20
-110.901340999999988
11
129.9689199999999971
21
-110.7108649999999983
0
LINE
8
BLACK
6
CONTINUOUS
10
129.9689199999999971
20
-110.7108649999999983
11
130.0641579999999919
21
-110.6156269999999893
0
LINE
8
BLACK
6
CONTINUOUS
10
130.0641579999999919
20
-110.6156269999999893
11
130.2546339999999816
21
-110.5203889999999944
0
LINE
8
BLACK
6
CONTINUOUS
10
131.7784440000000075
20
-112.5203889999999944
11
131.7784440000000075
21
-111.1870550000000009
0
LINE
8
BLACK
6
CONTINUOUS
10
131.7784440000000075
20
-111.3775309999999905
11
131.8736820000000023
21
-111.2822929999999957
0
LINE
8
BLACK
6
CONTINUOUS
10
131.8736820000000023
20
-111.2822929999999957
11
132.0641579999999919
21
-111.1870550000000009
0
LINE
8
BLACK
6
CONTINUOUS
10
132.0641579999999919
20
-111.1870550000000009
11
132.3498730000000023
21
-111.1870550000000009
0
LINE
8
BLACK
6
CONTINUOUS
10
132.3498730000000023
20
-111.1870550000000009
11
132.540348999999992
21
-111.2822929999999957
0
LINE
8
BLACK
6
CONTINUOUS
10
132.540348999999992
20
-111.2822929999999957
11
132.6355869999999868
21
-111.472769999999997
0
LINE
8
BLACK
6
CONTINUOUS
10
132.6355869999999868
20
-111.472769999999997
11
132.6355869999999868
21
-112.5203889999999944
0
LINE
8
BLACK
6
CONTINUOUS
10
132.6355869999999868
20
-111.472769999999997
11
132.7308249999999816
21
-111.2822929999999957
0
LINE
8
BLACK
6
CONTINUOUS
10
132.7308249999999816
20
-111.2822929999999957
11
132.9213009999999997
21
-111.1870550000000009
0
LINE
8
BLACK
6
CONTINUOUS
10
132.9213009999999997
20
-111.1870550000000009
11
133.2070149999999842
21
-111.1870550000000009
0
LINE
8
BLACK
6
CONTINUOUS
10
133.2070149999999842
20
-111.1870550000000009
11
133.3974919999999997
21
-111.2822929999999957
0
LINE
8
BLACK
6
CONTINUOUS
10
133.3974919999999997
20
-111.2822929999999957
11
133.4927299999999946
21
-111.472769999999997
0
LINE
8
BLACK
6
CONTINUOUS
10
133.4927299999999946
20
-111.472769999999997
11
133.4927299999999946
21
-112.5203889999999944
0
LINE
8
BLACK
6
CONTINUOUS
10
134.4451109999999971
20
-112.5203889999999944
11
134.4451109999999971
21
-111.1870550000000009
0
LINE
8
BLACK
6
CONTINUOUS
10
134.4451109999999971
20
-111.3775309999999905
11
134.540348999999992
21
-111.2822929999999957
0
LINE
8
BLACK
6
CONTINUOUS
10
134.540348999999992
20
-111.2822929999999957
11
134.7308249999999816
21
-111.1870550000000009
0
LINE
8
BLACK
6
CONTINUOUS
10
134.7308249999999816
20
-111.1870550000000009
11
135.016539999999992
21
-111.1870550000000009
0
LINE
8
BLACK
6
CONTINUOUS
10
135.016539999999992
20
-111.1870550000000009
11
135.2070159999999817
21
-111.2822929999999957
0
LINE
8
BLACK
6
CONTINUOUS
10
135.2070159999999817
20
-111.2822929999999957
11
135.3022540000000049
21
-111.472769999999997
0
LINE
8
BLACK
6
CONTINUOUS
10
135.3022540000000049
20
-111.472769999999997
11
135.3022540000000049
21
-112.5203889999999944
0
LINE
8
BLACK
6
CONTINUOUS
10
135.3022540000000049
20
-111.472769999999997
11
135.3974919999999997
21
-111.2822929999999957
0
LINE
8
BLACK
6
CONTINUOUS
10
135.3974919999999997
20
-111.2822929999999957
11
135.5879679999999894
21
-111.1870550000000009
0
LINE
8
BLACK
6
CONTINUOUS
10
135.5879679999999894
20
-111.1870550000000009
11
135.8736820000000023
21
-111.1870550000000009
0
LINE
8
BLACK
6
CONTINUOUS
10
135.8736820000000023
20
-111.1870550000000009
11
136.0641589999999894
21
-111.2822929999999957
0
LINE
8
BLACK
6
CONTINUOUS
10
136.0641589999999894
20
-111.2822929999999957
11
136.1593969999999842
21
-111.472769999999997
0
LINE
8
BLACK
6
CONTINUOUS
10
136.1593969999999842
20
-111.472769999999997
11
136.1593969999999842
21
-112.5203889999999944
0
LINE
8
BLACK
6
CONTINUOUS
10
140.0641589999999894
20
-110.4251509999999996
11
138.3498739999999998
21
-112.996578999999997
0
LINE
8
BLACK
6
CONTINUOUS
10
142.6355879999999843
20
-110.5203889999999944
11
142.8260649999999998
21
-110.5203889999999944
0
LINE
8
BLACK
6
CONTINUOUS
10
142.8260649999999998
20
-110.5203889999999944
11
143.0165409999999895
21
-110.6156269999999893
0
LINE
8
BLACK
6
CONTINUOUS
10
143.0165409999999895
20
-110.6156269999999893
11
143.1117789999999843
21
-110.7108649999999983
0
LINE
8
BLACK
6
CONTINUOUS
10
143.1117789999999843
20
-110.7108649999999983
11
143.2070170000000076
21
-110.901340999999988
0
LINE
8
BLACK
6
CONTINUOUS
10
143.2070170000000076
20
-110.901340999999988
11
143.3022550000000024
21
-111.2822929999999957
0
LINE
8
BLACK
6
CONTINUOUS
10
143.3022550000000024
20
-111.2822929999999957
11
143.3022550000000024
21
-111.7584839999999957
0
LINE
8
BLACK
6
CONTINUOUS
10
143.3022550000000024
20
-111.7584839999999957
11
143.2070170000000076
21
-112.1394359999999892
0
LINE
8
BLACK
6
CONTINUOUS
10
143.2070170000000076
20
-112.1394359999999892
11
143.1117789999999843
21
-112.3299119999999931
0
LINE
8
BLACK
6
CONTINUOUS
10
143.1117789999999843
20
-112.3299119999999931
11
143.0165409999999895
21
-112.4251509999999996
0
LINE
8
BLACK
6
CONTINUOUS
10
143.0165409999999895
20
-112.4251509999999996
11
142.8260649999999998
21
-112.5203889999999944
0
LINE
8
BLACK
6
CONTINUOUS
10
142.8260649999999998
20
-112.5203889999999944
11
142.6355879999999843
21
-112.5203889999999944
0
LINE
8
BLACK
6
CONTINUOUS
10
142.6355879999999843
20
-112.5203889999999944
11
142.4451119999999946
21
-112.4251509999999996
0
LINE
8
BLACK
6
CONTINUOUS
10
142.4451119999999946
20
-112.4251509999999996
11
142.3498739999999998
21
-112.3299119999999931
0
LINE
8
BLACK
6
CONTINUOUS
10
142.3498739999999998
20
-112.3299119999999931
11
142.254636000000005
21
-112.1394359999999892
0
LINE
8
BLACK
6
CONTINUOUS
10
142.254636000000005
20
-112.1394359999999892
11
142.1593979999999817
21
-111.7584839999999957
0
LINE
8
BLACK
6
CONTINUOUS
10
142.1593979999999817
20
-111.7584839999999957
11
142.1593979999999817
21
-111.2822929999999957
0
LINE
8
BLACK
6
CONTINUOUS
10
142.1593979999999817
20
-111.2822929999999957
11
142.254636000000005
21
-110.901340999999988
0
LINE
8
BLACK
6
CONTINUOUS
10
142.254636000000005
20
-110.901340999999988
11
142.3498739999999998
21
-110.7108649999999983
0
LINE
8
BLACK
6
CONTINUOUS
10
142.3498739999999998
20
-110.7108649999999983
11
142.4451119999999946
21
-110.6156269999999893
0
LINE
8
BLACK
6
CONTINUOUS
10
142.4451119999999946
20
-110.6156269999999893
11
142.6355879999999843
21
-110.5203889999999944
0
LINE
8
BLACK
6
CONTINUOUS
10
144.1593979999999817
20
-112.3299119999999931
11
144.254636000000005
21
-112.4251509999999996
0
LINE
8
BLACK
6
CONTINUOUS
10
144.254636000000005
20
-112.4251509999999996
11
144.1593979999999817
21
-112.5203889999999944
0
LINE
8
BLACK
6
CONTINUOUS
10
144.1593979999999817
20
-112.5203889999999944
11
144.0641599999999869
21
-112.4251509999999996
0
LINE
8
BLACK
6
CONTINUOUS
10
144.0641599999999869
20
-112.4251509999999996
11
144.1593979999999817
21
-112.3299119999999931
0
LINE
8
BLACK
6
CONTINUOUS
10
144.1593979999999817
20
-112.3299119999999931
11
144.1593979999999817
21
-112.5203889999999944
0
LINE
8
BLACK
6
CONTINUOUS
10
145.492730999999992
20
-110.5203889999999944
11
145.6832080000000076
21
-110.5203889999999944
0
LINE
8
BLACK
6
CONTINUOUS
10
145.6832080000000076
20
-110.5203889999999944
11
145.8736839999999972
21
-110.6156269999999893
0
LINE
8
BLACK
6
CONTINUOUS
10
145.8736839999999972
20
-110.6156269999999893
11
145.9689219999999921
21
-110.7108649999999983
0
LINE
8
BLACK
6
CONTINUOUS
10
145.9689219999999921
20
-110.7108649999999983
11
146.0641599999999869
21
-110.901340999999988
0
LINE
8
BLACK
6
CONTINUOUS
10
146.0641599999999869
20
-110.901340999999988
11
146.1593979999999817
21
-111.2822929999999957
0
LINE
8
BLACK
6
CONTINUOUS
10
146.1593979999999817
20
-111.2822929999999957
11
146.1593979999999817
21
-111.7584839999999957
0
LINE
8
BLACK
6
CONTINUOUS
10
146.1593979999999817
20
-111.7584839999999957
11
146.0641599999999869
21
-112.1394359999999892
0
LINE
8
BLACK
6
CONTINUOUS
10
146.0641599999999869
20
-112.1394359999999892
11
145.9689219999999921
21
-112.3299119999999931
0
LINE
8
BLACK
6
CONTINUOUS
10
145.9689219999999921
20
-112.3299119999999931
11
145.8736839999999972
21
-112.4251509999999996
0
LINE
8
BLACK
6
CONTINUOUS
10
145.8736839999999972
20
-112.4251509999999996
11
145.6832080000000076
21
-112.5203889999999944
0
LINE
8
BLACK
6
CONTINUOUS
10
145.6832080000000076
20
-112.5203889999999944
11
145.492730999999992
21
-112.5203889999999944
0
LINE
8
BLACK
6
CONTINUOUS
10
145.492730999999992
20
-112.5203889999999944
11
145.3022550000000024
21
-112.4251509999999996
0
LINE
8
BLACK
6
CONTINUOUS
10
145.3022550000000024
20
-112.4251509999999996
11
145.2070170000000076
21
-112.3299119999999931
0
LINE
8
BLACK
6
CONTINUOUS
10
145.2070170000000076
20
-112.3299119999999931
11
145.1117789999999843
21
-112.1394359999999892
0
LINE
8
BLACK
6
CONTINUOUS
10
145.1117789999999843
20
-112.1394359999999892
11
145.0165409999999895
21
-111.7584839999999957
0
LINE
8
BLACK
6
CONTINUOUS
10
145.0165409999999895
20
-111.7584839999999957
11
145.0165409999999895
21
-111.2822929999999957
0
LINE
8
BLACK
6
CONTINUOUS
10
145.0165409999999895
20
-111.2822929999999957
11
145.1117789999999843
21
-110.901340999999988
0
LINE
8
BLACK
6
CONTINUOUS
10
145.1117789999999843
20
-110.901340999999988
11
145.2070170000000076
21
-110.7108649999999983
0
LINE
8
BLACK
6
CONTINUOUS
10
145.2070170000000076
20
-110.7108649999999983
11
145.3022550000000024
21
-110.6156269999999893
0
LINE
8
BLACK
6
CONTINUOUS
10
145.3022550000000024
20
-110.6156269999999893
11
145.492730999999992
21
-110.5203889999999944
0
LINE
8
BLACK
6
CONTINUOUS
10
147.9689219999999921
20
-110.5203889999999944
11
147.0165409999999895
21
-110.5203889999999944
0
LINE
8
BLACK
6
CONTINUOUS
10
147.0165409999999895
20
-110.5203889999999944
11
146.9213029999999947
21
-111.472769999999997
0
LINE
8
BLACK
6
CONTINUOUS
10
146.9213029999999947
20
-111.472769999999997
11
147.0165409999999895
21
-111.3775309999999905
0
LINE
8
BLACK
6
CONTINUOUS
10
147.0165409999999895
20
-111.3775309999999905
11
147.2070169999999791
21
-111.2822929999999957
0
LINE
8
BLACK
6
CONTINUOUS
10
147.2070169999999791
20
-111.2822929999999957
11
147.6832079999999792
21
-111.2822929999999957
0
LINE
8
BLACK
6
CONTINUOUS
10
147.6832079999999792
20
-111.2822929999999957
11
147.8736839999999972
21
-111.3775309999999905
0
LINE
8
BLACK
6
CONTINUOUS
10
147.8736839999999972
20
-111.3775309999999905
11
147.9689219999999921
21
-111.472769999999997
0
LINE
8
BLACK
6
CONTINUOUS
10
147.9689219999999921
20
-111.472769999999997
11
148.0641599999999869
21
-111.6632460000000009
0
LINE
8
BLACK
6
CONTINUOUS
10
148.0641599999999869
20
-111.6632460000000009
11
148.0641599999999869
21
-112.1394359999999892
0
LINE
8
BLACK
6
CONTINUOUS
10
148.0641599999999869
20
-112.1394359999999892
11
147.9689219999999921
21
-112.3299119999999931
0
LINE
8
BLACK
6
CONTINUOUS
10
147.9689219999999921
20
-112.3299119999999931
11
147.8736839999999972
21
-112.4251509999999996
0
LINE
8
BLACK
6
CONTINUOUS
10
147.8736839999999972
20
-112.4251509999999996
11
147.6832079999999792
21
-112.5203889999999944
0
LINE
8
BLACK
6
CONTINUOUS
10
147.6832079999999792
20
-112.5203889999999944
11
147.2070169999999791
21
-112.5203889999999944
0
LINE
8
BLACK
6
CONTINUOUS
10
147.2070169999999791
20
-112.5203889999999944
11
147.0165409999999895
21
-112.4251509999999996
0
LINE
8
BLACK
6
CONTINUOUS
10
147.0165409999999895
20
-112.4251509999999996
11
146.9213029999999947
21
-112.3299119999999931
0
LINE
8
BLACK
6
CONTINUOUS
10
148.730827000000005
20
-110.5203889999999944
11
149.9689219999999921
21
-110.5203889999999944
0
LINE
8
BLACK
6
CONTINUOUS
10
149.9689219999999921
20
-110.5203889999999944
11
149.3022550000000024
21
-111.2822929999999957
0
LINE
8
BLACK
6
CONTINUOUS
10
149.3022550000000024
20
-111.2822929999999957
11
149.5879699999999843
21
-111.2822929999999957
0
LINE
8
BLACK
6
CONTINUOUS
10
149.5879699999999843
20
-111.2822929999999957
11
149.7784460000000024
21
-111.3775309999999905
0
LINE
8
BLACK
6
CONTINUOUS
10
149.7784460000000024
20
-111.3775309999999905
11
149.8736839999999972
21
-111.472769999999997
0
LINE
8
BLACK
6
CONTINUOUS
10
149.8736839999999972
20
-111.472769999999997
11
149.9689219999999921
21
-111.6632460000000009
0
LINE
8
BLACK
6
CONTINUOUS
10
149.9689219999999921
20
-111.6632460000000009
11
149.9689219999999921
21
-112.1394359999999892
0
LINE
8
BLACK
6
CONTINUOUS
10
149.9689219999999921
20
-112.1394359999999892
11
149.8736839999999972
21
-112.3299119999999931
0
LINE
8
BLACK
6
CONTINUOUS
10
149.8736839999999972
20
-112.3299119999999931
11
149.7784460000000024
21
-112.4251509999999996
0
LINE
8
BLACK
6
CONTINUOUS
10
149.7784460000000024
20
-112.4251509999999996
11
149.5879699999999843
21
-112.5203889999999944
0
LINE
8
BLACK
6
CONTINUOUS
10
149.5879699999999843
20
-112.5203889999999944
11
149.0165409999999895
21
-112.5203889999999944
0
LINE
8
BLACK
6
CONTINUOUS
10
149.0165409999999895
20
-112.5203889999999944
11
148.8260649999999998
21
-112.4251509999999996
0
LINE
8
BLACK
6
CONTINUOUS
10
148.8260649999999998
20
-112.4251509999999996
11
148.730827000000005
21
-112.3299119999999931
0
LINE
8
BLACK
6
CONTINUOUS
10
150.9213029999999947
20
-112.5203889999999944
11
151.3022550000000024
21
-112.5203889999999944
0
LINE
8
BLACK
6
CONTINUOUS
10
151.3022550000000024
20
-112.5203889999999944
11
151.4927319999999895
21
-112.4251509999999996
0
LINE
8
BLACK
6
CONTINUOUS
10
151.4927319999999895
20
-112.4251509999999996
11
151.5879699999999843
21
-112.3299119999999931
0
LINE
8
BLACK
6
CONTINUOUS
10
151.5879699999999843
20
-112.3299119999999931
11
151.7784460000000024
21
-112.0441979999999944
0
LINE
8
BLACK
6
CONTINUOUS
10
151.7784460000000024
20
-112.0441979999999944
11
151.8736839999999972
21
-111.6632460000000009
0
LINE
8
BLACK
6
CONTINUOUS
10
151.8736839999999972
20
-111.6632460000000009
11
151.8736839999999972
21
-110.901340999999988
0
LINE
8
BLACK
6
CONTINUOUS
10
151.8736839999999972
20
-110.901340999999988
11
151.7784460000000024
21
-110.7108649999999983
0
LINE
8
BLACK
6
CONTINUOUS
10
151.7784460000000024
20
-110.7108649999999983
11
151.6832079999999792
21
-110.6156269999999893
0
LINE
8
BLACK
6
CONTINUOUS
10
151.6832079999999792
20
-110.6156269999999893
11
151.4927319999999895
21
-110.5203889999999944
0
LINE
8
BLACK
6
CONTINUOUS
10
151.4927319999999895
20
-110.5203889999999944
11
151.1117789999999843
21
-110.5203889999999944
0
LINE
8
BLACK
6
CONTINUOUS
10
151.1117789999999843
20
-110.5203889999999944
11
150.9213029999999947
21
-110.6156269999999893
0
LINE
8
BLACK
6
CONTINUOUS
10
150.9213029999999947
20
-110.6156269999999893
11
150.8260649999999998
21
-110.7108649999999983
0
LINE
8
BLACK
6
CONTINUOUS
10
150.8260649999999998
20
-110.7108649999999983
11
150.730827000000005
21
-110.901340999999988
0
LINE
8
BLACK
6
CONTINUOUS
10
150.730827000000005
20
-110.901340999999988
11
150.730827000000005
21
-111.3775309999999905
0
LINE
8
BLACK
6
CONTINUOUS
10
150.730827000000005
20
-111.3775309999999905
11
150.8260649999999998
21
-111.5680079999999919
0
LINE
8
BLACK
6
CONTINUOUS
10
150.8260649999999998
20
-111.5680079999999919
11
150.9213029999999947
21
-111.6632460000000009
0
LINE
8
BLACK
6
CONTINUOUS
10
150.9213029999999947
20
-111.6632460000000009
11
151.1117789999999843
21
-111.7584839999999957
0
LINE
8
BLACK
6
CONTINUOUS
10
151.1117789999999843
20
-111.7584839999999957
11
151.4927319999999895
21
-111.7584839999999957
0
LINE
8
BLACK
6
CONTINUOUS
10
151.4927319999999895
20
-111.7584839999999957
11
151.6832079999999792
21
-111.6632460000000009
0
LINE
8
BLACK
6
CONTINUOUS
10
151.6832079999999792
20
-111.6632460000000009
11
151.7784460000000024
21
-111.5680079999999919
0
LINE
8
BLACK
6
CONTINUOUS
10
151.7784460000000024
20
-111.5680079999999919
11
151.8736839999999972
21
-111.3775309999999905
0
LINE
8
BLACK
6
CONTINUOUS
10
152.6355889999999818
20
-110.5203889999999944
11
152.6355889999999818
21
-110.901340999999988
0
LINE
8
BLACK
6
CONTINUOUS
10
153.3974939999999947
20
-110.5203889999999944
11
153.3974939999999947
21
-110.901340999999988
0
LINE
8
BLACK
6
CONTINUOUS
10
156.3498759999999947
20
-113.2822929999999957
11
156.2546370000000024
21
-113.1870550000000009
0
LINE
8
BLACK
6
CONTINUOUS
10
156.2546370000000024
20
-113.1870550000000009
11
156.0641609999999844
21
-112.901340999999988
0
LINE
8
BLACK
6
CONTINUOUS
10
156.0641609999999844
20
-112.901340999999988
11
155.9689229999999895
21
-112.7108649999999983
0
LINE
8
BLACK
6
CONTINUOUS
10
155.9689229999999895
20
-112.7108649999999983
11
155.8736849999999947
21
-112.4251509999999996
0
LINE
8
BLACK
6
CONTINUOUS
10
155.8736849999999947
20
-112.4251509999999996
11
155.7784469999999999
21
-111.9489599999999996
0
LINE
8
BLACK
6
CONTINUOUS
10
155.7784469999999999
20
-111.9489599999999996
11
155.7784469999999999
21
-111.5680079999999919
0
LINE
8
BLACK
6
CONTINUOUS
10
155.7784469999999999
20
-111.5680079999999919
11
155.8736849999999947
21
-111.0918169999999918
0
LINE
8
BLACK
6
CONTINUOUS
10
155.8736849999999947
20
-111.0918169999999918
11
155.9689229999999895
21
-110.8061029999999931
0
LINE
8
BLACK
6
CONTINUOUS
10
155.9689229999999895
20
-110.8061029999999931
11
156.0641609999999844
21
-110.6156269999999893
0
LINE
8
BLACK
6
CONTINUOUS
10
156.0641609999999844
20
-110.6156269999999893
11
156.2546370000000024
21
-110.3299119999999931
0
LINE
8
BLACK
6
CONTINUOUS
10
156.2546370000000024
20
-110.3299119999999931
11
156.3498759999999947
21
-110.2346739999999983
0
LINE
8
BLACK
6
CONTINUOUS
10
157.016541999999987
20
-110.7108649999999983
11
157.1117799999999818
21
-110.6156269999999893
0
LINE
8
BLACK
6
CONTINUOUS
10
157.1117799999999818
20
-110.6156269999999893
11
157.3022559999999999
21
-110.5203889999999944
0
LINE
8
BLACK
6
CONTINUOUS
10
157.3022559999999999
20
-110.5203889999999944
11
157.7784469999999999
21
-110.5203889999999944
0
LINE
8
BLACK
6
CONTINUOUS
10
157.7784469999999999
20
-110.5203889999999944
11
157.9689229999999895
21
-110.6156269999999893
0
LINE
8
BLACK
6
CONTINUOUS
10
157.9689229999999895
20
-110.6156269999999893
11
158.0641609999999844
21
-110.7108649999999983
0
LINE
8
BLACK
6
CONTINUOUS
10
158.0641609999999844
20
-110.7108649999999983
11
158.1593989999999792
21
-110.901340999999988
0
LINE
8
BLACK
6
CONTINUOUS
10
158.1593989999999792
20
-110.901340999999988
11
158.1593989999999792
21
-111.0918169999999918
0
LINE
8
BLACK
6
CONTINUOUS
10
158.1593989999999792
20
-111.0918169999999918
11
158.0641609999999844
21
-111.3775309999999905
0
LINE
8
BLACK
6
CONTINUOUS
10
158.0641609999999844
20
-111.3775309999999905
11
156.9213039999999921
21
-112.5203889999999944
0
LINE
8
BLACK
6
CONTINUOUS
10
156.9213039999999921
20
-112.5203889999999944
11
158.1593989999999792
21
-112.5203889999999944
0
LINE
8
BLACK
6
CONTINUOUS
10
159.3974939999999947
20
-110.5203889999999944
11
159.5879709999999818
21
-110.5203889999999944
0
LINE
8
BLACK
6
CONTINUOUS
10
159.5879709999999818
20
-110.5203889999999944
11
159.7784469999999999
21
-110.6156269999999893
0
LINE
8
BLACK
6
CONTINUOUS
10
159.7784469999999999
20
-110.6156269999999893
11
159.8736849999999947
21
-110.7108649999999983
0
LINE
8
BLACK
6
CONTINUOUS
10
159.8736849999999947
20
-110.7108649999999983
11
159.9689229999999895
21
-110.901340999999988
0
LINE
8
BLACK
6
CONTINUOUS
10
159.9689229999999895
20
-110.901340999999988
11
160.0641609999999844
21
-111.2822929999999957
0
LINE
8
BLACK
6
CONTINUOUS
10
160.0641609999999844
20
-111.2822929999999957
11
160.0641609999999844
21
-111.7584839999999957
0
LINE
8
BLACK
6
CONTINUOUS
10
160.0641609999999844
20
-111.7584839999999957
11
159.9689229999999895
21
-112.1394359999999892
0
LINE
8
BLACK
6
CONTINUOUS
10
159.9689229999999895
20
-112.1394359999999892
11
159.8736849999999947
21
-112.3299119999999931
0
LINE
8
BLACK
6
CONTINUOUS
10
159.8736849999999947
20
-112.3299119999999931
11
159.7784469999999999
21
-112.4251509999999996
0
LINE
8
BLACK
6
CONTINUOUS
10
159.7784469999999999
20
-112.4251509999999996
11
159.5879709999999818
21
-112.5203889999999944
0
LINE
8
BLACK
6
CONTINUOUS
10
159.5879709999999818
20
-112.5203889999999944
11
159.3974939999999947
21
-112.5203889999999944
0
LINE
8
BLACK
6
CONTINUOUS
10
159.3974939999999947
20
-112.5203889999999944
11
159.207018000000005
21
-112.4251509999999996
0
LINE
8
BLACK
6
CONTINUOUS
10
159.207018000000005
20
-112.4251509999999996
11
159.1117799999999818
21
-112.3299119999999931
0
LINE
8
BLACK
6
CONTINUOUS
10
159.1117799999999818
20
-112.3299119999999931
11
159.016541999999987
21
-112.1394359999999892
0
LINE
8
BLACK
6
CONTINUOUS
10
159.016541999999987
20
-112.1394359999999892
11
158.9213039999999921
21
-111.7584839999999957
0
LINE
8
BLACK
6
CONTINUOUS
10
158.9213039999999921
20
-111.7584839999999957
11
158.9213039999999921
21
-111.2822929999999957
0
LINE
8
BLACK
6
CONTINUOUS
10
158.9213039999999921
20
-111.2822929999999957
11
159.016541999999987
21
-110.901340999999988
0
LINE
8
BLACK
6
CONTINUOUS
10
159.016541999999987
20
-110.901340999999988
11
159.1117799999999818
21
-110.7108649999999983
0
LINE
8
BLACK
6
CONTINUOUS
10
159.1117799999999818
20
-110.7108649999999983
11
159.207018000000005
21
-110.6156269999999893
0
LINE
8
BLACK
6
CONTINUOUS
10
159.207018000000005
20
-110.6156269999999893
11
159.3974939999999947
21
-110.5203889999999944
0
LINE
8
BLACK
6
CONTINUOUS
10
162.4451139999999896
20
-112.5203889999999944
11
162.4451139999999896
21
-110.5203889999999944
0
LINE
8
BLACK
6
CONTINUOUS
10
163.3022569999999973
20
-112.5203889999999944
11
163.3022569999999973
21
-111.472769999999997
0
LINE
8
BLACK
6
CONTINUOUS
10
163.3022569999999973
20
-111.472769999999997
11
163.2070190000000025
21
-111.2822929999999957
0
LINE
8
BLACK
6
CONTINUOUS
10
163.2070190000000025
20
-111.2822929999999957
11
163.0165429999999844
21
-111.1870550000000009
0
LINE
8
BLACK
6
CONTINUOUS
10
163.0165429999999844
20
-111.1870550000000009
11
162.7308280000000025
21
-111.1870550000000009
0
LINE
8
BLACK
6
CONTINUOUS
10
162.7308280000000025
20
-111.1870550000000009
11
162.5403519999999844
21
-111.2822929999999957
0
LINE
8
BLACK
6
CONTINUOUS
10
162.5403519999999844
20
-111.2822929999999957
11
162.4451139999999896
21
-111.3775309999999905
0
LINE
8
BLACK
6
CONTINUOUS
10
164.5403519999999844
20
-112.5203889999999944
11
164.3498759999999947
21
-112.4251509999999996
0
LINE
8
BLACK
6
CONTINUOUS
10
164.3498759999999947
20
-112.4251509999999996
11
164.2546379999999999
21
-112.3299119999999931
0
LINE
8
BLACK
6
CONTINUOUS
10
164.2546379999999999
20
-112.3299119999999931
11
164.1594000000000051
21
-112.1394359999999892
0
LINE
8
BLACK
6
CONTINUOUS
10
164.1594000000000051
20
-112.1394359999999892
11
164.1594000000000051
21
-111.5680079999999919
0
LINE
8
BLACK
6
CONTINUOUS
10
164.1594000000000051
20
-111.5680079999999919
11
164.2546379999999999
21
-111.3775309999999905
0
LINE
8
BLACK
6
CONTINUOUS
10
164.2546379999999999
20
-111.3775309999999905
11
164.3498759999999947
21
-111.2822929999999957
0
LINE
8
BLACK
6
CONTINUOUS
10
164.3498759999999947
20
-111.2822929999999957
11
164.5403519999999844
21
-111.1870550000000009
0
LINE
8
BLACK
6
CONTINUOUS
10
164.5403519999999844
20
-111.1870550000000009
11
164.8260669999999948
21
-111.1870550000000009
0
LINE
8
BLACK
6
CONTINUOUS
10
164.8260669999999948
20
-111.1870550000000009
11
165.0165429999999844
21
-111.2822929999999957
0
LINE
8
BLACK
6
CONTINUOUS
10
165.0165429999999844
20
-111.2822929999999957
11
165.1117809999999793
21
-111.3775309999999905
0
LINE
8
BLACK
6
CONTINUOUS
10
165.1117809999999793
20
-111.3775309999999905
11
165.2070190000000025
21
-111.5680079999999919
0
LINE
8
BLACK
6
CONTINUOUS
10
165.2070190000000025
20
-111.5680079999999919
11
165.2070190000000025
21
-112.1394359999999892
0
LINE
8
BLACK
6
CONTINUOUS
10
165.2070190000000025
20
-112.1394359999999892
11
165.1117809999999793
21
-112.3299119999999931
0
LINE
8
BLACK
6
CONTINUOUS
10
165.1117809999999793
20
-112.3299119999999931
11
165.0165429999999844
21
-112.4251509999999996
0
LINE
8
BLACK
6
CONTINUOUS
10
165.0165429999999844
20
-112.4251509999999996
11
164.8260669999999948
21
-112.5203889999999944
0
LINE
8
BLACK
6
CONTINUOUS
10
164.8260669999999948
20
-112.5203889999999944
11
164.5403519999999844
21
-112.5203889999999944
0
LINE
8
BLACK
6
CONTINUOUS
10
166.3498759999999947
20
-112.5203889999999944
11
166.1594000000000051
21
-112.4251509999999996
0
LINE
8
BLACK
6
CONTINUOUS
10
166.1594000000000051
20
-112.4251509999999996
11
166.0641619999999818
21
-112.2346739999999983
0
LINE
8
BLACK
6
CONTINUOUS
10
166.0641619999999818
20
-112.2346739999999983
11
166.0641619999999818
21
-110.5203889999999944
0
LINE
8
BLACK
6
CONTINUOUS
10
167.8736859999999922
20
-112.4251509999999996
11
167.6832100000000025
21
-112.5203889999999944
0
LINE
8
BLACK
6
CONTINUOUS
10
167.6832100000000025
20
-112.5203889999999944
11
167.3022569999999973
21
-112.5203889999999944
0
LINE
8
BLACK
6
CONTINUOUS
10
167.3022569999999973
20
-112.5203889999999944
11
167.1117809999999793
21
-112.4251509999999996
0
LINE
8
BLACK
6
CONTINUOUS
10
167.1117809999999793
20
-112.4251509999999996
11
167.0165429999999844
21
-112.2346739999999983
0
LINE
8
BLACK
6
CONTINUOUS
10
167.0165429999999844
20
-112.2346739999999983
11
167.0165429999999844
21
-111.472769999999997
0
LINE
8
BLACK
6
CONTINUOUS
10
167.0165429999999844
20
-111.472769999999997
11
167.1117809999999793
21
-111.2822929999999957
0
LINE
8
BLACK
6
CONTINUOUS
10
167.1117809999999793
20
-111.2822929999999957
11
167.3022569999999973
21
-111.1870550000000009
0
LINE
8
BLACK
6
CONTINUOUS
10
167.3022569999999973
20
-111.1870550000000009
11
167.6832100000000025
21
-111.1870550000000009
0
LINE
8
BLACK
6
CONTINUOUS
10
167.6832100000000025
20
-111.1870550000000009
11
167.8736859999999922
21
-111.2822929999999957
0
LINE
8
BLACK
6
CONTINUOUS
10
167.8736859999999922
20
-111.2822929999999957
11
167.968923999999987
21
-111.472769999999997
0
LINE
8
BLACK
6
CONTINUOUS
10
167.968923999999987
20
-111.472769999999997
11
167.968923999999987
21
-111.6632460000000009
0
LINE
8
BLACK
6
CONTINUOUS
10
167.968923999999987
20
-111.6632460000000009
11
167.0165429999999844
21
-111.8537219999999905
0
LINE
8
BLACK
6
CONTINUOUS
10
168.730829
20
-112.4251509999999996
11
168.9213049999999896
21
-112.5203889999999944
0
LINE
8
BLACK
6
CONTINUOUS
10
168.9213049999999896
20
-112.5203889999999944
11
169.3022569999999973
21
-112.5203889999999944
0
LINE
8
BLACK
6
CONTINUOUS
10
169.3022569999999973
20
-112.5203889999999944
11
169.4927339999999845
21
-112.4251509999999996
0
LINE
8
BLACK
6
CONTINUOUS
10
169.4927339999999845
20
-112.4251509999999996
11
169.5879719999999793
21
-112.2346739999999983
0
LINE
8
BLACK
6
CONTINUOUS
10
169.5879719999999793
20
-112.2346739999999983
11
169.5879719999999793
21
-112.1394359999999892
0
LINE
8
BLACK
6
CONTINUOUS
10
169.5879719999999793
20
-112.1394359999999892
11
169.4927339999999845
21
-111.9489599999999996
0
LINE
8
BLACK
6
CONTINUOUS
10
169.4927339999999845
20
-111.9489599999999996
11
169.3022569999999973
21
-111.8537219999999905
0
LINE
8
BLACK
6
CONTINUOUS
10
169.3022569999999973
20
-111.8537219999999905
11
169.0165429999999844
21
-111.8537219999999905
0
LINE
8
BLACK
6
CONTINUOUS
10
169.0165429999999844
20
-111.8537219999999905
11
168.8260669999999948
21
-111.7584839999999957
0
LINE
8
BLACK
6
CONTINUOUS
10
168.8260669999999948
20
-111.7584839999999957
11
168.730829
21
-111.5680079999999919
0
LINE
8
BLACK
6
CONTINUOUS
10
168.730829
20
-111.5680079999999919
11
168.730829
21
-111.472769999999997
0
LINE
8
BLACK
6
CONTINUOUS
10
168.730829
20
-111.472769999999997
11
168.8260669999999948
21
-111.2822929999999957
0
LINE
8
BLACK
6
CONTINUOUS
10
168.8260669999999948
20
-111.2822929999999957
11
169.0165429999999844
21
-111.1870550000000009
0
LINE
8
BLACK
6
CONTINUOUS
10
169.0165429999999844
20
-111.1870550000000009
11
169.3022569999999973
21
-111.1870550000000009
0
LINE
8
BLACK
6
CONTINUOUS
10
169.3022569999999973
20
-111.1870550000000009
11
169.4927339999999845
21
-111.2822929999999957
0
LINE
8
BLACK
6
CONTINUOUS
10
170.2546389999999974
20
-113.2822929999999957
11
170.3498769999999922
21
-113.1870550000000009
0
LINE
8
BLACK
6
CONTINUOUS
10
170.3498769999999922
20
-113.1870550000000009
11
170.5403529999999819
21
-112.901340999999988
0
LINE
8
BLACK
6
CONTINUOUS
10
170.5403529999999819
20
-112.901340999999988
11
170.6355910000000051
21
-112.7108649999999983
0
LINE
8
BLACK
6
CONTINUOUS
10
170.6355910000000051
20
-112.7108649999999983
11
170.730829
21
-112.4251509999999996
0
LINE
8
BLACK
6
CONTINUOUS
10
170.730829
20
-112.4251509999999996
11
170.8260669999999948
21
-111.9489599999999996
0
LINE
8
BLACK
6
CONTINUOUS
10
170.8260669999999948
20
-111.9489599999999996
11
170.8260669999999948
21
-111.5680079999999919
0
LINE
8
BLACK
6
CONTINUOUS
10
170.8260669999999948
20
-111.5680079999999919
11
170.730829
21
-111.0918169999999918
0
LINE
8
BLACK
6
CONTINUOUS
10
170.730829
20
-111.0918169999999918
11
170.6355910000000051
21
-110.8061029999999931
0
LINE
8
BLACK
6
CONTINUOUS
10
170.6355910000000051
20
-110.8061029999999931
11
170.5403529999999819
21
-110.6156269999999893
0
LINE
8
BLACK
6
CONTINUOUS
10
170.5403529999999819
20
-110.6156269999999893
11
170.3498769999999922
21
-110.3299119999999931
0
LINE
8
BLACK
6
CONTINUOUS
10
170.3498769999999922
20
-110.3299119999999931
11
170.2546389999999974
21
-110.2346739999999983
0
LINE
8
BLACK
6
CONTINUOUS
10
120.3063609999999954
20
-114.9526649999999961
11
120.3063609999999954
21
-113.5384370000000018
0
LINE
8
BLACK
6
CONTINUOUS
10
120.3063609999999954
20
-113.5384370000000018
11
118.8921330000000012
21
-113.5384370000000018
0
LINE
8
BLACK
6
CONTINUOUS
10
118.8921330000000012
20
-113.5384370000000018
11
118.8921330000000012
21
-114.9526649999999961
0
LINE
8
BLACK
6
CONTINUOUS
10
118.8921330000000012
20
-114.9526649999999961
11
120.3063609999999954
21
-114.9526649999999961
0
LINE
8
BLACK
6
CONTINUOUS
10
124.0641579999999919
20
-113.8270550000000014
11
124.0641579999999919
21
-115.160388999999995
0
LINE
8
BLACK
6
CONTINUOUS
10
123.5879669999999919
20
-113.0651510000000002
11
123.1117769999999894
21
-114.4937219999999911
0
LINE
8
BLACK
6
CONTINUOUS
10
123.1117769999999894
20
-114.4937219999999911
11
124.3498719999999906
21
-114.4937219999999911
0
LINE
8
BLACK
6
CONTINUOUS
10
125.1117769999999894
20
-114.9699119999999937
11
125.2070149999999984
21
-115.0651510000000002
0
LINE
8
BLACK
6
CONTINUOUS
10
125.2070149999999984
20
-115.0651510000000002
11
125.1117769999999894
21
-115.160388999999995
0
LINE
8
BLACK
6
CONTINUOUS
10
125.1117769999999894
20
-115.160388999999995
11
125.0165389999999945
21
-115.0651510000000002
0
LINE
8
BLACK
6
CONTINUOUS
10
125.0165389999999945
20
-115.0651510000000002
11
125.1117769999999894
21
-114.9699119999999937
0
LINE
8
BLACK
6
CONTINUOUS
10
125.1117769999999894
20
-114.9699119999999937
11
125.1117769999999894
21
-115.160388999999995
0
LINE
8
BLACK
6
CONTINUOUS
10
125.9689199999999971
20
-113.3508649999999989
11
126.0641579999999919
21
-113.2556269999999898
0
LINE
8
BLACK
6
CONTINUOUS
10
126.0641579999999919
20
-113.2556269999999898
11
126.2546339999999958
21
-113.160388999999995
0
LINE
8
BLACK
6
CONTINUOUS
10
126.2546339999999958
20
-113.160388999999995
11
126.7308249999999958
21
-113.160388999999995
0
LINE
8
BLACK
6
CONTINUOUS
10
126.7308249999999958
20
-113.160388999999995
11
126.9213009999999997
21
-113.2556269999999898
0
LINE
8
BLACK
6
CONTINUOUS
10
126.9213009999999997
20
-113.2556269999999898
11
127.0165389999999945
21
-113.3508649999999989
0
LINE
8
BLACK
6
CONTINUOUS
10
127.0165389999999945
20
-113.3508649999999989
11
127.1117769999999894
21
-113.5413409999999885
0
LINE
8
BLACK
6
CONTINUOUS
10
127.1117769999999894
20
-113.5413409999999885
11
127.1117769999999894
21
-113.7318169999999924
0
LINE
8
BLACK
6
CONTINUOUS
10
127.1117769999999894
20
-113.7318169999999924
11
127.0165389999999945
21
-114.0175309999999911
0
LINE
8
BLACK
6
CONTINUOUS
10
127.0165389999999945
20
-114.0175309999999911
11
125.8736819999999881
21
-115.160388999999995
0
LINE
8
BLACK
6
CONTINUOUS
10
125.8736819999999881
20
-115.160388999999995
11
127.1117769999999894
21
-115.160388999999995
0
LINE
8
BLACK
6
CONTINUOUS
10
127.8736819999999881
20
-113.3508649999999989
11
127.9689199999999971
21
-113.2556269999999898
0
LINE
8
BLACK
6
CONTINUOUS
10
127.9689199999999971
20
-113.2556269999999898
11
128.1593959999999868
21
-113.160388999999995
0
LINE
8
BLACK
6
CONTINUOUS
10
128.1593959999999868
20
-113.160388999999995
11
128.6355869999999868
21
-113.160388999999995
0
LINE
8
BLACK
6
CONTINUOUS
10
128.6355869999999868
20
-113.160388999999995
11
128.8260630000000049
21
-113.2556269999999898
0
LINE
8
BLACK
6
CONTINUOUS
10
128.8260630000000049
20
-113.2556269999999898
11
128.9213009999999997
21
-113.3508649999999989
0
LINE
8
BLACK
6
CONTINUOUS
10
128.9213009999999997
20
-113.3508649999999989
11
129.0165389999999945
21
-113.5413409999999885
0
LINE
8
BLACK
6
CONTINUOUS
10
129.0165389999999945
20
-113.5413409999999885
11
129.0165389999999945
21
-113.7318169999999924
0
LINE
8
BLACK
6
CONTINUOUS
10
129.0165389999999945
20
-113.7318169999999924
11
128.9213009999999997
21
-114.0175309999999911
0
LINE
8
BLACK
6
CONTINUOUS
10
128.9213009999999997
20
-114.0175309999999911
11
127.7784439999999933
21
-115.160388999999995
0
LINE
8
BLACK
6
CONTINUOUS
10
127.7784439999999933
20
-115.160388999999995
11
129.0165389999999945
21
-115.160388999999995
0
LINE
8
BLACK
6
CONTINUOUS
10
130.2546339999999816
20
-113.160388999999995
11
130.4451109999999971
21
-113.160388999999995
0
LINE
8
BLACK
6
CONTINUOUS
10
130.4451109999999971
20
-113.160388999999995
11
130.6355869999999868
21
-113.2556269999999898
0
LINE
8
BLACK
6
CONTINUOUS
10
130.6355869999999868
20
-113.2556269999999898
11
130.7308249999999816
21
-113.3508649999999989
0
LINE
8
BLACK
6
CONTINUOUS
10
130.7308249999999816
20
-113.3508649999999989
11
130.8260630000000049
21
-113.5413409999999885
0
LINE
8
BLACK
6
CONTINUOUS
10
130.8260630000000049
20
-113.5413409999999885
11
130.9213009999999997
21
-113.9222929999999963
0
LINE
8
BLACK
6
CONTINUOUS
10
130.9213009999999997
20
-113.9222929999999963
11
130.9213009999999997
21
-114.3984839999999963
0
LINE
8
BLACK
6
CONTINUOUS
10
130.9213009999999997
20
-114.3984839999999963
11
130.8260630000000049
21
-114.7794359999999898
0
LINE
8
BLACK
6
CONTINUOUS
10
130.8260630000000049
20
-114.7794359999999898
11
130.7308249999999816
21
-114.9699119999999937
0
LINE
8
BLACK
6
CONTINUOUS
10
130.7308249999999816
20
-114.9699119999999937
11
130.6355869999999868
21
-115.0651510000000002
0
LINE
8
BLACK
6
CONTINUOUS
10
130.6355869999999868
20
-115.0651510000000002
11
130.4451109999999971
21
-115.160388999999995
0
LINE
8
BLACK
6
CONTINUOUS
10
130.4451109999999971
20
-115.160388999999995
11
130.2546339999999816
21
-115.160388999999995
0
LINE
8
BLACK
6
CONTINUOUS
10
130.2546339999999816
20
-115.160388999999995
11
130.0641579999999919
21
-115.0651510000000002
0
LINE
8
BLACK
6
CONTINUOUS
10
130.0641579999999919
20
-115.0651510000000002
11
129.9689199999999971
21
-114.9699119999999937
0
LINE
8
BLACK
6
CONTINUOUS
10
129.9689199999999971
20
-114.9699119999999937
11
129.8736820000000023
21
-114.7794359999999898
0
LINE
8
BLACK
6
CONTINUOUS
10
129.8736820000000023
20
-114.7794359999999898
11
129.7784440000000075
21
-114.3984839999999963
0
LINE
8
BLACK
6
CONTINUOUS
10
129.7784440000000075
20
-114.3984839999999963
11
129.7784440000000075
21
-113.9222929999999963
0
LINE
8
BLACK
6
CONTINUOUS
10
129.7784440000000075
20
-113.9222929999999963
11
129.8736820000000023
21
-113.5413409999999885
0
LINE
8
BLACK
6
CONTINUOUS
10
129.8736820000000023
20
-113.5413409999999885
11
129.9689199999999971
21
-113.3508649999999989
0
LINE
8
BLACK
6
CONTINUOUS
10
129.9689199999999971
20
-113.3508649999999989
11
130.0641579999999919
21
-113.2556269999999898
0
LINE
8
BLACK
6
CONTINUOUS
10
130.0641579999999919
20
-113.2556269999999898
11
130.2546339999999816
21
-113.160388999999995
0
LINE
8
BLACK
6
CONTINUOUS
10
131.7784440000000075
20
-115.160388999999995
11
131.7784440000000075
21
-113.8270550000000014
0
LINE
8
BLACK
6
CONTINUOUS
10
131.7784440000000075
20
-114.0175309999999911
11
131.8736820000000023
21
-113.9222929999999963
0
LINE
8
BLACK
6
CONTINUOUS
10
131.8736820000000023
20
-113.9222929999999963
11
132.0641579999999919
21
-113.8270550000000014
0
LINE
8
BLACK
6
CONTINUOUS
10
132.0641579999999919
20
-113.8270550000000014
11
132.3498730000000023
21
-113.8270550000000014
0
LINE
8
BLACK
6
CONTINUOUS
10
132.3498730000000023
20
-113.8270550000000014
11
132.540348999999992
21
-113.9222929999999963
0
LINE
8
BLACK
6
CONTINUOUS
10
132.540348999999992
20
-113.9222929999999963
11
132.6355869999999868
21
-114.1127699999999976
0
LINE
8
BLACK
6
CONTINUOUS
10
132.6355869999999868
20
-114.1127699999999976
11
132.6355869999999868
21
-115.160388999999995
0
LINE
8
BLACK
6
CONTINUOUS
10
132.6355869999999868
20
-114.1127699999999976
11
132.7308249999999816
21
-113.9222929999999963
0
LINE
8
BLACK
6
CONTINUOUS
10
132.7308249999999816
20
-113.9222929999999963
11
132.9213009999999997
21
-113.8270550000000014
0
LINE
8
BLACK
6
CONTINUOUS
10
132.9213009999999997
20
-113.8270550000000014
11
133.2070149999999842
21
-113.8270550000000014
0
LINE
8
BLACK
6
CONTINUOUS
10
133.2070149999999842
20
-113.8270550000000014
11
133.3974919999999997
21
-113.9222929999999963
0
LINE
8
BLACK
6
CONTINUOUS
10
133.3974919999999997
20
-113.9222929999999963
11
133.4927299999999946
21
-114.1127699999999976
0
LINE
8
BLACK
6
CONTINUOUS
10
133.4927299999999946
20
-114.1127699999999976
11
133.4927299999999946
21
-115.160388999999995
0
LINE
8
BLACK
6
CONTINUOUS
10
134.4451109999999971
20
-115.160388999999995
11
134.4451109999999971
21
-113.8270550000000014
0
LINE
8
BLACK
6
CONTINUOUS
10
134.4451109999999971
20
-114.0175309999999911
11
134.540348999999992
21
-113.9222929999999963
0
LINE
8
BLACK
6
CONTINUOUS
10
134.540348999999992
20
-113.9222929999999963
11
134.7308249999999816
21
-113.8270550000000014
0
LINE
8
BLACK
6
CONTINUOUS
10
134.7308249999999816
20
-113.8270550000000014
11
135.016539999999992
21
-113.8270550000000014
0
LINE
8
BLACK
6
CONTINUOUS
10
135.016539999999992
20
-113.8270550000000014
11
135.2070159999999817
21
-113.9222929999999963
0
LINE
8
BLACK
6
CONTINUOUS
10
135.2070159999999817
20
-113.9222929999999963
11
135.3022540000000049
21
-114.1127699999999976
0
LINE
8
BLACK
6
CONTINUOUS
10
135.3022540000000049
20
-114.1127699999999976
11
135.3022540000000049
21
-115.160388999999995
0
LINE
8
BLACK
6
CONTINUOUS
10
135.3022540000000049
20
-114.1127699999999976
11
135.3974919999999997
21
-113.9222929999999963
0
LINE
8
BLACK
6
CONTINUOUS
10
135.3974919999999997
20
-113.9222929999999963
11
135.5879679999999894
21
-113.8270550000000014
0
LINE
8
BLACK
6
CONTINUOUS
10
135.5879679999999894
20
-113.8270550000000014
11
135.8736820000000023
21
-113.8270550000000014
0
LINE
8
BLACK
6
CONTINUOUS
10
135.8736820000000023
20
-113.8270550000000014
11
136.0641589999999894
21
-113.9222929999999963
0
LINE
8
BLACK
6
CONTINUOUS
10
136.0641589999999894
20
-113.9222929999999963
11
136.1593969999999842
21
-114.1127699999999976
0
LINE
8
BLACK
6
CONTINUOUS
10
136.1593969999999842
20
-114.1127699999999976
11
136.1593969999999842
21
-115.160388999999995
0
LINE
8
BLACK
6
CONTINUOUS
10
140.0641589999999894
20
-113.0651510000000002
11
138.3498739999999998
21
-115.6365789999999976
0
LINE
8
BLACK
6
CONTINUOUS
10
142.6355879999999843
20
-113.160388999999995
11
142.8260649999999998
21
-113.160388999999995
0
LINE
8
BLACK
6
CONTINUOUS
10
142.8260649999999998
20
-113.160388999999995
11
143.0165409999999895
21
-113.2556269999999898
0
LINE
8
BLACK
6
CONTINUOUS
10
143.0165409999999895
20
-113.2556269999999898
11
143.1117789999999843
21
-113.3508649999999989
0
LINE
8
BLACK
6
CONTINUOUS
10
143.1117789999999843
20
-113.3508649999999989
11
143.2070170000000076
21
-113.5413409999999885
0
LINE
8
BLACK
6
CONTINUOUS
10
143.2070170000000076
20
-113.5413409999999885
11
143.3022550000000024
21
-113.9222929999999963
0
LINE
8
BLACK
6
CONTINUOUS
10
143.3022550000000024
20
-113.9222929999999963
11
143.3022550000000024
21
-114.3984839999999963
0
LINE
8
BLACK
6
CONTINUOUS
10
143.3022550000000024
20
-114.3984839999999963
11
143.2070170000000076
21
-114.7794359999999898
0
LINE
8
BLACK
6
CONTINUOUS
10
143.2070170000000076
20
-114.7794359999999898
11
143.1117789999999843
21
-114.9699119999999937
0
LINE
8
BLACK
6
CONTINUOUS
10
143.1117789999999843
20
-114.9699119999999937
11
143.0165409999999895
21
-115.0651510000000002
0
LINE
8
BLACK
6
CONTINUOUS
10
143.0165409999999895
20
-115.0651510000000002
11
142.8260649999999998
21
-115.160388999999995
0
LINE
8
BLACK
6
CONTINUOUS
10
142.8260649999999998
20
-115.160388999999995
11
142.6355879999999843
21
-115.160388999999995
0
LINE
8
BLACK
6
CONTINUOUS
10
142.6355879999999843
20
-115.160388999999995
11
142.4451119999999946
21
-115.0651510000000002
0
LINE
8
BLACK
6
CONTINUOUS
10
142.4451119999999946
20
-115.0651510000000002
11
142.3498739999999998
21
-114.9699119999999937
0
LINE
8
BLACK
6
CONTINUOUS
10
142.3498739999999998
20
-114.9699119999999937
11
142.254636000000005
21
-114.7794359999999898
0
LINE
8
BLACK
6
CONTINUOUS
10
142.254636000000005
20
-114.7794359999999898
11
142.1593979999999817
21
-114.3984839999999963
0
LINE
8
BLACK
6
CONTINUOUS
10
142.1593979999999817
20
-114.3984839999999963
11
142.1593979999999817
21
-113.9222929999999963
0
LINE
8
BLACK
6
CONTINUOUS
10
142.1593979999999817
20
-113.9222929999999963
11
142.254636000000005
21
-113.5413409999999885
0
LINE
8
BLACK
6
CONTINUOUS
10
142.254636000000005
20
-113.5413409999999885
11
142.3498739999999998
21
-113.3508649999999989
0
LINE
8
BLACK
6
CONTINUOUS
10
142.3498739999999998
20
-113.3508649999999989
11
142.4451119999999946
21
-113.2556269999999898
0
LINE
8
BLACK
6
CONTINUOUS
10
142.4451119999999946
20
-113.2556269999999898
11
142.6355879999999843
21
-113.160388999999995
0
LINE
8
BLACK
6
CONTINUOUS
10
144.1593979999999817
20
-114.9699119999999937
11
144.254636000000005
21
-115.0651510000000002
0
LINE
8
BLACK
6
CONTINUOUS
10
144.254636000000005
20
-115.0651510000000002
11
144.1593979999999817
21
-115.160388999999995
0
LINE
8
BLACK
6
CONTINUOUS
10
144.1593979999999817
20
-115.160388999999995
11
144.0641599999999869
21
-115.0651510000000002
0
LINE
8
BLACK
6
CONTINUOUS
10
144.0641599999999869
20
-115.0651510000000002
11
144.1593979999999817
21
-114.9699119999999937
0
LINE
8
BLACK
6
CONTINUOUS
10
144.1593979999999817
20
-114.9699119999999937
11
144.1593979999999817
21
-115.160388999999995
0
LINE
8
BLACK
6
CONTINUOUS
10
146.1593979999999817
20
-115.160388999999995
11
145.0165409999999895
21
-115.160388999999995
0
LINE
8
BLACK
6
CONTINUOUS
10
145.5879689999999869
20
-115.160388999999995
11
145.5879689999999869
21
-113.160388999999995
0
LINE
8
BLACK
6
CONTINUOUS
10
145.5879689999999869
20
-113.160388999999995
11
145.3974929999999972
21
-113.4461029999999937
0
LINE
8
BLACK
6
CONTINUOUS
10
145.3974929999999972
20
-113.4461029999999937
11
145.2070170000000076
21
-113.6365789999999976
0
LINE
8
BLACK
6
CONTINUOUS
10
145.2070170000000076
20
-113.6365789999999976
11
145.0165409999999895
21
-113.7318169999999924
0
LINE
8
BLACK
6
CONTINUOUS
10
147.8736839999999972
20
-113.160388999999995
11
147.492730999999992
21
-113.160388999999995
0
LINE
8
BLACK
6
CONTINUOUS
10
147.492730999999992
20
-113.160388999999995
11
147.3022550000000024
21
-113.2556269999999898
0
LINE
8
BLACK
6
CONTINUOUS
10
147.3022550000000024
20
-113.2556269999999898
11
147.2070169999999791
21
-113.3508649999999989
0
LINE
8
BLACK
6
CONTINUOUS
10
147.2070169999999791
20
-113.3508649999999989
11
147.0165409999999895
21
-113.6365789999999976
0
LINE
8
BLACK
6
CONTINUOUS
10
147.0165409999999895
20
-113.6365789999999976
11
146.9213029999999947
21
-114.0175309999999911
0
LINE
8
BLACK
6
CONTINUOUS
10
146.9213029999999947
20
-114.0175309999999911
11
146.9213029999999947
21
-114.7794359999999898
0
LINE
8
BLACK
6
CONTINUOUS
10
146.9213029999999947
20
-114.7794359999999898
11
147.0165409999999895
21
-114.9699119999999937
0
LINE
8
BLACK
6
CONTINUOUS
10
147.0165409999999895
20
-114.9699119999999937
11
147.1117789999999843
21
-115.0651510000000002
0
LINE
8
BLACK
6
CONTINUOUS
10
147.1117789999999843
20
-115.0651510000000002
11
147.3022550000000024
21
-115.160388999999995
0
LINE
8
BLACK
6
CONTINUOUS
10
147.3022550000000024
20
-115.160388999999995
11
147.6832079999999792
21
-115.160388999999995
0
LINE
8
BLACK
6
CONTINUOUS
10
147.6832079999999792
20
-115.160388999999995
11
147.8736839999999972
21
-115.0651510000000002
0
LINE
8
BLACK
6
CONTINUOUS
10
147.8736839999999972
20
-115.0651510000000002
11
147.9689219999999921
21
-114.9699119999999937
0
LINE
8
BLACK
6
CONTINUOUS
10
147.9689219999999921
20
-114.9699119999999937
11
148.0641599999999869
21
-114.7794359999999898
0
LINE
8
BLACK
6
CONTINUOUS
10
148.0641599999999869
20
-114.7794359999999898
11
148.0641599999999869
21
-114.3032460000000015
0
LINE
8
BLACK
6
CONTINUOUS
10
148.0641599999999869
20
-114.3032460000000015
11
147.9689219999999921
21
-114.1127699999999976
0
LINE
8
BLACK
6
CONTINUOUS
10
147.9689219999999921
20
-114.1127699999999976
11
147.8736839999999972
21
-114.0175309999999911
0
LINE
8
BLACK
6
CONTINUOUS
10
147.8736839999999972
20
-114.0175309999999911
11
147.6832079999999792
21
-113.9222929999999963
0
LINE
8
BLACK
6
CONTINUOUS
10
147.6832079999999792
20
-113.9222929999999963
11
147.3022550000000024
21
-113.9222929999999963
0
LINE
8
BLACK
6
CONTINUOUS
10
147.3022550000000024
20
-113.9222929999999963
11
147.1117789999999843
21
-114.0175309999999911
0
LINE
8
BLACK
6
CONTINUOUS
10
147.1117789999999843
20
-114.0175309999999911
11
147.0165409999999895
21
-114.1127699999999976
0
LINE
8
BLACK
6
CONTINUOUS
10
147.0165409999999895
20
-114.1127699999999976
11
146.9213029999999947
21
-114.3032460000000015
0
LINE
8
BLACK
6
CONTINUOUS
10
149.7784460000000024
20
-113.160388999999995
11
149.3974929999999972
21
-113.160388999999995
0
LINE
8
BLACK
6
CONTINUOUS
10
149.3974929999999972
20
-113.160388999999995
11
149.2070169999999791
21
-113.2556269999999898
0
LINE
8
BLACK
6
CONTINUOUS
10
149.2070169999999791
20
-113.2556269999999898
11
149.1117789999999843
21
-113.3508649999999989
0
LINE
8
BLACK
6
CONTINUOUS
10
149.1117789999999843
20
-113.3508649999999989
11
148.9213029999999947
21
-113.6365789999999976
0
LINE
8
BLACK
6
CONTINUOUS
10
148.9213029999999947
20
-113.6365789999999976
11
148.8260649999999998
21
-114.0175309999999911
0
LINE
8
BLACK
6
CONTINUOUS
10
148.8260649999999998
20
-114.0175309999999911
11
148.8260649999999998
21
-114.7794359999999898
0
LINE
8
BLACK
6
CONTINUOUS
10
148.8260649999999998
20
-114.7794359999999898
11
148.9213029999999947
21
-114.9699119999999937
0
LINE
8
BLACK
6
CONTINUOUS
10
148.9213029999999947
20
-114.9699119999999937
11
149.0165409999999895
21
-115.0651510000000002
0
LINE
8
BLACK
6
CONTINUOUS
10
149.0165409999999895
20
-115.0651510000000002
11
149.2070169999999791
21
-115.160388999999995
0
LINE
8
BLACK
6
CONTINUOUS
10
149.2070169999999791
20
-115.160388999999995
11
149.5879699999999843
21
-115.160388999999995
0
LINE
8
BLACK
6
CONTINUOUS
10
149.5879699999999843
20
-115.160388999999995
11
149.7784460000000024
21
-115.0651510000000002
0
LINE
8
BLACK
6
CONTINUOUS
10
149.7784460000000024
20
-115.0651510000000002
11
149.8736839999999972
21
-114.9699119999999937
0
LINE
8
BLACK
6
CONTINUOUS
10
149.8736839999999972
20
-114.9699119999999937
11
149.9689219999999921
21
-114.7794359999999898
0
LINE
8
BLACK
6
CONTINUOUS
10
149.9689219999999921
20
-114.7794359999999898
11
149.9689219999999921
21
-114.3032460000000015
0
LINE
8
BLACK
6
CONTINUOUS
10
149.9689219999999921
20
-114.3032460000000015
11
149.8736839999999972
21
-114.1127699999999976
0
LINE
8
BLACK
6
CONTINUOUS
10
149.8736839999999972
20
-114.1127699999999976
11
149.7784460000000024
21
-114.0175309999999911
0
LINE
8
BLACK
6
CONTINUOUS
10
149.7784460000000024
20
-114.0175309999999911
11
149.5879699999999843
21
-113.9222929999999963
0
LINE
8
BLACK
6
CONTINUOUS
10
149.5879699999999843
20
-113.9222929999999963
11
149.2070169999999791
21
-113.9222929999999963
0
LINE
8
BLACK
6
CONTINUOUS
10
149.2070169999999791
20
-113.9222929999999963
11
149.0165409999999895
21
-114.0175309999999911
0
LINE
8
BLACK
6
CONTINUOUS
10
149.0165409999999895
20
-114.0175309999999911
11
148.9213029999999947
21
-114.1127699999999976
0
LINE
8
BLACK
6
CONTINUOUS
10
148.9213029999999947
20
-114.1127699999999976
11
148.8260649999999998
21
-114.3032460000000015
0
LINE
8
BLACK
6
CONTINUOUS
10
151.8736839999999972
20
-115.160388999999995
11
150.730827000000005
21
-115.160388999999995
0
LINE
8
BLACK
6
CONTINUOUS
10
151.3022550000000024
20
-115.160388999999995
11
151.3022550000000024
21
-113.160388999999995
0
LINE
8
BLACK
6
CONTINUOUS
10
151.3022550000000024
20
-113.160388999999995
11
151.1117789999999843
21
-113.4461029999999937
0
LINE
8
BLACK
6
CONTINUOUS
10
151.1117789999999843
20
-113.4461029999999937
11
150.9213029999999947
21
-113.6365789999999976
0
LINE
8
BLACK
6
CONTINUOUS
10
150.9213029999999947
20
-113.6365789999999976
11
150.730827000000005
21
-113.7318169999999924
0
LINE
8
BLACK
6
CONTINUOUS
10
152.6355889999999818
20
-113.160388999999995
11
152.6355889999999818
21
-113.5413409999999885
0
LINE
8
BLACK
6
CONTINUOUS
10
153.3974939999999947
20
-113.160388999999995
11
153.3974939999999947
21
-113.5413409999999885
0
LINE
8
BLACK
6
CONTINUOUS
10
156.3498759999999947
20
-115.9222929999999963
11
156.2546370000000024
21
-115.8270550000000014
0
LINE
8
BLACK
6
CONTINUOUS
10
156.2546370000000024
20
-115.8270550000000014
11
156.0641609999999844
21
-115.5413409999999885
0
LINE
8
BLACK
6
CONTINUOUS
10
156.0641609999999844
20
-115.5413409999999885
11
155.9689229999999895
21
-115.3508649999999989
0
LINE
8
BLACK
6
CONTINUOUS
10
155.9689229999999895
20
-115.3508649999999989
11
155.8736849999999947
21
-115.0651510000000002
0
LINE
8
BLACK
6
CONTINUOUS
10
155.8736849999999947
20
-115.0651510000000002
11
155.7784469999999999
21
-114.5889600000000002
0
LINE
8
BLACK
6
CONTINUOUS
10
155.7784469999999999
20
-114.5889600000000002
11
155.7784469999999999
21
-114.2080079999999924
0
LINE
8
BLACK
6
CONTINUOUS
10
155.7784469999999999
20
-114.2080079999999924
11
155.8736849999999947
21
-113.7318169999999924
0
LINE
8
BLACK
6
CONTINUOUS
10
155.8736849999999947
20
-113.7318169999999924
11
155.9689229999999895
21
-113.4461029999999937
0
LINE
8
BLACK
6
CONTINUOUS
10
155.9689229999999895
20
-113.4461029999999937
11
156.0641609999999844
21
-113.2556269999999898
0
LINE
8
BLACK
6
CONTINUOUS
10
156.0641609999999844
20
-113.2556269999999898
11
156.2546370000000024
21
-112.9699119999999937
0
LINE
8
BLACK
6
CONTINUOUS
10
156.2546370000000024
20
-112.9699119999999937
11
156.3498759999999947
21
-112.8746739999999988
0
LINE
8
BLACK
6
CONTINUOUS
10
156.9213039999999921
20
-113.160388999999995
11
158.1593989999999792
21
-113.160388999999995
0
LINE
8
BLACK
6
CONTINUOUS
10
158.1593989999999792
20
-113.160388999999995
11
157.4927319999999895
21
-113.9222929999999963
0
LINE
8
BLACK
6
CONTINUOUS
10
157.4927319999999895
20
-113.9222929999999963
11
157.7784469999999999
21
-113.9222929999999963
0
LINE
8
BLACK
6
CONTINUOUS
10
157.7784469999999999
20
-113.9222929999999963
11
157.9689229999999895
21
-114.0175309999999911
0
LINE
8
BLACK
6
CONTINUOUS
10
157.9689229999999895
20
-114.0175309999999911
11
158.0641609999999844
21
-114.1127699999999976
0
LINE
8
BLACK
6
CONTINUOUS
10
158.0641609999999844
20
-114.1127699999999976
11
158.1593989999999792
21
-114.3032460000000015
0
LINE
8
BLACK
6
CONTINUOUS
10
158.1593989999999792
20
-114.3032460000000015
11
158.1593989999999792
21
-114.7794359999999898
0
LINE
8
BLACK
6
CONTINUOUS
10
158.1593989999999792
20
-114.7794359999999898
11
158.0641609999999844
21
-114.9699119999999937
0
LINE
8
BLACK
6
CONTINUOUS
10
158.0641609999999844
20
-114.9699119999999937
11
157.9689229999999895
21
-115.0651510000000002
0
LINE
8
BLACK
6
CONTINUOUS
10
157.9689229999999895
20
-115.0651510000000002
11
157.7784469999999999
21
-115.160388999999995
0
LINE
8
BLACK
6
CONTINUOUS
10
157.7784469999999999
20
-115.160388999999995
11
157.207018000000005
21
-115.160388999999995
0
LINE
8
BLACK
6
CONTINUOUS
10
157.207018000000005
20
-115.160388999999995
11
157.016541999999987
21
-115.0651510000000002
0
LINE
8
BLACK
6
CONTINUOUS
10
157.016541999999987
20
-115.0651510000000002
11
156.9213039999999921
21
-114.9699119999999937
0
LINE
8
BLACK
6
CONTINUOUS
10
160.5403519999999844
20
-115.160388999999995
11
160.5403519999999844
21
-113.160388999999995
0
LINE
8
BLACK
6
CONTINUOUS
10
161.3974949999999922
20
-115.160388999999995
11
161.3974949999999922
21
-114.1127699999999976
0
LINE
8
BLACK
6
CONTINUOUS
10
161.3974949999999922
20
-114.1127699999999976
11
161.3022569999999973
21
-113.9222929999999963
0
LINE
8
BLACK
6
CONTINUOUS
10
161.3022569999999973
20
-113.9222929999999963
11
161.1117809999999793
21
-113.8270550000000014
0
LINE
8
BLACK
6
CONTINUOUS
10
161.1117809999999793
20
-113.8270550000000014
11
160.8260659999999973
21
-113.8270550000000014
0
LINE
8
BLACK
6
CONTINUOUS
10
160.8260659999999973
20
-113.8270550000000014
11
160.6355899999999792
21
-113.9222929999999963
0
LINE
8
BLACK
6
CONTINUOUS
10
160.6355899999999792
20
-113.9222929999999963
11
160.5403519999999844
21
-114.0175309999999911
0
LINE
8
BLACK
6
CONTINUOUS
10
162.6355899999999792
20
-115.160388999999995
11
162.4451139999999896
21
-115.0651510000000002
0
LINE
8
BLACK
6
CONTINUOUS
10
162.4451139999999896
20
-115.0651510000000002
11
162.3498759999999947
21
-114.9699119999999937
0
LINE
8
BLACK
6
CONTINUOUS
10
162.3498759999999947
20
-114.9699119999999937
11
162.2546379999999999
21
-114.7794359999999898
0
LINE
8
BLACK
6
CONTINUOUS
10
162.2546379999999999
20
-114.7794359999999898
11
162.2546379999999999
21
-114.2080079999999924
0
LINE
8
BLACK
6
CONTINUOUS
10
162.2546379999999999
20
-114.2080079999999924
11
162.3498759999999947
21
-114.0175309999999911
0
LINE
8
BLACK
6
CONTINUOUS
10
162.3498759999999947
20
-114.0175309999999911
11
162.4451139999999896
21
-113.9222929999999963
0
LINE
8
BLACK
6
CONTINUOUS
10
162.4451139999999896
20
-113.9222929999999963
11
162.6355899999999792
21
-113.8270550000000014
0
LINE
8
BLACK
6
CONTINUOUS
10
162.6355899999999792
20
-113.8270550000000014
11
162.9213049999999896
21
-113.8270550000000014
0
LINE
8
BLACK
6
CONTINUOUS
10
162.9213049999999896
20
-113.8270550000000014
11
163.1117809999999793
21
-113.9222929999999963
0
LINE
8
BLACK
6
CONTINUOUS
10
163.1117809999999793
20
-113.9222929999999963
11
163.2070190000000025
21
-114.0175309999999911
0
LINE
8
BLACK
6
CONTINUOUS
10
163.2070190000000025
20
-114.0175309999999911
11
163.3022569999999973
21
-114.2080079999999924
0
LINE
8
BLACK
6
CONTINUOUS
10
163.3022569999999973
20
-114.2080079999999924
11
163.3022569999999973
21
-114.7794359999999898
0
LINE
8
BLACK
6
CONTINUOUS
10
163.3022569999999973
20
-114.7794359999999898
11
163.2070190000000025
21
-114.9699119999999937
0
LINE
8
BLACK
6
CONTINUOUS
10
163.2070190000000025
20
-114.9699119999999937
11
163.1117809999999793
21
-115.0651510000000002
0
LINE
8
BLACK
6
CONTINUOUS
10
163.1117809999999793
20
-115.0651510000000002
11
162.9213049999999896
21
-115.160388999999995
0
LINE
8
BLACK
6
CONTINUOUS
10
162.9213049999999896
20
-115.160388999999995
11
162.6355899999999792
21
-115.160388999999995
0
LINE
8
BLACK
6
CONTINUOUS
10
164.4451139999999896
20
-115.160388999999995
11
164.2546379999999999
21
-115.0651510000000002
0
LINE
8
BLACK
6
CONTINUOUS
10
164.2546379999999999
20
-115.0651510000000002
11
164.1594000000000051
21
-114.8746739999999988
0
LINE
8
BLACK
6
CONTINUOUS
10
164.1594000000000051
20
-114.8746739999999988
11
164.1594000000000051
21
-113.160388999999995
0
LINE
8
BLACK
6
CONTINUOUS
10
165.968923999999987
20
-115.0651510000000002
11
165.7784479999999974
21
-115.160388999999995
0
LINE
8
BLACK
6
CONTINUOUS
10
165.7784479999999974
20
-115.160388999999995
11
165.3974949999999922
21
-115.160388999999995
0
LINE
8
BLACK
6
CONTINUOUS
10
165.3974949999999922
20
-115.160388999999995
11
165.2070190000000025
21
-115.0651510000000002
0
LINE
8
BLACK
6
CONTINUOUS
10
165.2070190000000025
20
-115.0651510000000002
11
165.1117809999999793
21
-114.8746739999999988
0
LINE
8
BLACK
6
CONTINUOUS
10
165.1117809999999793
20
-114.8746739999999988
11
165.1117809999999793
21
-114.1127699999999976
0
LINE
8
BLACK
6
CONTINUOUS
10
165.1117809999999793
20
-114.1127699999999976
11
165.2070190000000025
21
-113.9222929999999963
0
LINE
8
BLACK
6
CONTINUOUS
10
165.2070190000000025
20
-113.9222929999999963
11
165.3974949999999922
21
-113.8270550000000014
0
LINE
8
BLACK
6
CONTINUOUS
10
165.3974949999999922
20
-113.8270550000000014
11
165.7784479999999974
21
-113.8270550000000014
0
LINE
8
BLACK
6
CONTINUOUS
10
165.7784479999999974
20
-113.8270550000000014
11
165.968923999999987
21
-113.9222929999999963
0
LINE
8
BLACK
6
CONTINUOUS
10
165.968923999999987
20
-113.9222929999999963
11
166.0641619999999818
21
-114.1127699999999976
0
LINE
8
BLACK
6
CONTINUOUS
10
166.0641619999999818
20
-114.1127699999999976
11
166.0641619999999818
21
-114.3032460000000015
0
LINE
8
BLACK
6
CONTINUOUS
10
166.0641619999999818
20
-114.3032460000000015
11
165.1117809999999793
21
-114.4937219999999911
0
LINE
8
BLACK
6
CONTINUOUS
10
166.8260669999999948
20
-115.0651510000000002
11
167.0165429999999844
21
-115.160388999999995
0
LINE
8
BLACK
6
CONTINUOUS
10
167.0165429999999844
20
-115.160388999999995
11
167.3974949999999922
21
-115.160388999999995
0
LINE
8
BLACK
6
CONTINUOUS
10
167.3974949999999922
20
-115.160388999999995
11
167.5879719999999793
21
-115.0651510000000002
0
LINE
8
BLACK
6
CONTINUOUS
10
167.5879719999999793
20
-115.0651510000000002
11
167.6832100000000025
21
-114.8746739999999988
0
LINE
8
BLACK
6
CONTINUOUS
10
167.6832100000000025
20
-114.8746739999999988
11
167.6832100000000025
21
-114.7794359999999898
0
LINE
8
BLACK
6
CONTINUOUS
10
167.6832100000000025
20
-114.7794359999999898
11
167.5879719999999793
21
-114.5889600000000002
0
LINE
8
BLACK
6
CONTINUOUS
10
167.5879719999999793
20
-114.5889600000000002
11
167.3974949999999922
21
-114.4937219999999911
0
LINE
8
BLACK
6
CONTINUOUS
10
167.3974949999999922
20
-114.4937219999999911
11
167.1117809999999793
21
-114.4937219999999911
0
LINE
8
BLACK
6
CONTINUOUS
10
167.1117809999999793
20
-114.4937219999999911
11
166.9213049999999896
21
-114.3984839999999963
0
LINE
8
BLACK
6
CONTINUOUS
10
166.9213049999999896
20
-114.3984839999999963
11
166.8260669999999948
21
-114.2080079999999924
0
LINE
8
BLACK
6
CONTINUOUS
10
166.8260669999999948
20
-114.2080079999999924
11
166.8260669999999948
21
-114.1127699999999976
0
LINE
8
BLACK
6
CONTINUOUS
10
166.8260669999999948
20
-114.1127699999999976
11
166.9213049999999896
21
-113.9222929999999963
0
LINE
8
BLACK
6
CONTINUOUS
10
166.9213049999999896
20
-113.9222929999999963
11
167.1117809999999793
21
-113.8270550000000014
0
LINE
8
BLACK
6
CONTINUOUS
10
167.1117809999999793
20
-113.8270550000000014
11
167.3974949999999922
21
-113.8270550000000014
0
LINE
8
BLACK
6
CONTINUOUS
10
167.3974949999999922
20
-113.8270550000000014
11
167.5879719999999793
21
-113.9222929999999963
0
LINE
8
BLACK
6
CONTINUOUS
10
168.3498769999999922
20
-115.9222929999999963
11
168.445114999999987
21
-115.8270550000000014
0
LINE
8
BLACK
6
CONTINUOUS
10
168.445114999999987
20
-115.8270550000000014
11
168.6355910000000051
21
-115.5413409999999885
0
LINE
8
BLACK
6
CONTINUOUS
10
168.6355910000000051
20
-115.5413409999999885
11
168.730829
21
-115.3508649999999989
0
LINE
8
BLACK
6
CONTINUOUS
10
168.730829
20
-115.3508649999999989
11
168.8260669999999948
21
-115.0651510000000002
0
LINE
8
BLACK
6
CONTINUOUS
10
168.8260669999999948
20
-115.0651510000000002
11
168.9213049999999896
21
-114.5889600000000002
0
LINE
8
BLACK
6
CONTINUOUS
10
168.9213049999999896
20
-114.5889600000000002
11
168.9213049999999896
21
-114.2080079999999924
0
LINE
8
BLACK
6
CONTINUOUS
10
168.9213049999999896
20
-114.2080079999999924
11
168.8260669999999948
21
-113.7318169999999924
0
LINE
8
BLACK
6
CONTINUOUS
10
168.8260669999999948
20
-113.7318169999999924
11
168.730829
21
-113.4461029999999937
0
LINE
8
BLACK
6
CONTINUOUS
10
168.730829
20
-113.4461029999999937
11
168.6355910000000051
21
-113.2556269999999898
0
LINE
8
BLACK
6
CONTINUOUS
10
168.6355910000000051
20
-113.2556269999999898
11
168.445114999999987
21
-112.9699119999999937
0
LINE
8
BLACK
6
CONTINUOUS
10
168.445114999999987
20
-112.9699119999999937
11
168.3498769999999922
21
-112.8746739999999988
0
LINE
8
BLACK
6
CONTINUOUS
10
119.5992469999999912
20
-118.4455509999999947
11
120.5992469999999912
21
-117.4455509999999947
0
LINE
8
BLACK
6
CONTINUOUS
10
120.5992469999999912
20
-117.4455509999999947
11
119.5992469999999912
21
-116.4455509999999947
0
LINE
8
BLACK
6
CONTINUOUS
10
119.5992469999999912
20
-116.4455509999999947
11
118.5992469999999912
21
-117.4455509999999947
0
LINE
8
BLACK
6
CONTINUOUS
10
118.5992469999999912
20
-117.4455509999999947
11
119.5992469999999912
21
-118.4455509999999947
0
LINE
8
BLACK
6
CONTINUOUS
10
123.0165389999999945
20
-116.3603889999999978
11
124.2546339999999958
21
-116.3603889999999978
0
LINE
8
BLACK
6
CONTINUOUS
10
124.2546339999999958
20
-116.3603889999999978
11
123.5879669999999919
21
-117.1222929999999991
0
LINE
8
BLACK
6
CONTINUOUS
10
123.5879669999999919
20
-117.1222929999999991
11
123.8736819999999881
21
-117.1222929999999991
0
LINE
8
BLACK
6
CONTINUOUS
10
123.8736819999999881
20
-117.1222929999999991
11
124.0641579999999919
21
-117.2175309999999939
0
LINE
8
BLACK
6
CONTINUOUS
10
124.0641579999999919
20
-117.2175309999999939
11
124.159396000000001
21
-117.3127700000000004
0
LINE
8
BLACK
6
CONTINUOUS
10
124.159396000000001
20
-117.3127700000000004
11
124.2546339999999958
21
-117.5032459999999901
0
LINE
8
BLACK
6
CONTINUOUS
10
124.2546339999999958
20
-117.5032459999999901
11
124.2546339999999958
21
-117.9794359999999926
0
LINE
8
BLACK
6
CONTINUOUS
10
124.2546339999999958
20
-117.9794359999999926
11
124.159396000000001
21
-118.1699119999999965
0
LINE
8
BLACK
6
CONTINUOUS
10
124.159396000000001
20
-118.1699119999999965
11
124.0641579999999919
21
-118.2651509999999888
0
LINE
8
BLACK
6
CONTINUOUS
10
124.0641579999999919
20
-118.2651509999999888
11
123.8736819999999881
21
-118.3603889999999978
0
LINE
8
BLACK
6
CONTINUOUS
10
123.8736819999999881
20
-118.3603889999999978
11
123.3022529999999932
21
-118.3603889999999978
0
LINE
8
BLACK
6
CONTINUOUS
10
123.3022529999999932
20
-118.3603889999999978
11
123.1117769999999894
21
-118.2651509999999888
0
LINE
8
BLACK
6
CONTINUOUS
10
123.1117769999999894
20
-118.2651509999999888
11
123.0165389999999945
21
-118.1699119999999965
0
LINE
8
BLACK
6
CONTINUOUS
10
125.1117769999999894
20
-118.1699119999999965
11
125.2070149999999984
21
-118.2651509999999888
0
LINE
8
BLACK
6
CONTINUOUS
10
125.2070149999999984
20
-118.2651509999999888
11
125.1117769999999894
21
-118.3603889999999978
0
LINE
8
BLACK
6
CONTINUOUS
10
125.1117769999999894
20
-118.3603889999999978
11
125.0165389999999945
21
-118.2651509999999888
0
LINE
8
BLACK
6
CONTINUOUS
10
125.0165389999999945
20
-118.2651509999999888
11
125.1117769999999894
21
-118.1699119999999965
0
LINE
8
BLACK
6
CONTINUOUS
10
125.1117769999999894
20
-118.1699119999999965
11
125.1117769999999894
21
-118.3603889999999978
0
LINE
8
BLACK
6
CONTINUOUS
10
125.9689199999999971
20
-116.5508650000000017
11
126.0641579999999919
21
-116.4556269999999927
0
LINE
8
BLACK
6
CONTINUOUS
10
126.0641579999999919
20
-116.4556269999999927
11
126.2546339999999958
21
-116.3603889999999978
0
LINE
8
BLACK
6
CONTINUOUS
10
126.2546339999999958
20
-116.3603889999999978
11
126.7308249999999958
21
-116.3603889999999978
0
LINE
8
BLACK
6
CONTINUOUS
10
126.7308249999999958
20
-116.3603889999999978
11
126.9213009999999997
21
-116.4556269999999927
0
LINE
8
BLACK
6
CONTINUOUS
10
126.9213009999999997
20
-116.4556269999999927
11
127.0165389999999945
21
-116.5508650000000017
0
LINE
8
BLACK
6
CONTINUOUS
10
127.0165389999999945
20
-116.5508650000000017
11
127.1117769999999894
21
-116.7413409999999914
0
LINE
8
BLACK
6
CONTINUOUS
10
127.1117769999999894
20
-116.7413409999999914
11
127.1117769999999894
21
-116.9318169999999952
0
LINE
8
BLACK
6
CONTINUOUS
10
127.1117769999999894
20
-116.9318169999999952
11
127.0165389999999945
21
-117.2175309999999939
0
LINE
8
BLACK
6
CONTINUOUS
10
127.0165389999999945
20
-117.2175309999999939
11
125.8736819999999881
21
-118.3603889999999978
0
LINE
8
BLACK
6
CONTINUOUS
10
125.8736819999999881
20
-118.3603889999999978
11
127.1117769999999894
21
-118.3603889999999978
0
LINE
8
BLACK
6
CONTINUOUS
10
128.3498720000000048
20
-116.3603889999999978
11
128.540348999999992
21
-116.3603889999999978
0
LINE
8
BLACK
6
CONTINUOUS
10
128.540348999999992
20
-116.3603889999999978
11
128.7308249999999816
21
-116.4556269999999927
0
LINE
8
BLACK
6
CONTINUOUS
10
128.7308249999999816
20
-116.4556269999999927
11
128.8260630000000049
21
-116.5508650000000017
0
LINE
8
BLACK
6
CONTINUOUS
10
128.8260630000000049
20
-116.5508650000000017
11
128.9213009999999997
21
-116.7413409999999914
0
LINE
8
BLACK
6
CONTINUOUS
10
128.9213009999999997
20
-116.7413409999999914
11
129.0165389999999945
21
-117.1222929999999991
0
LINE
8
BLACK
6
CONTINUOUS
10
129.0165389999999945
20
-117.1222929999999991
11
129.0165389999999945
21
-117.5984839999999991
0
LINE
8
BLACK
6
CONTINUOUS
10
129.0165389999999945
20
-117.5984839999999991
11
128.9213009999999997
21
-117.9794359999999926
0
LINE
8
BLACK
6
CONTINUOUS
10
128.9213009999999997
20
-117.9794359999999926
11
128.8260630000000049
21
-118.1699119999999965
0
LINE
8
BLACK
6
CONTINUOUS
10
128.8260630000000049
20
-118.1699119999999965
11
128.7308249999999816
21
-118.2651509999999888
0
LINE
8
BLACK
6
CONTINUOUS
10
128.7308249999999816
20
-118.2651509999999888
11
128.540348999999992
21
-118.3603889999999978
0
LINE
8
BLACK
6
CONTINUOUS
10
128.540348999999992
20
-118.3603889999999978
11
128.3498720000000048
21
-118.3603889999999978
0
LINE
8
BLACK
6
CONTINUOUS
10
128.3498720000000048
20
-118.3603889999999978
11
128.1593959999999868
21
-118.2651509999999888
0
LINE
8
BLACK
6
CONTINUOUS
10
128.1593959999999868
20
-118.2651509999999888
11
128.0641579999999919
21
-118.1699119999999965
0
LINE
8
BLACK
6
CONTINUOUS
10
128.0641579999999919
20
-118.1699119999999965
11
127.9689199999999971
21
-117.9794359999999926
0
LINE
8
BLACK
6
CONTINUOUS
10
127.9689199999999971
20
-117.9794359999999926
11
127.8736819999999881
21
-117.5984839999999991
0
LINE
8
BLACK
6
CONTINUOUS
10
127.8736819999999881
20
-117.5984839999999991
11
127.8736819999999881
21
-117.1222929999999991
0
LINE
8
BLACK
6
CONTINUOUS
10
127.8736819999999881
20
-117.1222929999999991
11
127.9689199999999971
21
-116.7413409999999914
0
LINE
8
BLACK
6
CONTINUOUS
10
127.9689199999999971
20
-116.7413409999999914
11
128.0641579999999919
21
-116.5508650000000017
0
LINE
8
BLACK
6
CONTINUOUS
10
128.0641579999999919
20
-116.5508650000000017
11
128.1593959999999868
21
-116.4556269999999927
0
LINE
8
BLACK
6
CONTINUOUS
10
128.1593959999999868
20
-116.4556269999999927
11
128.3498720000000048
21
-116.3603889999999978
0
LINE
8
BLACK
6
CONTINUOUS
10
130.2546339999999816
20
-116.3603889999999978
11
130.4451109999999971
21
-116.3603889999999978
0
LINE
8
BLACK
6
CONTINUOUS
10
130.4451109999999971
20
-116.3603889999999978
11
130.6355869999999868
21
-116.4556269999999927
0
LINE
8
BLACK
6
CONTINUOUS
10
130.6355869999999868
20
-116.4556269999999927
11
130.7308249999999816
21
-116.5508650000000017
0
LINE
8
BLACK
6
CONTINUOUS
10
130.7308249999999816
20
-116.5508650000000017
11
130.8260630000000049
21
-116.7413409999999914
0
LINE
8
BLACK
6
CONTINUOUS
10
130.8260630000000049
20
-116.7413409999999914
11
130.9213009999999997
21
-117.1222929999999991
0
LINE
8
BLACK
6
CONTINUOUS
10
130.9213009999999997
20
-117.1222929999999991
11
130.9213009999999997
21
-117.5984839999999991
0
LINE
8
BLACK
6
CONTINUOUS
10
130.9213009999999997
20
-117.5984839999999991
11
130.8260630000000049
21
-117.9794359999999926
0
LINE
8
BLACK
6
CONTINUOUS
10
130.8260630000000049
20
-117.9794359999999926
11
130.7308249999999816
21
-118.1699119999999965
0
LINE
8
BLACK
6
CONTINUOUS
10
130.7308249999999816
20
-118.1699119999999965
11
130.6355869999999868
21
-118.2651509999999888
0
LINE
8
BLACK
6
CONTINUOUS
10
130.6355869999999868
20
-118.2651509999999888
11
130.4451109999999971
21
-118.3603889999999978
0
LINE
8
BLACK
6
CONTINUOUS
10
130.4451109999999971
20
-118.3603889999999978
11
130.2546339999999816
21
-118.3603889999999978
0
LINE
8
BLACK
6
CONTINUOUS
10
130.2546339999999816
20
-118.3603889999999978
11
130.0641579999999919
21
-118.2651509999999888
0
LINE
8
BLACK
6
CONTINUOUS
10
130.0641579999999919
20
-118.2651509999999888
11
129.9689199999999971
21
-118.1699119999999965
0
LINE
8
BLACK
6
CONTINUOUS
10
129.9689199999999971
20
-118.1699119999999965
11
129.8736820000000023
21
-117.9794359999999926
0
LINE
8
BLACK
6
CONTINUOUS
10
129.8736820000000023
20
-117.9794359999999926
11
129.7784440000000075
21
-117.5984839999999991
0
LINE
8
BLACK
6
CONTINUOUS
10
129.7784440000000075
20
-117.5984839999999991
11
129.7784440000000075
21
-117.1222929999999991
0
LINE
8
BLACK
6
CONTINUOUS
10
129.7784440000000075
20
-117.1222929999999991
11
129.8736820000000023
21
-116.7413409999999914
0
LINE
8
BLACK
6
CONTINUOUS
10
129.8736820000000023
20
-116.7413409999999914
11
129.9689199999999971
21
-116.5508650000000017
0
LINE
8
BLACK
6
CONTINUOUS
10
129.9689199999999971
20
-116.5508650000000017
11
130.0641579999999919
21
-116.4556269999999927
0
LINE
8
BLACK
6
CONTINUOUS
10
130.0641579999999919
20
-116.4556269999999927
11
130.2546339999999816
21
-116.3603889999999978
0
LINE
8
BLACK
6
CONTINUOUS
10
131.7784440000000075
20
-118.3603889999999978
11
131.7784440000000075
21
-117.0270549999999901
0
LINE
8
BLACK
6
CONTINUOUS
10
131.7784440000000075
20
-117.2175309999999939
11
131.8736820000000023
21
-117.1222929999999991
0
LINE
8
BLACK
6
CONTINUOUS
10
131.8736820000000023
20
-117.1222929999999991
11
132.0641579999999919
21
-117.0270549999999901
0
LINE
8
BLACK
6
CONTINUOUS
10
132.0641579999999919
20
-117.0270549999999901
11
132.3498730000000023
21
-117.0270549999999901
0
LINE
8
BLACK
6
CONTINUOUS
10
132.3498730000000023
20
-117.0270549999999901
11
132.540348999999992
21
-117.1222929999999991
0
LINE
8
BLACK
6
CONTINUOUS
10
132.540348999999992
20
-117.1222929999999991
11
132.6355869999999868
21
-117.3127700000000004
0
LINE
8
BLACK
6
CONTINUOUS
10
132.6355869999999868
20
-117.3127700000000004
11
132.6355869999999868
21
-118.3603889999999978
0
LINE
8
BLACK
6
CONTINUOUS
10
132.6355869999999868
20
-117.3127700000000004
11
132.7308249999999816
21
-117.1222929999999991
0
LINE
8
BLACK
6
CONTINUOUS
10
132.7308249999999816
20
-117.1222929999999991
11
132.9213009999999997
21
-117.0270549999999901
0
LINE
8
BLACK
6
CONTINUOUS
10
132.9213009999999997
20
-117.0270549999999901
11
133.2070149999999842
21
-117.0270549999999901
0
LINE
8
BLACK
6
CONTINUOUS
10
133.2070149999999842
20
-117.0270549999999901
11
133.3974919999999997
21
-117.1222929999999991
0
LINE
8
BLACK
6
CONTINUOUS
10
133.3974919999999997
20
-117.1222929999999991
11
133.4927299999999946
21
-117.3127700000000004
0
LINE
8
BLACK
6
CONTINUOUS
10
133.4927299999999946
20
-117.3127700000000004
11
133.4927299999999946
21
-118.3603889999999978
0
LINE
8
BLACK
6
CONTINUOUS
10
134.4451109999999971
20
-118.3603889999999978
11
134.4451109999999971
21
-117.0270549999999901
0
LINE
8
BLACK
6
CONTINUOUS
10
134.4451109999999971
20
-117.2175309999999939
11
134.540348999999992
21
-117.1222929999999991
0
LINE
8
BLACK
6
CONTINUOUS
10
134.540348999999992
20
-117.1222929999999991
11
134.7308249999999816
21
-117.0270549999999901
0
LINE
8
BLACK
6
CONTINUOUS
10
134.7308249999999816
20
-117.0270549999999901
11
135.016539999999992
21
-117.0270549999999901
0
LINE
8
BLACK
6
CONTINUOUS
10
135.016539999999992
20
-117.0270549999999901
11
135.2070159999999817
21
-117.1222929999999991
0
LINE
8
BLACK
6
CONTINUOUS
10
135.2070159999999817
20
-117.1222929999999991
11
135.3022540000000049
21
-117.3127700000000004
0
LINE
8
BLACK
6
CONTINUOUS
10
135.3022540000000049
20
-117.3127700000000004
11
135.3022540000000049
21
-118.3603889999999978
0
LINE
8
BLACK
6
CONTINUOUS
10
135.3022540000000049
20
-117.3127700000000004
11
135.3974919999999997
21
-117.1222929999999991
0
LINE
8
BLACK
6
CONTINUOUS
10
135.3974919999999997
20
-117.1222929999999991
11
135.5879679999999894
21
-117.0270549999999901
0
LINE
8
BLACK
6
CONTINUOUS
10
135.5879679999999894
20
-117.0270549999999901
11
135.8736820000000023
21
-117.0270549999999901
0
LINE
8
BLACK
6
CONTINUOUS
10
135.8736820000000023
20
-117.0270549999999901
11
136.0641589999999894
21
-117.1222929999999991
0
LINE
8
BLACK
6
CONTINUOUS
10
136.0641589999999894
20
-117.1222929999999991
11
136.1593969999999842
21
-117.3127700000000004
0
LINE
8
BLACK
6
CONTINUOUS
10
136.1593969999999842
20
-117.3127700000000004
11
136.1593969999999842
21
-118.3603889999999978
0
LINE
8
BLACK
6
CONTINUOUS
10
140.0641589999999894
20
-116.2651509999999888
11
138.3498739999999998
21
-118.8365790000000004
0
LINE
8
BLACK
6
CONTINUOUS
10
142.6355879999999843
20
-116.3603889999999978
11
142.8260649999999998
21
-116.3603889999999978
0
LINE
8
BLACK
6
CONTINUOUS
10
142.8260649999999998
20
-116.3603889999999978
11
143.0165409999999895
21
-116.4556269999999927
0
LINE
8
BLACK
6
CONTINUOUS
10
143.0165409999999895
20
-116.4556269999999927
11
143.1117789999999843
21
-116.5508650000000017
0
LINE
8
BLACK
6
CONTINUOUS
10
143.1117789999999843
20
-116.5508650000000017
11
143.2070170000000076
21
-116.7413409999999914
0
LINE
8
BLACK
6
CONTINUOUS
10
143.2070170000000076
20
-116.7413409999999914
11
143.3022550000000024
21
-117.1222929999999991
0
LINE
8
BLACK
6
CONTINUOUS
10
143.3022550000000024
20
-117.1222929999999991
11
143.3022550000000024
21
-117.5984839999999991
0
LINE
8
BLACK
6
CONTINUOUS
10
143.3022550000000024
20
-117.5984839999999991
11
143.2070170000000076
21
-117.9794359999999926
0
LINE
8
BLACK
6
CONTINUOUS
10
143.2070170000000076
20
-117.9794359999999926
11
143.1117789999999843
21
-118.1699119999999965
0
LINE
8
BLACK
6
CONTINUOUS
10
143.1117789999999843
20
-118.1699119999999965
11
143.0165409999999895
21
-118.2651509999999888
0
LINE
8
BLACK
6
CONTINUOUS
10
143.0165409999999895
20
-118.2651509999999888
11
142.8260649999999998
21
-118.3603889999999978
0
LINE
8
BLACK
6
CONTINUOUS
10
142.8260649999999998
20
-118.3603889999999978
11
142.6355879999999843
21
-118.3603889999999978
0
LINE
8
BLACK
6
CONTINUOUS
10
142.6355879999999843
20
-118.3603889999999978
11
142.4451119999999946
21
-118.2651509999999888
0
LINE
8
BLACK
6
CONTINUOUS
10
142.4451119999999946
20
-118.2651509999999888
11
142.3498739999999998
21
-118.1699119999999965
0
LINE
8
BLACK
6
CONTINUOUS
10
142.3498739999999998
20
-118.1699119999999965
11
142.254636000000005
21
-117.9794359999999926
0
LINE
8
BLACK
6
CONTINUOUS
10
142.254636000000005
20
-117.9794359999999926
11
142.1593979999999817
21
-117.5984839999999991
0
LINE
8
BLACK
6
CONTINUOUS
10
142.1593979999999817
20
-117.5984839999999991
11
142.1593979999999817
21
-117.1222929999999991
0
LINE
8
BLACK
6
CONTINUOUS
10
142.1593979999999817
20
-117.1222929999999991
11
142.254636000000005
21
-116.7413409999999914
0
LINE
8
BLACK
6
CONTINUOUS
10
142.254636000000005
20
-116.7413409999999914
11
142.3498739999999998
21
-116.5508650000000017
0
LINE
8
BLACK
6
CONTINUOUS
10
142.3498739999999998
20
-116.5508650000000017
11
142.4451119999999946
21
-116.4556269999999927
0
LINE
8
BLACK
6
CONTINUOUS
10
142.4451119999999946
20
-116.4556269999999927
11
142.6355879999999843
21
-116.3603889999999978
0
LINE
8
BLACK
6
CONTINUOUS
10
144.1593979999999817
20
-118.1699119999999965
11
144.254636000000005
21
-118.2651509999999888
0
LINE
8
BLACK
6
CONTINUOUS
10
144.254636000000005
20
-118.2651509999999888
11
144.1593979999999817
21
-118.3603889999999978
0
LINE
8
BLACK
6
CONTINUOUS
10
144.1593979999999817
20
-118.3603889999999978
11
144.0641599999999869
21
-118.2651509999999888
0
LINE
8
BLACK
6
CONTINUOUS
10
144.0641599999999869
20
-118.2651509999999888
11
144.1593979999999817
21
-118.1699119999999965
0
LINE
8
BLACK
6
CONTINUOUS
10
144.1593979999999817
20
-118.1699119999999965
11
144.1593979999999817
21
-118.3603889999999978
0
LINE
8
BLACK
6
CONTINUOUS
10
146.1593979999999817
20
-118.3603889999999978
11
145.0165409999999895
21
-118.3603889999999978
0
LINE
8
BLACK
6
CONTINUOUS
10
145.5879689999999869
20
-118.3603889999999978
11
145.5879689999999869
21
-116.3603889999999978
0
LINE
8
BLACK
6
CONTINUOUS
10
145.5879689999999869
20
-116.3603889999999978
11
145.3974929999999972
21
-116.6461029999999965
0
LINE
8
BLACK
6
CONTINUOUS
10
145.3974929999999972
20
-116.6461029999999965
11
145.2070170000000076
21
-116.8365790000000004
0
LINE
8
BLACK
6
CONTINUOUS
10
145.2070170000000076
20
-116.8365790000000004
11
145.0165409999999895
21
-116.9318169999999952
0
LINE
8
BLACK
6
CONTINUOUS
10
146.9213029999999947
20
-116.5508650000000017
11
147.0165409999999895
21
-116.4556269999999927
0
LINE
8
BLACK
6
CONTINUOUS
10
147.0165409999999895
20
-116.4556269999999927
11
147.2070169999999791
21
-116.3603889999999978
0
LINE
8
BLACK
6
CONTINUOUS
10
147.2070169999999791
20
-116.3603889999999978
11
147.6832079999999792
21
-116.3603889999999978
0
LINE
8
BLACK
6
CONTINUOUS
10
147.6832079999999792
20
-116.3603889999999978
11
147.8736839999999972
21
-116.4556269999999927
0
LINE
8
BLACK
6
CONTINUOUS
10
147.8736839999999972
20
-116.4556269999999927
11
147.9689219999999921
21
-116.5508650000000017
0
LINE
8
BLACK
6
CONTINUOUS
10
147.9689219999999921
20
-116.5508650000000017
11
148.0641599999999869
21
-116.7413409999999914
0
LINE
8
BLACK
6
CONTINUOUS
10
148.0641599999999869
20
-116.7413409999999914
11
148.0641599999999869
21
-116.9318169999999952
0
LINE
8
BLACK
6
CONTINUOUS
10
148.0641599999999869
20
-116.9318169999999952
11
147.9689219999999921
21
-117.2175309999999939
0
LINE
8
BLACK
6
CONTINUOUS
10
147.9689219999999921
20
-117.2175309999999939
11
146.8260649999999998
21
-118.3603889999999978
0
LINE
8
BLACK
6
CONTINUOUS
10
146.8260649999999998
20
-118.3603889999999978
11
148.0641599999999869
21
-118.3603889999999978
0
LINE
8
BLACK
6
CONTINUOUS
10
149.7784460000000024
20
-116.3603889999999978
11
149.3974929999999972
21
-116.3603889999999978
0
LINE
8
BLACK
6
CONTINUOUS
10
149.3974929999999972
20
-116.3603889999999978
11
149.2070169999999791
21
-116.4556269999999927
0
LINE
8
BLACK
6
CONTINUOUS
10
149.2070169999999791
20
-116.4556269999999927
11
149.1117789999999843
21
-116.5508650000000017
0
LINE
8
BLACK
6
CONTINUOUS
10
149.1117789999999843
20
-116.5508650000000017
11
148.9213029999999947
21
-116.8365790000000004
0
LINE
8
BLACK
6
CONTINUOUS
10
148.9213029999999947
20
-116.8365790000000004
11
148.8260649999999998
21
-117.2175309999999939
0
LINE
8
BLACK
6
CONTINUOUS
10
148.8260649999999998
20
-117.2175309999999939
11
148.8260649999999998
21
-117.9794359999999926
0
LINE
8
BLACK
6
CONTINUOUS
10
148.8260649999999998
20
-117.9794359999999926
11
148.9213029999999947
21
-118.1699119999999965
0
LINE
8
BLACK
6
CONTINUOUS
10
148.9213029999999947
20
-118.1699119999999965
11
149.0165409999999895
21
-118.2651509999999888
0
LINE
8
BLACK
6
CONTINUOUS
10
149.0165409999999895
20
-118.2651509999999888
11
149.2070169999999791
21
-118.3603889999999978
0
LINE
8
BLACK
6
CONTINUOUS
10
149.2070169999999791
20
-118.3603889999999978
11
149.5879699999999843
21
-118.3603889999999978
0
LINE
8
BLACK
6
CONTINUOUS
10
149.5879699999999843
20
-118.3603889999999978
11
149.7784460000000024
21
-118.2651509999999888
0
LINE
8
BLACK
6
CONTINUOUS
10
149.7784460000000024
20
-118.2651509999999888
11
149.8736839999999972
21
-118.1699119999999965
0
LINE
8
BLACK
6
CONTINUOUS
10
149.8736839999999972
20
-118.1699119999999965
11
149.9689219999999921
21
-117.9794359999999926
0
LINE
8
BLACK
6
CONTINUOUS
10
149.9689219999999921
20
-117.9794359999999926
11
149.9689219999999921
21
-117.5032459999999901
0
LINE
8
BLACK
6
CONTINUOUS
10
149.9689219999999921
20
-117.5032459999999901
11
149.8736839999999972
21
-117.3127700000000004
0
LINE
8
BLACK
6
CONTINUOUS
10
149.8736839999999972
20
-117.3127700000000004
11
149.7784460000000024
21
-117.2175309999999939
0
LINE
8
BLACK
6
CONTINUOUS
10
149.7784460000000024
20
-117.2175309999999939
11
149.5879699999999843
21
-117.1222929999999991
0
LINE
8
BLACK
6
CONTINUOUS
10
149.5879699999999843
20
-117.1222929999999991
11
149.2070169999999791
21
-117.1222929999999991
0
LINE
8
BLACK
6
CONTINUOUS
10
149.2070169999999791
20
-117.1222929999999991
11
149.0165409999999895
21
-117.2175309999999939
0
LINE
8
BLACK
6
CONTINUOUS
10
149.0165409999999895
20
-117.2175309999999939
11
148.9213029999999947
21
-117.3127700000000004
0
LINE
8
BLACK
6
CONTINUOUS
10
148.9213029999999947
20
-117.3127700000000004
11
148.8260649999999998
21
-117.5032459999999901
0
LINE
8
BLACK
6
CONTINUOUS
10
151.2070169999999791
20
-116.3603889999999978
11
151.3974939999999947
21
-116.3603889999999978
0
LINE
8
BLACK
6
CONTINUOUS
10
151.3974939999999947
20
-116.3603889999999978
11
151.5879699999999843
21
-116.4556269999999927
0
LINE
8
BLACK
6
CONTINUOUS
10
151.5879699999999843
20
-116.4556269999999927
11
151.6832079999999792
21
-116.5508650000000017
0
LINE
8
BLACK
6
CONTINUOUS
10
151.6832079999999792
20
-116.5508650000000017
11
151.7784460000000024
21
-116.7413409999999914
0
LINE
8
BLACK
6
CONTINUOUS
10
151.7784460000000024
20
-116.7413409999999914
11
151.8736839999999972
21
-117.1222929999999991
0
LINE
8
BLACK
6
CONTINUOUS
10
151.8736839999999972
20
-117.1222929999999991
11
151.8736839999999972
21
-117.5984839999999991
0
LINE
8
BLACK
6
CONTINUOUS
10
151.8736839999999972
20
-117.5984839999999991
11
151.7784460000000024
21
-117.9794359999999926
0
LINE
8
BLACK
6
CONTINUOUS
10
151.7784460000000024
20
-117.9794359999999926
11
151.6832079999999792
21
-118.1699119999999965
0
LINE
8
BLACK
6
CONTINUOUS
10
151.6832079999999792
20
-118.1699119999999965
11
151.5879699999999843
21
-118.2651509999999888
0
LINE
8
BLACK
6
CONTINUOUS
10
151.5879699999999843
20
-118.2651509999999888
11
151.3974939999999947
21
-118.3603889999999978
0
LINE
8
BLACK
6
CONTINUOUS
10
151.3974939999999947
20
-118.3603889999999978
11
151.2070169999999791
21
-118.3603889999999978
0
LINE
8
BLACK
6
CONTINUOUS
10
151.2070169999999791
20
-118.3603889999999978
11
151.0165409999999895
21
-118.2651509999999888
0
LINE
8
BLACK
6
CONTINUOUS
10
151.0165409999999895
20
-118.2651509999999888
11
150.9213029999999947
21
-118.1699119999999965
0
LINE
8
BLACK
6
CONTINUOUS
10
150.9213029999999947
20
-118.1699119999999965
11
150.8260649999999998
21
-117.9794359999999926
0
LINE
8
BLACK
6
CONTINUOUS
10
150.8260649999999998
20
-117.9794359999999926
11
150.730827000000005
21
-117.5984839999999991
0
LINE
8
BLACK
6
CONTINUOUS
10
150.730827000000005
20
-117.5984839999999991
11
150.730827000000005
21
-117.1222929999999991
0
LINE
8
BLACK
6
CONTINUOUS
10
150.730827000000005
20
-117.1222929999999991
11
150.8260649999999998
21
-116.7413409999999914
0
LINE
8
BLACK
6
CONTINUOUS
10
150.8260649999999998
20
-116.7413409999999914
11
150.9213029999999947
21
-116.5508650000000017
0
LINE
8
BLACK
6
CONTINUOUS
10
150.9213029999999947
20
-116.5508650000000017
11
151.0165409999999895
21
-116.4556269999999927
0
LINE
8
BLACK
6
CONTINUOUS
10
151.0165409999999895
20
-116.4556269999999927
11
151.2070169999999791
21
-116.3603889999999978
0
LINE
8
BLACK
6
CONTINUOUS
10
152.6355889999999818
20
-116.3603889999999978
11
152.6355889999999818
21
-116.7413409999999914
0
LINE
8
BLACK
6
CONTINUOUS
10
153.3974939999999947
20
-116.3603889999999978
11
153.3974939999999947
21
-116.7413409999999914
0
LINE
8
BLACK
6
CONTINUOUS
10
156.3498759999999947
20
-119.1222929999999991
11
156.2546370000000024
21
-119.0270549999999901
0
LINE
8
BLACK
6
CONTINUOUS
10
156.2546370000000024
20
-119.0270549999999901
11
156.0641609999999844
21
-118.7413409999999914
0
LINE
8
BLACK
6
CONTINUOUS
10
156.0641609999999844
20
-118.7413409999999914
11
155.9689229999999895
21
-118.5508650000000017
0
LINE
8
BLACK
6
CONTINUOUS
10
155.9689229999999895
20
-118.5508650000000017
11
155.8736849999999947
21
-118.2651509999999888
0
LINE
8
BLACK
6
CONTINUOUS
10
155.8736849999999947
20
-118.2651509999999888
11
155.7784469999999999
21
-117.7889599999999888
0
LINE
8
BLACK
6
CONTINUOUS
10
155.7784469999999999
20
-117.7889599999999888
11
155.7784469999999999
21
-117.4080079999999953
0
LINE
8
BLACK
6
CONTINUOUS
10
155.7784469999999999
20
-117.4080079999999953
11
155.8736849999999947
21
-116.9318169999999952
0
LINE
8
BLACK
6
CONTINUOUS
10
155.8736849999999947
20
-116.9318169999999952
11
155.9689229999999895
21
-116.6461029999999965
0
LINE
8
BLACK
6
CONTINUOUS
10
155.9689229999999895
20
-116.6461029999999965
11
156.0641609999999844
21
-116.4556269999999927
0
LINE
8
BLACK
6
CONTINUOUS
10
156.0641609999999844
20
-116.4556269999999927
11
156.2546370000000024
21
-116.1699119999999965
0
LINE
8
BLACK
6
CONTINUOUS
10
156.2546370000000024
20
-116.1699119999999965
11
156.3498759999999947
21
-116.0746740000000017
0
LINE
8
BLACK
6
CONTINUOUS
10
156.9213039999999921
20
-116.3603889999999978
11
158.1593989999999792
21
-116.3603889999999978
0
LINE
8
BLACK
6
CONTINUOUS
10
158.1593989999999792
20
-116.3603889999999978
11
157.4927319999999895
21
-117.1222929999999991
0
LINE
8
BLACK
6
CONTINUOUS
10
157.4927319999999895
20
-117.1222929999999991
11
157.7784469999999999
21
-117.1222929999999991
0
LINE
8
BLACK
6
CONTINUOUS
10
157.7784469999999999
20
-117.1222929999999991
11
157.9689229999999895
21
-117.2175309999999939
0
LINE
8
BLACK
6
CONTINUOUS
10
157.9689229999999895
20
-117.2175309999999939
11
158.0641609999999844
21
-117.3127700000000004
0
LINE
8
BLACK
6
CONTINUOUS
10
158.0641609999999844
20
-117.3127700000000004
11
158.1593989999999792
21
-117.5032459999999901
0
LINE
8
BLACK
6
CONTINUOUS
10
158.1593989999999792
20
-117.5032459999999901
11
158.1593989999999792
21
-117.9794359999999926
0
LINE
8
BLACK
6
CONTINUOUS
10
158.1593989999999792
20
-117.9794359999999926
11
158.0641609999999844
21
-118.1699119999999965
0
LINE
8
BLACK
6
CONTINUOUS
10
158.0641609999999844
20
-118.1699119999999965
11
157.9689229999999895
21
-118.2651509999999888
0
LINE
8
BLACK
6
CONTINUOUS
10
157.9689229999999895
20
-118.2651509999999888
11
157.7784469999999999
21
-118.3603889999999978
0
LINE
8
BLACK
6
CONTINUOUS
10
157.7784469999999999
20
-118.3603889999999978
11
157.207018000000005
21
-118.3603889999999978
0
LINE
8
BLACK
6
CONTINUOUS
10
157.207018000000005
20
-118.3603889999999978
11
157.016541999999987
21
-118.2651509999999888
0
LINE
8
BLACK
6
CONTINUOUS
10
157.016541999999987
20
-118.2651509999999888
11
156.9213039999999921
21
-118.1699119999999965
0
LINE
8
BLACK
6
CONTINUOUS
10
160.5403519999999844
20
-118.3603889999999978
11
160.5403519999999844
21
-116.3603889999999978
0
LINE
8
BLACK
6
CONTINUOUS
10
161.3974949999999922
20
-118.3603889999999978
11
161.3974949999999922
21
-117.3127700000000004
0
LINE
8
BLACK
6
CONTINUOUS
10
161.3974949999999922
20
-117.3127700000000004
11
161.3022569999999973
21
-117.1222929999999991
0
LINE
8
BLACK
6
CONTINUOUS
10
161.3022569999999973
20
-117.1222929999999991
11
161.1117809999999793
21
-117.0270549999999901
0
LINE
8
BLACK
6
CONTINUOUS
10
161.1117809999999793
20
-117.0270549999999901
11
160.8260659999999973
21
-117.0270549999999901
0
LINE
8
BLACK
6
CONTINUOUS
10
160.8260659999999973
20
-117.0270549999999901
11
160.6355899999999792
21
-117.1222929999999991
0
LINE
8
BLACK
6
CONTINUOUS
10
160.6355899999999792
20
-117.1222929999999991
11
160.5403519999999844
21
-117.2175309999999939
0
LINE
8
BLACK
6
CONTINUOUS
10
162.6355899999999792
20
-118.3603889999999978
11
162.4451139999999896
21
-118.2651509999999888
0
LINE
8
BLACK
6
CONTINUOUS
10
162.4451139999999896
20
-118.2651509999999888
11
162.3498759999999947
21
-118.1699119999999965
0
LINE
8
BLACK
6
CONTINUOUS
10
162.3498759999999947
20
-118.1699119999999965
11
162.2546379999999999
21
-117.9794359999999926
0
LINE
8
BLACK
6
CONTINUOUS
10
162.2546379999999999
20
-117.9794359999999926
11
162.2546379999999999
21
-117.4080079999999953
0
LINE
8
BLACK
6
CONTINUOUS
10
162.2546379999999999
20
-117.4080079999999953
11
162.3498759999999947
21
-117.2175309999999939
0
LINE
8
BLACK
6
CONTINUOUS
10
162.3498759999999947
20
-117.2175309999999939
11
162.4451139999999896
21
-117.1222929999999991
0
LINE
8
BLACK
6
CONTINUOUS
10
162.4451139999999896
20
-117.1222929999999991
11
162.6355899999999792
21
-117.0270549999999901
0
LINE
8
BLACK
6
CONTINUOUS
10
162.6355899999999792
20
-117.0270549999999901
11
162.9213049999999896
21
-117.0270549999999901
0
LINE
8
BLACK
6
CONTINUOUS
10
162.9213049999999896
20
-117.0270549999999901
11
163.1117809999999793
21
-117.1222929999999991
0
LINE
8
BLACK
6
CONTINUOUS
10
163.1117809999999793
20
-117.1222929999999991
11
163.2070190000000025
21
-117.2175309999999939
0
LINE
8
BLACK
6
CONTINUOUS
10
163.2070190000000025
20
-117.2175309999999939
11
163.3022569999999973
21
-117.4080079999999953
0
LINE
8
BLACK
6
CONTINUOUS
10
163.3022569999999973
20
-117.4080079999999953
11
163.3022569999999973
21
-117.9794359999999926
0
LINE
8
BLACK
6
CONTINUOUS
10
163.3022569999999973
20
-117.9794359999999926
11
163.2070190000000025
21
-118.1699119999999965
0
LINE
8
BLACK
6
CONTINUOUS
10
163.2070190000000025
20
-118.1699119999999965
11
163.1117809999999793
21
-118.2651509999999888
0
LINE
8
BLACK
6
CONTINUOUS
10
163.1117809999999793
20
-118.2651509999999888
11
162.9213049999999896
21
-118.3603889999999978
0
LINE
8
BLACK
6
CONTINUOUS
10
162.9213049999999896
20
-118.3603889999999978
11
162.6355899999999792
21
-118.3603889999999978
0
LINE
8
BLACK
6
CONTINUOUS
10
164.4451139999999896
20
-118.3603889999999978
11
164.2546379999999999
21
-118.2651509999999888
0
LINE
8
BLACK
6
CONTINUOUS
10
164.2546379999999999
20
-118.2651509999999888
11
164.1594000000000051
21
-118.0746740000000017
0
LINE
8
BLACK
6
CONTINUOUS
10
164.1594000000000051
20
-118.0746740000000017
11
164.1594000000000051
21
-116.3603889999999978
0
LINE
8
BLACK
6
CONTINUOUS
10
165.968923999999987
20
-118.2651509999999888
11
165.7784479999999974
21
-118.3603889999999978
0
LINE
8
BLACK
6
CONTINUOUS
10
165.7784479999999974
20
-118.3603889999999978
11
165.3974949999999922
21
-118.3603889999999978
0
LINE
8
BLACK
6
CONTINUOUS
10
165.3974949999999922
20
-118.3603889999999978
11
165.2070190000000025
21
-118.2651509999999888
0
LINE
8
BLACK
6
CONTINUOUS
10
165.2070190000000025
20
-118.2651509999999888
11
165.1117809999999793
21
-118.0746740000000017
0
LINE
8
BLACK
6
CONTINUOUS
10
165.1117809999999793
20
-118.0746740000000017
11
165.1117809999999793
21
-117.3127700000000004
0
LINE
8
BLACK
6
CONTINUOUS
10
165.1117809999999793
20
-117.3127700000000004
11
165.2070190000000025
21
-117.1222929999999991
0
LINE
8
BLACK
6
CONTINUOUS
10
165.2070190000000025
20
-117.1222929999999991
11
165.3974949999999922
21
-117.0270549999999901
0
LINE
8
BLACK
6
CONTINUOUS
10
165.3974949999999922
20
-117.0270549999999901
11
165.7784479999999974
21
-117.0270549999999901
0
LINE
8
BLACK
6
CONTINUOUS
10
165.7784479999999974
20
-117.0270549999999901
11
165.968923999999987
21
-117.1222929999999991
0
LINE
8
BLACK
6
CONTINUOUS
10
165.968923999999987
20
-117.1222929999999991
11
166.0641619999999818
21
-117.3127700000000004
0
LINE
8
BLACK
6
CONTINUOUS
10
166.0641619999999818
20
-117.3127700000000004
11
166.0641619999999818
21
-117.5032459999999901
0
LINE
8
BLACK
6
CONTINUOUS
10
166.0641619999999818
20
-117.5032459999999901
11
165.1117809999999793
21
-117.693721999999994
0
LINE
8
BLACK
6
CONTINUOUS
10
166.8260669999999948
20
-118.2651509999999888
11
167.0165429999999844
21
-118.3603889999999978
0
LINE
8
BLACK
6
CONTINUOUS
10
167.0165429999999844
20
-118.3603889999999978
11
167.3974949999999922
21
-118.3603889999999978
0
LINE
8
BLACK
6
CONTINUOUS
10
167.3974949999999922
20
-118.3603889999999978
11
167.5879719999999793
21
-118.2651509999999888
0
LINE
8
BLACK
6
CONTINUOUS
10
167.5879719999999793
20
-118.2651509999999888
11
167.6832100000000025
21
-118.0746740000000017
0
LINE
8
BLACK
6
CONTINUOUS
10
167.6832100000000025
20
-118.0746740000000017
11
167.6832100000000025
21
-117.9794359999999926
0
LINE
8
BLACK
6
CONTINUOUS
10
167.6832100000000025
20
-117.9794359999999926
11
167.5879719999999793
21
-117.7889599999999888
0
LINE
8
BLACK
6
CONTINUOUS
10
167.5879719999999793
20
-117.7889599999999888
11
167.3974949999999922
21
-117.693721999999994
0
LINE
8
BLACK
6
CONTINUOUS
10
167.3974949999999922
20
-117.693721999999994
11
167.1117809999999793
21
-117.693721999999994
0
LINE
8
BLACK
6
CONTINUOUS
10
167.1117809999999793
20
-117.693721999999994
11
166.9213049999999896
21
-117.5984839999999991
0
LINE
8
BLACK
6
CONTINUOUS
10
166.9213049999999896
20
-117.5984839999999991
11
166.8260669999999948
21
-117.4080079999999953
0
LINE
8
BLACK
6
CONTINUOUS
10
166.8260669999999948
20
-117.4080079999999953
11
166.8260669999999948
21
-117.3127700000000004
0
LINE
8
BLACK
6
CONTINUOUS
10
166.8260669999999948
20
-117.3127700000000004
11
166.9213049999999896
21
-117.1222929999999991
0
LINE
8
BLACK
6
CONTINUOUS
10
166.9213049999999896
20
-117.1222929999999991
11
167.1117809999999793
21
-117.0270549999999901
0
LINE
8
BLACK
6
CONTINUOUS
10
167.1117809999999793
20
-117.0270549999999901
11
167.3974949999999922
21
-117.0270549999999901
0
LINE
8
BLACK
6
CONTINUOUS
10
167.3974949999999922
20
-117.0270549999999901
11
167.5879719999999793
21
-117.1222929999999991
0
LINE
8
BLACK
6
CONTINUOUS
10
168.3498769999999922
20
-119.1222929999999991
11
168.445114999999987
21
-119.0270549999999901
0
LINE
8
BLACK
6
CONTINUOUS
10
168.445114999999987
20
-119.0270549999999901
11
168.6355910000000051
21
-118.7413409999999914
0
LINE
8
BLACK
6
CONTINUOUS
10
168.6355910000000051
20
-118.7413409999999914
11
168.730829
21
-118.5508650000000017
0
LINE
8
BLACK
6
CONTINUOUS
10
168.730829
20
-118.5508650000000017
11
168.8260669999999948
21
-118.2651509999999888
0
LINE
8
BLACK
6
CONTINUOUS
10
168.8260669999999948
20
-118.2651509999999888
11
168.9213049999999896
21
-117.7889599999999888
0
LINE
8
BLACK
6
CONTINUOUS
10
168.9213049999999896
20
-117.7889599999999888
11
168.9213049999999896
21
-117.4080079999999953
0
LINE
8
BLACK
6
CONTINUOUS
10
168.9213049999999896
20
-117.4080079999999953
11
168.8260669999999948
21
-116.9318169999999952
0
LINE
8
BLACK
6
CONTINUOUS
10
168.8260669999999948
20
-116.9318169999999952
11
168.730829
21
-116.6461029999999965
0
LINE
8
BLACK
6
CONTINUOUS
10
168.730829
20
-116.6461029999999965
11
168.6355910000000051
21
-116.4556269999999927
0
LINE
8
BLACK
6
CONTINUOUS
10
168.6355910000000051
20
-116.4556269999999927
11
168.445114999999987
21
-116.1699119999999965
0
LINE
8
BLACK
6
CONTINUOUS
10
168.445114999999987
20
-116.1699119999999965
11
168.3498769999999922
21
-116.0746740000000017
0
LINE
8
BLACK
6
CONTINUOUS
10
171.9689249999999845
20
-119.1222929999999991
11
171.8736859999999922
21
-119.0270549999999901
0
LINE
8
BLACK
6
CONTINUOUS
10
171.8736859999999922
20
-119.0270549999999901
11
171.6832100000000025
21
-118.7413409999999914
0
LINE
8
BLACK
6
CONTINUOUS
10
171.6832100000000025
20
-118.7413409999999914
11
171.5879719999999793
21
-118.5508650000000017
0
LINE
8
BLACK
6
CONTINUOUS
10
171.5879719999999793
20
-118.5508650000000017
11
171.4927339999999845
21
-118.2651509999999888
0
LINE
8
BLACK
6
CONTINUOUS
10
171.4927339999999845
20
-118.2651509999999888
11
171.3974959999999896
21
-117.7889599999999888
0
LINE
8
BLACK
6
CONTINUOUS
10
171.3974959999999896
20
-117.7889599999999888
11
171.3974959999999896
21
-117.4080079999999953
0
LINE
8
BLACK
6
CONTINUOUS
10
171.3974959999999896
20
-117.4080079999999953
11
171.4927339999999845
21
-116.9318169999999952
0
LINE
8
BLACK
6
CONTINUOUS
10
171.4927339999999845
20
-116.9318169999999952
11
171.5879719999999793
21
-116.6461029999999965
0
LINE
8
BLACK
6
CONTINUOUS
10
171.5879719999999793
20
-116.6461029999999965
11
171.6832100000000025
21
-116.4556269999999927
0
LINE
8
BLACK
6
CONTINUOUS
10
171.6832100000000025
20
-116.4556269999999927
11
171.8736859999999922
21
-116.1699119999999965
0
LINE
8
BLACK
6
CONTINUOUS
10
171.8736859999999922
20
-116.1699119999999965
11
171.9689249999999845
21
-116.0746740000000017
0
LINE
8
BLACK
6
CONTINUOUS
10
172.730829
20
-117.0270549999999901
11
172.730829
21
-118.3603889999999978
0
LINE
8
BLACK
6
CONTINUOUS
10
172.730829
20
-117.2175309999999939
11
172.8260669999999948
21
-117.1222929999999991
0
LINE
8
BLACK
6
CONTINUOUS
10
172.8260669999999948
20
-117.1222929999999991
11
173.0165429999999844
21
-117.0270549999999901
0
LINE
8
BLACK
6
CONTINUOUS
10
173.0165429999999844
20
-117.0270549999999901
11
173.3022579999999948
21
-117.0270549999999901
0
LINE
8
BLACK
6
CONTINUOUS
10
173.3022579999999948
20
-117.0270549999999901
11
173.4927339999999845
21
-117.1222929999999991
0
LINE
8
BLACK
6
CONTINUOUS
10
173.4927339999999845
20
-117.1222929999999991
11
173.5879719999999793
21
-117.3127700000000004
0
LINE
8
BLACK
6
CONTINUOUS
10
173.5879719999999793
20
-117.3127700000000004
11
173.5879719999999793
21
-118.3603889999999978
0
LINE
8
BLACK
6
CONTINUOUS
10
174.8260669999999948
20
-118.3603889999999978
11
174.6355910000000051
21
-118.2651509999999888
0
LINE
8
BLACK
6
CONTINUOUS
10
174.6355910000000051
20
-118.2651509999999888
11
174.5403529999999819
21
-118.1699119999999965
0
LINE
8
BLACK
6
CONTINUOUS
10
174.5403529999999819
20
-118.1699119999999965
11
174.445114999999987
21
-117.9794359999999926
0
LINE
8
BLACK
6
CONTINUOUS
10
174.445114999999987
20
-117.9794359999999926
11
174.445114999999987
21
-117.4080079999999953
0
LINE
8
BLACK
6
CONTINUOUS
10
174.445114999999987
20
-117.4080079999999953
11
174.5403529999999819
21
-117.2175309999999939
0
LINE
8
BLACK
6
CONTINUOUS
10
174.5403529999999819
20
-117.2175309999999939
11
174.6355910000000051
21
-117.1222929999999991
0
LINE
8
BLACK
6
CONTINUOUS
10
174.6355910000000051
20
-117.1222929999999991
11
174.8260669999999948
21
-117.0270549999999901
0
LINE
8
BLACK
6
CONTINUOUS
10
174.8260669999999948
20
-117.0270549999999901
11
175.1117820000000052
21
-117.0270549999999901
0
LINE
8
BLACK
6
CONTINUOUS
10
175.1117820000000052
20
-117.0270549999999901
11
175.3022579999999948
21
-117.1222929999999991
0
LINE
8
BLACK
6
CONTINUOUS
10
175.3022579999999948
20
-117.1222929999999991
11
175.3974959999999896
21
-117.2175309999999939
0
LINE
8
BLACK
6
CONTINUOUS
10
175.3974959999999896
20
-117.2175309999999939
11
175.4927339999999845
21
-117.4080079999999953
0
LINE
8
BLACK
6
CONTINUOUS
10
175.4927339999999845
20
-117.4080079999999953
11
175.4927339999999845
21
-117.9794359999999926
0
LINE
8
BLACK
6
CONTINUOUS
10
175.4927339999999845
20
-117.9794359999999926
11
175.3974959999999896
21
-118.1699119999999965
0
LINE
8
BLACK
6
CONTINUOUS
10
175.3974959999999896
20
-118.1699119999999965
11
175.3022579999999948
21
-118.2651509999999888
0
LINE
8
BLACK
6
CONTINUOUS
10
175.3022579999999948
20
-118.2651509999999888
11
175.1117820000000052
21
-118.3603889999999978
0
LINE
8
BLACK
6
CONTINUOUS
10
175.1117820000000052
20
-118.3603889999999978
11
174.8260669999999948
21
-118.3603889999999978
0
LINE
8
BLACK
6
CONTINUOUS
10
176.0641629999999793
20
-117.0270549999999901
11
176.8260669999999948
21
-117.0270549999999901
0
LINE
8
BLACK
6
CONTINUOUS
10
176.3498769999999922
20
-116.3603889999999978
11
176.3498769999999922
21
-118.0746740000000017
0
LINE
8
BLACK
6
CONTINUOUS
10
176.3498769999999922
20
-118.0746740000000017
11
176.445114999999987
21
-118.2651509999999888
0
LINE
8
BLACK
6
CONTINUOUS
10
176.445114999999987
20
-118.2651509999999888
11
176.6355910000000051
21
-118.3603889999999978
0
LINE
8
BLACK
6
CONTINUOUS
10
176.6355910000000051
20
-118.3603889999999978
11
176.8260669999999948
21
-118.3603889999999978
0
LINE
8
BLACK
6
CONTINUOUS
10
179.0165439999999819
20
-117.0270549999999901
11
179.0165439999999819
21
-119.0270549999999901
0
LINE
8
BLACK
6
CONTINUOUS
10
179.0165439999999819
20
-117.1222929999999991
11
179.20702
21
-117.0270549999999901
0
LINE
8
BLACK
6
CONTINUOUS
10
179.20702
20
-117.0270549999999901
11
179.5879730000000052
21
-117.0270549999999901
0
LINE
8
BLACK
6
CONTINUOUS
10
179.5879730000000052
20
-117.0270549999999901
11
179.7784489999999948
21
-117.1222929999999991
0
LINE
8
BLACK
6
CONTINUOUS
10
179.7784489999999948
20
-117.1222929999999991
11
179.8736869999999897
21
-117.2175309999999939
0
LINE
8
BLACK
6
CONTINUOUS
10
179.8736869999999897
20
-117.2175309999999939
11
179.9689249999999845
21
-117.4080079999999953
0
LINE
8
BLACK
6
CONTINUOUS
10
179.9689249999999845
20
-117.4080079999999953
11
179.9689249999999845
21
-117.9794359999999926
0
LINE
8
BLACK
6
CONTINUOUS
10
179.9689249999999845
20
-117.9794359999999926
11
179.8736869999999897
21
-118.1699119999999965
0
LINE
8
BLACK
6
CONTINUOUS
10
179.8736869999999897
20
-118.1699119999999965
11
179.7784489999999948
21
-118.2651509999999888
0
LINE
8
BLACK
6
CONTINUOUS
10
179.7784489999999948
20
-118.2651509999999888
11
179.5879730000000052
21
-118.3603889999999978
0
LINE
8
BLACK
6
CONTINUOUS
10
179.5879730000000052
20
-118.3603889999999978
11
179.20702
21
-118.3603889999999978
0
LINE
8
BLACK
6
CONTINUOUS
10
179.20702
20
-118.3603889999999978
11
179.0165439999999819
21
-118.2651509999999888
0
LINE
8
BLACK
6
CONTINUOUS
10
181.1117820000000052
20
-118.3603889999999978
11
180.9213059999999871
21
-118.2651509999999888
0
LINE
8
BLACK
6
CONTINUOUS
10
180.9213059999999871
20
-118.2651509999999888
11
180.8260679999999923
21
-118.0746740000000017
0
LINE
8
BLACK
6
CONTINUOUS
10
180.8260679999999923
20
-118.0746740000000017
11
180.8260679999999923
21
-116.3603889999999978
0
LINE
8
BLACK
6
CONTINUOUS
10
182.7308299999999974
20
-118.3603889999999978
11
182.7308299999999974
21
-117.3127700000000004
0
LINE
8
BLACK
6
CONTINUOUS
10
182.7308299999999974
20
-117.3127700000000004
11
182.6355920000000026
21
-117.1222929999999991
0
LINE
8
BLACK
6
CONTINUOUS
10
182.6355920000000026
20
-117.1222929999999991
11
182.4451159999999845
21
-117.0270549999999901
0
LINE
8
BLACK
6
CONTINUOUS
10
182.4451159999999845
20
-117.0270549999999901
11
182.0641629999999793
21
-117.0270549999999901
0
LINE
8
BLACK
6
CONTINUOUS
10
182.0641629999999793
20
-117.0270549999999901
11
181.8736869999999897
21
-117.1222929999999991
0
LINE
8
BLACK
6
CONTINUOUS
10
182.7308299999999974
20
-118.2651509999999888
11
182.5403539999999794
21
-118.3603889999999978
0
LINE
8
BLACK
6
CONTINUOUS
10
182.5403539999999794
20
-118.3603889999999978
11
182.0641629999999793
21
-118.3603889999999978
0
LINE
8
BLACK
6
CONTINUOUS
10
182.0641629999999793
20
-118.3603889999999978
11
181.8736869999999897
21
-118.2651509999999888
0
LINE
8
BLACK
6
CONTINUOUS
10
181.8736869999999897
20
-118.2651509999999888
11
181.7784489999999948
21
-118.0746740000000017
0
LINE
8
BLACK
6
CONTINUOUS
10
181.7784489999999948
20
-118.0746740000000017
11
181.7784489999999948
21
-117.8841979999999978
0
LINE
8
BLACK
6
CONTINUOUS
10
181.7784489999999948
20
-117.8841979999999978
11
181.8736869999999897
21
-117.693721999999994
0
LINE
8
BLACK
6
CONTINUOUS
10
181.8736869999999897
20
-117.693721999999994
11
182.0641629999999793
21
-117.5984839999999991
0
LINE
8
BLACK
6
CONTINUOUS
10
182.0641629999999793
20
-117.5984839999999991
11
182.5403539999999794
21
-117.5984839999999991
0
LINE
8
BLACK
6
CONTINUOUS
10
182.5403539999999794
20
-117.5984839999999991
11
182.7308299999999974
21
-117.5032459999999901
0
LINE
8
BLACK
6
CONTINUOUS
10
183.3974969999999871
20
-117.0270549999999901
11
184.1594010000000026
21
-117.0270549999999901
0
LINE
8
BLACK
6
CONTINUOUS
10
183.683211
20
-116.3603889999999978
11
183.683211
21
-118.0746740000000017
0
LINE
8
BLACK
6
CONTINUOUS
10
183.683211
20
-118.0746740000000017
11
183.7784489999999948
21
-118.2651509999999888
0
LINE
8
BLACK
6
CONTINUOUS
10
183.7784489999999948
20
-118.2651509999999888
11
183.9689249999999845
21
-118.3603889999999978
0
LINE
8
BLACK
6
CONTINUOUS
10
183.9689249999999845
20
-118.3603889999999978
11
184.1594010000000026
21
-118.3603889999999978
0
LINE
8
BLACK
6
CONTINUOUS
10
185.5879730000000052
20
-118.2651509999999888
11
185.3974969999999871
21
-118.3603889999999978
0
LINE
8
BLACK
6
CONTINUOUS
10
185.3974969999999871
20
-118.3603889999999978
11
185.0165439999999819
21
-118.3603889999999978
0
LINE
8
BLACK
6
CONTINUOUS
10
185.0165439999999819
20
-118.3603889999999978
11
184.8260679999999923
21
-118.2651509999999888
0
LINE
8
BLACK
6
CONTINUOUS
10
184.8260679999999923
20
-118.2651509999999888
11
184.7308299999999974
21
-118.0746740000000017
0
LINE
8
BLACK
6
CONTINUOUS
10
184.7308299999999974
20
-118.0746740000000017
11
184.7308299999999974
21
-117.3127700000000004
0
LINE
8
BLACK
6
CONTINUOUS
10
184.7308299999999974
20
-117.3127700000000004
11
184.8260679999999923
21
-117.1222929999999991
0
LINE
8
BLACK
6
CONTINUOUS
10
184.8260679999999923
20
-117.1222929999999991
11
185.0165439999999819
21
-117.0270549999999901
0
LINE
8
BLACK
6
CONTINUOUS
10
185.0165439999999819
20
-117.0270549999999901
11
185.3974969999999871
21
-117.0270549999999901
0
LINE
8
BLACK
6
CONTINUOUS
10
185.3974969999999871
20
-117.0270549999999901
11
185.5879730000000052
21
-117.1222929999999991
0
LINE
8
BLACK
6
CONTINUOUS
10
185.5879730000000052
20
-117.1222929999999991
11
185.683211
21
-117.3127700000000004
0
LINE
8
BLACK
6
CONTINUOUS
10
185.683211
20
-117.3127700000000004
11
185.683211
21
-117.5032459999999901
0
LINE
8
BLACK
6
CONTINUOUS
10
185.683211
20
-117.5032459999999901
11
184.7308299999999974
21
-117.693721999999994
0
LINE
8
BLACK
6
CONTINUOUS
10
187.3974969999999871
20
-118.3603889999999978
11
187.3974969999999871
21
-116.3603889999999978
0
LINE
8
BLACK
6
CONTINUOUS
10
187.3974969999999871
20
-118.2651509999999888
11
187.2070209999999975
21
-118.3603889999999978
0
LINE
8
BLACK
6
CONTINUOUS
10
187.2070209999999975
20
-118.3603889999999978
11
186.8260679999999923
21
-118.3603889999999978
0
LINE
8
BLACK
6
CONTINUOUS
10
186.8260679999999923
20
-118.3603889999999978
11
186.6355920000000026
21
-118.2651509999999888
0
LINE
8
BLACK
6
CONTINUOUS
10
186.6355920000000026
20
-118.2651509999999888
11
186.5403539999999794
21
-118.1699119999999965
0
LINE
8
BLACK
6
CONTINUOUS
10
186.5403539999999794
20
-118.1699119999999965
11
186.4451159999999845
21
-117.9794359999999926
0
LINE
8
BLACK
6
CONTINUOUS
10
186.4451159999999845
20
-117.9794359999999926
11
186.4451159999999845
21
-117.4080079999999953
0
LINE
8
BLACK
6
CONTINUOUS
10
186.4451159999999845
20
-117.4080079999999953
11
186.5403539999999794
21
-117.2175309999999939
0
LINE
8
BLACK
6
CONTINUOUS
10
186.5403539999999794
20
-117.2175309999999939
11
186.6355920000000026
21
-117.1222929999999991
0
LINE
8
BLACK
6
CONTINUOUS
10
186.6355920000000026
20
-117.1222929999999991
11
186.8260679999999923
21
-117.0270549999999901
0
LINE
8
BLACK
6
CONTINUOUS
10
186.8260679999999923
20
-117.0270549999999901
11
187.2070209999999975
21
-117.0270549999999901
0
LINE
8
BLACK
6
CONTINUOUS
10
187.2070209999999975
20
-117.0270549999999901
11
187.3974969999999871
21
-117.1222929999999991
0
LINE
8
BLACK
6
CONTINUOUS
10
188.159402
20
-119.1222929999999991
11
188.2546399999999949
21
-119.0270549999999901
0
LINE
8
BLACK
6
CONTINUOUS
10
188.2546399999999949
20
-119.0270549999999901
11
188.4451159999999845
21
-118.7413409999999914
0
LINE
8
BLACK
6
CONTINUOUS
10
188.4451159999999845
20
-118.7413409999999914
11
188.5403539999999794
21
-118.5508650000000017
0
LINE
8
BLACK
6
CONTINUOUS
10
188.5403539999999794
20
-118.5508650000000017
11
188.6355920000000026
21
-118.2651509999999888
0
LINE
8
BLACK
6
CONTINUOUS
10
188.6355920000000026
20
-118.2651509999999888
11
188.7308299999999974
21
-117.7889599999999888
0
LINE
8
BLACK
6
CONTINUOUS
10
188.7308299999999974
20
-117.7889599999999888
11
188.7308299999999974
21
-117.4080079999999953
0
LINE
8
BLACK
6
CONTINUOUS
10
188.7308299999999974
20
-117.4080079999999953
11
188.6355920000000026
21
-116.9318169999999952
0
LINE
8
BLACK
6
CONTINUOUS
10
188.6355920000000026
20
-116.9318169999999952
11
188.5403539999999794
21
-116.6461029999999965
0
LINE
8
BLACK
6
CONTINUOUS
10
188.5403539999999794
20
-116.6461029999999965
11
188.4451159999999845
21
-116.4556269999999927
0
LINE
8
BLACK
6
CONTINUOUS
10
188.4451159999999845
20
-116.4556269999999927
11
188.2546399999999949
21
-116.1699119999999965
0
LINE
8
BLACK
6
CONTINUOUS
10
188.2546399999999949
20
-116.1699119999999965
11
188.159402
21
-116.0746740000000017
  0
ENDSEC
  0
EOF
